<svg width="24" height="24" viewBox="0 0 24 24" xmlns="http://www.w3.org/2000/svg" xmlns:xlink="http://www.w3.org/1999/xlink"><title>Form/Button/Tips</title><defs><linearGradient x1="50%" y1="0%" x2="50%" y2="100%" id="c"><stop stop-color="#FEFEFE" offset="0%"/><stop stop-color="#F9F9F9" offset="100%"/></linearGradient><circle id="b" cx="12" cy="12" r="11"/><filter x="-9.1%" y="-4.5%" width="118.2%" height="118.2%" filterUnits="objectBoundingBox" id="a"><feOffset dy="1" in="SourceAlpha" result="shadowOffsetOuter1"/><feGaussianBlur stdDeviation=".5" in="shadowOffsetOuter1" result="shadowBlurOuter1"/><feColorMatrix values="0 0 0 0 0 0 0 0 0 0 0 0 0 0 0 0 0 0 0.04 0" in="shadowBlurOuter1"/></filter><filter x="-6.8%" y="-2.3%" width="113.6%" height="113.6%" filterUnits="objectBoundingBox" id="d"><feGaussianBlur stdDeviation=".5" in="SourceAlpha" result="shadowBlurInner1"/><feOffset in="shadowBlurInner1" result="shadowOffsetInner1"/><feComposite in="shadowOffsetInner1" in2="SourceAlpha" operator="arithmetic" k2="-1" k3="1" result="shadowInnerInner1"/><feColorMatrix values="0 0 0 0 0 0 0 0 0 0 0 0 0 0 0 0 0 0 0.4 0" in="shadowInnerInner1"/></filter><linearGradient x1="50%" y1="0%" x2="50%" y2="100%" id="g"><stop stop-color="#0465FC" offset="0%"/><stop stop-color="#0434FC" offset="100%"/></linearGradient><path d="M12.144 7c-.97 0-1.73.288-2.292.865C9.275 8.442 9 9.24 9 10.255h1.493c0-.576.105-1.03.328-1.346.249-.384.655-.563 1.231-.563.446 0 .8.124 1.048.385.236.26.367.618.367 1.071 0 .344-.118.673-.353.975l-.158.193c-.851.796-1.362 1.373-1.532 1.744-.184.371-.262.824-.262 1.346v.193h1.506v-.193c0-.33.066-.618.197-.892.118-.248.288-.481.524-.687.628-.577 1.008-.948 1.126-1.085.315-.44.485-1.003.485-1.69 0-.838-.262-1.497-.786-1.978C13.69 7.234 12.996 7 12.144 7zm-.236 7.926a.984.984 0 0 0-1.008 1.03c0 .302.091.55.288.742a.996.996 0 0 0 .72.302.984.984 0 0 0 .72-.288c.197-.193.302-.454.302-.756s-.105-.55-.288-.742a1.014 1.014 0 0 0-.734-.288z" id="f"/><filter x="-116.7%" y="-50%" width="333.3%" height="240%" filterUnits="objectBoundingBox" id="e"><feOffset dy="2" in="SourceAlpha" result="shadowOffsetOuter1"/><feGaussianBlur stdDeviation="2" in="shadowOffsetOuter1" result="shadowBlurOuter1"/><feColorMatrix values="0 0 0 0 1 0 0 0 0 1 0 0 0 0 1 0 0 0 1 0" in="shadowBlurOuter1"/></filter></defs><g fill="none" fill-rule="evenodd"><g transform="translate(0 -1)"><use fill="#000" filter="url(#a)" xlink:href="#b"/><use fill="url(#c)" xlink:href="#b"/><use fill="#000" filter="url(#d)" xlink:href="#b"/></g><g transform="translate(0 -1)"><use fill="#000" filter="url(#e)" xlink:href="#f"/><use fill="url(#g)" xlink:href="#f"/></g></g></svg>