<svg width="16" height="10" viewBox="0 0 16 10" xmlns="http://www.w3.org/2000/svg"><title>Group 3</title><g stroke="#000" fill="none" fill-rule="evenodd" stroke-linecap="round" stroke-linejoin="round"><g stroke-width=".933"><path d="M12.03 9.342c1.612 0 2.928-1.326 2.928-2.952s-1.316-2.952-2.928-2.952c-.17 0-.297 0-.466.043-.68-1.369-2.037-2.31-3.649-2.31A4.058 4.058 0 0 0 3.97 4.294h-.085c-1.4 0-2.503 1.155-2.503 2.524s1.145 2.524 2.503 2.524"/><path d="M9.782 4.422c.551-.641 1.315-1.026 2.206-1.026 1.612 0 2.927 1.326 2.927 2.951 0 1.626-1.315 2.952-2.927 2.952"/></g><g stroke-width=".857"><path d="M6.325 8.951l-1.208-.924 1.208-.89M9.364 8.951l1.207-.924-1.207-.89M8.35 6.32L7.3 9.769"/></g></g></svg>