<svg width="14" height="11" viewBox="0 0 14 11" xmlns="http://www.w3.org/2000/svg"><title>Group</title><g stroke="#000" fill="none" fill-rule="evenodd"><path d="M5.455 5.822H5.5c.182-.8.955-1.422 1.818-1.422.727 0 1.364.4 1.682 1.022h.227c.773 0 1.364.578 1.364 1.334 0 .755-.591 1.333-1.364 1.333H5.455c-.637 0-1.182-.533-1.182-1.156 0-.622.5-1.11 1.182-1.11z" stroke-linecap="round" stroke-linejoin="round"/><path d="M9.227 8.133c.773 0 1.364-.577 1.364-1.333S10 5.467 9.227 5.467c-.409 0-.772.177-1.045.444" stroke-linecap="round" stroke-linejoin="round"/><path d="M.5 2.487V10a.5.5 0 0 0 .5.5h12a.5.5 0 0 0 .5-.5V2.987a.5.5 0 0 0-.5-.5H6.306L5.666.568A.1.1 0 0 0 5.571.5H1.002a.5.5 0 0 0-.5.5L.501 2.486H.5z"/></g></svg>