<svg width="14" height="11" viewBox="0 0 14 11" xmlns="http://www.w3.org/2000/svg"><title>Fill 1</title><path d="M12.76 4.576a3.752 3.752 0 0 0-1.718-.884c-1.122-.243-2.291.06-3.06.914l-3.197 3.55c-.537.596-1.518.6-2.271.04l-.002.001a2.117 2.117 0 0 1-.16-.13c-.767-.69-.923-1.77-.347-2.409.406-.45 1.024-.52 1.584-.365.55.151 1.072.52 1.559-.02.493-.548.053-1.022-.16-1.552-.214-.532-.181-1.174.214-1.614.405-.45 1.064-.56 1.687-.347.457.156 1.04.298 1.457-.039a.635.635 0 0 0 .233-.402C8.64.812 8.146.497 7.75.32 6.435-.27 4.904-.045 3.967.995c-.634.705-.866 1.642-.727 2.56-.928-.042-1.835.286-2.47.991C-.418 5.866-.207 8 1.24 9.302c.052.047.107.088.16.132a3.754 3.754 0 0 0 1.56.75c1.122.242 2.29-.062 3.06-.915l3.197-3.55c.576-.64 1.665-.599 2.432.092.767.691.923 1.77.347 2.41-.427.473-1.137.573-1.79.31-.41-.179-.876-.183-1.22 0-.468.248-.487.775-.042 1.176.1.091.218.165.343.227l.06.03c.812.391 1.713.468 2.512.23a2.977 2.977 0 0 0 1.372-.862c1.188-1.32.977-3.453-.47-4.756" fill="#181818" fill-rule="evenodd"/></svg>