<svg width="14" height="10" viewBox="0 0 14 10" xmlns="http://www.w3.org/2000/svg"><title>Icon Upload</title><g fill-rule="nonzero" fill="#181818"><path d="M13.057 4.549a3.241 3.241 0 0 0-2.305-.96c-.783 0-1.457.267-2.046.74-.257.206-.526.453-.864.778L2.798 9.939c.255.036.607.047.92.048.294.002 5.896.002 6.13.002.472 0 .78 0 1.11-.025.756-.054 1.471-.328 2.049-.888a3.17 3.17 0 0 0 .05-4.527zM12.12 8.18c-.249.243-.692.518-1.42.543-.337.011-.73.012-.91.012H5.877l2.806-2.69c.13-.124.42-.398.67-.62.55-.49 1.044-.588 1.394-.584a2.005 2.005 0 0 1 1.403.583c.763.769.745 1.998-.03 2.756zM5.19 4.248c-.573-.423-1.214-.66-1.942-.659-.906 0-1.72.371-2.305.96a3.17 3.17 0 0 0 .05 4.527c.515.5 1.14.77 1.805.863l1.255-1.203c-.203 0-.494-.004-.752-.012-.729-.025-1.172-.3-1.42-.543a1.935 1.935 0 0 1-.031-2.756 2.005 2.005 0 0 1 1.403-.583c.343-.002.81.097 1.337.528.259.212.845.72 1.076.928l.91-.876c-.417-.372-1.024-.908-1.386-1.174z"/><path d="M11.092 2.866A4.338 4.338 0 0 0 7 .011c-2.167 0-3.963 1.573-4.288 3.623a3.269 3.269 0 0 1 1.268.04l.014.002A3.064 3.064 0 0 1 7 1.266c1.227 0 2.303.73 2.789 1.765.007.016.02.022.034.018a3.768 3.768 0 0 1 1.225-.126c.041.003.057-.02.044-.057z"/></g></svg>