<svg width="9" height="9" viewBox="0 0 9 9" xmlns="http://www.w3.org/2000/svg"><title>Group</title><g fill="#5E5E5E" fill-rule="evenodd"><path d="M5 1.035V0H4v1.035a3.53 3.53 0 0 1 1 0zm0 6.93V9H4V7.965a3.53 3.53 0 0 0 1 0zM7.303 2.404l.733-.732-.708-.708-.732.733c.268.2.506.439.707.707zm-4.9 4.9l-.731.732-.708-.708.733-.732c.2.268.439.506.707.707zM7.965 5H9V4H7.965a3.53 3.53 0 0 1 0 1zm-6.93 0H0V4h1.035a3.53 3.53 0 0 0 0 1zM6.596 7.303l.732.733.708-.708-.733-.732c-.2.268-.439.506-.707.707zm-4.9-4.9l-.732-.731.708-.708.732.733c-.268.2-.506.439-.707.707z"/><path d="M4.5 8a3.5 3.5 0 1 1 0-7 3.5 3.5 0 0 1 0 7zm0-1a2.5 2.5 0 1 0 0-5 2.5 2.5 0 0 0 0 5z"/></g></svg>