<svg width="19" height="19" viewBox="0 0 19 19" xmlns="http://www.w3.org/2000/svg"><title>Project Copy 2</title><g fill="none" fill-rule="evenodd"><path d="M3.419 12.95C1.943 11.913 1 10.376 1 8.668 1 5.537 4.134 3 8 3s7 2.537 7 5.667-3.134 5.667-7 5.667c-.799 0-1.57-.11-2.285-.31a.728.728 0 0 0-.206-.03.751.751 0 0 0-.371.104l-1.533.86A.272.272 0 0 1 3.47 15a.23.23 0 0 1-.233-.227c0-.056.023-.112.038-.165l.315-1.144a.449.449 0 0 0-.172-.514" stroke="#191919" stroke-width=".875"/><path d="M10.45 7.76a.92.92 0 0 1-.933-.906c0-.501.417-.907.933-.907a.92.92 0 0 1 .933.907.92.92 0 0 1-.933.906M5.783 7.76a.92.92 0 0 1-.933-.906c0-.501.418-.907.933-.907a.92.92 0 0 1 .933.907.92.92 0 0 1-.933.906" fill="#191919"/></g></svg>