<svg width="54" height="32" viewBox="0 0 54 32" xmlns="http://www.w3.org/2000/svg"><title>Group 4</title><g fill="none" fill-rule="evenodd" opacity=".05"><path d="M32.294 25.63c9.584-3.497 13.677-12.89 14.172-24.101.022-.506.02-.675.02-.675A.845.845 0 0 0 45.638 0H.86C.386 0-.002.351.003.784c0 0-.006-.26 0 0C.26 12.324 4.369 22.056 14.188 25.63h18.106zM4.487 30.154c0-.833.683-1.508 1.517-1.508H40.47c.837 0 1.516.67 1.516 1.508 0 .833-.683 1.508-1.516 1.508H6.004c-.838 0-1.517-.67-1.517-1.508z" fill="#000"/><ellipse stroke="#000" stroke-width="3.6" cx="46.487" cy="7.538" rx="5.7" ry="5.738"/></g></svg>