<svg width="14" height="14" viewBox="0 0 14 14" xmlns="http://www.w3.org/2000/svg"><g fill="none" fill-rule="evenodd"><path stroke="#17A8E2" d="M.5.5h13v13H.5z"/><path d="M7.194 6.962v.892H5.687V12h-1.06V7.854H3.113v-.892h4.08zm1.377 3.483c.032.23.095.402.188.516.171.207.464.311.879.311.248 0 .45-.027.605-.082.294-.105.44-.3.44-.585a.431.431 0 0 0-.218-.386c-.146-.089-.375-.167-.687-.236l-.533-.12c-.524-.118-.887-.246-1.087-.385-.34-.233-.51-.596-.51-1.09 0-.452.164-.827.493-1.125.328-.299.81-.448 1.445-.448.531 0 .984.14 1.36.422.374.281.57.69.589 1.225h-1.012c-.018-.303-.15-.518-.397-.646a1.33 1.33 0 0 0-.611-.126c-.272 0-.488.055-.65.164a.522.522 0 0 0-.242.458c0 .18.08.314.239.403.102.06.321.13.656.209l.868.208c.38.091.668.213.862.366.3.237.45.58.45 1.029 0 .46-.175.842-.527 1.147-.352.304-.85.456-1.492.456-.657 0-1.173-.15-1.549-.45-.376-.3-.564-.711-.564-1.235h1.005z" fill="#17A8E2"/></g></svg>