<svg width="18" height="8" viewBox="0 0 18 8" xmlns="http://www.w3.org/2000/svg"><title>Group 11</title><g fill="#000" fill-rule="evenodd"><path d="M1.547 4.398l1.98 1.98a.2.2 0 0 0 .283 0l.424-.424a.2.2 0 0 0 0-.283l-1.98-1.98 1.98-1.98a.2.2 0 0 0 0-.283l-.424-.424a.2.2 0 0 0-.283 0L1.264 3.267l-.283.283a.2.2 0 0 0 0 .282l.283.283.283.283zM16.79 4.398l-1.98 1.98a.2.2 0 0 1-.283 0l-.425-.424a.2.2 0 0 1 0-.283l1.98-1.98-1.98-1.98a.2.2 0 0 1 0-.283l.425-.424a.2.2 0 0 1 .283 0l2.262 2.263.283.283a.2.2 0 0 1 0 .282l-.283.283-.283.283zM11.005.858L7.407 7.09l-.866-.5L10.139.358z"/></g></svg>