<svg width="14" height="14" viewBox="0 0 14 14" xmlns="http://www.w3.org/2000/svg"><title>Group 7</title><g fill="none" fill-rule="evenodd"><circle stroke="#FA5151" stroke-width="1.2" cx="7" cy="7" r="6.4"/><path d="M6.563 3.5h.875c.096 0 .175.078.175.175v4.638a.175.175 0 0 1-.176.175h-.875a.175.175 0 0 1-.175-.175V3.675c0-.097.079-.175.176-.175zm0 5.775h.875c.096 0 .175.078.175.175v.875a.175.175 0 0 1-.176.175h-.875a.175.175 0 0 1-.175-.175V9.45c0-.097.079-.175.176-.175z" fill="#FA5151"/></g></svg>