<svg width="17" height="7" viewBox="0 0 17 7" xmlns="http://www.w3.org/2000/svg"><title>Group 2</title><g fill="none" fill-rule="evenodd"><path d="M2.156.2v2.38L.867.109A.2.2 0 0 0 .69 0H.2a.2.2 0 0 0-.2.2v4.445c0 .11.09.2.2.2h.503a.2.2 0 0 0 .2-.2V2.113l1.38 2.625a.2.2 0 0 0 .177.107h.399a.2.2 0 0 0 .2-.2V.2a.2.2 0 0 0-.2-.2h-.503a.2.2 0 0 0-.2.2zM5.227 2.54v1.002c0 .227-.111.457-.36.457h-.26c-.249 0-.36-.23-.36-.457V2.54c0-.227.111-.456.36-.456h.26c.249 0 .36.229.36.456M4.94 1.186h-.406c-.666 0-1.209.576-1.209 1.284v1.135c0 .708.543 1.284 1.21 1.284h.405c.666 0 1.208-.576 1.208-1.284V2.47c0-.708-.542-1.284-1.208-1.284M7.781 3.999h-.236c-.255 0-.275-.297-.275-.388V2.552c0-.078.017-.47.348-.47h.254c.144 0 .315.062.323.224v1.198c0 .234-.177.495-.414.495zm.426-2.754a1.153 1.153 0 0 0-.372-.06h-.29c-.671 0-1.197.565-1.197 1.285v1.312c0 .62.462 1.107 1.052 1.107h.314a1.2 1.2 0 0 0 .5-.107v.063h.903V.2a.2.2 0 0 0-.2-.2h-.51a.2.2 0 0 0-.2.2v1.045zM10.282 2.536c.039-.15-.006-.471.336-.485h.254c.35-.003.298.357.33.485h-.92zm1.635.806h-.506a.197.197 0 0 0-.197.198v.021c0 .217-.091.47-.348.47h-.23c-.255 0-.372-.237-.372-.457v-.42h1.653a.2.2 0 0 0 .2-.2v-.497c0-.713-.525-1.271-1.196-1.271H10.6c-.68 0-1.233.57-1.233 1.271v1.148c0 .732.514 1.284 1.196 1.284h.358c.682 0 1.196-.557 1.196-1.296v-.05a.2.2 0 0 0-.2-.2z" fill="#4A4A4A"/><path d="M12.437 4.88c0 .21-.074.317-.22.317h-.295a.2.2 0 0 0-.2.2v.484c0 .11.09.2.2.2h.434c.565 0 1.008-.472 1.008-1.076V1.983a.2.2 0 0 0-.2-.2h-.527a.2.2 0 0 0-.2.2v2.896zM12.537 1.257h.727a.1.1 0 0 0 .1-.1V.415a.1.1 0 0 0-.1-.1h-.727a.1.1 0 0 0-.1.1v.742a.1.1 0 0 0 .1.1zM14.968 2.573c-.408 0-.408-.178-.408-.254V2.28c0-.195.195-.224.311-.224h.182c.317 0 .317.162.317.223v.005c0 .11.09.2.2.2h.516a.2.2 0 0 0 .2-.2v-.023c0-.604-.502-1.076-1.142-1.076h-.345c-.662 0-1.16.473-1.16 1.101v.114c0 .657.495 1.082 1.263 1.082h.109c.402 0 .402.201.402.267v.044c0 .165-.167.224-.324.224h-.248c-.347 0-.347-.131-.347-.202v-.005a.2.2 0 0 0-.2-.2h-.516a.2.2 0 0 0-.2.2v.021c0 .593.504 1.057 1.148 1.057h.478c.64 0 1.142-.475 1.142-1.082v-.158c0-.643-.507-1.076-1.263-1.076h-.115z" fill="#74BF1B"/></g></svg>