<svg width="14" height="6" viewBox="0 0 14 6" xmlns="http://www.w3.org/2000/svg"><title>WXS</title><path d="M2.88 2.361h.056l.694 3.25a.3.3 0 0 0 .293.237h.574a.3.3 0 0 0 .294-.24L5.832.516a.3.3 0 0 0-.293-.36h-.543A.3.3 0 0 0 4.7.41l-.544 3.521H4.1L3.41.398a.3.3 0 0 0-.295-.242h-.412A.3.3 0 0 0 2.41.4l-.667 3.531h-.056L1.133.41A.3.3 0 0 0 .837.156H.285a.3.3 0 0 0-.294.36l1.04 5.092a.3.3 0 0 0 .295.24h.58a.3.3 0 0 0 .293-.238l.682-3.249zm3.616 3.485h.54a.3.3 0 0 0 .27-.172l.771-1.63h.059l.765 1.63a.3.3 0 0 0 .271.172h.602a.3.3 0 0 0 .269-.433L8.846 2.99 10.051.588a.3.3 0 0 0-.268-.434h-.575a.3.3 0 0 0-.276.182l-.728 1.703h-.059L7.423.337a.3.3 0 0 0-.276-.183h-.644a.3.3 0 0 0-.27.43l1.156 2.39-1.163 2.443a.3.3 0 0 0 .27.43zm3.802-1.278C10.446 5.461 11.12 6 12.123 6 13.29 6 14 5.282 14 4.095c0-.904-.395-1.413-1.275-1.63l-.574-.142c-.47-.118-.667-.3-.667-.611 0-.379.262-.62.66-.62a.7.7 0 0 1 .642.38.546.546 0 0 1 .035.089.3.3 0 0 0 .287.214h.62a.174.174 0 0 0 .174-.192C13.804.635 13.108 0 12.13 0c-1.074 0-1.772.73-1.772 1.842 0 .896.42 1.464 1.235 1.661l.587.15c.509.13.703.3.703.615 0 .375-.29.635-.713.635-.302 0-.545-.11-.686-.299a.615.615 0 0 1-.081-.173.3.3 0 0 0-.285-.206h-.528a.295.295 0 0 0-.29.343z" fill="#2C9F67" fill-rule="evenodd"/></svg>