<svg width="16" height="15" viewBox="0 0 16 15" xmlns="http://www.w3.org/2000/svg"><title>文件-JS Copy 2</title><g transform="translate(0 -1)" fill="none" fill-rule="evenodd"><path d="M13.5 4.545L10.936 1.5H2.6a.1.1 0 0 0-.1.1v13.8a.1.1 0 0 0 .1.1h10.8a.1.1 0 0 0 .1-.1V4.545z" stroke="#000"/><rect fill="#1A8CC2" y="6" width="16" height="10" rx="1"/><path d="M4.044 13.058l-.782.567c.366.54.922.817 1.666.835a2.113 2.113 0 0 0 1.42-.55c.41-.35.62-.849.632-1.493V8h-.971v4.32c0 .217-.034.397-.101.54a.91.91 0 0 1-.268.36c-.235.185-.48.275-.739.269a.925.925 0 0 1-.505-.136 1.05 1.05 0 0 1-.352-.295zm4.215 1.35h.971V9.853h.018l2.896 4.553h.918V8h-.971v4.553h-.018L9.173 8h-.914v6.407z" fill="#FFF"/></g></svg>