<svg width="13" height="7" viewBox="0 0 13 7" xmlns="http://www.w3.org/2000/svg"><title>Group 2</title><g fill="#7879B5" stroke="#7879B5" stroke-width=".4" fill-rule="evenodd" stroke-linecap="round" stroke-linejoin="round"><path d="M.405 6V.728h1.628c.81 0 1.462.652 1.462 1.462v.353a1.46 1.46 0 0 1-1.462 1.462h-.968V6h-.66zm.66-2.587h.938c.464 0 .84-.383.84-.848v-.397a.845.845 0 0 0-.84-.848h-.938v2.093zM4.714 6V.728h.66v2.34h1.995V.728h.652V6H7.37V3.66H5.374V6zM9.24 6V.728h1.627c.81 0 1.463.652 1.463 1.462v.353a1.46 1.46 0 0 1-1.463 1.462H9.9V6h-.66zm.66-2.587h.938c.465 0 .84-.383.84-.848v-.397a.845.845 0 0 0-.84-.848H9.9v2.093z"/></g></svg>