<svg width="14" height="6" viewBox="0 0 14 6" xmlns="http://www.w3.org/2000/svg"><title>Group</title><g fill="#F5641A" fill-rule="evenodd"><path d="M.155 3.643l3.993 2.203a.3.3 0 0 0 .416-.133l.313-.657a.3.3 0 0 0-.129-.393L1.658 3l3.09-1.638A.3.3 0 0 0 4.88.97L4.563.29a.3.3 0 0 0-.417-.135L.155 2.364A.3.3 0 0 0 0 2.627v.753c0 .11.06.21.155.263zM13.845 3.643L9.852 5.846a.3.3 0 0 1-.416-.133l-.313-.657a.3.3 0 0 1 .129-.393L12.342 3l-3.09-1.638A.3.3 0 0 1 9.12.97L9.437.29a.3.3 0 0 1 .417-.135l3.991 2.208a.3.3 0 0 1 .155.263v.753a.3.3 0 0 1-.155.263z"/></g></svg>