<svg width="16" height="7" viewBox="0 0 16 7" xmlns="http://www.w3.org/2000/svg"><title>WXS</title><path d="M2.17 6L1.195.728h.645l.772 4.335.863-4.335h.682l.825 4.342.81-4.343h.623L5.402 6h-.825L3.79 2.01 2.965 6H2.17zm5.16 0l1.32-2.633L7.338.727h.667l1.043 2.078 1.05-2.078h.667L9.445 3.36 10.773 6h-.683L9.048 3.922 8.005 6H7.33zm4.335-1.342v-.346h.645v.338c0 .457.36.832.818.832h.33c.502 0 .817-.382.817-.862v-.143c0-.457-.247-.832-.922-.832h-.143c-.952 0-1.492-.675-1.492-1.395v-.247c0-.766.637-1.35 1.417-1.35h.368c.787 0 1.357.637 1.357 1.424v.353h-.637v-.345c0-.457-.33-.84-.795-.84h-.255a.778.778 0 0 0-.795.78v.158c0 .457.27.87.922.87h.158c1.005 0 1.477.6 1.477 1.387v.21c0 .787-.57 1.425-1.395 1.425h-.472c-.788 0-1.403-.63-1.403-1.417z" fill="#2C9F67" stroke="#2C9F67" stroke-width=".4" fill-rule="evenodd" stroke-linejoin="round"/></svg>