<svg width="12" height="10" viewBox="0 0 12 10" xmlns="http://www.w3.org/2000/svg"><title>JS</title><path d="M.804 7.563l-.648.484a.4.4 0 0 0-.01.634c.67.532 1.284.805 1.842.819a2.784 2.784 0 0 0 1.902-.76c.55-.485.832-1.173.848-2.064V.973a.4.4 0 0 0-.4-.4h-.501a.4.4 0 0 0-.4.4v5.57c0 .3-.046.548-.136.746a1.256 1.256 0 0 1-.36.498c-.313.256-.643.379-.989.37-.259 0-.484-.062-.677-.187-.128-.07-.285-.206-.471-.407zm5.54-.033l-.332.392a.4.4 0 0 0 .11.607c1.15.647 2.104.971 2.863.971 1.967-.024 2.972-.883 3.015-2.575 0-.627-.19-1.178-.571-1.652-.385-.482-.98-.78-1.785-.892-.408-.053-.73-.1-.966-.14-.424-.081-.732-.227-.924-.437a.991.991 0 0 1-.289-.693c.008-.425.151-.745.43-.96.267-.206.6-.309 1.001-.309.455.01 1.06.187 1.816.533a.4.4 0 0 0 .501-.144l.287-.438a.4.4 0 0 0-.16-.58C10.38.752 9.586.514 8.96.5c-.887.008-1.573.247-2.055.717-.5.473-.748 1.097-.748 1.87 0 .644.198 1.19.594 1.64.385.437.947.718 1.685.844l1.137.164c.753.133 1.126.53 1.119 1.19-.016.806-.582 1.217-1.697 1.233-.567-.005-1.286-.245-2.155-.72a.4.4 0 0 0-.497.092z" fill="#FCAD00" fill-rule="evenodd"/></svg>