<svg width="16" height="5" viewBox="0 0 16 5" xmlns="http://www.w3.org/2000/svg"><title>WXS</title><path d="M2.494 1.968h.048l.592 2.67a.3.3 0 0 0 .293.236h.435a.3.3 0 0 0 .294-.238l.88-4.144A.3.3 0 0 0 4.741.13h-.384a.3.3 0 0 0-.296.252l-.464 2.894H3.55L2.96.37a.3.3 0 0 0-.294-.24h-.294a.3.3 0 0 0-.294.242l-.57 2.904H1.46L.99.382A.3.3 0 0 0 .692.13H.3a.3.3 0 0 0-.293.362l.88 4.144a.3.3 0 0 0 .293.238h.44a.3.3 0 0 0 .293-.237l.581-2.67zm3.201 2.904h.372a.3.3 0 0 0 .27-.168l.654-1.335h.051l.65 1.334a.3.3 0 0 0 .27.169h.424a.3.3 0 0 0 .267-.437l-.996-1.943L8.66.567a.3.3 0 0 0-.266-.439h-.4a.3.3 0 0 0-.275.179L7.101 1.7h-.05L6.436.307a.3.3 0 0 0-.275-.179h-.46a.3.3 0 0 0-.269.435l.963 1.916-.97 1.96a.3.3 0 0 0 .27.433zm3.456-1.065C9.279 4.55 9.86 5 10.73 5c1.009 0 1.623-.598 1.623-1.588 0-.753-.342-1.177-1.103-1.357l-.497-.119c-.406-.098-.577-.25-.577-.51 0-.315.227-.515.572-.515a.61.61 0 0 1 .555.315.387.387 0 0 1 .022.052.3.3 0 0 0 .284.201h.516a.145.145 0 0 0 .144-.16C12.185.53 11.582 0 10.735 0c-.93 0-1.533.608-1.533 1.535 0 .746.363 1.22 1.069 1.384l.507.125c.441.109.61.25.61.513 0 .312-.252.53-.618.53-.262 0-.471-.092-.594-.25a.461.461 0 0 1-.062-.12.3.3 0 0 0-.281-.196h-.441a.245.245 0 0 0-.241.286zm3.649 0C12.928 4.55 13.51 5 14.378 5 15.386 5 16 4.402 16 3.412c0-.753-.342-1.177-1.102-1.357l-.496-.119c-.406-.098-.577-.25-.577-.51 0-.315.227-.515.571-.515.249 0 .453.121.555.315a.387.387 0 0 1 .022.052.3.3 0 0 0 .283.201h.515a.145.145 0 0 0 .144-.16C15.831.53 15.23 0 14.383 0c-.929 0-1.532.608-1.532 1.535 0 .746.363 1.22 1.068 1.384l.507.125c.44.109.608.25.608.513 0 .312-.25.53-.616.53-.262 0-.472-.092-.594-.25a.461.461 0 0 1-.062-.12.3.3 0 0 0-.281-.196h-.44a.245.245 0 0 0-.241.286z" fill="#006CBD" fill-rule="evenodd"/></svg>