<svg width="10" height="13" viewBox="0 0 10 13" xmlns="http://www.w3.org/2000/svg"><title>Group 9</title><g fill="#000" fill-rule="nonzero"><path d="M6 7.941v-2.6c0-.292.224-.529.5-.529h1.8L5 1.282l-3.3 3.53h1.8c.276 0 .5.237.5.53v2.6h2zm1 .53C7 8.763 6.776 9 6.5 9h-3c-.276 0-.5-.237-.5-.53v-2.6H.5c-.443 0-.667-.567-.354-.901L4.645.157a.48.48 0 0 1 .71 0l4.5 4.812c.312.334.088.902-.356.902H7v2.6zM7 10.3v.4a.3.3 0 0 1-.3.3H3.3a.3.3 0 0 1-.3-.3v-.4a.3.3 0 0 1 .3-.3h3.4a.3.3 0 0 1 .3.3zM7 12.3v.4a.3.3 0 0 1-.3.3H3.3a.3.3 0 0 1-.3-.3v-.4a.3.3 0 0 1 .3-.3h3.4a.3.3 0 0 1 .3.3z"/></g></svg>