<svg width="10" height="14" viewBox="0 0 10 14" xmlns="http://www.w3.org/2000/svg"><title>Shape Copy 5</title><path d="M.36 13.032c-.482.307-.157 1.051.395.906.22-.058.588-.18 1.054-.375.773-.325 1.54-.745 2.253-1.273 1.935-1.433 3.102-3.376 3.12-5.87l2.084-.11a.5.5 0 0 0 .33-.85L5.094.873a.5.5 0 0 0-.742.032L.177 5.947a.5.5 0 0 0 .411.818l2.375-.124c.13 3.46-.418 5.003-2.603 6.391zM3.939 6.09a.5.5 0 0 0-.526-.473l-1.74.09L4.77 1.97l3.337 3.4-1.46.077a.5.5 0 0 0-.474.526c.125 2.37-.894 4.173-2.705 5.515-.123.09-.247.178-.374.262.8-1.349.981-3.08.846-5.66z" fill="#000" fill-rule="nonzero"/></svg>