<svg width="16" height="16" viewBox="0 0 16 16" xmlns="http://www.w3.org/2000/svg" xmlns:xlink="http://www.w3.org/1999/xlink"><title>question</title><defs><path d="M8.144 3c-.97 0-1.73.288-2.292.865C5.275 4.442 5 5.24 5 6.255h1.493c0-.576.105-1.03.328-1.346.249-.384.655-.563 1.231-.563.446 0 .8.124 1.048.385.236.26.367.618.367 1.071 0 .344-.118.673-.353.975l-.158.193c-.851.796-1.362 1.373-1.532 1.744-.184.371-.262.824-.262 1.346v.193h1.506v-.193c0-.33.066-.618.197-.892.118-.248.288-.481.524-.687.628-.577 1.008-.948 1.126-1.085.315-.44.485-1.003.485-1.69 0-.838-.262-1.497-.786-1.978C9.69 3.234 8.996 3 8.144 3zm-.236 7.926a.984.984 0 0 0-1.008 1.03c0 .302.091.55.288.742a.996.996 0 0 0 .72.302.984.984 0 0 0 .72-.288c.197-.193.302-.454.302-.756s-.105-.55-.288-.742a1.014 1.014 0 0 0-.734-.288z" id="b"/><filter x="-116.7%" y="-50%" width="333.3%" height="240%" filterUnits="objectBoundingBox" id="a"><feOffset dy="2" in="SourceAlpha" result="shadowOffsetOuter1"/><feGaussianBlur stdDeviation="2" in="shadowOffsetOuter1" result="shadowBlurOuter1"/><feColorMatrix values="0 0 0 0 1 0 0 0 0 1 0 0 0 0 1 0 0 0 1 0" in="shadowBlurOuter1"/></filter></defs><g fill="#000" fill-rule="evenodd"><use filter="url(#a)" xlink:href="#b"/><use xlink:href="#b"/></g></svg>