<svg width="16" height="16" viewBox="0 0 16 16" xmlns="http://www.w3.org/2000/svg"><title>r</title><g fill="none" fill-rule="evenodd"><g transform="translate(0 2)"><rect fill="#17A8E2" y=".327" width="16" height="12.082" rx="1.306"/><path d="M5.366 2.54h3.563c.822 0 1.438.177 1.85.532.41.356.616.85.616 1.484 0 .355-.053.65-.157.883a1.927 1.927 0 0 1-.366.564c-.14.143-.277.246-.413.309a3.306 3.306 0 0 1-.297.125v.02c.111.015.231.05.36.105.129.056.25.145.36.267.112.122.204.28.278.475.073.195.11.439.11.732 0 .438.032.837.098 1.196.067.359.17.615.309.768h-1.4a1.219 1.219 0 0 1-.173-.533 6.35 6.35 0 0 1-.026-.564c0-.341-.02-.636-.063-.883a1.54 1.54 0 0 0-.23-.617.973.973 0 0 0-.454-.36c-.192-.077-.437-.115-.737-.115H6.672V10H5.366V2.54zm1.306 3.395h2.142c.418 0 .735-.099.95-.297.217-.199.324-.497.324-.894 0-.237-.034-.43-.104-.58a.845.845 0 0 0-.287-.35 1.056 1.056 0 0 0-.418-.167 2.771 2.771 0 0 0-.486-.042H6.672v2.33z" fill="#FFF"/></g></g></svg>