<svg width="16" height="16" viewBox="0 0 16 16" xmlns="http://www.w3.org/2000/svg"><title>folder_setting</title><g fill="none" fill-rule="evenodd"><path d="M1.5 4.487V12a.5.5 0 0 0 .5.5h12a.5.5 0 0 0 .5-.5V4.987a.5.5 0 0 0-.5-.5H7.306l-.64-1.919a.1.1 0 0 0-.095-.068H2.002a.5.5 0 0 0-.5.5l-.001 1.487H1.5z" stroke="#000"/><g transform="translate(6 6)"><path d="M4.433 2.406c0 .125 0 .25-.033.375l.567.313-.6.969L3.8 3.75c-.2.156-.4.281-.667.375v.625h-1.2v-.625a1.579 1.579 0 0 1-.666-.375L.7 4.063l-.6-.97.567-.312c-.034-.125-.034-.25-.034-.375s0-.25.034-.375L.1 1.72.7.75l.567.313c.2-.157.4-.282.666-.375V.063h1.2v.625c.234.062.467.187.667.375L4.367.75l.6.969-.567.312c.033.125.033.25.033.375z" fill="#000"/><ellipse stroke="#FFF" stroke-width=".5" fill="#FFF" stroke-linecap="round" stroke-linejoin="round" cx="2.533" cy="2.406" rx="1" ry="1"/></g></g></svg>