<svg width="24" height="24" viewBox="0 0 24 24" xmlns="http://www.w3.org/2000/svg" xmlns:xlink="http://www.w3.org/1999/xlink"><title>Settings/Tab Icon/Proxy</title><defs><circle id="b" cx="12" cy="12" r="12"/><filter x="-8.3%" y="-8.3%" width="116.7%" height="116.7%" filterUnits="objectBoundingBox" id="a"><feMorphology radius=".5" in="SourceAlpha" result="shadowSpreadInner1"/><feOffset in="shadowSpreadInner1" result="shadowOffsetInner1"/><feComposite in="shadowOffsetInner1" in2="SourceAlpha" operator="arithmetic" k2="-1" k3="1" result="shadowInnerInner1"/><feColorMatrix values="0 0 0 0 0.104626742 0 0 0 0 0.515111287 0 0 0 0 0.68359375 0 0 0 0.400956748 0" in="shadowInnerInner1" result="shadowMatrixInner1"/><feGaussianBlur stdDeviation="1.5" in="SourceAlpha" result="shadowBlurInner2"/><feOffset dx="-1" dy="-1" in="shadowBlurInner2" result="shadowOffsetInner2"/><feComposite in="shadowOffsetInner2" in2="SourceAlpha" operator="arithmetic" k2="-1" k3="1" result="shadowInnerInner2"/><feColorMatrix values="0 0 0 0 0 0 0 0 0 0.400729852 0 0 0 0 0.75263074 0 0 0 0.302677763 0" in="shadowInnerInner2" result="shadowMatrixInner2"/><feMerge><feMergeNode in="shadowMatrixInner1"/><feMergeNode in="shadowMatrixInner2"/></feMerge></filter></defs><g fill="none" fill-rule="evenodd"><path d="M0 0h24v24H0z"/><circle fill="#95E4FF" cx="12" cy="12" r="12"/><path d="M22.747 16.093l.928-.93.048-.093c-.185.605-.372 1.21-.65 1.814l-.326-.79zm.464-3.255l-1.392-1.396v-.93l.928.93L24 13.582c0 .14-.047.28-.047.373l-.742-1.117zm-2.785-5.582l1.393.466.928.93-1.393-.93-.928.465v-.93zM6.499 2.14v.93l-1.672-.837c.185-.14.417-.28.65-.418l1.022.325zM.464 12.838l.464.465h.929l1.393.93v.93l-.465.93.929 1.396 1.392 1.395.465.93v2.278C2.414 20.047.232 16.606 0 12.605l.464.233zm8.356 9.767l.464-1.396.929-.465.464-1.86.928-1.395-2.785-1.396-.464-1.395H6.963l-.464-.93-1.857-.93-.928 1.395-.929-.465v-.93l-.464-.466v-.93l-.929.93-.928-.465v-.93l1.393-.93 1.392.93.929-.93L6.035 7.72l1.392-.465v-.93l1.393.465.464-1.395-.464-.93L7.427 4l-.464.93h-.928v.93l-1.393-.93.464-.465 1.857-.93.929-.93h.464l-.464.93L8.82 4l.929-.93-.465-1.396H7.892l-.465.93-.464-.93.372-.883c.372-.14.696-.28 1.068-.418l.417.836h.929l.464 1.395v.93l.928 1.396.464-.93 1.393-.93.929-1.861.371-1.21a11.715 11.715 0 0 1 5.524 2.605l-1.718.465-.928.93-.929.466 1.857.465h.929l-.464-1.395h.928l-.464 1.86h-1.857l-.929.465-.928 1.86h-.464l-.464.466.928.465 1.393-1.396.928.465.929.93v-.464l-.465-.93 1.393.93 1.857.93s.928.93.464.93-1.857-.465-1.857-.465l-1.392.465-.929-1.395h-1.857l-1.392.465-1.393 1.86-.464 1.395.464 1.86 1.393.931 1.856-.465 1.393.465v1.395l.464 1.396-.464.93 1.253 2.976A11.879 11.879 0 0 1 12.07 24c-1.3 0-2.6-.233-3.761-.605l.511-.79zm6.5-18.14l.928 1.396h-.929v.465l-.928-.465.928-1.395z" fill="#000" opacity=".5" style="mix-blend-mode:overlay"/><use filter="url(#a)" xlink:href="#b" fill="#000"/></g></svg>