<svg width="32" height="32" viewBox="0 0 32 32" xmlns="http://www.w3.org/2000/svg"><title>on_dark</title><g fill="none" fill-rule="evenodd"><circle stroke-opacity=".254" stroke="#FFF" stroke-width=".5" fill-opacity=".15" fill="#000" cx="16" cy="16" r="15.75"/><path fill="none" d="M4 4h24v24H4z" fill-opacity="0"/><path fill="#FFF" d="M15 20.5h2v3h-2z"/><path d="M20.498 23.09V16.81h3.115c.031 0 .065-.035.065-.088a.1.1 0 0 0-.027-.07l-7.613-7.81c-.023-.025-.053-.025-.076 0l-7.613 7.81a.105.105 0 0 0 0 .14.054.054 0 0 0 .038.018h3.115v6.281c0 .053.034.088.064.088h8.868c.03 0 .064-.035.064-.088z" stroke="#FFF" stroke-width="1.644"/></g></svg>