<svg width="24" height="24" viewBox="0 0 24 24" xmlns="http://www.w3.org/2000/svg" xmlns:xlink="http://www.w3.org/1999/xlink"><title>Group</title><defs><linearGradient x1="50%" y1="100%" x2="50%" y2="0%" id="c"><stop stop-color="#F7F7F7" offset="0%"/><stop stop-color="#FFF" offset="100%"/></linearGradient><linearGradient x1="50%" y1="0%" x2="50%" y2="100%" id="d"><stop stop-color="#FFF" stop-opacity=".5" offset="0%"/><stop stop-opacity=".5" offset="100%"/></linearGradient><rect id="a" width="22" height="22" rx="2"/><filter x="-8%" y="-5.7%" width="115.9%" height="115.9%" filterUnits="objectBoundingBox" id="b"><feOffset dy=".5" in="SourceAlpha" result="shadowOffsetOuter1"/><feGaussianBlur stdDeviation=".5" in="shadowOffsetOuter1" result="shadowBlurOuter1"/><feColorMatrix values="0 0 0 0 0 0 0 0 0 0 0 0 0 0 0 0 0 0 0.15 0" in="shadowBlurOuter1"/></filter><filter x="-5.7%" y="-3.4%" width="111.4%" height="111.4%" filterUnits="objectBoundingBox" id="e"><feMorphology radius=".5" in="SourceAlpha" result="shadowSpreadInner1"/><feOffset in="shadowSpreadInner1" result="shadowOffsetInner1"/><feComposite in="shadowOffsetInner1" in2="SourceAlpha" operator="arithmetic" k2="-1" k3="1" result="shadowInnerInner1"/><feColorMatrix values="0 0 0 0 0.705516582 0 0 0 0 0.705516582 0 0 0 0 0.705516582 0 0 0 1 0" in="shadowInnerInner1"/></filter><path d="M9.333 10.44H8.22a2.14 2.14 0 0 1-1.57-.65A2.14 2.14 0 0 1 6 8.22c0-.613.217-1.137.65-1.57A2.14 2.14 0 0 1 8.22 6a2.15 2.15 0 0 1 1.573.65c.436.433.654.957.654 1.57v1.113h1.113V8.22c0-.613.216-1.137.65-1.57A2.14 2.14 0 0 1 13.78 6a2.14 2.14 0 0 1 1.57.65c.433.433.65.957.65 1.57a2.14 2.14 0 0 1-.65 1.57 2.14 2.14 0 0 1-1.57.65h-1.113v1.113h1.113c.613 0 1.137.218 1.57.654.433.435.65.96.65 1.573a2.14 2.14 0 0 1-.65 1.57 2.14 2.14 0 0 1-1.57.65 2.14 2.14 0 0 1-1.57-.65 2.14 2.14 0 0 1-.65-1.57v-1.113h-1.113v1.113c0 .613-.218 1.137-.654 1.57A2.15 2.15 0 0 1 8.22 16a2.14 2.14 0 0 1-1.57-.65A2.14 2.14 0 0 1 6 13.78c0-.614.217-1.138.65-1.573a2.134 2.134 0 0 1 1.57-.654h1.113V10.44zm1.114 1.113h1.113V10.44h-1.113v1.113zm-1.114-2.22V8.22c0-.305-.108-.566-.325-.785a1.068 1.068 0 0 0-.788-.328c-.305 0-.565.11-.782.328-.216.219-.325.48-.325.785 0 .309.109.572.325.788.217.217.477.325.782.325h1.113zm3.334 0h1.113c.309 0 .572-.11.788-.328.217-.219.325-.48.325-.785 0-.305-.11-.566-.328-.785a1.071 1.071 0 0 0-.785-.328c-.309 0-.572.11-.788.328-.217.219-.325.48-.325.785v1.113zm0 3.334v1.113c0 .305.11.565.328.782.219.216.48.325.785.325.309 0 .572-.109.788-.325.217-.217.325-.48.325-.789 0-.304-.11-.565-.328-.781a1.077 1.077 0 0 0-.785-.325h-1.113zm-3.334 0H8.22c-.305 0-.565.108-.782.325-.216.216-.325.479-.325.788 0 .305.109.565.325.782.217.216.477.325.782.325.309 0 .572-.109.788-.325.217-.217.325-.477.325-.782v-1.113z" id="h"/><filter x="-2.5%" y="-2.5%" width="105%" height="110%" filterUnits="objectBoundingBox" id="g"><feOffset dy=".5" in="SourceAlpha" result="shadowOffsetOuter1"/><feColorMatrix values="0 0 0 0 1 0 0 0 0 1 0 0 0 0 1 0 0 0 0.896484375 0" in="shadowOffsetOuter1"/></filter></defs><g transform="translate(1)" fill="none" fill-rule="evenodd"><mask id="f" fill="#fff"><use xlink:href="#a"/></mask><use fill="#000" filter="url(#b)" xlink:href="#a"/><use fill="url(#c)" xlink:href="#a"/><use fill-opacity=".05" fill="url(#d)" xlink:href="#a"/><use fill="#000" filter="url(#e)" xlink:href="#a"/><g mask="url(#f)"><use fill="#000" filter="url(#g)" xlink:href="#h"/><use fill="#555" xlink:href="#h"/></g></g></svg>