<svg width="16" height="16" viewBox="0 0 16 16" xmlns="http://www.w3.org/2000/svg"><title>icon_shortcut</title><g fill="none" fill-rule="evenodd"><path d="M4.533 12.333h.8a1.667 1.667 0 1 1-1.666-1.666v.8a.867.867 0 1 0 .866.866zm7.8-.866v-.8a1.667 1.667 0 1 1-1.666 1.666h.8a.867.867 0 1 0 .866-.866zm-7.8-7.8a.867.867 0 1 0-.866.866v.8a1.667 1.667 0 1 1 1.666-1.666h-.8zm6.934 0h-.8a1.667 1.667 0 1 1 1.666 1.666v-.8a.867.867 0 1 0-.866-.866z" fill="#000" fill-rule="nonzero"/><path d="M11.933 4.533h.4v.8H3.667v-.8h.8-.8v.8h.8-.8v-.8h8.666v.8h-.8.8v-.8h-.4zm0 0h-.4.4zm-8.266 0h8.666v.8H3.667v-.8zM11.933 10.667h.4v.8H3.667v-.8h.8-.8v.8h.8-.8v-.8h8.666v.8h-.8.8v-.8h-.4zm0 0h-.4.4zm-8.266 0h8.666v.8H3.667v-.8z" fill="#000" fill-rule="nonzero"/><path fill="#000" d="M4.533 3.667h1v8.667h-1zM10.667 3.667h1v8.667h-1z"/></g></svg>