<svg width="72" height="72" viewBox="0 0 72 72" xmlns="http://www.w3.org/2000/svg" xmlns:xlink="http://www.w3.org/1999/xlink"><title>Group Copy</title><defs><linearGradient x1="50%" y1="0%" x2="50%" y2="100%" id="c"><stop stop-color="#F6F6FA" offset="0%"/><stop stop-color="#F1EFED" offset="100%"/></linearGradient><path d="M42 0c18.225 0 33 14.775 33 33S60.225 66 42 66 9 51.225 9 33 23.775 0 42 0z" id="b"/><filter x="-6.1%" y="-4.5%" width="112.1%" height="112.1%" filterUnits="objectBoundingBox" id="a"><feMorphology radius=".5" operator="dilate" in="SourceAlpha" result="shadowSpreadOuter1"/><feOffset dy="1" in="shadowSpreadOuter1" result="shadowOffsetOuter1"/><feGaussianBlur stdDeviation="1" in="shadowOffsetOuter1" result="shadowBlurOuter1"/><feComposite in="shadowBlurOuter1" in2="SourceAlpha" operator="out" result="shadowBlurOuter1"/><feColorMatrix values="0 0 0 0 0 0 0 0 0 0 0 0 0 0 0 0 0 0 0.447803442 0" in="shadowBlurOuter1"/></filter><filter x="-5.3%" y="-3.8%" width="110.6%" height="110.6%" filterUnits="objectBoundingBox" id="d"><feOffset dy="2" in="SourceAlpha" result="shadowOffsetInner1"/><feComposite in="shadowOffsetInner1" in2="SourceAlpha" operator="arithmetic" k2="-1" k3="1" result="shadowInnerInner1"/><feColorMatrix values="0 0 0 0 1 0 0 0 0 1 0 0 0 0 1 0 0 0 0.5 0" in="shadowInnerInner1"/></filter><linearGradient x1="50%" y1=".219%" x2="50%" y2="99.171%" id="g"><stop stop-color="#2F3641" offset="0%"/><stop stop-color="#221C2C" offset="100%"/></linearGradient><path d="M13 33c0 16.016 12.984 29 29 29s29-12.984 29-29S58.016 4 42 4 13 16.984 13 33z" id="f"/><filter x="-2.6%" y="-2.6%" width="105.2%" height="103.4%" filterUnits="objectBoundingBox" id="e"><feOffset dy="-1" in="SourceAlpha" result="shadowOffsetOuter1"/><feColorMatrix values="0 0 0 0 0 0 0 0 0 0 0 0 0 0 0 0 0 0 0.101534194 0" in="shadowOffsetOuter1" result="shadowMatrixOuter1"/><feOffset dx="1" in="SourceAlpha" result="shadowOffsetOuter2"/><feColorMatrix values="0 0 0 0 0 0 0 0 0 0 0 0 0 0 0 0 0 0 0.1 0" in="shadowOffsetOuter2" result="shadowMatrixOuter2"/><feOffset dx="-1" in="SourceAlpha" result="shadowOffsetOuter3"/><feColorMatrix values="0 0 0 0 0 0 0 0 0 0 0 0 0 0 0 0 0 0 0.1 0" in="shadowOffsetOuter3" result="shadowMatrixOuter3"/><feMerge><feMergeNode in="shadowMatrixOuter1"/><feMergeNode in="shadowMatrixOuter2"/><feMergeNode in="shadowMatrixOuter3"/></feMerge></filter><path d="M13 33c0 16.016 12.984 29 29 29s29-12.984 29-29S58.016 4 42 4 13 16.984 13 33z" id="i"/><filter x="-.9%" y="-.9%" width="101.7%" height="101.7%" filterUnits="objectBoundingBox" id="h"><feGaussianBlur stdDeviation=".5" in="SourceAlpha" result="shadowBlurInner1"/><feOffset in="shadowBlurInner1" result="shadowOffsetInner1"/><feComposite in="shadowOffsetInner1" in2="SourceAlpha" operator="arithmetic" k2="-1" k3="1" result="shadowInnerInner1"/><feColorMatrix values="0 0 0 0 1 0 0 0 0 1 0 0 0 0 1 0 0 0 0.16 0" in="shadowInnerInner1"/></filter><linearGradient x1="50%" y1="0%" x2="50%" y2="100%" id="l"><stop stop-color="#FFF" offset="0%"/><stop stop-color="#E6E8F3" offset="100%"/></linearGradient><path d="M47.917 22a7.67 7.67 0 0 0-3.75.967c-1.998 1.118-3.334 3.094-3.334 5.348v9.37c0 1.688-1.679 3.056-3.75 3.056-2.07 0-3.75-1.368-3.75-3.056 0-1.2.853-2.237 2.09-2.736.089-.036.18-.07.273-.1.778-.306 1.446-.88 1.694-1.546.366-.983-.315-1.78-1.522-1.78-.3 0-.606.05-.9.139l-.004.001c-1.745.49-3.201 1.564-4.075 2.967A5.75 5.75 0 0 0 30 37.685C30 41.167 33.178 44 37.083 44c1.378 0 2.661-.358 3.75-.967 1.998-1.118 3.334-3.094 3.334-5.348v-9.37c0-1.688 1.679-3.056 3.75-3.056 2.07 0 3.75 1.368 3.75 3.056 0 1.252-.925 2.329-2.248 2.8-.854.28-1.554.884-1.82 1.6-.365.979.314 1.772 1.515 1.772.272 0 .547-.045.815-.12.044-.011.087-.024.13-.037 1.734-.493 3.182-1.563 4.052-2.96A5.75 5.75 0 0 0 55 28.315C55 24.833 51.822 22 47.917 22" id="k"/><filter x="-26%" y="-25%" width="152%" height="159.1%" filterUnits="objectBoundingBox" id="j"><feOffset dy="1" in="SourceAlpha" result="shadowOffsetOuter1"/><feGaussianBlur stdDeviation="2" in="shadowOffsetOuter1" result="shadowBlurOuter1"/><feColorMatrix values="0 0 0 0 0 0 0 0 0 0 0 0 0 0 0 0 0 0 0.5 0" in="shadowBlurOuter1"/></filter></defs><g fill="none" fill-rule="evenodd"><g transform="translate(-6 2)"><use fill="#000" filter="url(#a)" xlink:href="#b"/><use fill="url(#c)" xlink:href="#b"/><use fill="#000" filter="url(#d)" xlink:href="#b"/><path stroke-opacity=".056" stroke="#000" stroke-width=".5" d="M42-.25C60.363-.25 75.25 14.637 75.25 33S60.363 66.25 42 66.25 8.75 51.363 8.75 33 23.637-.25 42-.25z"/></g><g transform="translate(-6 2)"><use fill="#000" filter="url(#e)" xlink:href="#f"/><use fill="url(#g)" xlink:href="#f"/></g><use filter="url(#h)" xlink:href="#i" fill="#000" transform="translate(-6 2)"/><g transform="translate(-6 2)"><use fill="#000" filter="url(#j)" xlink:href="#k"/><use fill="url(#l)" xlink:href="#k"/></g></g></svg>