<svg width="14" height="14" viewBox="0 0 14 14" xmlns="http://www.w3.org/2000/svg"><title>Path Copy</title><path d="M12.38 5.77c.37 0 .67-.26.67-.657V.719c0-.397-.3-.719-.675-.719H.669C.3 0 0 .322 0 .74v11.59c0 .398.3.72.67.72h4.035c.37 0 .668-.322.668-.72 0-.397-.298-.719-.668-.719H1.34V1.44h10.372v3.674c0 .397.3.656.67.656zm-7.3-.645a.409.409 0 0 0-.08.089c0 .044 2.68 7.569 2.724 7.653.114.207.247.089.91-.811.35-.484.974-1.258 1.008-1.293.05-.05.313.227 1.238 1.151.633.633 1.071 1.136 1.096 1.136.064 0 1.123-1.071 1.123-1.136 0-.024-.585-.523-1.212-1.151-.628-.633-1.144-1.089-1.124-1.119.015-.024.718-.584 1.213-.94.49-.36.905-.687.92-.732.02-.04.01-.104-.015-.143-.035-.06-7.535-2.769-7.693-2.779-.02-.004-.07.03-.109.075z" fill="#6E6E6E" fill-rule="evenodd"/></svg>