<svg width="12" height="11" viewBox="0 0 12 11" xmlns="http://www.w3.org/2000/svg"><title>Page-1</title><path d="M8.217.667c-.607 0-1.171.164-1.65.443-.88.512-1.467 1.418-1.467 2.451v4.295c0 .773-.739 1.4-1.65 1.4-.911 0-1.65-.627-1.65-1.4 0-.55.375-1.026.92-1.255.039-.016.078-.032.12-.045.342-.14.636-.403.745-.709.161-.45-.139-.816-.67-.816a1.315 1.315 0 0 0-.398.065 3.093 3.093 0 0 0-1.793 1.36 2.717 2.717 0 0 0-.39 1.4c0 1.596 1.397 2.894 3.116 2.894.606 0 1.17-.164 1.65-.443.88-.513 1.467-1.418 1.467-2.451V3.56c0-.773.738-1.4 1.65-1.4.91 0 1.65.627 1.65 1.4 0 .574-.407 1.067-.99 1.284-.375.128-.683.405-.8.733-.16.448.138.812.666.812.12 0 .241-.02.359-.055l.057-.017a3.091 3.091 0 0 0 1.783-1.357c.249-.415.391-.892.391-1.4 0-1.596-1.398-2.894-3.116-2.894" fill="#7586DB" fill-rule="evenodd"/></svg>