<svg width="18" height="18" viewBox="0 0 18 18" xmlns="http://www.w3.org/2000/svg"><title>Fill 6</title><path d="M10.2.712C8.761 1.535 7.8 2.99 7.8 4.65v8.7c0 1.243-1.209 2.25-2.7 2.25s-2.7-1.007-2.7-2.25c0-.884.614-1.647 1.504-2.015a2.94 2.94 0 0 1 .197-.074c.56-.225 1.041-.647 1.22-1.138.263-.724-.227-1.31-1.096-1.31-.217 0-.436.036-.648.102-1.26.361-2.308 1.152-2.937 2.185A4.304 4.304 0 0 0 0 13.35C0 15.914 2.288 18 5.1 18c.992 0 1.916-.264 2.7-.712 1.439-.823 2.4-2.279 2.4-3.938v-8.7c0-1.243 1.209-2.25 2.7-2.25s2.7 1.007 2.7 2.25c0 .922-.666 1.715-1.619 2.062-.614.206-1.118.651-1.31 1.178-.262.721.226 1.305 1.09 1.305.197 0 .395-.033.588-.088l.094-.027c1.248-.363 2.29-1.152 2.917-2.18.407-.667.64-1.434.64-2.25C18 2.086 15.712 0 12.9 0c-.992 0-1.916.264-2.7.712z" fill="#FFF" fill-rule="evenodd"/></svg>