<svg width="72" height="72" viewBox="0 0 72 72" xmlns="http://www.w3.org/2000/svg" xmlns:xlink="http://www.w3.org/1999/xlink"><title>Group 2</title><defs><linearGradient x1="50%" y1="0%" x2="50%" y2="100%" id="c"><stop stop-color="#F6F6FA" offset="0%"/><stop stop-color="#F1EFED" offset="100%"/></linearGradient><path d="M42 0c18.225 0 33 14.775 33 33S60.225 66 42 66 9 51.225 9 33 23.775 0 42 0z" id="b"/><filter x="-6.1%" y="-4.5%" width="112.1%" height="112.1%" filterUnits="objectBoundingBox" id="a"><feMorphology radius=".5" operator="dilate" in="SourceAlpha" result="shadowSpreadOuter1"/><feOffset dy="1" in="shadowSpreadOuter1" result="shadowOffsetOuter1"/><feGaussianBlur stdDeviation="1" in="shadowOffsetOuter1" result="shadowBlurOuter1"/><feComposite in="shadowBlurOuter1" in2="SourceAlpha" operator="out" result="shadowBlurOuter1"/><feColorMatrix values="0 0 0 0 0 0 0 0 0 0 0 0 0 0 0 0 0 0 0.447803442 0" in="shadowBlurOuter1"/></filter><filter x="-5.3%" y="-3.8%" width="110.6%" height="110.6%" filterUnits="objectBoundingBox" id="d"><feOffset dy="2" in="SourceAlpha" result="shadowOffsetInner1"/><feComposite in="shadowOffsetInner1" in2="SourceAlpha" operator="arithmetic" k2="-1" k3="1" result="shadowInnerInner1"/><feColorMatrix values="0 0 0 0 1 0 0 0 0 1 0 0 0 0 1 0 0 0 0.5 0" in="shadowInnerInner1"/></filter><linearGradient x1="50%" y1=".219%" x2="50%" y2="99.171%" id="g"><stop stop-color="#2F3641" offset="0%"/><stop stop-color="#221C2C" offset="100%"/></linearGradient><path d="M13 33c0 16.016 12.984 29 29 29s29-12.984 29-29S58.016 4 42 4 13 16.984 13 33z" id="f"/><filter x="-2.6%" y="-2.6%" width="105.2%" height="103.4%" filterUnits="objectBoundingBox" id="e"><feOffset dy="-1" in="SourceAlpha" result="shadowOffsetOuter1"/><feColorMatrix values="0 0 0 0 0 0 0 0 0 0 0 0 0 0 0 0 0 0 0.101534194 0" in="shadowOffsetOuter1" result="shadowMatrixOuter1"/><feOffset dx="1" in="SourceAlpha" result="shadowOffsetOuter2"/><feColorMatrix values="0 0 0 0 0 0 0 0 0 0 0 0 0 0 0 0 0 0 0.1 0" in="shadowOffsetOuter2" result="shadowMatrixOuter2"/><feOffset dx="-1" in="SourceAlpha" result="shadowOffsetOuter3"/><feColorMatrix values="0 0 0 0 0 0 0 0 0 0 0 0 0 0 0 0 0 0 0.1 0" in="shadowOffsetOuter3" result="shadowMatrixOuter3"/><feMerge><feMergeNode in="shadowMatrixOuter1"/><feMergeNode in="shadowMatrixOuter2"/><feMergeNode in="shadowMatrixOuter3"/></feMerge></filter><path d="M13 33c0 16.016 12.984 29 29 29s29-12.984 29-29S58.016 4 42 4 13 16.984 13 33z" id="i"/><filter x="-.9%" y="-.9%" width="101.7%" height="101.7%" filterUnits="objectBoundingBox" id="h"><feGaussianBlur stdDeviation=".5" in="SourceAlpha" result="shadowBlurInner1"/><feOffset in="shadowBlurInner1" result="shadowOffsetInner1"/><feComposite in="shadowOffsetInner1" in2="SourceAlpha" operator="arithmetic" k2="-1" k3="1" result="shadowInnerInner1"/><feColorMatrix values="0 0 0 0 1 0 0 0 0 1 0 0 0 0 1 0 0 0 0.16 0" in="shadowInnerInner1"/></filter></defs><g fill="none" fill-rule="evenodd"><g transform="translate(-6 2)"><use fill="#000" filter="url(#a)" xlink:href="#b"/><use fill="url(#c)" xlink:href="#b"/><use fill="#000" filter="url(#d)" xlink:href="#b"/><path stroke-opacity=".056" stroke="#000" stroke-width=".5" d="M42-.25C60.363-.25 75.25 14.637 75.25 33S60.363 66.25 42 66.25 8.75 51.363 8.75 33 23.637-.25 42-.25z"/></g><g transform="translate(-6 2)"><use fill="#000" filter="url(#e)" xlink:href="#f"/><use fill="url(#g)" xlink:href="#f"/></g><use filter="url(#h)" xlink:href="#i" fill="#000" transform="translate(-6 2)"/><g fill="#FBFCFD" fill-rule="nonzero"><path d="M43.997 42.668a1.167 1.167 0 1 1 0-2.336 4.674 4.674 0 0 0 4.668-4.667 4.673 4.673 0 0 0-4.361-4.651l-.69-.041-.292-.621a7.032 7.032 0 0 0-6.325-4.02 7.032 7.032 0 0 0-6.324 4.02l-.293.62-.686.044a4.67 4.67 0 0 0-4.362 4.652A4.674 4.674 0 0 0 30 40.335a1.167 1.167 0 1 1 0 2.335c-3.86 0-7-3.139-7-7 0-3.448 2.53-6.357 5.87-6.901C30.512 25.85 33.632 24 36.998 24c3.366 0 6.486 1.851 8.13 4.763 3.341.544 5.87 3.457 5.87 6.905 0 3.858-3.139 7-7 7z"/><path d="M40.166 43.833c-.299 0-.597-.115-.826-.342l-2.674-2.674-2.675 2.674a1.163 1.163 0 0 1-1.649 0 1.163 1.163 0 0 1 0-1.649l3.5-3.5a1.163 1.163 0 0 1 1.65 0l3.5 3.5a1.163 1.163 0 0 1 0 1.65c-.23.229-.528.341-.826.341z"/><path d="M36.668 48.5a1.167 1.167 0 0 1-1.168-1.168v-8.164a1.167 1.167 0 1 1 2.335 0v8.167c0 .643-.522 1.165-1.167 1.165z"/></g></g></svg>