<svg width="14" height="13" viewBox="0 0 14 13" xmlns="http://www.w3.org/2000/svg"><title>Group</title><g fill="#6E6E6E" fill-rule="evenodd"><path d="M6.872.45a.476.476 0 0 0-.496.044l-3.88 2.895H.473A.472.472 0 0 0 0 3.861v5.35c0 .26.212.472.473.472h2.023l3.88 2.895a.472.472 0 0 0 .757-.378V.872A.472.472 0 0 0 6.872.45zm-.686 10.808l-3.25-2.425a.475.475 0 0 0-.283-.094H.946V4.333h1.707a.475.475 0 0 0 .283-.094l3.25-2.425v9.444z" fill-rule="nonzero"/><path d="M11.374 6.75l1.997-2a.44.44 0 0 0-.622-.621L10.75 6.13 8.751 4.13a.441.441 0 0 0-.623.621l1.998 2-1.998 2a.44.44 0 0 0 .623.621l2-2 1.998 2a.439.439 0 1 0 .622-.622L11.374 6.75z"/></g></svg>