<svg width="16" height="16" viewBox="0 0 16 16" xmlns="http://www.w3.org/2000/svg"><title>.project.config.json</title><g fill="#01B56D" fill-rule="evenodd"><path d="M.65 8.49c.4.01.7.188.899.533.195.33.292.753.292 1.265v1.08c.01.508.165.903.464 1.186A1.46 1.46 0 0 0 3.347 13l1.358-.009a.3.3 0 0 0 .298-.3v-.678a.3.3 0 0 0-.3-.3h-.45c-.677-.026-.673-.605-.673-.917v-.885c0-.345-.048-.635-.143-.87a1.663 1.663 0 0 0-.352-.575 1.368 1.368 0 0 0-.382-.338 1.302 1.302 0 0 0-.322-.123c.175-.067.41-.232.704-.525.145-.148.262-.34.352-.575.095-.216.143-.486.143-.812v-.9c0-.326.004-.76.674-.787h.449a.3.3 0 0 0 .3-.3v-.804a.3.3 0 0 0-.302-.3l-1.354.009c-.41 0-.757.141-1.042.424-.3.288-.454.69-.464 1.208v1.108c0 .48-.097.892-.292 1.237a.923.923 0 0 1-.367.381.93.93 0 0 1-.532.151v.97zM15.353 8.49c-.4.01-.7.188-.9.533-.194.33-.291.753-.291 1.265v1.08c-.01.508-.165.903-.465 1.186a1.46 1.46 0 0 1-1.04.446l-1.359-.009a.3.3 0 0 1-.298-.3v-.678a.3.3 0 0 1 .3-.3h.45c.677-.026.673-.605.673-.917v-.885c0-.345.048-.635.143-.87.09-.235.207-.427.352-.575.12-.149.247-.262.382-.338.134-.067.242-.108.322-.123-.175-.067-.41-.232-.704-.525a1.663 1.663 0 0 1-.352-.575c-.095-.216-.143-.486-.143-.812v-.9c0-.326-.004-.76-.674-.787H11.3a.3.3 0 0 1-.3-.3v-.804a.3.3 0 0 1 .302-.3l1.354.009c.41 0 .757.141 1.041.424.3.288.455.69.465 1.208v1.108c0 .48.097.892.292 1.237.09.168.212.295.367.381.15.1.327.151.532.151v.97z"/><path d="M10.29 8.292c.013-.096.022-.193.022-.292 0-.099-.01-.196-.022-.292l.652-.497a.147.147 0 0 0 .037-.192l-.616-1.04a.155.155 0 0 0-.188-.064l-.768.302a2.356 2.356 0 0 0-.521-.296l-.116-.795A.157.157 0 0 0 8.616 5H7.383a.154.154 0 0 0-.153.126l-.116.795a2.297 2.297 0 0 0-.52.296l-.769-.302a.156.156 0 0 0-.188.064l-.616 1.04a.148.148 0 0 0 .037.192l.65.497A2.292 2.292 0 0 0 5.687 8c0 .099.009.196.021.292l-.65.497a.147.147 0 0 0-.037.192l.616 1.04a.155.155 0 0 0 .188.064l.768-.302c.159.119.333.22.521.296l.116.795c.012.07.075.126.153.126h1.233c.077 0 .14-.056.153-.126l.115-.795c.188-.077.362-.176.521-.296l.768.302c.07.026.15 0 .188-.064l.617-1.04a.148.148 0 0 0-.037-.192l-.65-.497zM8 9.05c-.597 0-1.08-.47-1.08-1.05 0-.58.483-1.05 1.08-1.05.596 0 1.078.47 1.078 1.05 0 .58-.482 1.05-1.079 1.05z" fill-rule="nonzero"/></g></svg>