<svg width="67" height="12" viewBox="0 0 67 12" xmlns="http://www.w3.org/2000/svg"><title>Signal</title><path d="M5.5 11.07C2.462 11.07 0 8.603 0 5.557 0 2.51 2.462.04 5.5.04S11 2.51 11 5.556 8.538 11.07 5.5 11.07zm14 0c-3.038 0-5.5-2.468-5.5-5.514C14 2.51 16.462.04 19.5.04S25 2.51 25 5.556s-2.462 5.515-5.5 5.515zm14 0c-3.038 0-5.5-2.468-5.5-5.514C28 2.51 30.462.04 33.5.04S39 2.51 39 5.556s-2.462 5.515-5.5 5.515zm14 0c-3.038 0-5.5-2.468-5.5-5.514C42 2.51 44.462.04 47.5.04S53 2.51 53 5.556s-2.462 5.515-5.5 5.515zm14 0c-3.038 0-5.5-2.468-5.5-5.514C56 2.51 58.462.04 61.5.04S67 2.51 67 5.556s-2.462 5.515-5.5 5.515z" fill="#FFF" fill-rule="evenodd"/></svg>