<svg width="14" height="14" viewBox="0 0 14 14" xmlns="http://www.w3.org/2000/svg"><g fill="none" fill-rule="evenodd"><path fill="#17A8E2" fill-rule="nonzero" d="M0 0h14v14H0z"/><path d="M7.793 7.242v1.02H6.07V13H4.86V8.262H3.128v-1.02h4.664zm1.574 3.98c.037.264.108.46.215.59.195.237.53.356 1.004.356.284 0 .514-.031.691-.094.336-.12.504-.342.504-.668a.493.493 0 0 0-.25-.441c-.166-.102-.428-.192-.785-.27l-.61-.136c-.598-.136-1.012-.283-1.241-.442-.388-.265-.582-.68-.582-1.246 0-.516.187-.944.562-1.285.375-.341.926-.512 1.652-.512.607 0 1.125.161 1.553.483.428.321.653.788.674 1.4h-1.156c-.021-.346-.172-.592-.453-.738a1.52 1.52 0 0 0-.7-.145c-.31 0-.557.063-.742.188a.597.597 0 0 0-.277.523c0 .206.09.36.273.461.117.068.367.147.75.238l.992.239c.435.104.763.243.985.418.344.27.515.662.515 1.175 0 .526-.2.963-.603 1.311-.402.348-.97.521-1.705.521-.75 0-1.34-.17-1.77-.513-.43-.343-.644-.813-.644-1.412h1.148z" fill="#FFF"/></g></svg>