<svg width="18" height="20" viewBox="0 0 18 20" xmlns="http://www.w3.org/2000/svg"><title>Path 67</title><path d="M12.059 13.6c-1.422-.734-1.757-2.409-.7-3.632l.401-.464c.614-.71 1.116-2.227 1.116-3.308V4.344c0-1.758-1.844-3.369-3.856-3.369-2.04 0-3.982 1.637-3.982 3.368v1.852c0 1.155.442 2.632 1.025 3.307l.402.464c1.056 1.223.722 2.891-.69 3.628l-3.957 2.941-.162.098c-.346.164-.681.688-.681 1.052 0 .47.38.85.85.85h14.35c.47 0 .85-.38.85-.85 0-.367-.333-.887-.68-1.052l-.147-.086-4.14-2.947z" stroke-width="1.95" stroke="#FFF" fill="none" fill-rule="evenodd"/></svg>