<svg width="39" height="55" viewBox="0 0 39 55" xmlns="http://www.w3.org/2000/svg"><title>voice</title><path d="M4 23v6c0 8.23 6.94 15 16 15 8.06 0 15-6.77 15-15v-6h2.997A.998.998 0 0 1 39 24.006v5.244c0 9.768-7.634 17.663-17 18.647V51h12.004c.558 0 .996.452.996 1.01v1.98a.997.997 0 0 1-.996 1.01H4.996A.998.998 0 0 1 4 53.99v-1.98c0-.567.446-1.01.996-1.01H17v-3.203C7.208 46.465 0 38.74 0 29.25v-5.252A1 1 0 0 1 1.003 23H4zM19.5 0C25.3 0 30 4.705 30 10.51v18.98C30 35.294 25.299 40 19.5 40 13.7 40 9 35.295 9 29.49V10.51C9 4.706 13.701 0 19.5 0z" fill="#000" fill-rule="nonzero"/></svg>