<svg xmlns="http://www.w3.org/2000/svg" width="14" height="14" viewBox="0 0 14 14">
  <path fill-opacity=".9" fill-rule="evenodd" d="M6.66666667,13.3333333 C2.98476833,13.3333333 0,10.348565 0,6.66666667 C0,2.98476833 2.98476833,0 6.66666667,0 C10.348565,0 13.3333333,2.98476833 13.3333333,6.66666667 C13.3333333,10.348565 10.348565,13.3333333 6.66666667,13.3333333 Z M6.66666667,12.5333333 C9.9067372,12.5333333 12.5333333,9.9067372 12.5333333,6.66666667 C12.5333333,3.42659613 9.9067372,0.8 6.66666667,0.8 C3.42659613,0.8 0.8,3.42659613 0.8,6.66666667 C0.8,9.9067372 3.42659613,12.5333333 6.66666667,12.5333333 Z M7.99902267,8.95833333 L7.30204419,9.66666667 L5.08231362,7.37762479 C4.70155162,6.98497346 4.70421424,6.34561412 5.08231362,5.95570854 L7.30204419,3.66666667 L7.99902267,4.375 L5.78683999,6.66666667 L7.99902267,8.95833333 Z" transform="rotate(-90 7 6.667)"/>
</svg>
