<svg xmlns="http://www.w3.org/2000/svg" width="16" height="16" viewBox="0 0 16 16">
  <g fill="none" fill-rule="evenodd">
    <rect width="16" height="16" rx="3"/>
    <path fill="#00B26A" fill-rule="nonzero" d="M3.5,11.2 L3.5,12 L2.66666667,12 C2.29847683,12 2,11.7015232 2,11.3333333 L2,2.66666667 C2,2.29847683 2.29847683,2 2.66666667,2 L11.3333333,2 C11.7015232,2 12,2.29847683 12,2.66666667 L12,3.5 L11.2,3.5 L11.2,2.8 L2.8,2.8 L2.8,11.2 L3.5,11.2 Z M4.8,4.8 L4.8,13.2 L13.2,13.2 L13.2,4.8 L4.8,4.8 Z M4.66666667,4 L13.3333333,4 C13.7015232,4 14,4.29847683 14,4.66666667 L14,13.3333333 C14,13.7015232 13.7015232,14 13.3333333,14 L4.66666667,14 C4.29847683,14 4,13.7015232 4,13.3333333 L4,4.66666667 C4,4.29847683 4.29847683,4 4.66666667,4 Z"/>
  </g>
</svg>
