<svg xmlns="http://www.w3.org/2000/svg" width="16" height="16" viewBox="0 0 16 16">
  <path fill="#00B26A" d="M12.92,4.8 L3.88399005,4.8 L4.72399005,13.2 L11.27601,13.2 L12.19601,4 L13,4 L12.92,4.8 Z M12.92,4.8 L12.0600631,13.399369 C12.0259659,13.7403406 11.7390455,14 11.3963733,14 L4.6036267,14 C4.26095449,14 3.97403406,13.7403406 3.9399369,13.399369 L3.08,4.8 L2,4.8 L2,4 L4,4 L4,2.667 C4,2.29862607 4.29862607,2 4.667,2 L11.333,2 C11.7013739,2 12,2.29862607 12,2.667 L12,4 L14,4 L14,4.8 L12.92,4.8 Z M4.8,4 L11.2,4 L11.2,2.8 L4.8,2.8 L4.8,4 Z M6,6 L6.8,6 L7.3,12 L6.5,12 L6,6 Z M9.2,6 L10,6 L9.5,12 L8.7,12 L9.2,6 Z"/>
</svg>
