<?xml version="1.0" encoding="UTF-8"?>
<svg width="16px" height="16px" viewBox="0 0 16 16" version="1.1" xmlns="http://www.w3.org/2000/svg" xmlns:xlink="http://www.w3.org/1999/xlink">
    <!-- Generator: Sketch 52.4 (67378) - http://www.bohemiancoding.com/sketch -->
    <title>Icon/Setting/Black</title>
    <desc>Created with Sketch.</desc>
    <g id="Icon/Setting/Black" stroke="none" stroke-width="1" fill="none" fill-rule="evenodd">
        <rect id="BG" x="0" y="0" width="16" height="16"></rect>
        <path d="M11.5,8.2 C11.887,8.2 12.2,7.887 12.2,7.5 C12.2,7.113 11.887,6.8 11.5,6.8 C11.113,6.8 10.8,7.113 10.8,7.5 C10.8,7.887 11.113,8.2 11.5,8.2 Z M11.5,13.2 C11.887,13.2 12.2,12.887 12.2,12.5 C12.2,12.113 11.887,11.8 11.5,11.8 C11.113,11.8 10.8,12.113 10.8,12.5 C10.8,12.887 11.113,13.2 11.5,13.2 Z M4,3 L2,3 L2,2 L7,2 L7,3 L5,3 L5,7 L10.085,7 C10.291,6.417 10.847,6 11.5,6 C12.328,6 13,6.672 13,7.5 C13,8.328 12.328,9 11.5,9 C10.847,9 10.291,8.583 10.085,8 L5,8 L5,12 L10.085,12 C10.291,11.417 10.847,11 11.5,11 C12.328,11 13,11.672 13,12.5 C13,13.328 12.328,14 11.5,14 C10.847,14 10.291,13.583 10.085,13 L4.6,13 C4.269,13 4,12.731 4,12.4 L4,3 Z" id="Fill-1" fill="#000000"></path>
    </g>
</svg>