<svg xmlns="http://www.w3.org/2000/svg" width="11" height="12" viewBox="0 0 11 12">
  <g fill-rule="evenodd" transform="translate(-2 -2)">
    <path fill-rule="nonzero" d="M12.2,12 L13,12 L13,13.4 C13,13.7313708 12.7313708,14 12.4,14 L2.6,14 C2.26862915,14 2,13.7313708 2,13.4 L2,2.6 C2,2.26862915 2.26862915,2 2.6,2 L12.4,2 C12.7313708,2 13,2.26862915 13,2.6 L13,4 L12.2,4 L12.2,2.8 L2.8,2.8 L2.8,13.2 L12.2,13.2 L12.2,12 Z"/>
    <path d="M6.8,10.4 L7.47731323,7.17258396 L6.84071282,7.17258396 L6.97765593,6.51007539 L7.60315284,6.51007539 L7.68087731,6.10664839 C7.82892392,5.3405072 8.26936258,5 9.09102125,5 C9.29458533,5 9.46113777,5.02590816 9.6165867,5.05551748 L9.49444825,5.68101439 C9.42042495,5.66250857 9.26127485,5.64400274 9.14653873,5.64400274 C8.75051405,5.64400274 8.53584647,5.81425634 8.46182317,6.17697053 L8.39890336,6.51007539 L9.26867718,6.51007539 L9.13543523,7.17258396 L8.27306374,7.17258396 L7.59575051,10.4 L6.8,10.4 Z M10.7380398,9.01946539 L10.7195339,9.01946539 L9.58697738,10.4 L8.67649075,10.4 L10.3716244,8.40507197 L9.49814942,6.49527073 L10.3346127,6.49527073 L10.9379027,7.87580535 L10.9527073,7.87580535 L12.088965,6.49527073 L12.9957505,6.49527073 L11.304318,8.4864976 L12.1740918,10.4 L11.3376285,10.4 L10.7380398,9.01946539 Z"/>
  </g>
</svg>
