<svg xmlns="http://www.w3.org/2000/svg" width="40" height="40" viewBox="0 0 40 40">
  <path fill="#FA5151" fill-rule="evenodd" d="M20.6060606,40 C8.954305,40 0,31.045695 0,20.6060606 C0,8.954305 8.954305,0 20.6060606,0 C31.045695,0 40,8.954305 40,20.6060606 C40,31.045695 31.045695,40 20.6060606,40 Z M18.0415704,10.872971 L18.666667,24 L21.3333338,24 L21.9584303,10.8729709 C21.9803215,10.4132546 21.6253941,10.0228345 21.1656778,10.0009432 C21.1524746,10.0003145 21.1392583,10 21.1260402,10 L18.8739605,10 C18.4137232,10 18.0406271,10.373096 18.0406271,10.8333333 C18.0406271,10.8465515 18.0409416,10.8597678 18.0415704,10.872971 Z M20.0000004,29.8333333 C21.1045699,29.8333333 22.0000005,28.9379028 22.0000005,27.8333333 C22.0000005,26.7287638 21.1045699,25.8333333 20.0000004,25.8333333 C18.8954309,25.8333333 18.0000003,26.7287638 18.0000003,27.8333333 C18.0000003,28.9379028 18.8954309,29.8333333 20.0000004,29.8333333 Z"/>
</svg>
