<svg xmlns="http://www.w3.org/2000/svg" width="40" height="40" viewBox="0 0 40 40">
  <path fill="#07C160" fill-rule="evenodd" d="M20,40 C8.954305,40 0,31.045695 0,20 C0,8.954305 8.954305,0 20,0 C31.045695,0 40,8.954305 40,20 C40,31.045695 31.045695,40 20,40 Z M29.9116071,14.4732144 C29.7740172,14.3010179 29.5261198,14.2657674 29.3459824,14.3927837 L16.6662925,23.3333333 L12.4961685,19.4519904 C12.335643,19.3025814 12.0867824,19.3031721 11.926968,19.4533415 L11.048368,20.278917 C10.7283411,20.5796299 10.6965943,21.0770884 10.975799,21.4160432 L15.7086408,27.1617177 C15.7162698,27.1709793 15.7240978,27.180075 15.7321196,27.1889985 C16.0398034,27.5312689 16.5666954,27.5593069 16.9089658,27.2516231 L30.1259579,15.3702152 C30.2901056,15.2226547 30.3107009,14.9726879 30.1729186,14.8002507 L29.9116071,14.4732144 Z"/>
</svg>
