<svg xmlns="http://www.w3.org/2000/svg" width="16" height="16" viewBox="0 0 16 16">
  <g fill="none" fill-rule="evenodd">
    <rect width="16" height="16"/>
    <path fill="#00B26A" d="M12.1,3.6 L12.1,2 L12.9,2 L12.9,3.6 L14.5,3.6 L14.5,4.4 L12.9,4.4 L12.9,6 L12.1,6 L12.1,4.4 L10.5,4.4 L10.5,3.6 L12.1,3.6 Z M14.2,6 L15,6 L15,12.733 C15,13.1013739 14.7013739,13.4 14.333,13.4 L1.667,13.4 C1.29862607,13.4 1,13.1013739 1,12.733 L1,3.267 C1,2.89862607 1.29862607,2.6 1.667,2.6 L6.58777133,2.6 C6.84041229,2.6 7.07136979,2.74274005 7.18435427,2.968709 L7.90796106,4.415922 C7.9643686,4.52873708 8.07967422,4.6 8.20580532,4.6 L10,4.6 L10,5.4 L8.20580532,5.4 C7.77665658,5.4 7.38434046,5.1575353 7.19241931,4.773693 L6.50557281,3.4 L1.8,3.4 L1.8,12.6 L14.2,12.6 L14.2,6 Z"/>
  </g>
</svg>
