<svg xmlns="http://www.w3.org/2000/svg" width="12" height="12" viewBox="0 0 12 12">
  <g fill="none" fill-rule="evenodd" transform="translate(-1 -1)">
    <rect width="14" height="14"/>
    <path fill="#FFF" d="M1.75,7 L4.18167179,8.2158359 C4.25576857,8.25288429 4.28580223,8.34298525 4.24875384,8.41708203 C4.22334503,8.46789964 4.17140556,8.5 4.11458975,8.5 L2.91554273,8.5 C3.52659347,10.1633598 5.1247194,11.35 7,11.35 C8.8752806,11.35 10.4734065,10.1633598 11.0844573,8.5 L12.032591,8.5 C11.3871791,10.6686167 9.37826548,12.25 7,12.25 C4.10050506,12.25 1.75,9.89949494 1.75,7 Z M11.0844573,5.5 C10.4734065,3.83664018 8.8752806,2.65 7,2.65 C5.1247194,2.65 3.52659347,3.83664018 2.91554273,5.5 L1.96740901,5.5 C2.6128209,3.33138329 4.62173452,1.75 7,1.75 C9.89949494,1.75 12.25,4.10050506 12.25,7 L9.81832821,5.7841641 C9.74423143,5.74711571 9.71419777,5.65701475 9.75124616,5.58291797 C9.77665497,5.53210036 9.82859444,5.5 9.88541025,5.5 L11.0844573,5.5 Z"/>
  </g>
</svg>
