<svg xmlns="http://www.w3.org/2000/svg" width="14" height="14" viewBox="0 0 14 14">
  <path fill-opacity=".9" fill-rule="evenodd" d="M5.00321945,1.87324515 C2.60507811,2.0014209 0.7,3.98656636 0.7,6.41666667 C0.7,8.92956228 2.73710439,10.9666667 5.25,10.9666667 C7.76289561,10.9666667 9.8,8.92956228 9.8,6.41666667 C9.8,5.19288126 9.31557356,4.04756852 8.46733585,3.19933081 L8.9623106,2.70435607 C9.91237373,3.6544192 10.5,4.9669192 10.5,6.41666667 C10.5,9.3161616 8.14949494,11.6666667 5.25,11.6666667 C2.35050506,11.6666667 0,9.3161616 0,6.41666667 C0,3.68056586 2.09305514,1.43332427 4.76537015,1.18873719 L4.07160772,0.494974766 L4.56658249,2.42028619e-13 L6.01025883,1.44367634 C6.12416175,1.55757926 6.12416175,1.74225238 6.01025883,1.8561553 L5.72152355,2.14489059 L4.56658249,3.29983165 L4.07160772,2.80485688 L5.00321945,1.87324515 Z" transform="translate(1.75 1.167)"/>
</svg>
