<svg xmlns="http://www.w3.org/2000/svg" width="14" height="14" viewBox="0 0 14 14">
  <path fill-opacity=".9" fill-rule="evenodd" d="M8.3659944,2.28 L7.6340056,2.28 L7.21506337,3.95576891 L6.79437521,4.08514248 C6.5488101,4.16066073 6.3114178,4.2592038 6.08494071,4.37928796 L5.69586758,4.58558483 L4.21414634,3.69655209 L3.69655209,4.21414634 L4.58558483,5.69586758 L4.37928796,6.08494071 C4.2592038,6.3114178 4.16066073,6.5488101 4.08514248,6.79437521 L3.95576891,7.21506337 L2.28,7.6340056 L2.28,8.3659944 L3.95576891,8.78493663 L4.08514248,9.20562479 C4.16066073,9.4511899 4.2592038,9.6885822 4.37928796,9.91505929 L4.58558483,10.3041324 L3.69655209,11.7858537 L4.21414634,12.3034479 L5.69586758,11.4144152 L6.08494071,11.620712 C6.3114178,11.7407962 6.5488101,11.8393393 6.79437521,11.9148575 L7.21506337,12.0442311 L7.6340056,13.72 L8.3659944,13.72 L8.78493663,12.0442311 L9.20562479,11.9148575 C9.4511899,11.8393393 9.6885822,11.7407962 9.91505929,11.620712 L10.3041324,11.4144152 L11.7858537,12.3034479 L12.3034479,11.7858537 L11.4144152,10.3041324 L11.620712,9.91505929 C11.7407962,9.6885822 11.8393393,9.4511899 11.9148575,9.20562479 L12.0442311,8.78493663 L13.72,8.3659944 L13.72,7.6340056 L12.0442311,7.21506337 L11.9148575,6.79437521 C11.8393393,6.5488101 11.7407962,6.3114178 11.620712,6.08494071 L11.4144152,5.69586758 L12.3034479,4.21414634 L11.7858537,3.69655209 L10.3041324,4.58558483 L9.91505929,4.37928796 C9.6885822,4.2592038 9.4511899,4.16066073 9.20562479,4.08514248 L8.78493663,3.95576891 L8.3659944,2.28 Z M10.2804502,3.69016569 L11.4715833,2.97548581 C11.7273425,2.82203026 12.0547205,2.86233233 12.265625,3.0732368 L12.9267632,3.73437504 C13.1376677,3.94527952 13.1779697,4.27265745 13.0245142,4.52841669 L12.3098343,5.71954983 C12.451929,5.98753844 12.5697599,6.27036436 12.6603995,6.56509987 L14.0076482,6.90191204 C14.2970067,6.97425168 14.5,7.2342407 14.5,7.53250466 L14.5,8.46749534 C14.5,8.7657593 14.2970067,9.02574832 14.0076482,9.09808796 L12.6603995,9.43490013 C12.5697599,9.72963564 12.451929,10.0124616 12.3098343,10.2804502 L13.0245142,11.4715833 C13.1779697,11.7273425 13.1376677,12.0547205 12.9267632,12.265625 L12.265625,12.9267632 C12.0547205,13.1376677 11.7273425,13.1779697 11.4715833,13.0245142 L10.2804502,12.3098343 C10.0124616,12.451929 9.72963564,12.5697599 9.43490013,12.6603995 L9.09808796,14.0076482 C9.02574832,14.2970067 8.7657593,14.5 8.46749534,14.5 L7.53250466,14.5 C7.2342407,14.5 6.97425168,14.2970067 6.90191204,14.0076482 L6.56509987,12.6603995 C6.27036436,12.5697599 5.98753844,12.451929 5.71954983,12.3098343 L4.52841669,13.0245142 C4.27265745,13.1779697 3.94527952,13.1376677 3.73437504,12.9267632 L3.0732368,12.265625 C2.86233233,12.0547205 2.82203026,11.7273425 2.97548581,11.4715833 L3.69016569,10.2804502 C3.54807102,10.0124616 3.43024006,9.72963564 3.33960052,9.43490013 L1.99235184,9.09808796 C1.70299329,9.02574832 1.5,8.7657593 1.5,8.46749534 L1.5,7.53250466 C1.5,7.2342407 1.70299329,6.97425168 1.99235184,6.90191204 L3.33960052,6.56509987 C3.43024006,6.27036436 3.54807102,5.98753844 3.69016569,5.71954983 L2.97548581,4.52841669 C2.82203026,4.27265745 2.86233233,3.94527952 3.0732368,3.73437504 L3.73437504,3.0732368 C3.94527952,2.86233233 4.27265745,2.82203026 4.52841669,2.97548581 L5.71954983,3.69016569 C5.98753844,3.54807102 6.27036436,3.43024006 6.56509987,3.33960052 L6.90191204,1.99235184 C6.97425168,1.70299329 7.2342407,1.5 7.53250466,1.5 L8.46749534,1.5 C8.7657593,1.5 9.02574832,1.70299329 9.09808796,1.99235184 L9.43490013,3.33960052 C9.72963564,3.43024006 10.0124616,3.54807102 10.2804502,3.69016569 Z M8,9.82 C9.00515824,9.82 9.82,9.00515824 9.82,8 C9.82,6.99484176 9.00515824,6.18 8,6.18 C6.99484176,6.18 6.18,6.99484176 6.18,8 C6.18,9.00515824 6.99484176,9.82 8,9.82 Z M8,10.6 C6.56405965,10.6 5.4,9.43594035 5.4,8 C5.4,6.56405965 6.56405965,5.4 8,5.4 C9.43594035,5.4 10.6,6.56405965 10.6,8 C10.6,9.43594035 9.43594035,10.6 8,10.6 Z" transform="translate(-1 -1)"/>
</svg>
