<svg xmlns="http://www.w3.org/2000/svg" width="16" height="16" viewBox="0 0 16 16">
  <g fill="none" fill-rule="evenodd">
    <rect width="16" height="16" opacity=".9"/>
    <rect width="7.3" height="1" x="3.8" y="3.8" fill="#000" opacity=".9"/>
    <rect width="5" height="1" x="3.8" y="7.6" fill="#000" opacity=".9"/>
    <rect width="3" height="1" x="3.8" y="11.4" fill="#000" opacity=".9"/>
    <g fill="#000" fill-rule="nonzero" transform="translate(2 2)">
      <path d="M5.5,11.2 L5.5,12 L0.6,12 C0.26862915,12 1.33226763e-15,11.7313708 1.33226763e-15,11.4 L8.8817842e-16,0.6 C6.66133815e-16,0.26862915 0.26862915,2.22044605e-16 0.6,4.4408921e-16 L10.4,4.4408921e-16 C10.7313708,2.22044605e-16 11,0.26862915 11,0.6 L11,5 L10.2,5 L10.2,0.8 L0.8,0.8 L0.8,11.2 L5.5,11.2 Z"/>
      <path d="M1.97391304,0 C2.53043478,0 2.97391304,0.151391466 3.31304348,0.471985158 C3.63478261,0.774768089 3.8,1.19332096 3.8,1.72764378 C3.8,2.1283859 3.68695652,2.47569573 3.46956522,2.76957328 C3.3826087,2.87643785 3.14782609,3.10797774 2.76521739,3.45528757 C2.57391304,3.6244898 2.44347826,3.78478664 2.35652174,3.94508349 C2.24347826,4.14100186 2.19130435,4.35473098 2.19130435,4.59517625 L2.19130435,4.59517625 C2.19130435,4.70829728 2.09960163,4.8 1.9864806,4.8 L1.70047592,4.8 C1.58735489,4.8 1.49565217,4.70829728 1.49565217,4.59517625 L1.49565217,4.59517625 C1.49565217,4.3012987 1.54782609,4.04304267 1.65217391,3.82040816 C1.77391304,3.55324675 2.06086957,3.2148423 2.53043478,2.78738404 C2.66956522,2.64489796 2.77391304,2.5380334 2.82608696,2.46679035 C3,2.24415584 3.08695652,2.01261596 3.08695652,1.76326531 C3.08695652,1.40705009 2.9826087,1.1309833 2.79130435,0.935064935 C2.59130435,0.721335807 2.30434783,0.623376623 1.93913043,0.623376623 C1.50434783,0.623376623 1.1826087,0.765862709 0.973913043,1.05974026 C0.782608696,1.30909091 0.686956522,1.64749536 0.686956522,2.083859 C0.686956522,2.52022263 0,2.70723562 0,2.083859 C0,1.46048237 0.165217391,0.961781076 0.513043478,0.587755102 C0.860869565,0.195918367 1.34782609,0 1.97391304,0 Z M1.86366667,5.043 C1.96566667,5.043 2.05566667,5.073 2.12766667,5.145 C2.19366667,5.211 2.22966667,5.295 2.22966667,5.397 C2.22966667,5.505 2.19366667,5.589 2.12166667,5.655 C2.04966667,5.721 1.96566667,5.757 1.86366667,5.757 C1.76166667,5.757 1.67766667,5.721 1.60566667,5.655 C1.53366667,5.583 1.50366667,5.499 1.50366667,5.397 C1.50366667,5.295 1.53366667,5.211 1.60566667,5.145 C1.67766667,5.073 1.76166667,5.043 1.86366667,5.043 Z" transform="translate(8 6)"/>
    </g>
  </g>
</svg>
