<svg xmlns="http://www.w3.org/2000/svg" width="12" height="12" viewBox="0 0 12 12">
  <g fill="none" fill-rule="evenodd" transform="translate(-2 -2)">
    <path stroke="#000" stroke-width=".8" d="M2.6,2.4 C2.48954305,2.4 2.4,2.48954305 2.4,2.6 L2.4,13.4 C2.4,13.5104569 2.48954305,13.6 2.6,13.6 L13.4,13.6 C13.5104569,13.6 13.6,13.5104569 13.6,13.4 L13.6,5.21046864 C13.6,5.16505434 13.5845438,5.12099224 13.5561738,5.08552963 L11.4677989,2.47506099 C11.4298444,2.42761794 11.3723818,2.4 11.3116251,2.4 L2.6,2.4 Z"/>
    <path stroke="#000" stroke-width=".8" d="M5.4 2.4L5.4 5.4C5.4 5.51045695 5.48954305 5.6 5.6 5.6L9.4 5.6C9.51045695 5.6 9.6 5.51045695 9.6 5.4L9.6 2.5C9.6 2.44477153 9.55522847 2.4 9.5 2.4L5.4 2.4zM5.4 13.6L10.6 13.6 10.6 10.6C10.6 10.4895431 10.5104569 10.4 10.4 10.4L5.6 10.4C5.48954305 10.4 5.4 10.4895431 5.4 10.6L5.4 13.6z"/>
    <rect width="1" height="1" x="8" y="12" fill="#000"/>
  </g>
</svg>
