<svg xmlns="http://www.w3.org/2000/svg" width="14" height="14" viewBox="0 0 14 14">
  <path fill="#FFC300" fill-rule="evenodd" d="M7.06666644,6.3352958 L9.66077898,8.92940834 L9.09509354,9.49509379 L6.26666641,6.66666667 L6.26666641,2.66666667 L7.06666644,2.66666667 L7.06666644,6.3352958 Z M6.66666667,13.3333333 C2.98476833,13.3333333 0,10.348565 0,6.66666667 C0,2.98476833 2.98476833,0 6.66666667,0 C10.348565,0 13.3333333,2.98476833 13.3333333,6.66666667 C13.3333333,10.348565 10.348565,13.3333333 6.66666667,13.3333333 Z M6.66666667,12.5333333 C9.9067372,12.5333333 12.5333333,9.9067372 12.5333333,6.66666667 C12.5333333,3.42659613 9.9067372,0.8 6.66666667,0.8 C3.42659613,0.8 0.8,3.42659613 0.8,6.66666667 C0.8,9.9067372 3.42659613,12.5333333 6.66666667,12.5333333 Z" transform="translate(.333 .333)"/>
</svg>
