<?xml version="1.0" encoding="UTF-8"?>
<svg width="16px" height="16px" viewBox="0 0 16 15" version="1.1" xmlns="http://www.w3.org/2000/svg" xmlns:xlink="http://www.w3.org/1999/xlink">
    <!-- Generator: Sketch 50 (54983) - http://www.bohemiancoding.com/sketch -->
    <title>icon/back</title>
    <desc>Created with Sketch.</desc>
    <defs></defs>
    <g id="Page-1" stroke="none" stroke-width="1" fill="none" fill-rule="evenodd">
        <g id="腾讯云资源管理器-详情页上传代码包" transform="translate(-26.000000, -108.000000)">
            <g id="Form/Textfield" transform="translate(24.000000, 101.000000)">
                <g id="icon/back" transform="translate(0.000000, 5.000000)">
                    <rect id="Rectangle" x="0" y="0" width="20" height="20"></rect>
                    <path d="M17.5,11 C17.5,7.962 15.038,5.5 12,5.5 L6.5,5.5 L6.5,2.5 L2.5,6.5 L6.5,10.5 L6.5,7.5 L12,7.5 C13.93,7.5 15.5,9.07 15.5,11 C15.5,12.93 13.93,14.5 12,14.5 L11.5,14.5 L4.5,14.5 L4.5,16.5 L12.5,16.5 L12.5,16.475 C15.303,16.222 17.5,13.869 17.5,11 Z" id="Shape" fill="#AFAFAF" fill-rule="nonzero"></path>
                </g>
            </g>
        </g>
    </g>
</svg>