<?xml version="1.0" encoding="UTF-8"?>
<svg width="16px" height="16px" viewBox="0 0 16 16" version="1.1" xmlns="http://www.w3.org/2000/svg" xmlns:xlink="http://www.w3.org/1999/xlink">
    <!-- Generator: Sketch 50 (54983) - http://www.bohemiancoding.com/sketch -->
    <title>icon/delete/normal</title>
    <desc>Created with Sketch.</desc>
    <defs>
        <path d="M6,1 L6,2.2 L1,2.2 L1,6.2 L2.499,6.2 L2.499,15.4 L13.499,15.4 L13.499,6.2 L15,6.2 L15,2.2 L10,2.2 L10,1 L6,1 Z M2.399,3.6 L13.6,3.6 L13.6,4.8 L8,4.8 L2.399,4.8 L2.399,3.6 Z M3.9,6.2 L8,6.2 L12.099,6.2 L12.099,14 L3.9,14 L3.9,6.2 Z" id="path-1"></path>
    </defs>
    <g id="Page-1" stroke="none" stroke-width="1" fill="none" fill-rule="evenodd">
        <g id="数据库" transform="translate(-627.000000, -254.000000)">
            <g id="Group-3" transform="translate(232.000000, 204.000000)">
                <g id="cell/fields/hover" transform="translate(12.000000, 44.000000)">
                    <g id="Group-10" transform="translate(383.000000, 6.000000)">
                        <g id="icon/delete/normal">
                            <g>
                                <rect id="box" x="0" y="0" width="16" height="16"></rect>
                                <mask id="mask-2" fill="white">
                                    <use xlink:href="#path-1"></use>
                                </mask>
                                <use id="Fill-1" fill="#B2B2B2" xlink:href="#path-1"></use>
                                <g id="color/icon/grey-3" mask="url(#mask-2)" fill="#B2B2B2">
                                    <rect id="color/font/grey-3" x="0" y="0" width="16" height="16"></rect>
                                </g>
                            </g>
                        </g>
                    </g>
                </g>
            </g>
        </g>
    </g>
</svg>