<?xml version="1.0" encoding="UTF-8"?>
<svg width="16px" height="16px" viewBox="0 0 16 16" version="1.1" xmlns="http://www.w3.org/2000/svg" xmlns:xlink="http://www.w3.org/1999/xlink">
    <!-- Generator: Sketch 50.2 (55047) - http://www.bohemiancoding.com/sketch -->
    <title>icon/upload 1</title>
    <desc>Created with Sketch.</desc>
    <defs>
        <path d="M1.29999995,2.5 L1.29999995,13.401 C1.29999995,13.9532847 1.7477152,14.401 2.29999995,14.401 L13.7,14.401 C14.2522847,14.401 14.7,13.9532847 14.7,13.401 L14.7,4 C14.7,3.44771525 14.2522847,3 13.7,3 L8.50918371,3 C8.17483052,3 7.8625992,2.83289886 7.67713342,2.5547002 L7.27086649,1.9452998 C7.08540071,1.66710114 6.77316938,1.5 6.43881619,1.5 L2.29999995,1.5 C1.7477152,1.5 1.29999995,1.94771525 1.29999995,2.5 Z M2.69999995,2.9 L6.02599995,2.9 L7.02599995,4.401 L13.3,4.401 L13.3,13 L2.69999995,13 L2.69999995,2.9 Z" id="path-1"></path>
    </defs>
    <g id="Page-1" stroke="none" stroke-width="1" fill="none" fill-rule="evenodd">
        <g id="腾讯云资源管理器-文件管理" transform="translate(-125.000000, -110.000000)">
            <g id="Group" transform="translate(125.000000, 110.000000)">
                <g id="icon/document">
                    <g id="icon/edit">
                        <rect id="Rectangle-2" x="0" y="0" width="16" height="16"></rect>
                        <mask id="mask-2" fill="white">
                            <use xlink:href="#path-1"></use>
                        </mask>
                        <use id="Fill-1" fill="#888888" xlink:href="#path-1"></use>
                        <g id="color/icon/bule-1" mask="url(#mask-2)" fill="#576B95">
                            <rect id="color/font/grey-3" x="0" y="0" width="16" height="16"></rect>
                        </g>
                    </g>
                </g>
            </g>
        </g>
    </g>
</svg>