<?xml version="1.0" encoding="UTF-8"?>
<svg width="16px" height="16px" viewBox="0 0 16 16" version="1.1" xmlns="http://www.w3.org/2000/svg" xmlns:xlink="http://www.w3.org/1999/xlink">
    <!-- Generator: Sketch 50 (54983) - http://www.bohemiancoding.com/sketch -->
    <title>Form/Checkbox Checked</title>
    <desc>Created with Sketch.</desc>
    <defs></defs>
    <g id="Page-1" stroke="none" stroke-width="1" fill="none" fill-rule="evenodd">
        <g id="数据库" transform="translate(-12.000000, -112.000000)">
            <g id="Group" transform="translate(0.000000, 92.000000)">
                <g id="Form/Checkbox-Checked" transform="translate(12.000000, 20.000000)">
                    <rect id="Bound" fill="#1AAD19" x="0" y="0" width="16" height="16" rx="3"></rect>
                    <path d="M7.44444444,7.44444444 L7.44444444,3.5 C7.44444444,3.22385763 7.66830207,3 7.94444444,3 L8.05555556,3 C8.33169793,3 8.55555556,3.22385763 8.55555556,3.5 L8.55555556,7.44444444 L12.5,7.44444444 C12.7761424,7.44444444 13,7.66830207 13,7.94444444 L13,8.05555556 C13,8.33169793 12.7761424,8.55555556 12.5,8.55555556 L8.55555556,8.55555556 L8.55555556,12.5 C8.55555556,12.7761424 8.33169793,13 8.05555556,13 L7.94444444,13 C7.66830207,13 7.44444444,12.7761424 7.44444444,12.5 L7.44444444,8.55555556 L3.5,8.55555556 C3.22385763,8.55555556 3,8.33169793 3,8.05555556 L3,7.94444444 C3,7.66830207 3.22385763,7.44444444 3.5,7.44444444 L7.44444444,7.44444444 Z" id="Combined-Shape" fill="#FFFFFF"></path>
                </g>
            </g>
        </g>
    </g>
</svg>