<?xml version="1.0" encoding="UTF-8"?>
<svg width="16px" height="16px" viewBox="0 0 16 16" version="1.1" xmlns="http://www.w3.org/2000/svg" xmlns:xlink="http://www.w3.org/1999/xlink">
    <!-- Generator: Sketch 50.2 (55047) - http://www.bohemiancoding.com/sketch -->
    <title>error</title>
    <desc>Created with Sketch.</desc>
    <defs></defs>
    <g id="Page-1" stroke="none" stroke-width="1" fill="none" fill-rule="evenodd">
        <g id="统计-提示" transform="translate(-36.000000, -574.000000)" fill="#D94E4E">
            <g id="Group-5-Copy" transform="translate(20.000000, 566.000000)">
                <g id="error" transform="translate(16.000000, 8.000000)">
                    <path d="M6.58578644,8 L3.75735931,10.8284271 L5.17157288,12.2426407 L8,9.41421356 L10.8284271,12.2426407 L12.2426407,10.8284271 L9.41421356,8 L12.2426407,5.17157288 L10.8284271,3.75735931 L8,6.58578644 L5.17157288,3.75735931 L3.75735931,5.17157288 L6.58578644,8 Z M8,0 C12.418383,0 16,3.58161702 16,8 C16,12.418383 12.418383,16 8,16 C3.58161702,16 0,12.418383 0,8 C0,3.58161702 3.58161702,0 8,0 Z" id="Shape" transform="translate(8.000000, 8.000000) rotate(-180.000000) translate(-8.000000, -8.000000) "></path>
                </g>
            </g>
        </g>
    </g>
</svg>