<?xml version="1.0" encoding="UTF-8"?>
<svg width="16px" height="16px" viewBox="0 0 16 16" version="1.1" xmlns="http://www.w3.org/2000/svg" xmlns:xlink="http://www.w3.org/1999/xlink">
    <!-- Generator: Sketch 50 (54983) - http://www.bohemiancoding.com/sketch -->
    <title>icon/edit 3</title>
    <desc>Created with Sketch.</desc>
    <defs>
        <path d="M8.0457,0.4998 L1.4997,4.2788 L1.4997,11.8368 L8.0457,15.6158 L14.5917,11.8368 L14.5917,4.2788 L8.0457,0.4998 Z M2.9007,11.0288 L2.9007,5.0868 L8.0457,2.1158 L13.1907,5.0868 L13.1907,11.0288 L8.0457,13.9998 L2.9007,11.0288 Z M9.8457,8.0581 C9.8457,9.0511 9.0387,9.8581 8.0457,9.8581 C7.0537,9.8581 6.2457,9.0511 6.2457,8.0581 C6.2457,7.0651 7.0537,6.2581 8.0457,6.2581 C9.0387,6.2581 9.8457,7.0651 9.8457,8.0581 Z M4.8457,8.0581 C4.8457,9.8231 6.2817,11.2581 8.0457,11.2581 C9.8107,11.2581 11.2457,9.8231 11.2457,8.0581 C11.2457,6.2931 9.8107,4.8581 8.0457,4.8581 C6.2817,4.8581 4.8457,6.2931 4.8457,8.0581 Z" id="path-1"></path>
    </defs>
    <g id="Page-1" stroke="none" stroke-width="1" fill="none" fill-rule="evenodd">
        <g id="数据库" transform="translate(-332.000000, -167.000000)">
            <g id="Group-8" transform="translate(332.000000, 165.000000)">
                <g id="icon/edit" transform="translate(0.000000, 2.000000)">
                    <g>
                        <rect id="Rectangle-2" x="0" y="0" width="16" height="16"></rect>
                        <mask id="mask-2" fill="white">
                            <use xlink:href="#path-1"></use>
                        </mask>
                        <use id="Combined-Shape" fill="#576B95" xlink:href="#path-1"></use>
                        <g id="color/icon/bule-1" mask="url(#mask-2)" fill="#576B95">
                            <rect id="color/font/grey-3" x="0" y="0" width="16" height="16"></rect>
                        </g>
                    </g>
                </g>
            </g>
        </g>
    </g>
</svg>