<?xml version="1.0" encoding="UTF-8"?>
<svg width="24px" height="24px" viewBox="0 0 24 24" version="1.1" xmlns="http://www.w3.org/2000/svg" xmlns:xlink="http://www.w3.org/1999/xlink">
    <!-- Generator: Sketch 50 (54983) - http://www.bohemiancoding.com/sketch -->
    <title>icon-tab-files-green</title>
    <desc>Created with Sketch.</desc>
    <defs>
        <polygon id="path-1" points="0 0.0001 24 0.0001 24 24.0041 0 24.0041"></polygon>
    </defs>
    <g id="icon-tab-files-green" stroke="none" stroke-width="1" fill="none" fill-rule="evenodd">
        <mask id="mask-2" fill="white">
            <use xlink:href="#path-1"></use>
        </mask>
        <g id="Clip-4"></g>
        <path d="M8.195,2 L1.975,2 C1.436,2 1,2.437 1,2.975 L1,18.008 L1,19.015 L1,21.062 C1,21.6 1.436,22.037 1.975,22.037 L22.026,22.037 C22.565,22.037 23.001,21.6 23.001,21.062 L23.001,5.442 C23.001,4.627 22.341,3.966 21.526,3.966 L10.969,3.966 L9.045,2.498 C8.873,2.19 8.548,2 8.195,2" id="Fill-3" fill="#1AAD19" mask="url(#mask-2)"></path>
        <polygon id="Fill-27" fill="#FFFFFF" mask="url(#mask-2)" points="9.0016 9.6666 23.0016 9.6666 23.0016 8.2666 9.0016 8.2666"></polygon>
        <polygon id="Fill-29" fill="#FFFFFF" mask="url(#mask-2)" points="1.0016 9.6666 7.0016 9.6666 7.0016 8.2666 1.0016 8.2666"></polygon>
    </g>
</svg>