<?xml version="1.0" encoding="UTF-8"?>
<svg width="24px" height="24px" viewBox="0 0 24 24" version="1.1" xmlns="http://www.w3.org/2000/svg" xmlns:xlink="http://www.w3.org/1999/xlink">
    <!-- Generator: Sketch 50 (54983) - http://www.bohemiancoding.com/sketch -->
    <title>icon-tab-files</title>
    <desc>Created with Sketch.</desc>
    <defs></defs>
    <g id="icon-tab-files" stroke="none" stroke-width="1" fill="none" fill-rule="evenodd">
        <polygon id="Fill-1" fill="#888888" points="9.0016 9.6668 23.0016 9.6668 23.0016 8.2668 9.0016 8.2668"></polygon>
        <polygon id="Fill-2" fill="#888888" points="2.0016 9.6668 7.0016 9.6668 7.0016 8.2668 2.0016 8.2668"></polygon>
        <path d="M8.195,2 L1.975,2 C1.436,2 1,2.437 1,2.975 L1,18.008 L1,19.016 L1,21.062 C1,21.6 1.436,22.037 1.975,22.037 L22.026,22.037 C22.565,22.037 23.001,21.6 23.001,21.062 L23.001,5.442 C23.001,4.627 22.341,3.966 21.526,3.966 L10.969,3.966 L9.045,2.498 C8.873,2.19 8.548,2 8.195,2 M7.946,3.4 L7.966,3.436 L8.196,3.611 L10.119,5.079 L10.496,5.366 L10.969,5.366 L21.526,5.366 C21.567,5.366 21.601,5.4 21.601,5.442 L21.601,20.637 L2.4,20.637 L2.4,19.016 L2.4,18.008 L2.4,3.4 L7.946,3.4" id="Fill-3" fill="#888888"></path>
    </g>
</svg>