<?xml version="1.0" encoding="UTF-8"?>
<svg width="24px" height="24px" viewBox="0 0 24 24" version="1.1" xmlns="http://www.w3.org/2000/svg" xmlns:xlink="http://www.w3.org/1999/xlink">
    <!-- Generator: Sketch 50 (54983) - http://www.bohemiancoding.com/sketch -->
    <title>icon-tab-user</title>
    <desc>Created with Sketch.</desc>
    <defs></defs>
    <g id="icon-tab-user" stroke="none" stroke-width="1" fill="none" fill-rule="evenodd">
        <g id="Group" transform="translate(1.400000, 0.000000)" fill="#888888">
            <path d="M10.662,0 C10.317,0 9.972,0.089 9.662,0.268 L1,5.269 C0.381,5.626 0,6.287 0,7.001 L0,17.003 C0,17.718 0.381,18.378 1,18.735 L9.662,23.736 C9.972,23.915 10.317,24.004 10.662,24.004 C11.007,24.004 11.352,23.915 11.662,23.736 L20.324,18.735 C20.943,18.378 21.324,17.718 21.324,17.003 L21.324,7.001 C21.324,6.287 20.943,5.626 20.324,5.269 L11.662,0.268 C11.352,0.089 11.007,0 10.662,0 M10.662,1.4 C10.767,1.4 10.871,1.428 10.962,1.48 L19.624,6.481 C19.809,6.588 19.924,6.788 19.924,7.001 L19.924,17.003 C19.924,17.217 19.809,17.416 19.624,17.523 L10.962,22.524 C10.871,22.577 10.767,22.604 10.662,22.604 C10.557,22.604 10.453,22.577 10.362,22.524 L1.7,17.523 C1.515,17.416 1.4,17.217 1.4,17.003 L1.4,7.001 C1.4,6.788 1.515,6.588 1.7,6.481 L10.362,1.48 C10.453,1.428 10.557,1.4 10.662,1.4" id="Fill-1"></path>
            <path d="M14.5751,16.1104 C15.5421,16.3524 16.2671,16.6674 16.7971,17.0694 L18.1001,16.3454 C17.0391,15.2884 15.5531,14.9124 14.8631,14.7414 L13.1731,14.4524 C13.1161,14.4434 13.0751,14.3944 13.0751,14.3374 L13.0751,13.3304 C13.0751,13.2194 13.1121,13.1184 13.1681,13.0734 C13.8791,12.5064 14.3701,11.7444 14.5881,10.8714 C14.7621,10.1734 14.8511,9.4554 14.8511,8.7364 L14.8511,8.1594 C14.8511,5.7834 13.0831,3.8304 10.8261,3.7124 C9.6471,3.6524 8.5271,4.0634 7.6721,4.8734 C6.8181,5.6854 6.3471,6.7804 6.3471,7.9584 L6.3471,8.7364 C6.3471,9.4564 6.4351,10.1744 6.6101,10.8714 C6.8281,11.7444 7.3191,12.5064 8.0301,13.0744 C8.0871,13.1194 8.1231,13.2194 8.1231,13.3304 L8.1231,14.3584 C8.1231,14.4164 8.0821,14.4644 8.0261,14.4744 L6.4091,14.7524 C5.3271,15.0224 2.0331,15.8454 2.0331,19.3664 L3.4331,19.3664 C3.4331,17.6654 4.4251,16.6914 6.6971,16.1214 L8.2611,15.8544 C8.9921,15.7294 9.5231,15.1004 9.5231,14.3584 L9.5231,13.3304 C9.5231,12.7864 9.2971,12.2944 8.9041,11.9804 C8.4351,11.6054 8.1111,11.1044 7.9681,10.5314 C7.8221,9.9454 7.7471,9.3414 7.7471,8.7364 L7.7471,7.9584 C7.7471,7.1684 8.0631,6.4334 8.6361,5.8894 C9.2091,5.3454 9.9571,5.0634 10.7531,5.1104 C12.2411,5.1884 13.4511,6.5554 13.4511,8.1594 L13.4511,8.7364 C13.4511,9.3404 13.3771,9.9444 13.2301,10.5324 C13.0871,11.1054 12.7631,11.6054 12.2951,11.9794 C11.9011,12.2944 11.6751,12.7864 11.6751,13.3304 L11.6751,14.3374 C11.6751,15.0794 12.2061,15.7084 12.9371,15.8324 L14.5751,16.1104 Z" id="Fill-4"></path>
        </g>
    </g>
</svg>