<?xml version="1.0" encoding="UTF-8"?>
<svg width="24px" height="24px" viewBox="0 0 24 24" version="1.1" xmlns="http://www.w3.org/2000/svg" xmlns:xlink="http://www.w3.org/1999/xlink">
    <!-- Generator: Sketch 50 (54983) - http://www.bohemiancoding.com/sketch -->
    <title>icon-tab-function</title>
    <desc>Created with Sketch.</desc>
    <defs></defs>
    <g id="icon-tab-function" stroke="none" stroke-width="1" fill="none" fill-rule="evenodd">
        <path d="M11.998,0 C5.372,0 0,5.372 0,11.998 C0,18.624 5.372,23.996 11.998,23.996 C18.624,23.996 23.996,18.624 23.996,11.998 C23.996,5.372 18.624,0 11.998,0 M11.998,1.4 C17.841,1.4 22.596,6.154 22.596,11.998 C22.596,17.841 17.841,22.596 11.998,22.596 C6.154,22.596 1.4,17.841 1.4,11.998 C1.4,6.154 6.154,1.4 11.998,1.4" id="Fill-30" fill="#888888"></path>
        <polygon id="Fill-31" fill="#888888" points="9.9687 18.4712 5.3687 15.8152 5.3687 8.1942 9.9687 5.5382 9.9687 3.9222 3.9687 7.3862 3.9687 16.6232 9.9687 20.0872"></polygon>
        <polygon id="Fill-32" fill="#888888" points="13.9687 3.9219 13.9687 5.5389 18.5687 8.1939 18.5687 15.8159 13.9687 18.4709 13.9687 20.0879 19.9687 16.6239 19.9687 7.3859"></polygon>
        <polygon id="Fill-33" fill="#888888" points="11.3691 16.9956 9.9691 16.9956 12.5681 6.9956 13.9691 6.9956"></polygon>
    </g>
</svg>