<?xml version="1.0" encoding="UTF-8"?>
<svg width="24px" height="24px" viewBox="0 0 24 24" version="1.1" xmlns="http://www.w3.org/2000/svg" xmlns:xlink="http://www.w3.org/1999/xlink">
    <!-- Generator: Sketch 50 (54983) - http://www.bohemiancoding.com/sketch -->
    <title>icon-tab-user-green</title>
    <desc>Created with Sketch.</desc>
    <defs>
        <polygon id="path-1" points="0.2673 0.9955 21.591 0.9955 21.591 24.9995 0.2673 24.9995"></polygon>
    </defs>
    <g id="icon-tab-user-green" stroke="none" stroke-width="1" fill="none" fill-rule="evenodd">
        <g id="Group" transform="translate(1.000000, -1.000000)">
            <g id="Group-7">
                <mask id="mask-2" fill="white">
                    <use xlink:href="#path-1"></use>
                </mask>
                <g id="Clip-6"></g>
                <path d="M10.9293,0.9955 C10.5843,0.9955 10.2383,1.0845 9.9293,1.2635 L1.2673,6.2645 C0.6483,6.6215 0.2673,7.2825 0.2673,7.9965 L0.2673,17.9985 C0.2673,18.7135 0.6483,19.3735 1.2673,19.7305 L9.9293,24.7315 C10.2383,24.9105 10.5843,24.9995 10.9293,24.9995 C11.2743,24.9995 11.6193,24.9105 11.9293,24.7315 L20.5913,19.7305 C21.2103,19.3735 21.5913,18.7135 21.5913,17.9985 L21.5913,7.9965 C21.5913,7.2825 21.2103,6.6215 20.5913,6.2645 L11.9293,1.2635 C11.6193,1.0845 11.2743,0.9955 10.9293,0.9955 M10.9293,2.3955 C11.0343,2.3955 11.1383,2.4235 11.2293,2.4755 L19.8913,7.4765 C20.0763,7.5835 20.1913,7.7835 20.1913,7.9965 L20.1913,17.9985 C20.1913,18.2125 20.0763,18.4115 19.8913,18.5185 L11.2293,23.5195 C11.1383,23.5725 11.0343,23.5995 10.9293,23.5995 C10.8243,23.5995 10.7203,23.5725 10.6293,23.5195 L1.9673,18.5185 C1.7823,18.4115 1.6673,18.2125 1.6673,17.9985 L1.6673,7.9965 C1.6673,7.7835 1.7823,7.5835 1.9673,7.4765 L10.6293,2.4755 C10.7203,2.4235 10.8243,2.3955 10.9293,2.3955" id="Fill-5" fill="#1AAD19" mask="url(#mask-2)"></path>
            </g>
            <path d="M2.2999,20.3618 C2.2999,16.8408 5.5939,16.0178 6.6759,15.7478 L8.2929,15.4698 C8.3499,15.4598 8.3899,15.4118 8.3899,15.3538 L8.3899,14.3258 C8.3899,14.2158 8.3539,14.1148 8.2979,14.0698 C7.5869,13.5018 7.0959,12.7398 6.8769,11.8668 C6.7029,11.1698 6.6139,10.4518 6.6139,9.7328 L6.6139,8.9538 C6.6139,7.7758 7.0849,6.6808 7.9399,5.8688 C8.7939,5.0588 9.9139,4.6478 11.0939,4.7078 C13.3509,4.8258 15.1189,6.7788 15.1189,9.1548 L15.1189,9.7328 C15.1189,10.4508 15.0299,11.1688 14.8559,11.8668 C14.6369,12.7398 14.1469,13.5018 13.4359,14.0698 C13.3789,14.1138 13.3429,14.2158 13.3429,14.3258 L13.3429,15.3328 C13.3429,15.3898 13.3829,15.4388 13.4399,15.4478 L15.1299,15.7368 C16.2639,16.0178 19.5589,16.8408 19.5589,20.3618 L11.5919,24.4018 L2.2999,20.3618 Z" id="Fill-8" fill="#1AAD19"></path>
        </g>
    </g>
</svg>