<?xml version="1.0" encoding="UTF-8"?>
<svg width="24px" height="24px" viewBox="0 0 24 24" version="1.1" xmlns="http://www.w3.org/2000/svg" xmlns:xlink="http://www.w3.org/1999/xlink">
    <!-- Generator: Sketch 50.2 (55047) - http://www.bohemiancoding.com/sketch -->
    <title>icon-tab-Overview-green</title>
    <desc>Created with Sketch.</desc>
    <defs>
        <polygon id="path-1" points="0 0.005 23.995 0.005 23.995 24 0 24"></polygon>
    </defs>
    <g id="icon-tab-Overview-green" stroke="none" stroke-width="1" fill="none" fill-rule="evenodd">
        <g id="Group-3-Copy">
            <mask id="mask-2" fill="white">
                <use xlink:href="#path-1"></use>
            </mask>
            <g id="Clip-2"></g>
            <path d="M11.9979,0.0045 C5.3719,0.0045 -0.0001,5.3765 -0.0001,12.0025 C-0.0001,18.6285 5.3719,24.0005 11.9979,24.0005 C18.6239,24.0005 23.9959,18.6285 23.9959,12.0025 C23.9959,5.3765 18.6239,0.0045 11.9979,0.0045" id="Fill-1" fill="#1AAD19" mask="url(#mask-2)"></path>
            <path d="M19.23425,13.928875 C18.08625,15.077875 16.21625,15.077875 15.06725,13.928875 L12.98525,11.843875 L15.06725,9.76187503 C16.21525,8.61287503 18.08625,8.61287503 19.23425,9.76187503 C20.38325,10.909875 20.38325,12.779875 19.23425,13.928875 M20.22425,8.77087503 C18.52925,7.07687503 15.77225,7.07587503 14.07725,8.77087503 L11.99625,10.852875 L9.91825,8.77087503 C8.22325,7.07687503 5.46525,7.07787503 3.77125,8.77087503 C2.07625,10.465875 2.07625,13.223875 3.77125,14.918875 C4.61825,15.765875 5.73125,16.189875 6.84425,16.189875 C7.95725,16.189875 9.07025,15.765875 9.91825,14.918875 L10.46225,14.374875 L9.47225,13.384875 L8.92825,13.928875 C7.77925,15.078875 5.90925,15.076875 4.76125,13.928875 C3.61125,12.779875 3.61125,10.909875 4.76125,9.76187503 C5.90925,8.61187503 7.77925,8.61287503 8.92725,9.76087503 L14.07725,14.918875 C15.77325,16.614875 18.53025,16.613875 20.22525,14.918875 C21.91925,13.223875 21.91925,10.465875 20.22425,8.77087503" id="Fill-1" fill="#FFFFFF" mask="url(#mask-2)" transform="translate(11.997813, 11.845250) scale(-1, 1) translate(-11.997813, -11.845250) "></path>
        </g>
    </g>
</svg>