<?xml version="1.0" encoding="UTF-8"?>
<svg width="24px" height="24px" viewBox="0 0 24 24" version="1.1" xmlns="http://www.w3.org/2000/svg" xmlns:xlink="http://www.w3.org/1999/xlink">
    <!-- Generator: Sketch 50 (54983) - http://www.bohemiancoding.com/sketch -->
    <title>icon-tab-function-green </title>
    <desc>Created with Sketch.</desc>
    <defs></defs>
    <g id="icon-tab-function-green-" stroke="none" stroke-width="1" fill="none" fill-rule="evenodd">
        <path d="M23.996,11.998 C23.996,18.624 18.624,23.996 11.998,23.996 C5.372,23.996 0,18.624 0,11.998 C0,5.372 5.372,0 11.998,0 C18.624,0 23.996,5.372 23.996,11.998" id="Fill-34" fill="#1AAD19"></path>
        <polygon id="Fill-35" fill="#FFFFFF" points="9.9691 18.4716 5.3691 15.8156 5.3691 8.1946 9.9691 5.5386 9.9691 3.9226 3.9691 7.3866 3.9691 16.6236 9.9691 20.0876"></polygon>
        <polygon id="Fill-36" fill="#FFFFFF" points="13.9691 3.9223 13.9691 5.5393 18.5691 8.1943 18.5691 15.8163 13.9691 18.4713 13.9691 20.0883 19.9691 16.6243 19.9691 7.3863"></polygon>
        <polygon id="Fill-37" fill="#FFFFFF" points="11.3695 16.996 9.9695 16.996 12.5685 6.996 13.9695 6.996"></polygon>
    </g>
</svg>