<?xml version="1.0" encoding="UTF-8"?>
<svg width="24px" height="24px" viewBox="0 0 24 24" version="1.1" xmlns="http://www.w3.org/2000/svg" xmlns:xlink="http://www.w3.org/1999/xlink">
    <!-- Generator: Sketch 50 (54983) - http://www.bohemiancoding.com/sketch -->
    <title>icon-tab-database-green </title>
    <desc>Created with Sketch.</desc>
    <defs></defs>
    <g id="icon-tab-database-green-" stroke="none" stroke-width="1" fill="none" fill-rule="evenodd">
        <path d="M20.962,3 C20.58,1.32 16.717,0 12,0 C7.283,0 3.42,1.32 3.038,3 L3,3.2 L3.038,21 C3.42,22.68 7.283,24 12,24 C16.717,24 20.58,22.68 20.962,21 L21,3.204 L20.962,3 Z" id="Fill-1" fill="#1AAD19"></path>
        <path d="M14.0001,10.8901 C13.3481,10.9571 12.6831,11.0031 12.0001,11.0031 C8.3621,11.0031 5.0741,10.0031 3.0381,8.5011 L3.0381,10.1681 C5.3081,11.5451 8.4811,12.4031 12.0001,12.4031 C12.6831,12.4031 13.3471,12.3611 14.0001,12.2991 L14.0001,10.8901 Z" id="Fill-17" fill="#FFFFFF"></path>
        <path d="M16.0001,10.583 L16.0001,12.011 C17.9111,11.63 19.6171,10.988 20.9871,10.152 L20.9871,8.483 C19.7351,9.414 18.0001,10.152 16.0001,10.583" id="Fill-19" fill="#FFFFFF"></path>
        <path d="M12.0001,5.1455 C8.6271,5.1455 6.3631,4.4815 5.2301,3.8945 C4.7031,3.6205 4.7081,2.8765 5.2421,2.6155 C6.3791,2.0595 8.6381,1.3995 12.0001,1.3995 C15.3741,1.3995 17.6371,2.0635 18.7701,2.6515 C19.2971,2.9255 19.2921,3.6695 18.7581,3.9305 C17.6211,4.4865 15.3611,5.1455 12.0001,5.1455" id="Fill-21" fill="#FFFFFF"></path>
        <path d="M12.0001,16.8086 C11.3171,16.8086 10.6521,16.7626 10.0001,16.6956 L10.0001,18.1046 C10.6531,18.1666 11.3171,18.2086 12.0001,18.2086 C15.5321,18.2086 18.7151,17.3436 20.9871,15.9576 L20.9871,14.2886 C18.9541,15.8006 15.6531,16.8086 12.0001,16.8086" id="Fill-23" fill="#FFFFFF"></path>
        <path d="M8.0001,16.3877 C6.0141,15.9597 4.2891,15.2287 3.0381,14.3067 L3.0381,15.9737 C4.4041,16.8027 6.1021,17.4377 8.0001,17.8167 L8.0001,16.3877 Z" id="Fill-25" fill="#FFFFFF"></path>
    </g>
</svg>