<?xml version="1.0" encoding="UTF-8"?>
<svg width="24px" height="24px" viewBox="0 0 24 24" version="1.1" xmlns="http://www.w3.org/2000/svg" xmlns:xlink="http://www.w3.org/1999/xlink">
    <!-- Generator: Sketch 50 (54983) - http://www.bohemiancoding.com/sketch -->
    <title>icon-tab-statistics</title>
    <desc>Created with Sketch.</desc>
    <defs></defs>
    <g id="icon-tab-statistics" stroke="none" stroke-width="1" fill="none" fill-rule="evenodd">
        <path d="M8,23 L2.463,23 C1.655,23 1,22.345 1,21.537 L1,14.463 C1,13.655 1.655,13 2.463,13 L7,13 L7,14.4 L2.4,14.4 L2.4,21.6 L8,21.6 L8,23 Z" id="Fill-44" fill="#888888"></path>
        <path d="M8.4003,19 L7.0003,19 L7.0003,21.537 C7.0003,22.345 7.6543,23 8.4623,23 L16.0003,23 L16.0003,21.6 L8.4003,21.6 L8.4003,19 Z" id="Fill-45" fill="#888888"></path>
        <path d="M8.4628,6 C7.6548,6 6.9998,6.655 6.9998,7.463 L6.9998,17 L8.4008,17 L8.4008,7.4 L13.9998,7.4 L13.9998,6 L8.4628,6 Z" id="Fill-46" fill="#888888"></path>
        <path d="M15.4057,1 C14.6297,1 13.9997,1.629 13.9997,2.406 L13.9997,10 L15.4007,10 L15.4007,2.4 L21.5997,2.4 L21.5997,21.6 L15.4007,21.6 L15.4007,12 L13.9997,12 L13.9997,21.594 C13.9997,22.371 14.6297,23 15.4057,23 L21.5937,23 C22.3707,23 22.9997,22.371 22.9997,21.594 L22.9997,2.406 C22.9997,1.629 22.3707,1 21.5937,1 L15.4057,1 Z" id="Fill-49" fill="#888888"></path>
    </g>
</svg>