<?xml version="1.0" encoding="UTF-8"?>
<svg width="24px" height="24px" viewBox="0 0 24 24" version="1.1" xmlns="http://www.w3.org/2000/svg" xmlns:xlink="http://www.w3.org/1999/xlink">
    <!-- Generator: Sketch 50 (54983) - http://www.bohemiancoding.com/sketch -->
    <title>icon-tab-database</title>
    <desc>Created with Sketch.</desc>
    <defs></defs>
    <g id="icon-tab-database" stroke="none" stroke-width="1" fill="none" fill-rule="evenodd">
        <path d="M14,10.8901 C13.348,10.9571 12.683,11.0031 12,11.0031 C8.362,11.0031 5.074,10.0031 3.038,8.5011 L3.038,10.1681 C5.308,11.5451 8.481,12.4031 12,12.4031 C12.683,12.4031 13.347,12.3611 14,12.2991 L14,10.8901 Z" id="Fill-5" fill="#888888"></path>
        <path d="M16,10.583 L16,12.011 C17.911,11.63 19.617,10.988 20.987,10.152 L20.987,8.483 C19.735,9.414 18,10.152 16,10.583" id="Fill-7" fill="#888888"></path>
        <path d="M12,0 C7.283,0 3.42,1.32 3.038,3 L3,3.2 L3.038,21 C3.42,22.68 7.283,24 12,24 C16.717,24 20.58,22.68 20.962,21 L21,3.204 L20.962,3 C20.58,1.32 16.717,0 12,0 M12,1.4 C16.831,1.4 19.382,2.762 19.595,3.305 L19.6,3.331 L19.562,20.753 C19.187,21.338 16.649,22.6 12,22.6 C7.343,22.6 4.805,21.334 4.438,20.757 L4.4,3.33 L4.404,3.31 C4.625,2.758 7.176,1.4 12,1.4" id="Fill-9" fill="#888888"></path>
        <path d="M12,0 C7.029,0 3,1.465 3,3.273 C3,5.08 7.029,6.545 12,6.545 C16.971,6.545 21,5.08 21,3.273 C21,1.465 16.971,0 12,0 M12,1.4 C16.721,1.4 19.269,2.7 19.585,3.273 C19.269,3.845 16.721,5.146 12,5.146 C7.279,5.146 4.731,3.845 4.415,3.273 C4.731,2.7 7.279,1.4 12,1.4" id="Fill-11" fill="#888888"></path>
        <path d="M20.9873,14.2891 C18.9533,15.8011 15.6533,16.8091 12.0003,16.8091 C11.3173,16.8091 10.6523,16.7631 10.0003,16.6961 L10.0003,18.1051 C10.6533,18.1671 11.3173,18.2091 12.0003,18.2091 C15.5323,18.2091 18.7153,17.3431 20.9873,15.9571 L20.9873,14.2891 Z" id="Fill-13" fill="#888888"></path>
        <path d="M8,16.3877 C6.014,15.9597 4.289,15.2287 3.038,14.3067 L3.038,15.9737 C4.404,16.8027 6.102,17.4377 8,17.8167 L8,16.3877 Z" id="Fill-15" fill="#888888"></path>
    </g>
</svg>