<?xml version="1.0" encoding="UTF-8"?>
<svg width="210px" height="210px" viewBox="0 0 210 210" version="1.1" xmlns="http://www.w3.org/2000/svg" xmlns:xlink="http://www.w3.org/1999/xlink">
    <!-- Generator: Sketch 50.2 (55047) - http://www.bohemiancoding.com/sketch -->
    <title>Artboard 2</title>
    <desc>Created with Sketch.</desc>
    <defs>
        <path d="M26.0895227,4.08658059 C41.3564648,18.9679366 71.0960188,28.3882021 134.362575,10.1312718 C188.833462,-5.58747815 221.473855,-0.366288421 240.75045,8.02770857 C253.797734,25.3391659 261.954622,41.7452238 261.954622,51.6312718 C261.954622,80.5437711 276.630369,189.88033 257.683138,208.827561 C238.735907,227.774792 168.515559,220.265061 139.60306,220.265061 C107.194306,220.265061 -0.824454221,265.993892 -20.0297527,242.869553 C-35.091318,224.734519 -11.6724965,199.72484 -20.0297527,176.017219 C-42.566562,112.085455 -14.1910291,49.159824 26.0895227,4.08658059 Z" id="path-1"></path>
        <path d="M-4.004548,2.95686494 C13.5357628,17.3930742 48.6465506,30.2701963 104.701422,12.0138805 C158.302331,-5.4432128 194.599197,4.65144096 211.052242,6.84613649 C217.447928,19.9882002 221.109375,34.1706801 221.109375,48.6269531 C221.109375,77.5394524 244.246059,187.876012 225.298828,206.823242 C206.351597,225.770473 131.218913,221.199219 102.306413,221.199219 C69.8976594,221.199219 -8.4060296,226.449535 -27.6113281,203.325195 C-42.6728934,185.190161 -8.671875,56.1935883 -8.671875,30.7773437 C-8.671875,20.8222415 -7.02549171,11.5260175 -4.004548,2.95686494 Z" id="path-3"></path>
    </defs>
    <g id="Page-1" stroke="none" stroke-width="1" fill="none" fill-rule="evenodd">
        <g id="Artboard-2">
            <mask id="mask-2" fill="white">
                <use xlink:href="#path-1"></use>
            </mask>
            <use id="Combined-Shape-Copy-5" fill="#71A3E9" opacity="0.299609375" transform="translate(119.687249, 124.699442) scale(-1, 1) translate(-119.687249, -124.699442) " xlink:href="#path-1"></use>
            <mask id="mask-4" fill="white">
                <use xlink:href="#path-3"></use>
            </mask>
            <use id="Combined-Shape-Copy-6" fill="#71A3E9" opacity="0.452455357" xlink:href="#path-3"></use>
        </g>
    </g>
</svg>