<svg width="14" height="14" viewBox="0 0 14 14" xmlns="http://www.w3.org/2000/svg"><title>Shape</title><path d="M6.517-.012c-.896 0-1.743.172-2.54.515a6.535 6.535 0 0 0-2.075 1.404A6.713 6.713 0 0 0 .505 3.983 6.29 6.29 0 0 0-.01 6.515c0 .906.172 1.755.515 2.546a6.713 6.713 0 0 0 1.397 2.077 6.435 6.435 0 0 0 2.076 1.396 6.424 6.424 0 0 0 2.539.508c.906 0 1.755-.17 2.546-.508a6.544 6.544 0 0 0 2.076-1.396 6.544 6.544 0 0 0 1.397-2.077c.338-.791.508-1.64.508-2.546 0-.896-.17-1.74-.508-2.532A6.544 6.544 0 0 0 9.063.503a6.327 6.327 0 0 0-2.546-.515zm.045 1.792c.647 0 1.254.122 1.822.366a4.709 4.709 0 0 1 1.486 1c.423.424.757.92 1 1.487.244.568.366 1.175.366 1.822 0 .498-.07.964-.209 1.397a4.69 4.69 0 0 1-.597 1.217L3.948 2.602a4.84 4.84 0 0 1 1.225-.605 4.41 4.41 0 0 1 1.389-.217zm0 9.35c-.638 0-1.24-.122-1.808-.366a4.709 4.709 0 0 1-1.486-1 4.709 4.709 0 0 1-1-1.487 4.565 4.565 0 0 1-.366-1.822c0-.926.244-1.772.732-2.539L9.1 10.383a4.996 4.996 0 0 1-1.195.553c-.418.13-.866.194-1.344.194z" fill="#6E6E6E" fill-rule="nonzero"/></svg>