<svg width="18" height="12" viewBox="0 0 18 12" xmlns="http://www.w3.org/2000/svg"><title>Aa</title><path d="M3.435 7.64h3.57l-1.769-5.2h-.033l-1.768 5.2zm5.044 4.262l-.947-2.661H2.899l-.939 2.661H0L4.44 0h1.55l4.44 11.902H8.48zm7.77 0v-.751h-.034c-.162.288-.413.5-.754.637-.335.141-.798.212-1.39.212-.972-.01-1.72-.261-2.246-.751-.553-.479-.83-1.091-.83-1.837 0-.713.241-1.303.721-1.771.48-.48 1.185-.724 2.112-.735h2.421v-.89c.011-.745-.584-1.107-1.785-1.085-.435 0-.779.043-1.03.13a1.25 1.25 0 0 0-.62.523l-1.374-1.02c.665-.85 1.645-1.263 2.94-1.242 1.095-.01 1.97.19 2.623.605.654.424.986 1.153.997 2.187v5.788h-1.751zm0-2.98V8.31h-2.095c-1.016.022-1.519.362-1.508 1.02 0 .289.132.534.394.735.252.223.668.335 1.248.335.732.01 1.249-.073 1.55-.253.274-.18.411-.588.411-1.225z" fill="#555" fill-rule="evenodd"/></svg>