<svg width="18" height="14" viewBox="0 0 18 14" xmlns="http://www.w3.org/2000/svg"><title>Group 11</title><g transform="translate(1 1)" fill="none" fill-rule="evenodd"><circle stroke="#000" cx="8" cy="7" r="5.5"/><path fill="#000" d="M7.5 2h1v10h-1z"/><path stroke="#000" d="M12.727 4.038h1.818l.988-1.566M12.727 9.771h1.818l.988 1.566"/><path fill="#000" d="M13 6.5h3v1h-3z"/><g><path stroke="#000" d="M3 4H1.056L0 2M3 10H1.056L0 12"/><path fill="#000" d="M3 7H0v1h3z"/></g><path d="M5.658 1.123a2.5 2.5 0 0 1 4.684 0l.365.975-.99-.325A5.495 5.495 0 0 0 8 1.5c-.59 0-1.168.093-1.717.273l-.99.325.365-.975z" stroke="#000"/></g></svg>