<svg width="16" height="16" viewBox="0 0 16 16" xmlns="http://www.w3.org/2000/svg"><title>设置</title><path d="M10.335 15.101a.5.5 0 0 1-.389-.185 2.503 2.503 0 0 0-3.892 0 .5.5 0 0 1-.555.157A7.464 7.464 0 0 1 3.126 13.7a.5.5 0 0 1-.142-.56 2.484 2.484 0 0 0-.168-2.149 2.484 2.484 0 0 0-1.777-1.22.5.5 0 0 1-.414-.402 7.566 7.566 0 0 1 0-2.74.5.5 0 0 1 .414-.403 2.484 2.484 0 0 0 1.778-1.22 2.484 2.484 0 0 0 .167-2.149.5.5 0 0 1 .142-.559C3.826 1.7 4.63 1.234 5.5.927a.5.5 0 0 1 .555.157 2.503 2.503 0 0 0 3.892 0 .5.5 0 0 1 .555-.157A7.464 7.464 0 0 1 12.874 2.3a.5.5 0 0 1 .142.56 2.503 2.503 0 0 0 1.946 3.369.5.5 0 0 1 .413.402 7.566 7.566 0 0 1 0 2.74.5.5 0 0 1-.414.403 2.5 2.5 0 0 0-1.946 3.369.5.5 0 0 1-.141.559c-.7.6-1.504 1.065-2.373 1.372a.5.5 0 0 1-.166.028zM8 12.985a3.477 3.477 0 0 1 2.475 1.025l.001.002a6.456 6.456 0 0 0 1.492-.863 3.5 3.5 0 0 1 2.475-4.287 6.573 6.573 0 0 0 0-1.724 3.5 3.5 0 0 1-2.475-4.286 6.457 6.457 0 0 0-1.492-.864l-.001.002A3.477 3.477 0 0 1 8 3.015 3.477 3.477 0 0 1 5.525 1.99l-.001-.002c-.534.22-1.035.51-1.492.863a3.477 3.477 0 0 1-.35 2.656 3.477 3.477 0 0 1-2.125 1.631 6.573 6.573 0 0 0 0 1.724 3.477 3.477 0 0 1 2.126 1.63c.466.804.592 1.76.35 2.657.456.353.957.643 1.49.863l.002-.002A3.477 3.477 0 0 1 8 12.985zM8 11c-1.654 0-3-1.346-3-3s1.346-3 3-3 3 1.346 3 3-1.346 3-3 3zm0-5a2 2 0 1 0 0 4 2 2 0 0 0 0-4z" fill="#000" fill-rule="nonzero"/></svg>