<svg width="12" height="12" viewBox="0 0 12 12" xmlns="http://www.w3.org/2000/svg"><title>Icon Upload</title><path d="M11.963 3.062a.466.466 0 0 0-.13-.249L9.158.145a.518.518 0 0 0-.72 0 .502.502 0 0 0 0 .72l1.93 1.92h-9a.451.451 0 0 0-.444.453c0 .249.203.443.443.443h9L8.436 5.6a.502.502 0 0 0 0 .72.518.518 0 0 0 .72 0l2.678-2.668a.466.466 0 0 0 .13-.25.338.338 0 0 0 .036-.165c0-.056-.01-.13-.037-.176zm-1.33 5.234h-9l1.93-1.92a.502.502 0 0 0 0-.72.518.518 0 0 0-.72 0L.166 8.324a.441.441 0 0 0-.13.24.4.4 0 0 0-.036.175.4.4 0 0 0 .037.176.466.466 0 0 0 .13.249l2.676 2.668a.518.518 0 0 0 .72 0 .502.502 0 0 0 0-.72l-1.93-1.92h9c.25 0 .444-.204.444-.444a.457.457 0 0 0-.443-.452z" fill="#000" fill-rule="nonzero"/></svg>