<svg width="16" height="10" viewBox="0 0 16 10" xmlns="http://www.w3.org/2000/svg"><title>Group 2</title><g fill="none" fill-rule="evenodd"><g stroke="#000" stroke-linecap="round" stroke-linejoin="round" stroke-width=".933"><path d="M12.03 9.342c1.612 0 2.928-1.326 2.928-2.952s-1.316-2.952-2.928-2.952c-.17 0-.297 0-.466.043-.68-1.369-2.037-2.31-3.649-2.31A4.058 4.058 0 0 0 3.97 4.294h-.085c-1.4 0-2.503 1.155-2.503 2.524s1.145 2.524 2.503 2.524h1.06"/><path d="M9.782 4.422c.551-.641 1.315-1.026 2.206-1.026 1.612 0 2.927 1.326 2.927 2.951 0 1.626-1.315 2.952-2.927 2.952h-.636"/></g><path d="M8.085 5.78v3.24" stroke="#000" stroke-width=".933" stroke-linecap="round" stroke-linejoin="round"/><path d="M8.09 8.386L6.93 7.263a.479.479 0 0 0-.659-.002.439.439 0 0 0-.002.636l1.485 1.44c.18.175.474.177.657.005l1.527-1.44a.439.439 0 0 0 .008-.637.479.479 0 0 0-.66-.007L8.089 8.386z" fill="#000" fill-rule="nonzero"/></g></svg>