<svg width="16" height="15" viewBox="0 0 16 15" xmlns="http://www.w3.org/2000/svg" xmlns:xlink="http://www.w3.org/1999/xlink"><title>文件-JS</title><defs><rect id="a" y="6" width="16" height="10" rx="1"/></defs><g fill="none" fill-rule="evenodd"><path d="M13.5 3.545L10.936.5H2.6a.1.1 0 0 0-.1.1v13.8a.1.1 0 0 0 .1.1h10.8a.1.1 0 0 0 .1-.1V3.545z" stroke="#000"/><g transform="translate(0 -1)"><use fill="#2C9F67" xlink:href="#a"/><rect stroke="#2C9F67" x=".5" y="6.5" width="15" height="9" rx="1"/></g><path d="M4 10.283c.225.006.394.11.506.311.11.193.165.44.165.74v1.213c.006.297.093.527.262.693a.81.81 0 0 0 .586.26h.735v-.567h-.422c-.138-.005-.237-.084-.296-.235a1.255 1.255 0 0 1-.084-.479v-1.1c0-.201-.027-.37-.08-.508a.978.978 0 0 0-.199-.336.78.78 0 0 0-.215-.197.718.718 0 0 0-.181-.072c.098-.039.23-.135.396-.306a.978.978 0 0 0 .199-.336 1.22 1.22 0 0 0 .08-.475V7.781c0-.19.028-.357.084-.5.06-.137.158-.209.296-.214h.422V6.5h-.735a.787.787 0 0 0-.586.248c-.17.168-.256.403-.262.705v1.23c0 .28-.055.521-.165.723a.53.53 0 0 1-.206.222.511.511 0 0 1-.3.089v.566zM9.742 13.5h.734a.842.842 0 0 0 .608-.26c.155-.166.235-.396.24-.693v-1.23c0-.295.061-.538.182-.731a.563.563 0 0 1 .494-.303v-.566a.603.603 0 0 1-.494-.32c-.12-.196-.181-.44-.181-.73V7.453c-.006-.302-.086-.537-.24-.705a.82.82 0 0 0-.609-.248h-.734v.567h.422c.14.005.24.077.296.214.059.143.088.31.088.5v1.1c0 .196.031.362.093.5.053.137.12.249.198.336.082.086.157.15.224.189.07.039.122.067.156.084-.084.03-.21.123-.38.293a1.075 1.075 0 0 0-.198.336c-.062.138-.093.301-.093.492v1.108c0 .182-.03.342-.088.479-.057.151-.155.23-.296.235h-.422v.567z" fill="#FFF"/></g></svg>