<svg width="16" height="15" viewBox="0 0 16 15" xmlns="http://www.w3.org/2000/svg" xmlns:xlink="http://www.w3.org/1999/xlink"><title>文件-JS</title><defs><rect id="a" y="6" width="16" height="10" rx="1"/></defs><g fill="none" fill-rule="evenodd"><path d="M13.5 3.545L10.936.5H2.6a.1.1 0 0 0-.1.1v13.8a.1.1 0 0 0 .1.1h10.8a.1.1 0 0 0 .1-.1V3.545z" stroke="#000"/><g transform="translate(0 -1)"><use fill="#2C9F67" xlink:href="#a"/><rect stroke="#2C9F67" x=".5" y="6.5" width="15" height="9" rx="1"/></g><path d="M4.053 12.11l-.782.568c.366.539.921.817 1.665.835a2.113 2.113 0 0 0 1.42-.55c.41-.351.62-.85.632-1.494V7.053h-.97v4.32c0 .216-.035.397-.102.54a.91.91 0 0 1-.268.36c-.234.185-.48.274-.738.269a.925.925 0 0 1-.506-.137 1.05 1.05 0 0 1-.351-.294zm4.293-.206l-.637.73c.683.586 1.499.879 2.448.879 1.468-.018 2.218-.639 2.25-1.864 0-.454-.142-.852-.426-1.195-.288-.349-.731-.564-1.332-.646a18.854 18.854 0 0 1-.72-.101c-.317-.059-.547-.164-.69-.316a.707.707 0 0 1-.216-.501c.006-.308.113-.54.32-.695.2-.15.45-.224.748-.224a2.937 2.937 0 0 1 1.586.492l.54-.8c-.588-.424-1.28-.645-2.078-.663-.662.006-1.173.179-1.533.519-.373.342-.559.793-.559 1.353 0 .466.148.861.444 1.187.287.316.706.52 1.257.61l.848.12c.563.096.841.383.835.86-.011.583-.433.88-1.265.893-.704-.006-1.31-.219-1.82-.638z" fill="#FFF"/></g></svg>