<svg width="16" height="15" viewBox="0 0 16 15" xmlns="http://www.w3.org/2000/svg" xmlns:xlink="http://www.w3.org/1999/xlink"><title>文件-JS</title><defs><rect id="a" y="6" width="16" height="10" rx="1"/></defs><g fill="none" fill-rule="evenodd"><path d="M13.5 3.545L10.936.5H2.6a.1.1 0 0 0-.1.1v13.8a.1.1 0 0 0 .1.1h10.8a.1.1 0 0 0 .1-.1V3.545z" stroke="#000"/><g transform="translate(0 -1)"><use fill="#2C9F67" xlink:href="#a"/><rect stroke="#2C9F67" x=".5" y="6.5" width="15" height="9" rx="1"/></g><path d="M3 10.36l4.03 2.338v-.874l-3.217-1.84L7.03 8.14v-.874L3 9.61v.752zm6.02 2.338l3.934-2.337v-.752L9.02 7.266v.874l3.125 1.845-3.125 1.839v.874z" fill="#FFF"/></g></svg>