<svg width="13" height="11" viewBox="0 0 13 11" xmlns="http://www.w3.org/2000/svg"><title>JS</title><path d="M1 10.626V9.559h.473c.985 0 1.498-.783 1.498-1.633V1.134h1.188v7.02c0 1.39-.986 2.47-2.443 2.47H1zm5.616-2.417v-.621h1.161v.607c0 .824.648 1.499 1.471 1.499h.595c.904 0 1.471-.689 1.471-1.553v-.256c0-.823-.446-1.498-1.66-1.498h-.257c-1.715 0-2.687-1.215-2.687-2.511V3.43C6.71 2.053 7.858 1 9.262 1h.662c1.417 0 2.443 1.147 2.443 2.565v.634h-1.148v-.62c0-.824-.593-1.513-1.43-1.513h-.46c-.796 0-1.43.608-1.43 1.405v.283c0 .823.485 1.566 1.66 1.566h.284c1.809 0 2.659 1.08 2.659 2.498v.377c0 1.418-1.026 2.566-2.511 2.566h-.85c-1.418 0-2.525-1.134-2.525-2.552z" fill="#FCAD00" stroke="#FCAD00" stroke-width=".2" fill-rule="evenodd" stroke-linecap="round" stroke-linejoin="round"/></svg>