<svg width="16" height="6" viewBox="0 0 16 6" xmlns="http://www.w3.org/2000/svg"><title>WXS</title><path d="M2.478 2.468h.048l.593 2.67a.3.3 0 0 0 .293.236h.436a.3.3 0 0 0 .293-.238L5.022.992A.3.3 0 0 0 4.73.63h-.385a.3.3 0 0 0-.296.252l-.465 2.894h-.048L2.945.87A.3.3 0 0 0 2.65.63h-.294a.3.3 0 0 0-.295.242l-.57 2.904h-.048L.97.882A.3.3 0 0 0 .674.63H.281a.3.3 0 0 0-.294.362l.881 4.144a.3.3 0 0 0 .294.238h.44a.3.3 0 0 0 .294-.236l.582-2.67zm3.204 2.904h.373a.3.3 0 0 0 .27-.168L6.98 3.87h.051l.651 1.334a.3.3 0 0 0 .27.169h.426a.3.3 0 0 0 .266-.437l-.997-1.943L8.65 1.067a.3.3 0 0 0-.266-.439h-.402a.3.3 0 0 0-.274.178L7.09 2.2h-.05L6.424.807a.3.3 0 0 0-.274-.179h-.463a.3.3 0 0 0-.268.435l.964 1.916-.97 1.96a.3.3 0 0 0 .268.433zm3.46-1.065c.129.744.712 1.193 1.582 1.193 1.01 0 1.626-.598 1.626-1.588 0-.753-.342-1.177-1.105-1.357l-.497-.119c-.407-.098-.578-.25-.578-.51 0-.315.227-.515.572-.515a.61.61 0 0 1 .556.315.387.387 0 0 1 .023.053.3.3 0 0 0 .283.2h.517a.145.145 0 0 0 .144-.16C12.18 1.03 11.577.5 10.73.5c-.93 0-1.535.608-1.535 1.535 0 .746.364 1.22 1.07 1.384l.508.125c.441.109.61.25.61.513 0 .312-.252.53-.618.53-.262 0-.472-.092-.595-.25a.461.461 0 0 1-.062-.12.3.3 0 0 0-.281-.196h-.442a.245.245 0 0 0-.242.286zm3.654 0c.128.744.71 1.193 1.58 1.193C15.386 5.5 16 4.902 16 3.912c0-.753-.342-1.177-1.103-1.357l-.497-.119c-.406-.098-.577-.25-.577-.51 0-.315.227-.515.571-.515a.61.61 0 0 1 .556.315.387.387 0 0 1 .022.052.3.3 0 0 0 .283.201h.516a.145.145 0 0 0 .144-.16C15.831 1.03 15.228.5 14.381.5c-.93 0-1.534.608-1.534 1.535 0 .746.364 1.22 1.069 1.384l.508.125c.44.109.609.25.609.513 0 .312-.251.53-.617.53-.262 0-.472-.092-.594-.25a.461.461 0 0 1-.063-.12.3.3 0 0 0-.28-.196h-.442a.245.245 0 0 0-.24.286z" fill="#006CBD" fill-rule="evenodd"/></svg>