<svg width="16" height="16" viewBox="0 0 16 16" xmlns="http://www.w3.org/2000/svg"><title>icon_general</title><g fill="#000" fill-rule="evenodd"><path d="M3.467 5.133a1.467 1.467 0 1 1 0-2.933 1.467 1.467 0 0 1 0 2.933zm0-.677a.79.79 0 1 0 0-1.58.79.79 0 0 0 0 1.58zM3.467 13.667a1.467 1.467 0 1 1 0-2.934 1.467 1.467 0 0 1 0 2.934zm0-.677a.79.79 0 1 0 0-1.58.79.79 0 0 0 0 1.58zM12.533 9.4a1.467 1.467 0 1 1 0-2.933 1.467 1.467 0 0 1 0 2.933zm0-.677a.79.79 0 1 0 0-1.58.79.79 0 0 0 0 1.58z" fill-rule="nonzero"/><path d="M4.667 3.267H14v1H4.667zM2.667 7.533h8.667v1H2.667zM4.667 11.8H14v1H4.667z"/></g></svg>