<svg width="12" height="14" viewBox="0 0 12 14" xmlns="http://www.w3.org/2000/svg"><title>Group 7</title><g fill="none" fill-rule="evenodd"><path d="M4.058 1.708L1.35 4.358a.5.5 0 0 1-.7-.715l3.067-3a.5.5 0 0 1 .708.008l2.925 3a.5.5 0 0 1-.716.698L4.058 1.708z" fill="#000" fill-rule="nonzero"/><path d="M3.5 1a.5.5 0 0 1 1 0v11.51a.5.5 0 1 1-1 0V1z" fill="#000" fill-rule="nonzero"/><path d="M8.9 12.5a.5.5 0 0 0 1 0v-1c0-1.666-.748-2.977-2.392-3.417l-1.27-.475c-.13-.047-.551-.194-.564-.199C4.73 7.074 4.5 6.852 4.5 6.128V4a.5.5 0 1 0-1 0v2.128c0 1.242.542 1.762 1.839 2.223.019.007.433.152.553.196l1.311.487c1.19.32 1.697 1.208 1.697 2.466v1zM4 13.5a1.5 1.5 0 1 1 0-3 1.5 1.5 0 0 1 0 3z" fill="#000" fill-rule="nonzero"/><path d="M4 12.5a.5.5 0 1 0 0-1 .5.5 0 0 0 0 1z" fill="#FFF"/><path d="M10 13.5a1.5 1.5 0 1 1 0-3 1.5 1.5 0 0 1 0 3z" fill="#000" fill-rule="nonzero"/><path d="M10 12.5a.5.5 0 1 0 0-1 .5.5 0 0 0 0 1z" fill="#FFF"/></g></svg>