<svg width="16" height="12" viewBox="0 0 16 12" xmlns="http://www.w3.org/2000/svg"><title>Group</title><g fill="none" fill-rule="evenodd"><path d="M2 0h12a2 2 0 0 1 2 2v8a2 2 0 0 1-2 2H2a2 2 0 0 1-2-2V2a2 2 0 0 1 2-2z" fill="#F1A600"/><path d="M8.15 2c-1.224 0-2.158.399-2.802 1.218-.569.712-.848 1.65-.848 2.793 0 1.164.268 2.091.816 2.781C5.939 9.59 6.894 10 8.172 10c.826 0 1.535-.237 2.126-.712.633-.506 1.03-1.207 1.202-2.113h-1.224c-.15.582-.408 1.024-.773 1.316-.343.258-.794.398-1.342.398-.837 0-1.46-.27-1.857-.787-.365-.485-.548-1.186-.548-2.091 0-.884.183-1.574.558-2.07.408-.56 1.01-.83 1.815-.83.537 0 .977.107 1.32.345.355.237.59.603.72 1.11h1.224c-.118-.776-.451-1.402-1.01-1.854C9.803 2.237 9.053 2 8.15 2z" fill="#FFF"/></g></svg>