<svg width="16" height="16" viewBox="0 0 16 16" xmlns="http://www.w3.org/2000/svg"><title>history</title><g stroke="#000" fill="none" fill-rule="evenodd" stroke-linecap="round" stroke-linejoin="round"><path d="M2.036 7.927A2.475 2.475 0 0 0 4.51 10.4a2.452 2.452 0 0 0 2.473-2.473 2.475 2.475 0 0 0-2.473-2.472 2.452 2.452 0 0 0-2.473 2.472z"/><path d="M4.51 7.273v.963l-.728.564"/><g><path d="M4.473 4.073V2.8c0-.4.327-.727.727-.727h5.782M13.89 5.055v8.036a.73.73 0 0 1-.726.727H5.2a.73.73 0 0 1-.727-.727v-1.2M13.89 5.055h-2.908V2.182M10.982 2.073l2.909 2.982"/></g></g></svg>