<svg width="16" height="16" viewBox="0 0 16 16" xmlns="http://www.w3.org/2000/svg"><title>d</title><g fill="none" fill-rule="evenodd"><g transform="translate(0 2)"><rect fill="#D94E4E" y=".327" width="16" height="12.082" rx="1.306"/><path d="M5.366 2.54h3.092c.572 0 1.066.097 1.484.292.418.195.76.461 1.024.8.265.337.462.733.59 1.185.13.453.194.937.194 1.453 0 .515-.065 1-.193 1.452a3.415 3.415 0 0 1-.59 1.186 2.757 2.757 0 0 1-1.025.8c-.418.194-.912.292-1.484.292H5.366V2.54zm1.306 6.394h1.285c.508 0 .925-.068 1.249-.204.323-.135.578-.323.762-.564.185-.24.31-.522.376-.846.067-.324.1-.674.1-1.05s-.033-.726-.1-1.05a2.037 2.037 0 0 0-.376-.847 1.827 1.827 0 0 0-.762-.564c-.324-.136-.74-.204-1.25-.204H6.673v5.33z" fill="#FFF"/></g></g></svg>