<svg width="16" height="16" viewBox="0 0 16 16" xmlns="http://www.w3.org/2000/svg"><title>s</title><g fill="none" fill-rule="evenodd"><g transform="translate(0 2)"><rect fill="#2C9F67" width="16" height="12" rx="1.306"/><path d="M6.65 7.513c0 .286.05.53.147.732.098.202.234.367.408.496.174.129.374.223.6.282.227.06.472.089.737.089.286 0 .53-.033.732-.1a1.48 1.48 0 0 0 .49-.255.925.925 0 0 0 .272-.36c.056-.137.084-.274.084-.414 0-.285-.064-.496-.193-.632a1.104 1.104 0 0 0-.423-.287 8.85 8.85 0 0 0-.925-.277c-.352-.087-.786-.2-1.301-.34a2.79 2.79 0 0 1-.8-.329 1.907 1.907 0 0 1-.506-.454 1.596 1.596 0 0 1-.267-.533 2.137 2.137 0 0 1-.078-.575c0-.376.078-.702.235-.977.157-.275.364-.503.622-.684.257-.181.55-.316.877-.403.328-.087.659-.13.993-.13.39 0 .758.05 1.102.151.345.101.648.253.91.455.26.202.468.45.621.747.154.296.23.64.23 1.03H9.911c-.035-.481-.199-.821-.491-1.02-.293-.198-.665-.297-1.118-.297-.153 0-.31.015-.47.047-.16.031-.307.083-.44.156a.963.963 0 0 0-.328.298.805.805 0 0 0-.13.47c0 .265.08.472.245.622.163.15.378.263.642.34l.33.088a89.674 89.674 0 0 0 1.337.356c.226.059.388.102.486.13.244.077.456.181.637.314.181.132.333.284.455.454.122.171.212.354.271.549.06.195.09.39.09.585 0 .418-.086.775-.257 1.071-.17.296-.395.538-.674.726a2.93 2.93 0 0 1-.95.413c-.356.087-.718.13-1.087.13-.425 0-.826-.052-1.202-.156a2.813 2.813 0 0 1-.982-.48 2.352 2.352 0 0 1-.669-.831c-.167-.338-.254-.737-.261-1.197H6.65z" fill="#FFF"/></g></g></svg>