<svg width="14" height="14" viewBox="0 0 14 14" xmlns="http://www.w3.org/2000/svg"><title>Group</title><g fill="none" fill-rule="evenodd"><path d="M7 0a7 7 0 0 1 0 14A7 7 0 1 1 7 0z" fill="#555"/><path d="M7.105 3.54c-.733 0-1.323.247-1.77.741-.438.466-.657 1.074-.666 1.835h1.113c.019-.532.133-.941.343-1.207.209-.286.523-.428.942-.428.39 0 .685.085.885.266.19.18.295.456.295.827 0 .38-.153.742-.448 1.074-.19.2-.494.457-.932.76-.79.543-1.313.96-1.56 1.246a2.616 2.616 0 0 0-.677 1.806h4.74v-.979H6.02c.152-.342.57-.741 1.265-1.198.667-.446 1.142-.808 1.409-1.093.438-.485.666-1.017.666-1.606 0-.609-.21-1.094-.628-1.474-.428-.38-.97-.57-1.627-.57z" fill="#FFF"/></g></svg>