<svg width="16" height="16" viewBox="0 0 16 16" xmlns="http://www.w3.org/2000/svg"><title>cloud</title><g fill="none" fill-rule="evenodd"><g stroke="#000" stroke-linecap="round" stroke-linejoin="round" stroke-width=".933"><path d="M12.03 11.342c1.612 0 2.928-1.326 2.928-2.952s-1.316-2.952-2.928-2.952c-.17 0-.297 0-.466.043-.68-1.369-2.037-2.31-3.649-2.31A4.058 4.058 0 0 0 3.97 6.294h-.085c-1.4 0-2.503 1.155-2.503 2.524s1.145 2.524 2.503 2.524"/><path d="M9.782 6.422c.551-.641 1.315-1.026 2.206-1.026 1.612 0 2.927 1.326 2.927 2.951 0 1.626-1.315 2.952-2.927 2.952"/></g><g fill="#000" fill-rule="nonzero"><path d="M7 12.5a.5.5 0 1 0 1 0V8a.5.5 0 0 0-1 0v4.5z"/><path d="M9.7 8.5a.5.5 0 0 1 1 0v.421c0 .835-.458 1.51-1.383 1.719l-.637.2c-.38.117-.68.484-.68.818v.842a.5.5 0 0 1-1 0v-.842c0-.794.603-1.533 1.383-1.773l.673-.21c.475-.108.644-.357.644-.754V8.5z"/></g></g></svg>