<svg width="56" height="56" viewBox="0 0 56 56" xmlns="http://www.w3.org/2000/svg" xmlns:xlink="http://www.w3.org/1999/xlink"><title>Group</title><defs><linearGradient x1="50%" y1="0%" x2="50%" y2="100%" id="c"><stop stop-color="#7283D8" offset="3.611%"/><stop stop-color="#7081D5" offset="100%"/></linearGradient><circle id="b" cx="24" cy="24" r="24"/><filter x="-16.7%" y="-10.4%" width="133.3%" height="133.3%" filterUnits="objectBoundingBox" id="a"><feMorphology radius="1.5" operator="dilate" in="SourceAlpha" result="shadowSpreadOuter1"/><feOffset dy="2" in="shadowSpreadOuter1" result="shadowOffsetOuter1"/><feGaussianBlur stdDeviation="1.5" in="shadowOffsetOuter1" result="shadowBlurOuter1"/><feComposite in="shadowBlurOuter1" in2="SourceAlpha" operator="out" result="shadowBlurOuter1"/><feColorMatrix values="0 0 0 0 0 0 0 0 0 0 0 0 0 0 0 0 0 0 0.04 0" in="shadowBlurOuter1" result="shadowMatrixOuter1"/><feMorphology radius="1.5" operator="dilate" in="SourceAlpha" result="shadowSpreadOuter2"/><feOffset dy="1" in="shadowSpreadOuter2" result="shadowOffsetOuter2"/><feGaussianBlur stdDeviation=".5" in="shadowOffsetOuter2" result="shadowBlurOuter2"/><feComposite in="shadowBlurOuter2" in2="SourceAlpha" operator="out" result="shadowBlurOuter2"/><feColorMatrix values="0 0 0 0 0 0 0 0 0 0 0 0 0 0 0 0 0 0 0.06 0" in="shadowBlurOuter2" result="shadowMatrixOuter2"/><feMerge><feMergeNode in="shadowMatrixOuter1"/><feMergeNode in="shadowMatrixOuter2"/></feMerge></filter><filter x="-11.5%" y="-5.2%" width="122.9%" height="122.9%" filterUnits="objectBoundingBox" id="d"><feOffset in="SourceAlpha" result="shadowOffsetInner1"/><feComposite in="shadowOffsetInner1" in2="SourceAlpha" operator="arithmetic" k2="-1" k3="1" result="shadowInnerInner1"/><feColorMatrix values="0 0 0 0 1 0 0 0 0 1 0 0 0 0 1 0 0 0 0.197322237 0" in="shadowInnerInner1"/></filter><linearGradient x1="50%" y1="0%" x2="50%" y2="100%" id="g"><stop stop-color="#FFF" offset="0%"/><stop stop-color="#F5F8FD" offset="100%"/></linearGradient><circle id="f" cx="24" cy="24" r="22.5"/><filter x="-15.6%" y="-8.9%" width="131.1%" height="131.1%" filterUnits="objectBoundingBox" id="e"><feMorphology radius=".5" operator="dilate" in="SourceAlpha" result="shadowSpreadOuter1"/><feOffset dy="2" in="shadowSpreadOuter1" result="shadowOffsetOuter1"/><feGaussianBlur stdDeviation="1.5" in="shadowOffsetOuter1" result="shadowBlurOuter1"/><feComposite in="shadowBlurOuter1" in2="SourceAlpha" operator="out" result="shadowBlurOuter1"/><feColorMatrix values="0 0 0 0 0 0 0 0 0 0 0 0 0 0 0 0 0 0 0.04 0" in="shadowBlurOuter1" result="shadowMatrixOuter1"/><feMorphology radius=".5" operator="dilate" in="SourceAlpha" result="shadowSpreadOuter2"/><feOffset dy="1" in="shadowSpreadOuter2" result="shadowOffsetOuter2"/><feGaussianBlur stdDeviation=".5" in="shadowOffsetOuter2" result="shadowBlurOuter2"/><feComposite in="shadowBlurOuter2" in2="SourceAlpha" operator="out" result="shadowBlurOuter2"/><feColorMatrix values="0 0 0 0 0 0 0 0 0 0 0 0 0 0 0 0 0 0 0.06 0" in="shadowBlurOuter2" result="shadowMatrixOuter2"/><feMerge><feMergeNode in="shadowMatrixOuter1"/><feMergeNode in="shadowMatrixOuter2"/></feMerge></filter><filter x="-12.2%" y="-5.6%" width="124.4%" height="124.4%" filterUnits="objectBoundingBox" id="h"><feGaussianBlur stdDeviation=".5" in="SourceAlpha" result="shadowBlurInner1"/><feOffset dy="1" in="shadowBlurInner1" result="shadowOffsetInner1"/><feComposite in="shadowOffsetInner1" in2="SourceAlpha" operator="arithmetic" k2="-1" k3="1" result="shadowInnerInner1"/><feColorMatrix values="0 0 0 0 1 0 0 0 0 1 0 0 0 0 1 0 0 0 1 0" in="shadowInnerInner1"/></filter><linearGradient x1="50%" y1="0%" x2="50%" y2="100%" id="i"><stop stop-color="#7586DB" offset="0%"/><stop stop-color="#697ACD" offset="100%"/></linearGradient></defs><g fill="none" fill-rule="evenodd"><g transform="translate(4 2)"><use fill="#000" filter="url(#a)" xlink:href="#b"/><use fill="url(#c)" xlink:href="#b"/><use fill="#000" filter="url(#d)" xlink:href="#b"/><circle stroke="#FFF" stroke-width="1.5" cx="24" cy="24" r="24.75"/><circle stroke-opacity=".595" stroke="#232A50" stroke-width=".5" cx="24" cy="24" r="24.25"/></g><g transform="translate(4 2)"><use fill="#000" filter="url(#e)" xlink:href="#f"/><use fill="url(#g)" xlink:href="#f"/><use fill="#000" filter="url(#h)" xlink:href="#f"/><circle stroke-opacity=".178" stroke="#272E50" stroke-width=".5" cx="24" cy="24" r="22.75"/></g><path d="M27.687 15.75a5.753 5.753 0 0 0-2.812.726c-1.499.838-2.5 2.32-2.5 4.01v7.028c0 1.266-1.26 2.292-2.812 2.292-1.554 0-2.813-1.026-2.813-2.292 0-.9.64-1.678 1.567-2.053.067-.027.135-.052.205-.075.584-.229 1.085-.66 1.27-1.159.275-.737-.236-1.335-1.141-1.335-.226 0-.454.037-.675.104l-.003.001c-1.309.368-2.4 1.173-3.056 2.225a4.312 4.312 0 0 0-.667 2.292c0 2.611 2.383 4.736 5.313 4.736a5.754 5.754 0 0 0 2.812-.726c1.498-.838 2.5-2.32 2.5-4.01v-7.028c0-1.266 1.26-2.292 2.812-2.292 1.554 0 2.813 1.026 2.813 2.292 0 .94-.694 1.747-1.686 2.1-.64.21-1.165.664-1.365 1.2-.273.735.235 1.33 1.136 1.33.204 0 .41-.035.612-.09l.098-.028c1.3-.37 2.386-1.173 3.038-2.22.424-.68.667-1.46.667-2.292 0-2.611-2.383-4.736-5.313-4.736" fill="url(#i)" transform="translate(4 2)"/></g></svg>