<svg width="60" height="60" viewBox="0 0 60 60" xmlns="http://www.w3.org/2000/svg"><title>Group</title><defs><linearGradient x1="50%" y1="0%" x2="50%" y2="100%" id="a"><stop stop-color="#1AD6FD" offset="0%"/><stop stop-color="#1D63F0" offset="100%"/></linearGradient></defs><g fill="none" fill-rule="evenodd"><circle fill="url(#a)" cx="30" cy="30" r="30"/><path d="M34.911 6.703l.569-2.924-.62-.12-.569 2.923c.208.038.415.078.62.121zm4.483 1.416l1.193-2.954-.586-.237-1.192 2.95c.196.077.391.158.585.241zm7.65 5.255l2.284-2.284-.447-.447-2.284 2.284c.15.147.3.296.447.447zm2.885 3.587l2.943-1.985-.353-.524-2.944 1.985c.12.173.239.348.354.524zm2.254 4.356l2.834-1.203-.247-.582-2.826 1.2c.082.193.162.389.239.585zm1.266 4.487l2.944-.572-.12-.62-2.943.571c.042.206.082.413.119.621zm-.134 9.101l2.957.575.12-.62-2.956-.575c-.038.207-.078.414-.121.62zm-1.425 4.508l2.906 1.174.237-.586-2.901-1.172c-.078.196-.16.39-.242.584zm-2.067 3.803l2.696 1.819.353-.524-2.705-1.825a23.84 23.84 0 0 1-.344.53zm-3.203 3.851l2.261 2.261.447-.447-2.261-2.261c-.147.151-.296.3-.447.447zm-3.934 3.1l1.825 2.705.524-.353-1.819-2.696a23.84 23.84 0 0 1-.53.344zm-3.85 1.962l1.226 2.888.582-.247-1.224-2.883c-.193.083-.388.164-.584.242zm-4.551 1.307l.574 2.957.62-.12-.574-2.958c-.206.043-.413.083-.62.121zm-9.102-.106l-.572 2.942.62.12.573-2.943a23.698 23.698 0 0 1-.62-.12zm-4.492-1.403l-1.16 2.869.587.237 1.158-2.866a23.655 23.655 0 0 1-.585-.24zm-7.764-5.33l-2.284 2.284.447.447 2.284-2.284c-.151-.147-.3-.296-.447-.447zm-2.98-3.758l-2.48 1.672.354.524 2.474-1.669c-.118-.174-.234-.35-.348-.527zm-2.07-4.029l-2.949 1.252.247.582 2.944-1.25a23.658 23.658 0 0 1-.241-.584zm-1.295-4.519l-2.924.568.12.62 2.925-.568a23.693 23.693 0 0 1-.12-.62zm.106-9.114l-2.91-.566-.12.62 2.911.567c.037-.208.077-.415.12-.621zm1.394-4.467l-2.917-1.178-.237.586 2.915 1.177c.077-.196.157-.39.239-.585zm2.463-4.42l-2.724-1.838-.353.524 2.72 1.835c.116-.176.236-.35.357-.522zm2.852-3.34l-2.307-2.307-.447.447 2.307 2.307c.147-.151.296-.3.447-.447zm3.414-2.763l-1.835-2.72-.524.354 1.837 2.724c.173-.121.346-.24.522-.358zm4.532-2.363l-1.23-2.896-.581.247 1.225 2.887c.194-.082.39-.161.586-.238zm4.455-1.255l-.566-2.91-.62.12.565 2.91c.206-.043.413-.083.62-.12zm3.893-3.546h.635v4.511h-.635v-4.51zm27.286 26.668v.632H52.54v-.632h4.437zM30.323 56.977h-.632V52.54h.632v4.437zm-27.3-26.654v-.632H7.46v.632H3.023z" fill="#FFF"/><path fill="#FF1414" d="M46.078 6.915L34.186 32.79l-8.372-4.884z"/><path fill="#FFF" d="M34.186 32.79L13.953 53.784l11.861-25.876z"/></g></svg>