<svg width="54" height="64" viewBox="0 0 54 64" xmlns="http://www.w3.org/2000/svg"><title>Oval 2 + Rectangle 165 + Rectangle 166</title><g fill="#4D4D4D" fill-rule="evenodd"><path d="M33.077 58.313C31.124 58.763 29.09 59 27 59 12.088 59 0 46.912 0 32a26.912 26.912 0 0 1 7.693-18.874l3.074 2.58A22.929 22.929 0 0 0 4 32c0 12.703 10.297 23 23 23 .682 0 1.357-.03 2.024-.088l4.053 3.401zM45.39 51.77l-3.091-2.595C47.024 44.963 50 38.83 50 32 50 19.297 39.703 9 27 9c-1.277 0-2.53.104-3.751.304l-3.84-3.222A27.01 27.01 0 0 1 27 5c14.912 0 27 12.088 27 27 0 7.807-3.313 14.84-8.61 19.77z"/><path d="M28 51.292c0-.714.459-.935 1.032-.489l6.936 5.394c.57.443.573 1.16 0 1.606l-6.936 5.394c-.57.443-1.032.22-1.032-.489V51.292zM26 1.292c0-.714-.459-.935-1.032-.489l-6.936 5.394c-.57.443-.573 1.16 0 1.606l6.936 5.394c.57.443 1.032.22 1.032-.489V1.292z"/></g></svg>