<svg width="22" height="26" viewBox="0 0 22 26" xmlns="http://www.w3.org/2000/svg" xmlns:xlink="http://www.w3.org/1999/xlink"><title>Group</title><defs><linearGradient x1="50%" y1="100%" x2="50%" y2="0%" id="c"><stop stop-color="#F7F7F7" offset="0%"/><stop stop-color="#FFF" offset="100%"/></linearGradient><path d="M.314 3.874L10 0l9.686 3.874A.5.5 0 0 1 20 4.34v9.537a6 6 0 0 1-2.56 4.915L10 24l-7.44-5.209A6 6 0 0 1 0 13.876V4.34a.5.5 0 0 1 .314-.465z" id="b"/><filter x="-8.8%" y="-5.2%" width="117.5%" height="114.6%" filterUnits="objectBoundingBox" id="a"><feOffset dy=".5" in="SourceAlpha" result="shadowOffsetOuter1"/><feGaussianBlur stdDeviation=".5" in="shadowOffsetOuter1" result="shadowBlurOuter1"/><feColorMatrix values="0 0 0 0 0 0 0 0 0 0 0 0 0 0 0 0 0 0 0.15 0" in="shadowBlurOuter1"/></filter><filter x="-6.3%" y="-3.1%" width="112.5%" height="110.4%" filterUnits="objectBoundingBox" id="d"><feMorphology radius=".5" in="SourceAlpha" result="shadowSpreadInner1"/><feOffset in="shadowSpreadInner1" result="shadowOffsetInner1"/><feComposite in="shadowOffsetInner1" in2="SourceAlpha" operator="arithmetic" k2="-1" k3="1" result="shadowInnerInner1"/><feColorMatrix values="0 0 0 0 0.705882353 0 0 0 0 0.705882353 0 0 0 0 0.705882353 0 0 0 1 0" in="shadowInnerInner1"/></filter><linearGradient x1="50%" y1="0%" x2="50%" y2="100%" id="f"><stop stop-color="#F3F3F3" offset="0%"/><stop stop-color="#E5E5E5" offset="100%"/></linearGradient><path d="M1 4.667L10 1l9 3.667v9.269a5 5 0 0 1-2.19 4.135L10 22.7l-6.81-4.629A5 5 0 0 1 1 13.936v-9.27z" id="e"/><path id="h" d="M5 10.5h10v1.2H5z"/><filter x="-2.5%" y="-20.8%" width="105%" height="183.3%" filterUnits="objectBoundingBox" id="g"><feOffset dy=".5" in="SourceAlpha" result="shadowOffsetOuter1"/><feColorMatrix values="0 0 0 0 1 0 0 0 0 1 0 0 0 0 1 0 0 0 0.896484375 0" in="shadowOffsetOuter1"/></filter><path id="j" d="M9.4 6h1.2v10H9.4z"/><filter x="-20.8%" y="-2.5%" width="141.7%" height="110%" filterUnits="objectBoundingBox" id="i"><feOffset dy=".5" in="SourceAlpha" result="shadowOffsetOuter1"/><feColorMatrix values="0 0 0 0 1 0 0 0 0 1 0 0 0 0 1 0 0 0 0.896484375 0" in="shadowOffsetOuter1"/></filter></defs><g fill="none" fill-rule="evenodd"><g transform="translate(1)"><use fill="#000" filter="url(#a)" xlink:href="#b"/><use fill="url(#c)" xlink:href="#b"/><use fill="#000" filter="url(#d)" xlink:href="#b"/></g><g transform="translate(1)"><use fill="#FFF" xlink:href="#e"/><use fill="#F0F0F0" xlink:href="#e"/><use fill="url(#f)" xlink:href="#e"/></g><g transform="translate(1)"><use fill="#000" filter="url(#g)" xlink:href="#h"/><use fill="#BABABA" xlink:href="#h"/></g><g transform="translate(1)"><use fill="#000" filter="url(#i)" xlink:href="#j"/><use fill="#BABABA" xlink:href="#j"/></g></g></svg>