<svg width="17" height="10" viewBox="0 0 17 10" xmlns="http://www.w3.org/2000/svg"><title>Shape</title><path d="M13.966 8.723a.819.819 0 0 1-1.396.625l-2.286-2.286a.819.819 0 0 1 1.158-1.158l1.124 1.124c-.06-1.33-.569-2.475-1.53-3.436-1.014-1.015-2.235-1.526-3.663-1.535-1.427-.009-2.642.488-3.644 1.49-1.003 1.002-1.565 2.666-1.6 4.077-.034 1.412-.107 1.57-.8 1.565-.35-.042-.845.074-.857-1.957-.013-2.03.699-3.595 2.023-4.919C3.837.97 5.465.309 7.378.331c1.912.02 3.539.701 4.88 2.042 1.34 1.34 2.02 2.966 2.041 4.88.008.73-.103 1.22-.333 1.47zm-1.294.64a.819.819 0 0 1 0-1.158l2.284-2.284a.819.819 0 0 1 1.158 1.158L13.83 9.362a.819.819 0 0 1-1.158 0zm-4.207-2.56c-.629-.629-1.667-.61-2.318.042-.652.651-.67 1.689-.042 2.317.628.629 1.666.61 2.318-.041.652-.652.67-1.69.042-2.318z" fill="#000" fill-rule="nonzero"/></svg>