<svg width="24" height="24" viewBox="0 0 24 24" xmlns="http://www.w3.org/2000/svg" xmlns:xlink="http://www.w3.org/1999/xlink"><title>Settings/Tab Icon/Theme</title><defs><linearGradient x1="50%" y1="100%" x2="50%" y2="0%" id="a"><stop stop-color="#7F7F7F" offset="0%"/><stop stop-color="#A5A5A5" offset="100%"/></linearGradient><rect id="b" width="19" height="17" rx="2"/><filter x="-1.3%" y="-1.5%" width="102.6%" height="102.9%" filterUnits="objectBoundingBox" id="c"><feMorphology radius=".5" in="SourceAlpha" result="shadowSpreadInner1"/><feOffset in="shadowSpreadInner1" result="shadowOffsetInner1"/><feComposite in="shadowOffsetInner1" in2="SourceAlpha" operator="arithmetic" k2="-1" k3="1" result="shadowInnerInner1"/><feColorMatrix values="0 0 0 0 0.339392007 0 0 0 0 0.339392007 0 0 0 0 0.339392007 0 0 0 1 0" in="shadowInnerInner1"/></filter><linearGradient x1="50%" y1="0%" x2="50%" y2="98.954%" id="d"><stop stop-color="#797979" offset="0%"/><stop stop-color="#272727" offset="100%"/></linearGradient><linearGradient x1="50%" y1="100%" x2="50%" y2="0%" id="g"><stop stop-color="#F7F7F7" offset="0%"/><stop stop-color="#FFF" offset="100%"/></linearGradient><rect id="f" width="20" height="19" rx="2"/><filter x="-6.2%" y="-3.9%" width="112.5%" height="115.8%" filterUnits="objectBoundingBox" id="e"><feOffset dy="1" in="SourceAlpha" result="shadowOffsetOuter1"/><feGaussianBlur stdDeviation=".25" in="shadowOffsetOuter1" result="shadowBlurOuter1"/><feColorMatrix values="0 0 0 0 0 0 0 0 0 0 0 0 0 0 0 0 0 0 0.3 0" in="shadowBlurOuter1"/></filter><filter x="-3.8%" y="-1.3%" width="107.5%" height="110.5%" filterUnits="objectBoundingBox" id="h"><feMorphology radius=".5" in="SourceAlpha" result="shadowSpreadInner1"/><feOffset in="shadowSpreadInner1" result="shadowOffsetInner1"/><feComposite in="shadowOffsetInner1" in2="SourceAlpha" operator="arithmetic" k2="-1" k3="1" result="shadowInnerInner1"/><feColorMatrix values="0 0 0 0 0.705516582 0 0 0 0 0.705516582 0 0 0 0 0.705516582 0 0 0 1 0" in="shadowInnerInner1"/></filter><linearGradient x1="50%" y1="0%" x2="50%" y2="100%" id="j"><stop stop-color="#F3F3F3" offset="0%"/><stop stop-color="#E5E5E5" offset="100%"/></linearGradient><rect id="i" x="1" y="1" width="18" height="4" rx="1"/></defs><g fill="none" fill-rule="evenodd"><path d="M0 0h24v24H0z"/><g transform="translate(5 7)"><use fill="url(#a)" xlink:href="#b"/><use fill="#000" filter="url(#c)" xlink:href="#b"/><path fill-opacity=".2" fill="#D8D8D8" d="M1 5h6v11H1z"/><rect fill="url(#d)" x="1" y="1" width="17" height="4" rx="1"/><circle fill="#FF6159" cx="3" cy="3" r="1"/><circle fill="#FFBE2F" cx="7" cy="3" r="1"/><circle fill="#28CA41" cx="11" cy="3" r="1"/></g><g transform="translate(1 2)"><use fill="#000" filter="url(#e)" xlink:href="#f"/><use fill="url(#g)" xlink:href="#f"/><use fill="#000" filter="url(#h)" xlink:href="#f"/><path fill-opacity=".2" fill="#D8D8D8" d="M1 5h6v13H1z"/><use fill="#FFF" xlink:href="#i"/><use fill="#F0F0F0" xlink:href="#i"/><use fill="url(#j)" xlink:href="#i"/><circle fill="#FF6159" cx="3" cy="3" r="1"/><circle fill="#FF862F" cx="7" cy="3" r="1"/><circle fill="#28CA41" cx="11" cy="3" r="1"/></g></g></svg>