<svg width="60" height="60" viewBox="0 0 60 60" xmlns="http://www.w3.org/2000/svg"><title>Group</title><g fill="none" fill-rule="evenodd"><path d="M15.916 3.504A30.115 30.115 0 0 0 2.365 18.306H29.7a12.93 12.93 0 0 1 1.012-.005L15.916 3.504z" fill="#FF7612"/><path d="M18.737 2.186A29.917 29.917 0 0 1 30 0c3.055 0 6.003.457 8.78 1.305V22.27c-.272-.317-.56-.619-.864-.904l-19.18-19.18z" fill="#FA5452"/><path d="M1.301 21.233A29.999 29.999 0 0 0 0 30c0 3.99.779 7.799 2.193 11.282l19.55-19.55.02.02c.18-.18.364-.353.555-.52H1.3z" fill="#FFC817"/><path d="M3.513 44.1A30.115 30.115 0 0 0 18.32 57.64V31.038c-.018-.249-.026-.5-.026-.751 0-.339.013-.673.039-1.004L3.513 44.101z" fill="#9AD122"/><path d="M21.245 58.703A30 30 0 0 0 30 60c3.99 0 7.798-.78 11.281-2.193L22.164 38.689c-.324-.284-.63-.585-.919-.901v20.915z" fill="#66D020"/><path d="M44.1 56.486a30.118 30.118 0 0 0 13.535-14.791H30.813a12.89 12.89 0 0 1-1.53-.026l14.817 14.817z" fill="#00B1FE"/><path d="M58.698 38.768A29.995 29.995 0 0 0 60 30c0-3.983-.776-7.785-2.186-11.263L39.078 37.473c-.381.462-.797.895-1.243 1.295h20.863z" fill="#5283F0"/><path d="M56.496 15.917A30.118 30.118 0 0 0 41.707 2.37V30h-.003a12.995 12.995 0 0 1-.005.713l14.797-14.796z" fill="#6467F0"/></g></svg>