<svg width="16" height="16" viewBox="0 0 16 16" xmlns="http://www.w3.org/2000/svg"><title>tsconfig.json</title><g fill="#FCAD00" fill-rule="evenodd"><path d="M.65 8.49c.4.01.7.188.899.533.195.33.292.753.292 1.265v1.08c.01.508.165.903.464 1.186A1.46 1.46 0 0 0 3.347 13l1.358-.009a.3.3 0 0 0 .298-.3v-.678a.3.3 0 0 0-.3-.3h-.45c-.677-.026-.673-.605-.673-.917v-.885c0-.345-.048-.635-.143-.87a1.663 1.663 0 0 0-.352-.575 1.368 1.368 0 0 0-.382-.338 1.302 1.302 0 0 0-.322-.123c.175-.067.41-.232.704-.525.145-.148.262-.34.352-.575.095-.216.143-.486.143-.812v-.9c0-.326.004-.76.674-.787h.449a.3.3 0 0 0 .3-.3v-.804a.3.3 0 0 0-.302-.3l-1.354.009c-.41 0-.757.141-1.042.424-.3.288-.454.69-.464 1.208v1.108c0 .48-.097.892-.292 1.237a.923.923 0 0 1-.367.381.93.93 0 0 1-.532.151v.97zM15.353 8.49c-.4.01-.7.188-.9.533-.194.33-.291.753-.291 1.265v1.08c-.01.508-.165.903-.465 1.186a1.46 1.46 0 0 1-1.04.446l-1.359-.009a.3.3 0 0 1-.298-.3v-.678a.3.3 0 0 1 .3-.3h.45c.677-.026.673-.605.673-.917v-.885c0-.345.048-.635.143-.87.09-.235.207-.427.352-.575.12-.149.247-.262.382-.338.134-.067.242-.108.322-.123-.175-.067-.41-.232-.704-.525a1.663 1.663 0 0 1-.352-.575c-.095-.216-.143-.486-.143-.812v-.9c0-.326-.004-.76-.674-.787H11.3a.3.3 0 0 1-.3-.3v-.804a.3.3 0 0 1 .302-.3l1.354.009c.41 0 .757.141 1.041.424.3.288.455.69.465 1.208v1.108c0 .48.097.892.292 1.237.09.168.212.295.367.381.15.1.327.151.532.151v.97z"/><path d="M7.917 9c.322 0 .583.274.583.611a.598.598 0 0 1-.583.611.598.598 0 0 1-.584-.61c0-.338.262-.612.584-.612zM5.583 9a.57.57 0 0 1 .413.179c.11.115.17.27.17.432a.598.598 0 0 1-.583.611.598.598 0 0 1-.583-.61C5 9.273 5.261 9 5.583 9zm4.667 0c.322 0 .583.274.583.611a.598.598 0 0 1-.583.611.598.598 0 0 1-.583-.61c0-.338.26-.612.583-.612z" fill-rule="nonzero"/></g></svg>