<svg width="24" height="18" viewBox="0 0 24 18" xmlns="http://www.w3.org/2000/svg"><title>Wifi</title><path d="M11.992 3.05c3.879 0 7.415 1.433 10.126 3.783L24 4.749C20.79 1.954 16.596 0 11.992 0 7.394 0 3.207 1.948 0 4.734l1.878 2.087A15.404 15.404 0 0 1 11.992 3.05zm0 6.015c2.325 0 4.449.847 6.087 2.241l1.991-2.205c-2.167-1.866-4.986-3.084-8.078-3.084-3.087 0-5.904 1.215-8.07 3.075L5.912 11.3a9.357 9.357 0 0 1 6.08-2.235zm4.095 4.446c-1.109-.922-2.536-1.561-4.096-1.561-1.558 0-2.983.638-4.092 1.557l4.092 4.542 4.096-4.538z" fill="#FFF" fill-rule="evenodd"/></svg>