<?xml version="1.0" encoding="UTF-8"?>
<svg width="18px" height="12px" viewBox="0 0 18 12" version="1.1" xmlns="http://www.w3.org/2000/svg" xmlns:xlink="http://www.w3.org/1999/xlink">
    <!-- Generator: Sketch 46 (44423) - http://www.bohemiancoding.com/sketch -->
    <title>Aa</title>
    <desc>Created with Sketch.</desc>
    <defs></defs>
    <g id="全局查找" stroke="none" stroke-width="1" fill="none" fill-rule="evenodd">
        <g id="Desktop-HD-Copy-4" transform="translate(-1268.000000, -492.000000)" fill="#555555">
            <g id="Group-10-Copy-2" transform="translate(670.000000, 483.000000)">
                <path d="M601.435024,16.6408163 L605.004097,16.6408163 L603.236317,11.4408163 L603.202804,11.4408163 L601.435024,16.6408163 Z M606.478644,20.9020408 L605.531918,18.2408163 L600.898825,18.2408163 L599.960477,20.9020408 L598,20.9020408 L602.440397,9 L603.990346,9 L608.430743,20.9020408 L606.478644,20.9020408 Z M614.248976,20.9020408 L614.248976,20.1510204 L614.215463,20.1510204 C614.053486,20.4394572 613.802145,20.6517 613.461434,20.7877551 C613.126308,20.9292524 612.662724,21 612.070668,21 C611.098803,20.9891156 610.350366,20.738778 609.825335,20.2489796 C609.272378,19.7700656 608.995903,19.1578269 608.995903,18.4122449 C608.995903,17.6993162 609.236073,17.1088459 609.71642,16.6408163 C610.196767,16.1619024 610.900521,15.9170069 611.827703,15.9061224 L614.248976,15.9061224 L614.248976,15.0163265 C614.260147,14.2707446 613.665307,13.9088434 612.464439,13.9306122 C612.028775,13.9306122 611.685276,13.9741492 611.433932,14.0612245 C611.171417,14.1646264 610.964759,14.3387743 610.813952,14.5836735 L609.439942,13.5632653 C610.104609,12.7142815 611.084838,12.3006802 612.380658,12.322449 C613.475403,12.3115646 614.34951,12.5129231 615.003005,12.9265306 C615.656501,13.3510225 615.988829,14.0802669 616,15.1142857 L616,20.9020408 L614.248976,20.9020408 Z M614.248976,17.922449 L614.248976,17.3102041 L612.154449,17.3102041 C611.1379,17.3319729 610.635219,17.6721056 610.64639,18.3306122 C610.64639,18.6190491 610.777646,18.8639446 611.040161,19.0653061 C611.291505,19.2884365 611.707614,19.4 612.288499,19.4 C613.02019,19.4108844 613.536835,19.3265315 613.838448,19.1469388 C614.112135,18.967346 614.248976,18.5591869 614.248976,17.922449 Z" id="Aa"></path>
            </g>
        </g>
    </g>
</svg>