<?xml version="1.0" encoding="UTF-8"?>
<svg width="7px" height="5px" viewBox="0 0 7 5" version="1.1" xmlns="http://www.w3.org/2000/svg" xmlns:xlink="http://www.w3.org/1999/xlink">
    <!-- Generator: Sketch 44.1 (41455) - http://www.bohemiancoding.com/sketch -->
    <title>Combined Shape</title>
    <desc>Created with Sketch.</desc>
    <defs></defs>
    <g id="Symbols" stroke="none" stroke-width="1" fill="none" fill-rule="evenodd">
        <g id="肩头-上" transform="translate(-1.000000, -3.000000)" fill="#000000">
            <g id="展开">
                <path d="M6.9456438,6.98512736 L6.9456438,4.42774721 L6.9456438,4.42774721 C6.9456438,4.31729026 6.85610075,4.22774721 6.7456438,4.22774721 L6.7456438,4.22774721 L5.6456438,4.22774721 C5.53518685,4.22774721 5.4456438,4.31729026 5.4456438,4.42774721 L5.4456438,4.42774721 L5.4456438,6.9825226 L2.8959911,6.97809511 L2.8959911,6.97809511 C2.89587534,6.97809491 2.89575957,6.97809481 2.8956438,6.97809481 C2.78518685,6.97809481 2.6956438,7.06763786 2.6956438,7.17809481 L2.6956438,7.17809481 L2.6956438,8.27809421 C2.6956438,8.38841555 2.78497532,8.47790233 2.8952965,8.47809391 L6.74592971,8.48478056 C6.74604548,8.48478076 6.74616124,8.48478086 6.74627701,8.48478086 C6.85673396,8.48478086 6.94627701,8.39523781 6.94627701,8.28478086 L6.94627701,6.98512846 L6.9456438,6.98512736 Z" id="Combined-Shape" transform="translate(4.820960, 6.356264) scale(1, -1) rotate(-315.000000) translate(-4.820960, -6.356264) "></path>
            </g>
        </g>
    </g>
</svg>