<?xml version="1.0" encoding="UTF-8"?>
<svg width="5px" height="7px" viewBox="0 0 5 7" version="1.1" xmlns="http://www.w3.org/2000/svg" xmlns:xlink="http://www.w3.org/1999/xlink">
    <!-- Generator: Sketch 44.1 (41455) - http://www.bohemiancoding.com/sketch -->
    <title>Combined Shape</title>
    <desc>Created with Sketch.</desc>
    <defs></defs>
    <g id="Symbols" stroke="none" stroke-width="1" fill="none" fill-rule="evenodd">
        <g id="肩头-右" transform="translate(-2.000000, -2.000000)" fill="#000000">
            <g id="展开">
                <path d="M5.9456438,5.98512736 L5.9456438,3.42774721 L5.9456438,3.42774721 C5.9456438,3.31729026 5.85610075,3.22774721 5.7456438,3.22774721 L5.7456438,3.22774721 L4.6456438,3.22774721 C4.53518685,3.22774721 4.4456438,3.31729026 4.4456438,3.42774721 L4.4456438,3.42774721 L4.4456438,5.9825226 L1.8959911,5.97809511 L1.8959911,5.97809511 C1.89587534,5.97809491 1.89575957,5.97809481 1.8956438,5.97809481 C1.78518685,5.97809481 1.6956438,6.06763786 1.6956438,6.17809481 L1.6956438,6.17809481 L1.6956438,7.27809421 C1.6956438,7.38841555 1.78497532,7.47790233 1.8952965,7.47809391 L5.74592971,7.48478056 C5.74604548,7.48478076 5.74616124,7.48478086 5.74627701,7.48478086 C5.85673396,7.48478086 5.94627701,7.39523781 5.94627701,7.28478086 L5.94627701,5.98512846 L5.9456438,5.98512736 Z" id="Combined-Shape" transform="translate(3.820960, 5.356264) scale(1, -1) rotate(-45.000000) translate(-3.820960, -5.356264) "></path>
            </g>
        </g>
    </g>
</svg>