<?xml version="1.0" encoding="UTF-8"?>
<svg width="24px" height="24px" viewBox="0 0 24 24" version="1.1" xmlns="http://www.w3.org/2000/svg" xmlns:xlink="http://www.w3.org/1999/xlink">
    <!-- Generator: Sketch 46 (44423) - http://www.bohemiancoding.com/sketch -->
    <title>Form/Button/Tips</title>
    <desc>Created with Sketch.</desc>
    <defs>
        <linearGradient x1="50%" y1="0%" x2="50%" y2="100%" id="linearGradient-1">
            <stop stop-color="#FEFEFE" offset="0%"></stop>
            <stop stop-color="#F9F9F9" offset="100%"></stop>
        </linearGradient>
        <circle id="path-2" cx="12" cy="12" r="11"></circle>
        <filter x="-9.1%" y="-4.5%" width="118.2%" height="118.2%" filterUnits="objectBoundingBox" id="filter-3">
            <feOffset dx="0" dy="1" in="SourceAlpha" result="shadowOffsetOuter1"></feOffset>
            <feGaussianBlur stdDeviation="0.5" in="shadowOffsetOuter1" result="shadowBlurOuter1"></feGaussianBlur>
            <feColorMatrix values="0 0 0 0 0   0 0 0 0 0   0 0 0 0 0  0 0 0 0.04 0" type="matrix" in="shadowBlurOuter1"></feColorMatrix>
        </filter>
        <filter x="-6.8%" y="-2.3%" width="113.6%" height="113.6%" filterUnits="objectBoundingBox" id="filter-4">
            <feGaussianBlur stdDeviation="0.5" in="SourceAlpha" result="shadowBlurInner1"></feGaussianBlur>
            <feOffset dx="0" dy="0" in="shadowBlurInner1" result="shadowOffsetInner1"></feOffset>
            <feComposite in="shadowOffsetInner1" in2="SourceAlpha" operator="arithmetic" k2="-1" k3="1" result="shadowInnerInner1"></feComposite>
            <feColorMatrix values="0 0 0 0 0   0 0 0 0 0   0 0 0 0 0  0 0 0 0.4 0" type="matrix" in="shadowInnerInner1"></feColorMatrix>
        </filter>
        <linearGradient x1="50%" y1="0%" x2="50%" y2="100%" id="linearGradient-5">
            <stop stop-color="#0465FC" offset="0%"></stop>
            <stop stop-color="#0434FC" offset="100%"></stop>
        </linearGradient>
        <path d="M12.1441048,7 C11.1746725,7 10.4148472,7.28846154 9.85152838,7.86538462 C9.27510917,8.44230769 9,9.23901099 9,10.2554945 L10.4934498,10.2554945 C10.4934498,9.67857143 10.5982533,9.22527473 10.8209607,8.90934066 C11.069869,8.52472527 11.4759825,8.34615385 12.0524017,8.34615385 C12.4978166,8.34615385 12.8515284,8.46978022 13.1004367,8.73076923 C13.3362445,8.99175824 13.4672489,9.3489011 13.4672489,9.8021978 C13.4672489,10.1456044 13.349345,10.4752747 13.1135371,10.7774725 L12.9563319,10.9697802 C12.1048035,11.7664835 11.5938865,12.3434066 11.4235808,12.7142857 C11.2401747,13.0851648 11.1615721,13.5384615 11.1615721,14.0604396 L11.1615721,14.2527473 L12.6681223,14.2527473 L12.6681223,14.0604396 C12.6681223,13.7307692 12.7336245,13.4423077 12.8646288,13.1675824 C12.9825328,12.9203297 13.1528384,12.6868132 13.3886463,12.4807692 C14.0174672,11.9038462 14.3973799,11.532967 14.5152838,11.3956044 C14.8296943,10.956044 15,10.3928571 15,9.70604396 C15,8.86813187 14.7379913,8.20879121 14.2139738,7.72802198 C13.6899563,7.23351648 12.9956332,7 12.1441048,7 Z M11.9082969,14.9258242 C11.6200873,14.9258242 11.3842795,15.021978 11.1877729,15.2142857 C10.9912664,15.4065934 10.8995633,15.6538462 10.8995633,15.956044 C10.8995633,16.2582418 10.9912664,16.5054945 11.1877729,16.6978022 C11.3842795,16.8901099 11.6200873,17 11.9082969,17 C12.1965066,17 12.4323144,16.9038462 12.628821,16.7115385 C12.8253275,16.5192308 12.930131,16.2582418 12.930131,15.956044 C12.930131,15.6538462 12.8253275,15.4065934 12.6419214,15.2142857 C12.4454148,15.021978 12.1965066,14.9258242 11.9082969,14.9258242 Z" id="path-6"></path>
        <filter x="-116.7%" y="-50.0%" width="333.3%" height="240.0%" filterUnits="objectBoundingBox" id="filter-7">
            <feOffset dx="0" dy="2" in="SourceAlpha" result="shadowOffsetOuter1"></feOffset>
            <feGaussianBlur stdDeviation="2" in="shadowOffsetOuter1" result="shadowBlurOuter1"></feGaussianBlur>
            <feColorMatrix values="0 0 0 0 1   0 0 0 0 1   0 0 0 0 1  0 0 0 1 0" type="matrix" in="shadowBlurOuter1"></feColorMatrix>
        </filter>
    </defs>
    <g id="腾讯云" stroke="none" stroke-width="1" fill="none" fill-rule="evenodd">
        <g id="Desktop-HD-Copy-3" transform="translate(-495.000000, -322.000000)">
            <g id="Modal" transform="translate(485.000000, 121.000000)">
                <g id="Modal-Actions" transform="translate(0.000000, 191.000000)">
                    <g id="Form/Button/Tips" transform="translate(10.000000, 9.000000)">
                        <g id="Oval-6">
                            <use fill="black" fill-opacity="1" filter="url(#filter-3)" xlink:href="#path-2"></use>
                            <use fill="url(#linearGradient-1)" fill-rule="evenodd" xlink:href="#path-2"></use>
                            <use fill="black" fill-opacity="1" filter="url(#filter-4)" xlink:href="#path-2"></use>
                        </g>
                        <g id="？">
                            <use fill="black" fill-opacity="1" filter="url(#filter-7)" xlink:href="#path-6"></use>
                            <use fill="url(#linearGradient-5)" fill-rule="evenodd" xlink:href="#path-6"></use>
                        </g>
                    </g>
                </g>
            </g>
        </g>
    </g>
</svg>