<?xml version="1.0" encoding="UTF-8"?>
<svg width="10px" height="12px" viewBox="0 0 10 12" version="1.1" xmlns="http://www.w3.org/2000/svg" xmlns:xlink="http://www.w3.org/1999/xlink">
    <!-- Generator: Sketch 50 (54983) - http://www.bohemiancoding.com/sketch -->
    <title>Group 4</title>
    <desc>Created with Sketch.</desc>
    <defs></defs>
    <g id="汇总" stroke="none" stroke-width="1" fill="none" fill-rule="evenodd">
        <g id="Artboard" transform="translate(-879.000000, -1162.000000)">
            <g id="树--图标" transform="translate(785.000000, 1160.000000)">
                <g id="文件夹" transform="translate(91.000000, 0.000000)">
                    <g id="Group-4" transform="translate(3.000000, 2.000000)">
                        <path d="M0.6,0.5 C0.544771525,0.5 0.5,0.544771525 0.5,0.6 L0.5,11.4 C0.5,11.4552285 0.544771525,11.5 0.6,11.5 L9.4,11.5 C9.45522847,11.5 9.5,11.4552285 9.5,11.4 L9.5,0.6 C9.5,0.544771525 9.45522847,0.5 9.4,0.5 L0.6,0.5 Z" id="Rectangle" stroke="#000000"></path>
                        <path d="M4.10469828,4.30691566 L6.65941953,5.6457015 C6.85509318,5.74824307 6.93059166,5.98999428 6.82805009,6.18566793 C6.79029343,6.2577166 6.73146819,6.31654184 6.65941953,6.3542985 L4.10469828,7.69308434 C3.90902462,7.79562591 3.66727342,7.72012744 3.56473185,7.52445378 C3.5347122,7.46716916 3.51903034,7.4034597 3.51903034,7.33878585 L3.51903034,4.66121415 C3.51903034,4.44030025 3.69811644,4.26121415 3.91903035,4.26121415 C3.9837042,4.26121415 4.04741366,4.276896 4.10469828,4.30691566 Z" id="Rectangle-13" fill="#000000"></path>
                    </g>
                </g>
            </g>
        </g>
    </g>
</svg>