<?xml version="1.0" encoding="UTF-8"?>
<svg width="14px" height="11px" viewBox="0 0 14 11" version="1.1" xmlns="http://www.w3.org/2000/svg" xmlns:xlink="http://www.w3.org/1999/xlink">
    <!-- Generator: Sketch 45.2 (43514) - http://www.bohemiancoding.com/sketch -->
    <title>icon</title>
    <desc>Created with Sketch.</desc>
    <defs></defs>
    <g id="Page-1" stroke="none" stroke-width="1" fill="none" fill-rule="evenodd">
        <g id="Desktop-HD-Copy-15" transform="translate(-779.000000, -231.000000)" fill="#000000">
            <g id="Dashboard" transform="translate(759.000000, 213.000000)">
                <path d="M23.9874686,24.2426021 L32.2426021,24.2426021 C32.7948868,24.2426021 33.2426021,23.7948868 33.2426021,23.2426021 C33.2426021,22.6903173 32.7948868,22.2426021 32.2426021,22.2426021 L23.9874686,22.2426021 L26.0212878,19.7720462 C26.3818091,19.3341076 26.3508495,18.6939953 25.9497475,18.2928932 C25.5592232,17.9023689 24.9260582,17.9023689 24.5355339,18.2928932 L20.293025,22.5354022 L20.2928932,22.5354567 L20.2928932,22.5354567 C20.0976311,22.7307189 20,22.9866412 20,23.2425635 C19.9999902,23.4985373 20.0976213,23.7544755 20.2928932,23.9497475 L24.5355339,28.192311 C24.9260582,28.5828353 25.5592232,28.5828353 25.9497475,28.192311 C26.3508495,27.7912089 26.3818091,27.1510966 26.0212878,26.713158 L26.0212878,26.713158 L23.9874686,24.2426021 Z" id="icon"></path>
            </g>
        </g>
    </g>
</svg>