<?xml version="1.0" encoding="UTF-8"?>
<svg width="12px" height="10px" viewBox="0 0 12 10" version="1.1" xmlns="http://www.w3.org/2000/svg" xmlns:xlink="http://www.w3.org/1999/xlink">
    <!-- Generator: Sketch 44.1 (41455) - http://www.bohemiancoding.com/sketch -->
    <title>Icon Upload</title>
    <desc>Created with Sketch.</desc>
    <defs>
        <path d="M0.417137146,9.09620285 C0.186758662,9.59535623 0.455760956,10 1.00247329,10 L10.9975267,10 C11.5511774,10 11.8123366,9.59339589 11.5828629,9.09620285 L9,3.5 L9,0 L3,0 L3,3.5 L0.417137146,9.09620285 Z" id="path-1"></path>
    </defs>
    <g id="Page-1" stroke="none" stroke-width="1" fill="none" fill-rule="evenodd">
        <g id="Desktop-HD-Copy" transform="translate(-1294.000000, -81.000000)">
            <g id="Group-4" transform="translate(20.000000, 41.000000)">
                <g id="Buttons-Right" transform="translate(1140.000000, 33.000000)">
                    <g id="Test" transform="translate(120.000000, 0.000000)">
                        <g id="Icon-Upload" transform="translate(12.000000, 3.000000)">
                            <rect id="Bound" opacity="0.900000036" x="0" y="0" width="16" height="16"></rect>
                            <g id="Group" transform="translate(2.000000, 4.000000)">
                                <mask id="mask-2" fill="white">
                                    <use xlink:href="#path-1"></use>
                                </mask>
                                <path stroke-opacity="0.9" stroke="#000000" d="M8.5,0.5 L3.5,0.5 L3.5,3.5 L3.45397969,3.70952909 L0.871116838,9.30573194 C0.795684049,9.46916965 0.815814538,9.5 1.00247329,9.5 L10.9975267,9.5 C11.1866876,9.5 11.2052692,9.47123507 11.1288832,9.30573194 L8.54602031,3.70952909 L8.5,3.5 L8.5,0.5 Z"></path>
                            </g>
                            <path d="M4,4.5 L12,4.5" id="Path-10" stroke-opacity="0.9" stroke="#000000"></path>
                        </g>
                    </g>
                </g>
            </g>
        </g>
    </g>
</svg>