<?xml version="1.0" encoding="UTF-8"?>
<svg width="18px" height="14px" viewBox="0 0 18 14" version="1.1" xmlns="http://www.w3.org/2000/svg" xmlns:xlink="http://www.w3.org/1999/xlink">
    <!-- Generator: Sketch 48.2 (47327) - http://www.bohemiancoding.com/sketch -->
    <title>Group 11</title>
    <desc>Created with Sketch.</desc>
    <defs></defs>
    <g id="Artboard" stroke="none" stroke-width="1" fill="none" fill-rule="evenodd" transform="translate(-825.000000, -87.000000)">
        <g id="Group-4" transform="translate(42.000000, 50.000000)">
            <g id="工具栏" transform="translate(20.000000, 33.000000)">
                <g id="中间" transform="translate(748.000000, 0.000000)">
                    <g id="Back-Stage-Copy">
                        <g id="Group-11" transform="translate(16.000000, 5.000000)">
                            <circle id="Oval-7" stroke="#000000" cx="8" cy="7" r="5.5"></circle>
                            <rect id="Rectangle-3" fill="#000000" x="7.5" y="2" width="1" height="10"></rect>
                            <g id="Group-10" transform="translate(12.000000, 2.000000)">
                                <polyline id="Path-20" stroke="#000000" points="0.72681982 2.03750304 2.54503865 2.03750304 3.53289653 0.471975847"></polyline>
                                <polyline id="Path-20" stroke="#000000" transform="translate(2.129858, 8.553741) scale(1, -1) translate(-2.129858, -8.553741) " points="0.72681982 9.33650413 2.54503865 9.33650413 3.53289653 7.77097693"></polyline>
                                <rect id="Rectangle-29" fill="#000000" x="1" y="4.5" width="3" height="1"></rect>
                            </g>
                            <g id="Group-10" transform="translate(1.500000, 7.000000) scale(-1, 1) translate(-1.500000, -7.000000) translate(0.000000, 2.000000)">
                                <polyline id="Path-20" stroke="#000000" points="0 2 1.94387291 2 3 0"></polyline>
                                <polyline id="Path-20" stroke="#000000" transform="translate(1.500000, 9.000000) scale(1, -1) translate(-1.500000, -9.000000) " points="0 10 1.94387291 10 3 8"></polyline>
                                <rect id="Rectangle-29" fill="#000000" x="0" y="5" width="3" height="1"></rect>
                            </g>
                            <path d="M5.65836513,1.12281285 C6.02117577,0.15464919 6.94895252,-0.5 8,-0.5 C9.05104748,-0.5 9.97882423,0.15464919 10.3416349,1.12281285 L10.7071996,2.09832572 L9.71743758,1.77331166 C9.16824304,1.59296936 8.59073451,1.5 8,1.5 C7.40926549,1.5 6.83175696,1.59296936 6.28256242,1.77331166 L5.29280044,2.09832572 L5.65836513,1.12281285 Z" id="Combined-Shape" stroke="#000000"></path>
                        </g>
                    </g>
                </g>
            </g>
        </g>
    </g>
</svg>