<?xml version="1.0" encoding="UTF-8"?>
<svg width="14px" height="11px" viewBox="0 0 14 11" version="1.1" xmlns="http://www.w3.org/2000/svg" xmlns:xlink="http://www.w3.org/1999/xlink">
    <!-- Generator: Sketch 50.2 (55047) - http://www.bohemiancoding.com/sketch -->
    <title>Group</title>
    <desc>Created with Sketch.</desc>
    <defs></defs>
    <g id="云函数icon_by左阳" stroke="none" stroke-width="1" fill="none" fill-rule="evenodd">
        <g id="云函数根目录" transform="translate(-1.000000, -2.000000)" stroke="#000000">
            <g id="Group" transform="translate(1.000000, 2.000000)">
                <path d="M5.45454545,5.82222222 C5.45454545,5.82222222 5.5,5.82222222 5.5,5.82222222 C5.68181818,5.02222222 6.45454545,4.4 7.31818182,4.4 C8.04545455,4.4 8.68181818,4.8 9,5.42222222 C9.09090909,5.42222222 9.13636364,5.42222222 9.22727273,5.42222222 C10,5.42222222 10.5909091,6 10.5909091,6.75555556 C10.5909091,7.51111111 10,8.08888889 9.22727273,8.08888889 L5.45454545,8.08888889 C4.81818182,8.08888889 4.27272727,7.55555556 4.27272727,6.93333333 C4.27272727,6.31111111 4.77272727,5.82222222 5.45454545,5.82222222 Z" id="Shape" stroke-linecap="round" stroke-linejoin="round"></path>
                <path d="M9.22727273,8.13333333 C10,8.13333333 10.5909091,7.55555556 10.5909091,6.8 C10.5909091,6.04444444 10,5.46666667 9.22727273,5.46666667 C8.81818182,5.46666667 8.45454545,5.64444444 8.18181818,5.91111111" id="Shape" stroke-linecap="round" stroke-linejoin="round"></path>
                <path d="M0.5,2.48656605 L0.5,10 C0.5,10.2761424 0.723857625,10.5 1,10.5 L13,10.5 C13.2761424,10.5 13.5,10.2761424 13.5,10 L13.5,2.98656605 C13.5,2.71042368 13.2761424,2.48656605 13,2.48656605 L6.30565391,2.48656605 L5.66604108,0.568367726 C5.65242676,0.527538371 5.61421527,0.5 5.57117592,0.5 L1.00238656,0.5 C0.726478467,0.5 0.502718004,0.723492118 0.502386922,0.999400014 L0.500602362,2.48656605 L0.5,2.48656605 Z" id="Combined-Shape"></path>
            </g>
        </g>
    </g>
</svg>