<?xml version="1.0" encoding="UTF-8"?>
<svg width="14px" height="10px" viewBox="0 0 14 10" version="1.1" xmlns="http://www.w3.org/2000/svg" xmlns:xlink="http://www.w3.org/1999/xlink">
    <!-- Generator: Sketch 45.2 (43514) - http://www.bohemiancoding.com/sketch -->
    <title>Icon Upload</title>
    <desc>Created with Sketch.</desc>
    <defs></defs>
    <g id="工具栏（以此为准）" stroke="none" stroke-width="1" fill="none" fill-rule="evenodd">
        <g id="Desktop-HD-Copy-2" transform="translate(-1233.000000, -80.000000)" fill-rule="nonzero" fill="#181818">
            <g id="Group-4" transform="translate(20.000000, 41.000000)">
                <g id="Buttons" transform="translate(90.000000, 33.000000)">
                    <g id="Test-Copy" transform="translate(1110.000000, 0.000000)">
                        <g id="Icon-Upload" transform="translate(13.000000, 6.000000)">
                            <g id="腾讯云logo-copy">
                                <path d="M13.0570968,4.54869427 C12.4724839,3.96019108 11.6576129,3.58929936 10.7517742,3.58923567 C9.96870968,3.58917197 9.29458065,3.85576433 8.70596774,4.3289172 C8.44941935,4.53515924 8.18025806,4.78213376 7.84167742,5.10678344 C7.67348387,5.26802548 2.79770968,9.9388535 2.79770968,9.9388535 C3.05332258,9.97477707 3.40483871,9.98550955 3.71825806,9.98745223 C4.01187097,9.98929936 9.614,9.98872611 9.84851613,9.98872611 C10.3204839,9.98872611 10.6276452,9.98824841 10.9576452,9.96442675 C11.7143226,9.90984076 12.4291935,9.63589172 13.0070323,9.07566879 C14.2902903,7.83156051 14.3095161,5.81242038 13.0570968,4.54869427 Z M12.1199355,8.18050955 C11.8712258,8.42350318 11.4276774,8.6993949 10.6995161,8.72382166 C10.3627742,8.73512739 9.9696129,8.73636943 9.78970968,8.73636943 C9.59335484,8.73636943 7.86190323,8.73636943 5.87716129,8.73636943 C7.30067742,7.37140127 8.54241935,6.18070064 8.68325806,6.04566879 C8.81232258,5.92191083 9.10254839,5.64780255 9.35290323,5.42522293 C9.90241935,4.9366879 10.3972258,4.8383758 10.7470968,4.84159236 C11.2953871,4.84665605 11.794,5.06767516 12.1503871,5.42452229 C12.912871,6.1938535 12.8948387,7.42340764 12.1199355,8.18050955 Z" id="Shape"></path>
                                <path d="M5.19045161,4.2483758 C4.61729032,3.82493631 3.97567742,3.58821656 3.24822581,3.58923567 C2.3423871,3.58929936 1.52751613,3.96015924 0.942903226,4.54869427 C-0.309516129,5.81242038 -0.290258065,7.83159236 0.992967742,9.07570064 C1.50816129,9.57519108 2.13232258,9.84694268 2.79790323,9.93872611 L4.05332258,8.73605096 C3.85032258,8.73522293 3.55896774,8.73248408 3.30051613,8.72382166 C2.57235484,8.6993949 2.12880645,8.42350318 1.88009677,8.18050955 C1.10519355,7.42340764 1.08716129,6.19388535 1.8496129,5.42452229 C2.206,5.06767516 2.7046129,4.84665605 3.25290323,4.84159236 C3.59645161,4.84022293 4.06267742,4.93872611 4.58951613,5.36990446 C4.84890323,5.58216561 5.43458065,6.09085987 5.66641935,6.29808917 L6.57593548,5.42219745 C6.15935484,5.05012739 5.5516129,4.51382166 5.19045161,4.2483758 Z" id="Shape"></path>
                                <path d="M11.0916452,2.86646497 C10.4951613,1.20318471 8.88906452,0.0111783439 6.99993548,0.0111783439 C4.83303226,0.0111783439 3.03729032,1.58436306 2.71209677,3.63353503 C2.88635484,3.60458599 3.0653871,3.58920382 3.24819355,3.58920382 C3.50258065,3.5888535 3.74625806,3.61818471 3.98041935,3.67378981 C3.98496774,3.67474522 3.98954839,3.67531847 3.99409677,3.67640127 C4.28774194,2.29280255 5.5266129,1.26509554 6.99993548,1.26509554 C8.227,1.26509554 9.30348387,1.99579618 9.78877419,3.0311465 C9.79641935,3.04745223 9.80935484,3.05286624 9.82258065,3.04926752 C10.1875806,2.95022293 10.6251935,2.89267516 11.047871,2.92343949 C11.0890968,2.92646497 11.1049355,2.90356688 11.0916452,2.86646497 Z" id="Shape"></path>
                            </g>
                        </g>
                    </g>
                </g>
            </g>
        </g>
    </g>
</svg>