<?xml version="1.0" encoding="UTF-8"?>
<svg width="16px" height="10px" viewBox="0 0 16 10" version="1.1" xmlns="http://www.w3.org/2000/svg" xmlns:xlink="http://www.w3.org/1999/xlink">
    <!-- Generator: Sketch 50.2 (55047) - http://www.bohemiancoding.com/sketch -->
    <title>Group 3</title>
    <desc>Created with Sketch.</desc>
    <defs></defs>
    <g id="云函数icon_by左阳" stroke="none" stroke-width="1" fill="none" fill-rule="evenodd" stroke-linecap="round" stroke-linejoin="round">
        <g id="云函数" transform="translate(0.000000, -3.000000)" stroke="#000000">
            <g id="Group-3" transform="translate(1.000000, 4.000000)">
                <g id="Group-2" stroke-width="0.933333333">
                    <g id="Group">
                        <g id="Shape">
                            <path d="M11.030303,8.34166667 C12.6424242,8.34166667 13.9575758,7.01555556 13.9575758,5.39 C13.9575758,3.76444444 12.6424242,2.43833333 11.030303,2.43833333 C10.8606061,2.43833333 10.7333333,2.43833333 10.5636364,2.48111111 C9.88484848,1.11222222 8.52727273,0.171111111 6.91515152,0.171111111 C5.00606061,0.171111111 3.39393939,1.49722222 2.96969697,3.29388889 C2.92727273,3.29388889 2.88484848,3.29388889 2.88484848,3.29388889 C1.48484848,3.29388889 0.381818182,4.44888889 0.381818182,5.81777778 C0.381818182,7.18666667 1.52727273,8.34166667 2.88484848,8.34166667"></path>
                            <path d="M8.78181818,3.42222222 C9.33333333,2.78055556 10.0969697,2.39555556 10.9878788,2.39555556 C12.6,2.39555556 13.9151515,3.72166667 13.9151515,5.34722222 C13.9151515,6.97277778 12.6,8.29888889 10.9878788,8.29888889"></path>
                        </g>
                    </g>
                </g>
                <g id="Group" transform="translate(4.000000, 5.000000)" stroke-width="0.857142857">
                    <polyline id="Shape" points="1.32467532 2.95111111 0.116883117 2.02666667 1.32467532 1.13777778"></polyline>
                    <polyline id="Shape" points="4.36363636 2.95111111 5.57142857 2.02666667 4.36363636 1.13777778"></polyline>
                    <path d="M3.35064935,0.32 L2.2987013,3.76888889" id="Shape"></path>
                </g>
            </g>
        </g>
    </g>
</svg>