<?xml version="1.0" encoding="UTF-8"?>
<svg width="14px" height="11px" viewBox="0 0 14 11" version="1.1" xmlns="http://www.w3.org/2000/svg" xmlns:xlink="http://www.w3.org/1999/xlink">
    <!-- Generator: Sketch 51.2 (57519) - http://www.bohemiancoding.com/sketch -->
    <title>Fill 1</title>
    <desc>Created with Sketch.</desc>
    <defs></defs>
    <g id="Page-1" stroke="none" stroke-width="1" fill="none" fill-rule="evenodd">
        <g id="new" transform="translate(-13.000000, -6.000000)" fill="#181818">
            <path d="M25.7605813,10.5763374 C25.2495813,10.1163374 24.6525813,9.82433742 24.0415813,9.69233742 C22.9195813,9.44933742 21.7505813,9.75233742 20.9815813,10.6063374 L17.7845813,14.1563374 C17.2475813,14.7523374 16.2665813,14.7563374 15.5135813,14.1953374 L15.5115813,14.1973374 C15.4575813,14.1573374 15.4035813,14.1143374 15.3515813,14.0673374 C14.5845813,13.3763374 14.4285813,12.2973374 15.0045813,11.6583374 C15.4105813,11.2073374 16.0285813,11.1383374 16.5885813,11.2933374 C17.1395813,11.4443374 17.6605813,11.8133374 18.1475813,11.2733374 C18.6405813,10.7253374 18.2005813,10.2513374 17.9875813,9.72133742 C17.7735813,9.18933742 17.8065813,8.54733742 18.2015813,8.10733742 C18.6065813,7.65733742 19.2655813,7.54633742 19.8885813,7.76033742 C20.3455813,7.91633742 20.9285813,8.05833742 21.3455813,7.72133742 C21.4665813,7.62333742 21.5595813,7.47533742 21.5785813,7.31933742 C21.6405813,6.81233742 21.1455813,6.49733742 20.7505813,6.32033742 C19.4345813,5.73033742 17.9035813,5.95533742 16.9665813,6.99533742 C16.3325813,7.70033742 16.1005813,8.63733742 16.2395813,9.55533742 C15.3115813,9.51333742 14.4045813,9.84133742 13.7695813,10.5463374 C12.5815813,11.8653374 12.7925813,13.9993374 14.2395813,15.3023374 C14.2915813,15.3493374 14.3465813,15.3903374 14.4005813,15.4343374 L14.4005813,15.4333374 C14.8745813,15.8153374 15.4115813,16.0643374 15.9605813,16.1833374 C17.0815813,16.4263374 18.2505813,16.1223374 19.0195813,15.2693374 L22.2165813,11.7183374 C22.7925813,11.0783374 23.8815813,11.1203374 24.6485813,11.8113374 C25.4155813,12.5023374 25.5715813,13.5803374 24.9955813,14.2203374 C24.5685813,14.6943374 23.8585813,14.7943374 23.2065813,14.5313374 C22.7955813,14.3523374 22.3295813,14.3483374 21.9865813,14.5303374 C21.5175813,14.7793374 21.4985813,15.3063374 21.9435813,15.7073374 C22.0445813,15.7983374 22.1615813,15.8723374 22.2865813,15.9343374 C22.3065813,15.9443374 22.3275813,15.9533374 22.3475813,15.9633374 C23.1585813,16.3553374 24.0595813,16.4323374 24.8585813,16.1933374 C25.3775813,16.0383374 25.8525813,15.7523374 26.2305813,15.3323374 C27.4185813,14.0123374 27.2075813,11.8793374 25.7605813,10.5763374" id="Fill-1"></path>
        </g>
    </g>
</svg>