<?xml version="1.0" encoding="UTF-8"?>
<svg width="9px" height="9px" viewBox="0 0 9 9" version="1.1" xmlns="http://www.w3.org/2000/svg" xmlns:xlink="http://www.w3.org/1999/xlink">
    <!-- Generator: Sketch 46.1 (44463) - http://www.bohemiancoding.com/sketch -->
    <title>Group</title>
    <desc>Created with Sketch.</desc>
    <defs></defs>
    <g id="Page-1" stroke="none" stroke-width="1" fill="none" fill-rule="evenodd">
        <g id="set-copy" transform="translate(-13.000000, -9.000000)" fill="#5E5E5E">
            <g id="Group" transform="translate(13.000000, 9.000000)">
                <path d="M5,1.03544443 L5,0 L4,0 L4,1.03544443 C4.16330149,1.01208598 4.33023933,1 4.5,1 C4.66976067,1 4.83669851,1.01208598 5,1.03544443 Z M5,7.96455557 L5,9 L4,9 L4,7.96455557 C4.16330149,7.98791402 4.33023933,8 4.5,8 C4.66976067,8 4.83669851,7.98791402 5,7.96455557 Z" id="Combined-Shape"></path>
                <path d="M7.30319233,2.40391445 L8.03553391,1.67157288 L7.32842712,0.964466094 L6.59608555,1.69680767 C6.86413403,1.89756336 7.10243664,2.13586597 7.30319233,2.40391445 Z M2.40391445,7.30319233 L1.67157288,8.03553391 L0.964466094,7.32842712 L1.69680767,6.59608555 C1.89756336,6.86413403 2.13586597,7.10243664 2.40391445,7.30319233 Z" id="Combined-Shape"></path>
                <path d="M7.96455557,5 L9,5 L9,4 L7.96455557,4 C7.98791402,4.16330149 8,4.33023933 8,4.5 C8,4.66976067 7.98791402,4.83669851 7.96455557,5 Z M1.03544443,5 L-4.5519144e-13,5 L-4.5519144e-13,4 L1.03544443,4 C1.01208598,4.16330149 1,4.33023933 1,4.5 C1,4.66976067 1.01208598,4.83669851 1.03544443,5 Z" id="Combined-Shape"></path>
                <path d="M6.59608555,7.30319233 L7.32842712,8.03553391 L8.03553391,7.32842712 L7.30319233,6.59608555 C7.10243664,6.86413403 6.86413403,7.10243664 6.59608555,7.30319233 Z M1.69680767,2.40391445 L0.964466094,1.67157288 L1.67157288,0.964466094 L2.40391445,1.69680767 C2.13586597,1.89756336 1.89756336,2.13586597 1.69680767,2.40391445 Z" id="Combined-Shape"></path>
                <path d="M4.5,8 C2.56700338,8 1,6.43299662 1,4.5 C1,2.56700338 2.56700338,1 4.5,1 C6.43299662,1 8,2.56700338 8,4.5 C8,6.43299662 6.43299662,8 4.5,8 Z M4.5,7 C5.88071187,7 7,5.88071187 7,4.5 C7,3.11928813 5.88071187,2 4.5,2 C3.11928813,2 2,3.11928813 2,4.5 C2,5.88071187 3.11928813,7 4.5,7 Z" id="Combined-Shape"></path>
            </g>
        </g>
    </g>
</svg>