<?xml version="1.0" encoding="UTF-8"?>
<svg width="16px" height="16px" viewBox="0 0 16 16" version="1.1" xmlns="http://www.w3.org/2000/svg" xmlns:xlink="http://www.w3.org/1999/xlink">
    <!-- Generator: Sketch 50.2 (55047) - http://www.bohemiancoding.com/sketch -->
    <title>设置</title>
    <desc>Created with Sketch.</desc>
    <defs></defs>
    <g id="云函数_v1.2" stroke="none" stroke-width="1" fill="none" fill-rule="evenodd">
        <g id="Artboard-5-Copy-2" transform="translate(-472.000000, -42.000000)" fill="#000000" fill-rule="nonzero">
            <g id="Group" transform="translate(32.000000, 8.000000)">
                <g id="Test-Copy-2" transform="translate(428.000000, 31.000000)">
                    <g id="设置" transform="translate(12.000000, 3.000000)">
                        <rect id="Rectangle-path" opacity="0" x="0" y="0" width="16" height="16"></rect>
                        <path d="M10.3347812,15.1012031 C10.1838099,15.1012316 10.0409103,15.0330379 9.94596875,14.9156563 C9.89005344,14.8465462 9.83056067,14.780409 9.76773437,14.7175156 C8.793,13.7427656 7.20695312,13.74275 6.23221875,14.7175156 C6.16940046,14.7803916 6.10992295,14.8465189 6.05403125,14.915625 C5.92080879,15.0803151 5.69826583,15.1431843 5.4985625,15.0725469 C4.62988554,14.765548 3.82555067,14.3003815 3.12621875,13.7005625 C2.96545336,13.5629964 2.90868415,13.3391297 2.98446875,13.1415781 C3.01611383,13.0590978 3.0434425,12.9750257 3.06634375,12.8897031 C3.23979427,12.2493649 3.14985647,11.5662483 2.81657813,10.992625 C2.48644962,10.417199 1.93982734,9.99776726 1.2985625,9.82782812 C1.21291695,9.80492138 1.12613169,9.7865108 1.0385625,9.77267187 C0.829185975,9.73956034 0.663444199,9.57802003 0.62496875,9.3695625 C0.458321132,8.46412493 0.458321132,7.53587507 0.62496875,6.6304375 C0.663454117,6.42197655 0.829209773,6.26044118 1.03859375,6.22734375 C1.12616182,6.21349874 1.21294676,6.19508824 1.29859375,6.1721875 C1.93985738,6.00223665 2.48647733,5.58280108 2.81660937,5.007375 C3.14987819,4.43375375 3.23981023,3.75064385 3.06635937,3.1103125 C3.04345999,3.02499963 3.01613128,2.94093778 2.98448437,2.85846875 C2.90868131,2.66091151 2.96544533,2.43702811 3.12621875,2.29945312 C3.82555374,1.69961816 4.62990094,1.23444534 5.49859375,0.927453125 C5.69828343,0.856837889 5.92080045,0.919705037 6.05401562,1.084375 C6.10993094,1.15348501 6.16942371,1.21962228 6.23225,1.28251562 C7.20698437,2.25723437 8.79301562,2.25725 9.76776562,1.28251562 C9.83058397,1.21962487 9.8900714,1.15349295 9.94598437,1.08439062 C10.079214,0.919731877 10.3017304,0.856872929 10.5014219,0.927484375 C11.3701063,1.23447723 12.1744474,1.69964426 12.8737812,2.29946875 C13.0345398,2.43703234 13.0913084,2.66089034 13.0155312,2.8584375 C12.9838831,2.94092728 12.9565544,3.02501001 12.9336562,3.11034375 C12.576875,4.441875 13.3698906,5.81542188 14.7014219,6.17221875 C14.7870904,6.19511768 14.873896,6.21352816 14.9614844,6.227375 C15.170826,6.26051469 15.3365286,6.42204104 15.375,6.63046875 C15.541645,7.53590131 15.541645,8.46414557 15.375,9.36957813 C15.3365305,9.57804174 15.1707874,9.73958957 14.9614062,9.77270312 C14.873837,9.78654183 14.7870517,9.8049524 14.7014062,9.82785937 C13.3677648,10.1852219 12.5763224,11.5560384 12.9336562,12.8896875 C12.9565579,12.9750202 12.9838865,13.0591027 13.0155312,13.1415938 C13.0913121,13.3391377 13.0345499,13.5629951 12.8737969,13.7005625 C12.1744606,14.3003957 11.3701138,14.7655683 10.5014219,15.0725625 C10.4479114,15.0915089 10.3915626,15.1011946 10.3347969,15.1012031 L10.3347812,15.1012031 Z M7.99998438,12.9852969 C8.92874269,12.9827563 9.81991664,13.3518863 10.4748594,14.0104062 L10.4762969,14.0118594 C11.0097976,13.7921255 11.5114364,13.501869 11.9678125,13.1488438 L11.9677188,13.1485156 C11.467431,11.2813882 12.5754685,9.36221784 14.4425938,8.86192188 L14.4432656,8.86173438 C14.5189023,8.28974482 14.5189023,7.71028643 14.4432656,7.13829687 L14.4425938,7.13810937 C13.545969,6.89785902 12.7815068,6.31126559 12.3173806,5.50737316 C11.8532543,4.70348072 11.7274828,3.74814008 11.9677344,2.85151562 L11.9678281,2.85117187 C11.5114418,2.49815748 11.0097987,2.20790675 10.4762969,1.98817187 L10.4748906,1.98957812 C9.8199528,2.64812056 8.92877084,3.01726849 8,3.01473438 C7.0712358,3.01727367 6.18005863,2.64813102 5.525125,1.98959375 L5.5236875,1.98815625 C4.99019141,2.20788969 4.48855773,2.49814628 4.0321875,2.85117187 L4.03226563,2.85148438 C4.27510146,3.74794279 4.14919981,4.70429345 3.682625,5.50735938 C3.22043869,6.31296232 2.45516589,6.9001769 1.55739063,7.13810938 L1.55671875,7.13826563 C1.48108068,7.71026032 1.48108068,8.28972405 1.55671875,8.86171875 L1.55739062,8.86189063 C2.45516358,9.09982898 3.22043116,9.6870495 3.68260938,10.4926563 C4.14918947,11.29572 4.27509676,12.2520708 4.03226563,13.1485313 L4.03217188,13.1488594 C4.48854967,13.5018737 4.99018178,13.7921294 5.52367188,14.011875 L5.52509375,14.0104531 C6.18003158,13.3519107 7.07121353,12.9827628 7.99998438,12.9852969 Z M8,11 C6.34578125,11 5,9.65421875 5,8 C5,6.34578125 6.34578125,5 8,5 C9.65421875,5 11,6.34578125 11,8 C11,9.65421875 9.65421875,11 8,11 Z M8,6 C6.8954305,6 6,6.8954305 6,8 C6,9.1045695 6.8954305,10 8,10 C9.1045695,10 10,9.1045695 10,8 C9.99875144,6.89594809 9.10405191,6.00124856 8,6 Z" id="Shape"></path>
                    </g>
                </g>
            </g>
        </g>
    </g>
</svg>