<?xml version="1.0" encoding="UTF-8"?>
<svg width="12px" height="9px" viewBox="0 0 12 9" version="1.1" xmlns="http://www.w3.org/2000/svg" xmlns:xlink="http://www.w3.org/1999/xlink">
    <!-- Generator: Sketch 50.2 (55047) - http://www.bohemiancoding.com/sketch -->
    <title>Group</title>
    <desc>Created with Sketch.</desc>
    <defs></defs>
    <g id="一键折叠" stroke="none" stroke-width="1" fill="none" fill-rule="evenodd">
        <g id="icon_Collapse-All-Groups" transform="translate(-2.000000, -4.000000)">
            <g id="Group" transform="translate(2.000000, 4.000000)">
                <path d="M6,1 L12,1" id="Path-19" stroke-opacity="0.9" stroke="#000000"></path>
                <path d="M6,4.5 L12,4.5" id="Path-19-Copy-2" stroke-opacity="0.9" stroke="#000000"></path>
                <path d="M0,8 L12,8" id="Path-19-Copy-3" stroke-opacity="0.9" stroke="#000000"></path>
                <path d="M4,4.5 C4,4.584 3.9752,4.657 3.9256,4.72 C3.876,4.782 3.8168,4.812 3.7504,4.812 L0.2496,4.812 C0.1824,4.812 0.1232,4.782 0.0736,4.719 C0.024,4.657 0,4.583 0,4.5 C0,4.417 0.024,4.343 0.0744,4.28 L1.824,2.093 C1.8736,2.031 1.9328,2 2,2 C2.0672,2 2.1256,2.031 2.176,2.094 L3.9264,4.281 C3.9752,4.342 4,4.416 4,4.5 Z" id="Path" fill="#000000" fill-rule="nonzero"></path>
            </g>
        </g>
    </g>
</svg>