<?xml version="1.0" encoding="UTF-8"?>
<svg width="12px" height="12px" viewBox="0 0 12 12" version="1.1" xmlns="http://www.w3.org/2000/svg" xmlns:xlink="http://www.w3.org/1999/xlink">
    <!-- Generator: Sketch 50.2 (55047) - http://www.bohemiancoding.com/sketch -->
    <title>Icon Upload</title>
    <desc>Created with Sketch.</desc>
    <defs></defs>
    <g id="云函数_v1.2" stroke="none" stroke-width="1" fill="none" fill-rule="evenodd">
        <g id="Artboard-5-Copy-2" transform="translate(-188.000000, -44.000000)" fill="#000000" fill-rule="nonzero">
            <g id="Group" transform="translate(32.000000, 8.000000)">
                <g id="Test-Copy" transform="translate(142.000000, 31.000000)">
                    <g id="Icon-Upload" transform="translate(14.000000, 5.000000)">
                        <path d="M11.9630769,3.06230769 C11.9446154,2.97 11.9076923,2.88692308 11.8338462,2.81307692 L9.15692308,0.145384615 C8.95384615,-0.0484615385 8.64,-0.0484615385 8.43692308,0.145384615 C8.23384615,0.339230769 8.23384615,0.662307692 8.43692308,0.865384615 L10.3661538,2.78538462 L1.36615385,2.78538462 C1.12615385,2.78538462 0.923076923,2.98846154 0.923076923,3.23769231 C0.923076923,3.48692308 1.12615385,3.68076923 1.36615385,3.68076923 L10.3661538,3.68076923 L8.43692308,5.60076923 C8.23384615,5.79461538 8.23384615,6.11769231 8.43692308,6.32076923 C8.64,6.51461538 8.95384615,6.51461538 9.15692308,6.32076923 L11.8338462,3.65307692 C11.9076923,3.57923077 11.9446154,3.49615385 11.9630769,3.40384615 C11.9907692,3.35769231 12,3.29307692 12,3.23769231 C12,3.18230769 11.9907692,3.10846154 11.9630769,3.06230769 Z M10.6338462,8.29615385 L1.63384615,8.29615385 L3.56307692,6.37615385 C3.76615385,6.18230769 3.76615385,5.85923077 3.56307692,5.65615385 C3.36,5.46230769 3.04615385,5.46230769 2.84307692,5.65615385 L0.166153846,8.32384615 C0.0923076923,8.38846154 0.0553846154,8.48076923 0.0369230769,8.56384615 C0.00923076923,8.61923077 0,8.68384615 0,8.73923077 C0,8.79461538 0.00923076923,8.85923077 0.0369230769,8.91461538 C0.0553846154,9.00692308 0.0923076923,9.09 0.166153846,9.16384615 L2.84307692,11.8315385 C3.04615385,12.0253846 3.36,12.0253846 3.56307692,11.8315385 C3.76615385,11.6376923 3.76615385,11.3146154 3.56307692,11.1115385 L1.63384615,9.19153846 L10.6338462,9.19153846 C10.8830769,9.19153846 11.0769231,8.98846154 11.0769231,8.74846154 C11.0769231,8.50846154 10.8738462,8.29615385 10.6338462,8.29615385 Z" id="Shape"></path>
                    </g>
                </g>
            </g>
        </g>
    </g>
</svg>