<?xml version="1.0" encoding="UTF-8"?>
<svg width="54px" height="32px" viewBox="0 0 54 32" version="1.1" xmlns="http://www.w3.org/2000/svg" xmlns:xlink="http://www.w3.org/1999/xlink">
    <!-- Generator: Sketch 46.2 (44496) - http://www.bohemiancoding.com/sketch -->
    <title>Group 4</title>
    <desc>Created with Sketch.</desc>
    <defs></defs>
    <g id="下拉框" stroke="none" stroke-width="1" fill="none" fill-rule="evenodd" opacity="0.049999997">
        <g id="Modal-Copy-9" transform="translate(-119.000000, -208.000000)">
            <g id="Group-4" transform="translate(119.000000, 208.000000)">
                <path d="M32.294103,25.6307692 C41.8781272,22.1331778 45.9713452,12.7404164 46.465797,1.52861196 C46.4881102,1.0226542 46.4855447,0.85437814 46.4855447,0.85437814 C46.4939842,0.389678121 46.1135526,0 45.6376918,0 L45.1333151,0 L2.08378646,0 L0.860158582,0 C0.386314705,0 -0.00224611715,0.350958228 0.00259575608,0.783887142 C0.00259575608,0.783887142 -0.00324469509,0.523494541 0.00259575608,0.783887142 C0.261412851,12.3230738 4.36886252,22.056009 14.1881127,25.6307692 L32.294103,25.6307692 Z" id="Oval-1132" fill="#000000"></path>
                <path d="M4.48730409,30.1538462 C4.48730409,29.3211707 5.17019841,28.6461538 6.00379377,28.6461538 L40.4708144,28.6461538 C41.3083485,28.6461538 41.9873041,29.3153654 41.9873041,30.1538462 L41.9873041,30.1538462 C41.9873041,30.9865216 41.3044098,31.6615385 40.4708144,31.6615385 L6.00379377,31.6615385 C5.16625964,31.6615385 4.48730409,30.9923269 4.48730409,30.1538462 L4.48730409,30.1538462 Z" id="Rectangle-2129" fill="#000000"></path>
                <ellipse id="Oval-441" stroke="#000000" stroke-width="3.6" cx="46.4873041" cy="7.53846154" rx="5.7" ry="5.73846154"></ellipse>
            </g>
        </g>
    </g>
</svg>