
<svg width="14px" height="14px" viewBox="0 0 14 14" version="1.1" xmlns="http://www.w3.org/2000/svg" xmlns:xlink="http://www.w3.org/1999/xlink">
    <!-- Generator: Sketch 46.2 (44496) - http://www.bohemiancoding.com/sketch -->
    <desc>Created with Sketch.</desc>
    <defs></defs>
    <g id="Page-1" stroke="none" stroke-width="1" fill="none" fill-rule="evenodd">
        <g id="d.ts">
            <rect id="Rectangle-3-Copy" stroke="#17A8E2" x="0.5" y="0.5" width="13" height="13"></rect>
            <g id="TS-Copy" transform="translate(3.000000, 6.000000)" fill="#17A8E2">
                <path d="M4.19384766,0.961914062 L4.19384766,1.85400391 L2.68652344,1.85400391 L2.68652344,6 L1.62695312,6 L1.62695312,1.85400391 L0.112792969,1.85400391 L0.112792969,0.961914062 L4.19384766,0.961914062 Z M5.57128906,4.44482422 C5.60319026,4.6749686 5.6658524,4.84700464 5.75927734,4.9609375 C5.93017664,5.16829531 6.2229797,5.27197266 6.63769531,5.27197266 C6.88606895,5.27197266 7.08772709,5.24462918 7.24267578,5.18994141 C7.53662256,5.08512317 7.68359375,4.8903009 7.68359375,4.60546875 C7.68359375,4.43912677 7.61067781,4.31038457 7.46484375,4.21923828 C7.31900969,4.13037065 7.09000807,4.05175815 6.77783203,3.98339844 L6.24462891,3.86376953 C5.72053774,3.74527936 5.35823668,3.61653715 5.15771484,3.47753906 C4.81819492,3.24511603 4.6484375,2.88167565 4.6484375,2.38720703 C4.6484375,1.9360329 4.81249836,1.56119941 5.140625,1.26269531 C5.46875164,0.964191216 5.95068042,0.814941406 6.58642578,0.814941406 C7.11735292,0.814941406 7.57022925,0.955646379 7.94506836,1.23706055 C8.31990747,1.51847471 8.51643871,1.9269179 8.53466797,2.46240234 L7.52294922,2.46240234 C7.50471996,2.15934093 7.37255982,1.94401105 7.12646484,1.81640625 C6.96240152,1.73209593 6.75846476,1.68994141 6.51464844,1.68994141 C6.24348823,1.68994141 6.02701904,1.74462836 5.86523438,1.85400391 C5.70344971,1.96337945 5.62255859,2.1160472 5.62255859,2.31201172 C5.62255859,2.49202564 5.7023104,2.6264644 5.86181641,2.71533203 C5.96435598,2.77457712 6.18310379,2.84407512 6.51806641,2.92382812 L7.38623047,3.13232422 C7.76676623,3.22347051 8.05387273,3.34537684 8.24755859,3.49804687 C8.54834135,3.73502723 8.69873047,4.07796 8.69873047,4.52685547 C8.69873047,4.98714423 8.52270684,5.36938324 8.1706543,5.67358398 C7.81860176,5.97778472 7.32129228,6.12988281 6.67871094,6.12988281 C6.02245766,6.12988281 5.50634954,5.98006335 5.13037109,5.68041992 C4.75439265,5.3807765 4.56640625,4.96891538 4.56640625,4.44482422 L5.57128906,4.44482422 Z" id="TS"></path>
            </g>
        </g>
    </g>
</svg>