<?xml version="1.0" encoding="UTF-8"?>
<svg width="43px" height="10px" viewBox="0 0 43 10" version="1.1" xmlns="http://www.w3.org/2000/svg" xmlns:xlink="http://www.w3.org/1999/xlink">
    <!-- Generator: Sketch 46 (44423) - http://www.bohemiancoding.com/sketch -->
    <title>Fill 43</title>
    <desc>Created with Sketch.</desc>
    <defs></defs>
    <g id="Page-2" stroke="none" stroke-width="1" fill="none" fill-rule="evenodd">
        <g id="转载文章-copy-30" transform="translate(-679.000000, -80.000000)" fill="#FFFFFF">
            <g id="Navigation-/-6-/-Nav-with-...">
                <path d="M689,85 C689,87.761 686.761,90 684,90 C681.239,90 679,87.761 679,85 C679,82.238 681.239,80 684,80 C686.761,80 689,82.238 689,85 Z M700,80 C702.761,80 705,82.238 705,85 C705,87.761 702.761,90 700,90 C697.239,90 695,87.761 695,85 C695,82.238 697.239,80 700,80 Z M717,80 C719.761,80 722,82.238 722,85 C722,87.761 719.761,90 717,90 C714.239,90 712,87.761 712,85 C712,82.238 714.239,80 717,80 Z" id="Fill-43"></path>
            </g>
        </g>
    </g>
</svg>