<?xml version="1.0" encoding="UTF-8"?>
<svg width="7px" height="7px" viewBox="0 0 7 7" version="1.1" xmlns="http://www.w3.org/2000/svg" xmlns:xlink="http://www.w3.org/1999/xlink">
    <!-- Generator: Sketch 46 (44423) - http://www.bohemiancoding.com/sketch -->
    <title>Combined Shape</title>
    <desc>Created with Sketch.</desc>
    <defs></defs>
    <g id="工具栏（以此为准）" stroke="none" stroke-width="1" fill="none" fill-rule="evenodd">
        <g id="Desktop-HD-Copy-2" transform="translate(-1022.000000, -133.000000)" fill="#888888">
            <g id="Group-4" transform="translate(20.000000, 41.000000)">
                <g id="Section-Editor" transform="translate(640.000000, 79.000000)">
                    <g id="Tab-Selected-Copy" transform="translate(250.000000, 1.000000)">
                        <path d="M115,15 L111.4,15 L111.4,15 C111.179086,15 111,15.1790861 111,15.4 L111,15.4 L111,15.6 C111,15.8209139 111.179086,16 111.4,16 L115,16 L115,19.6 C115,19.8209139 115.179086,20 115.4,20 L115.6,20 C115.820914,20 116,19.8209139 116,19.6 L116,19.6 L116,16 L119.6,16 C119.820914,16 120,15.8209139 120,15.6 L120,15.4 C120,15.1790861 119.820914,15 119.6,15 L116,15 L116,11.4 L116,11.4 C116,11.1790861 115.820914,11 115.6,11 L115.6,11 L115.4,11 C115.179086,11 115,11.1790861 115,11.4 L115,11.4 L115,15 Z" id="Combined-Shape" transform="translate(115.500000, 15.500000) rotate(-315.000000) translate(-115.500000, -15.500000) "></path>
                    </g>
                </g>
            </g>
        </g>
    </g>
</svg>