<?xml version="1.0" encoding="UTF-8"?>
<svg width="18px" height="8px" viewBox="0 0 18 8" version="1.1" xmlns="http://www.w3.org/2000/svg" xmlns:xlink="http://www.w3.org/1999/xlink">
    <!-- Generator: Sketch 46 (44423) - http://www.bohemiancoding.com/sketch -->
    <title>Group 11</title>
    <desc>Created with Sketch.</desc>
    <defs></defs>
    <g id="个人中心" stroke="none" stroke-width="1" fill="none" fill-rule="evenodd">
        <g id="Desktop-HD-Copy-2" transform="translate(-241.000000, -81.000000)" fill="#000000">
            <g id="Group-4" transform="translate(20.000000, 41.000000)">
                <g id="Buttons" transform="translate(90.000000, 33.000000)">
                    <g id="Upload" transform="translate(120.000000, 0.000000)">
                        <g id="Group-11" transform="translate(11.000000, 7.000000)">
                            <path d="M5.66814103,4.69098593 L5.66814103,1.89098593 L5.66814103,1.89098593 C5.66814103,1.78052898 5.57859798,1.69098593 5.46814103,1.69098593 L5.46814103,1.69098593 L4.86814103,1.69098593 C4.75768408,1.69098593 4.66814103,1.78052898 4.66814103,1.89098593 L4.66814103,1.89098593 L4.66814103,4.69098593 L1.86814103,4.69098593 L1.86814103,4.69098593 C1.75768408,4.69098593 1.66814103,4.78052898 1.66814103,4.89098593 L1.66814103,4.89098593 L1.66814103,5.49098593 C1.66814103,5.60144288 1.75768408,5.69098593 1.86814103,5.69098593 L1.86814103,5.69098593 L5.06814103,5.69098593 L5.46814103,5.69098593 C5.57859798,5.69098593 5.66814103,5.60144288 5.66814103,5.49098593 L5.66814103,5.49098593 L5.66814103,5.09098593 L5.66814103,4.69098593 Z" id="Combined-Shape" transform="translate(3.668141, 3.690986) rotate(-225.000000) translate(-3.668141, -3.690986) "></path>
                            <path d="M16.668141,4.69098593 L16.668141,1.89098593 L16.668141,1.89098593 C16.668141,1.78052898 16.578598,1.69098593 16.468141,1.69098593 L16.468141,1.69098593 L15.868141,1.69098593 C15.7576841,1.69098593 15.668141,1.78052898 15.668141,1.89098593 L15.668141,1.89098593 L15.668141,4.69098593 L12.868141,4.69098593 L12.868141,4.69098593 C12.7576841,4.69098593 12.668141,4.78052898 12.668141,4.89098593 L12.668141,4.89098593 L12.668141,5.49098593 C12.668141,5.60144288 12.7576841,5.69098593 12.868141,5.69098593 L12.868141,5.69098593 L16.068141,5.69098593 L16.468141,5.69098593 C16.578598,5.69098593 16.668141,5.60144288 16.668141,5.49098593 L16.668141,5.49098593 L16.668141,5.09098593 L16.668141,4.69098593 Z" id="Combined-Shape" transform="translate(14.668141, 3.690986) scale(-1, 1) rotate(-225.000000) translate(-14.668141, -3.690986) "></path>
                            <rect id="Combined-Shape-Copy-2" transform="translate(8.772277, 3.724239) rotate(-240.000000) translate(-8.772277, -3.724239) " x="5.17420082" y="3.22423912" width="7.19615242" height="1"></rect>
                        </g>
                    </g>
                </g>
            </g>
        </g>
    </g>
</svg>