<?xml version="1.0" encoding="UTF-8"?>
<svg width="14px" height="14px" viewBox="0 0 14 14" version="1.1" xmlns="http://www.w3.org/2000/svg" xmlns:xlink="http://www.w3.org/1999/xlink">
    <!-- Generator: Sketch 54.1 (76490) - https://sketchapp.com -->
    <title>Group 7</title>
    <desc>Created with Sketch.</desc>
    <g id="开发者工具---0329" stroke="none" stroke-width="1" fill="none" fill-rule="evenodd">
        <g id="开发者工具-/-主页-+-通知" transform="translate(-1508.000000, -998.000000)">
            <g id="Group-7" transform="translate(1508.000000, 998.000000)">
                <circle id="Oval" stroke="#FA5151" stroke-width="1.2" cx="7" cy="7" r="6.4"></circle>
                <path d="M6.5625,3.5 L7.4375,3.5 C7.53414983,3.5 7.6125,3.57835017 7.6125,3.675 L7.6125,8.3125 C7.6125,8.40914983 7.53414983,8.4875 7.4375,8.4875 L6.5625,8.4875 C6.46585017,8.4875 6.3875,8.40914983 6.3875,8.3125 L6.3875,3.675 C6.3875,3.57835017 6.46585017,3.5 6.5625,3.5 Z M6.5625,9.275 L7.4375,9.275 C7.53414983,9.275 7.6125,9.35335017 7.6125,9.45 L7.6125,10.325 C7.6125,10.4216498 7.53414983,10.5 7.4375,10.5 L6.5625,10.5 C6.46585017,10.5 6.3875,10.4216498 6.3875,10.325 L6.3875,9.45 C6.3875,9.35335017 6.46585017,9.275 6.5625,9.275 Z" id="Rectangle-4" fill="#FA5151"></path>
            </g>
        </g>
    </g>
</svg>