<?xml version="1.0" encoding="UTF-8"?>
<svg width="52px" height="52px" viewBox="0 0 52 52" version="1.1" xmlns="http://www.w3.org/2000/svg" xmlns:xlink="http://www.w3.org/1999/xlink">
    <!-- Generator: Sketch 48.2 (47327) - http://www.bohemiancoding.com/sketch -->
    <title>exit</title>
    <desc>Created with Sketch.</desc>
    <defs></defs>
    <g id="Page-1" stroke="none" stroke-width="1" fill="none" fill-rule="evenodd">
        <g id="exit" fill="#000000" fill-rule="nonzero">
            <path d="M26,52 C11.6405965,52 0,40.3594035 0,26 C0,11.6405965 11.6405965,0 26,0 C40.3594035,0 52,11.6405965 52,26 C52,40.3594035 40.3594035,52 26,52 Z M26,45.8823529 C36.9807203,45.8823529 45.8823529,36.9807203 45.8823529,26 C45.8823529,15.0192797 36.9807203,6.11764706 26,6.11764706 C15.0192797,6.11764706 6.11764706,15.0192797 6.11764706,26 C6.11764706,36.9807203 15.0192797,45.8823529 26,45.8823529 Z M35,26 C35,30.9698 30.9698,35 26,35 C21.0302,35 17,30.9698 17,26 C17,21.0284 21.0302,17 26,17 C30.9698,17 35,21.0284 35,26 Z" id="Combined-Shape"></path>
        </g>
    </g>
</svg>