<?xml version="1.0" encoding="UTF-8"?>
<svg width="16px" height="10px" viewBox="0 0 16 10" version="1.1" xmlns="http://www.w3.org/2000/svg" xmlns:xlink="http://www.w3.org/1999/xlink">
    <!-- Generator: Sketch 44.1 (41455) - http://www.bohemiancoding.com/sketch -->
    <title>Icon Preview</title>
    <desc>Created with Sketch.</desc>
    <defs></defs>
    <g id="Page-1" stroke="none" stroke-width="1" fill="none" fill-rule="evenodd">
        <g id="Desktop-HD-Copy" transform="translate(-1172.000000, -80.000000)">
            <g id="Group-4" transform="translate(20.000000, 41.000000)">
                <g id="Buttons-Right" transform="translate(1140.000000, 33.000000)">
                    <g id="Preview">
                        <g id="Icon-Preview" transform="translate(12.000000, 3.000000)">
                            <rect id="Bound" x="0" y="0" width="16" height="16"></rect>
                            <circle id="Oval-3" stroke-opacity="0.9" stroke="#000000" cx="8" cy="8" r="2.5"></circle>
                            <path d="M0.5,8 C0.5,8.39819891 1.3128844,9.56451131 2.4416189,10.4880214 C3.9764057,11.743756 5.88214056,12.5 8,12.5 C10.1178594,12.5 12.0235943,11.743756 13.5583811,10.4880214 C14.6871156,9.56451131 15.5,8.39819891 15.5,8 C15.5,7.60180109 14.6871156,6.43548869 13.5583811,5.51197865 C12.0235943,4.25624399 10.1178594,3.5 8,3.5 C5.88214056,3.5 3.9764057,4.25624399 2.4416189,5.51197865 C1.3128844,6.43548869 0.5,7.60180109 0.5,8 Z" id="Path-5" stroke-opacity="0.9" stroke="#000000"></path>
                        </g>
                    </g>
                </g>
            </g>
        </g>
    </g>
</svg>