<?xml version="1.0" encoding="UTF-8"?>
<svg width="13px" height="7px" viewBox="0 0 13 7" version="1.1" xmlns="http://www.w3.org/2000/svg" xmlns:xlink="http://www.w3.org/1999/xlink">
    <!-- Generator: Sketch 50.2 (55047) - http://www.bohemiancoding.com/sketch -->
    <title>Group 2</title>
    <desc>Created with Sketch.</desc>
    <defs></defs>
    <g id="云函数icon_by左阳" stroke="none" stroke-width="1" fill="none" fill-rule="evenodd" stroke-linecap="round" stroke-linejoin="round">
        <g id="PHP" transform="translate(-2.000000, -5.000000)" fill="#7879B5" stroke="#7879B5" stroke-width="0.4">
            <g id="Group-2" transform="translate(2.000000, 5.000000)">
                <path d="M0.405,6 L0.405,0.7275 L2.0325,0.7275 C2.8425,0.7275 3.495,1.38 3.495,2.19 L3.495,2.5425 C3.495,3.3525 2.8425,4.005 2.0325,4.005 L1.065,4.005 L1.065,6 L0.405,6 Z M1.065,3.4125 L2.0025,3.4125 C2.4675,3.4125 2.8425,3.03 2.8425,2.565 L2.8425,2.1675 C2.8425,1.7025 2.4675,1.32 2.0025,1.32 L1.065,1.32 L1.065,3.4125 Z" id="PHP"></path>
                <polygon id="Path" points="4.71375002 6 4.71375002 0.7275 5.37375002 0.7275 5.37375002 3.0675 7.36875002 3.0675 7.36875002 0.7275 8.02125002 0.7275 8.02125002 6 7.36875002 6 7.36875002 3.66 5.37375002 3.66 5.37375002 6"></polygon>
                <path d="M9.24000005,6 L9.24000005,0.7275 L10.8675,0.7275 C11.6775,0.7275 12.33,1.38 12.33,2.19 L12.33,2.5425 C12.33,3.3525 11.6775,4.005 10.8675,4.005 L9.90000005,4.005 L9.90000005,6 L9.24000005,6 Z M9.90000005,3.4125 L10.8375,3.4125 C11.3025,3.4125 11.6775,3.03 11.6775,2.565 L11.6775,2.1675 C11.6775,1.7025 11.3025,1.32 10.8375,1.32 L9.90000005,1.32 L9.90000005,3.4125 Z" id="Combined-Shape"></path>
            </g>
        </g>
    </g>
</svg>