<?xml version="1.0" encoding="UTF-8"?>
<svg width="16px" height="5px" viewBox="0 0 16 5" version="1.1" xmlns="http://www.w3.org/2000/svg" xmlns:xlink="http://www.w3.org/1999/xlink">
    <!-- Generator: Sketch 50.2 (55047) - http://www.bohemiancoding.com/sketch -->
    <title>WXS</title>
    <desc>Created with Sketch.</desc>
    <defs></defs>
    <g id="云函数icon_by左阳" stroke="none" stroke-width="1" fill="none" fill-rule="evenodd">
        <g id="WXSS" transform="translate(-1.000000, -6.000000)" fill="#006CBD">
            <path d="M3.49427915,7.96760695 L3.54236673,7.96760695 L4.13411664,10.6384832 C4.16454747,10.7758334 4.2863331,10.8735899 4.42701399,10.8735899 L4.86222221,10.8735899 C5.00389492,10.8735899 5.12625621,10.7744809 5.15568049,10.6358975 L6.03545511,6.49230772 C6.06986665,6.33023518 5.96637697,6.17095337 5.80430444,6.13654183 C5.78382047,6.13219264 5.76293742,6.13000011 5.74199683,6.13000011 L5.35823166,6.13000011 C5.21089799,6.13000011 5.08537046,6.23698722 5.06202251,6.38245915 L4.59762204,9.27595672 L4.54953446,9.27595672 L3.95981489,6.37032936 C3.93143472,6.23049647 3.80849293,6.13000011 3.66580911,6.13000011 L3.37247599,6.13000011 C3.22905528,6.13000011 3.10569448,6.23151302 3.07808664,6.37225147 L2.50848368,9.27595672 L2.4603961,9.27595672 L1.98850432,6.38172392 C1.96484065,6.23658861 1.83946591,6.13000011 1.69241412,6.13000011 L1.29999212,6.13000011 C1.13430669,6.13000011 0.999992117,6.26431469 0.999992117,6.43000011 C0.999992117,6.45094071 1.00218464,6.47182375 1.00653384,6.49230772 L1.88630846,10.6358975 C1.91573274,10.7744809 2.03809403,10.8735899 2.17976674,10.8735899 L2.61945158,10.8735899 C2.76052677,10.8735899 2.882542,10.7752967 2.91257477,10.6374553 L3.49427915,7.96760695 Z M6.69514161,10.8717949 L7.06705755,10.8717949 C7.18148712,10.8717949 7.28595073,10.8066989 7.33636849,10.7039751 L7.99134399,9.36949375 L8.0421031,9.36949375 L8.69195551,10.7032016 C8.74221426,10.8063489 8.84690458,10.8717949 8.96164472,10.8717949 L9.38638387,10.8717949 C9.55206929,10.8717949 9.68638387,10.7374803 9.68638387,10.5717949 C9.68638387,10.5241743 9.6750475,10.4772379 9.65331222,10.434867 L8.65655556,8.49178172 L9.65957803,6.56683388 C9.73614058,6.41989908 9.67909259,6.23871868 9.53215779,6.16215613 C9.48935231,6.13985171 9.44179699,6.12820513 9.39352903,6.12820513 L8.99323359,6.12820513 C8.87461331,6.12820513 8.76713168,6.19809929 8.71901887,6.30652405 L8.10087682,7.69953978 L8.0501177,7.69953978 L7.43705606,6.30730455 C7.38912711,6.19846009 7.28142613,6.12820513 7.16249632,6.12820513 L6.70122082,6.12820513 C6.53553539,6.12820513 6.40122082,6.2625197 6.40122082,6.42820513 C6.40122082,6.4749718 6.41215444,6.5210908 6.43314879,6.56288025 L7.39559226,8.47863248 L6.42622757,10.438809 C6.35278151,10.5873261 6.41363863,10.7672628 6.56215575,10.8407089 C6.60350489,10.8611573 6.64901259,10.8717949 6.69514161,10.8717949 Z M10.1507488,9.80693942 C10.1507488,9.80693942 10.1507488,9.80693942 10.1507488,9.80693942 C10.2787833,10.5511636 10.8612746,11 11.7300604,11 C12.7398997,11 13.3543521,10.4017094 13.3543521,9.4122288 C13.3543521,8.65943458 13.012396,8.23537147 12.2510092,8.05456936 L11.7541042,7.93622617 C11.3480313,7.83760684 11.1770532,7.68639053 11.1770532,7.42669297 C11.1770532,7.11111111 11.4041334,6.91058514 11.7487611,6.91058514 C11.9975201,6.91058514 12.2017372,7.03219146 12.3041434,7.22595183 C12.3118243,7.24048454 12.3192444,7.25797137 12.3264039,7.27841232 L12.3263601,7.27842768 C12.3684996,7.39873946 12.482061,7.47928994 12.6095391,7.47928994 L13.1257687,7.4792823 C13.2056661,7.4792823 13.2704357,7.41451268 13.2704357,7.33461531 C13.2704357,7.32946127 13.2701603,7.3243109 13.2696106,7.31918625 C13.2696106,7.31918625 13.2696106,7.31918625 13.2696106,7.31918625 C13.1848783,6.52924505 12.5823571,6 11.7354035,6 C10.8057102,6 10.2019439,6.60815253 10.2019439,7.53517423 C10.2019439,8.28139382 10.5652723,8.7547666 11.2705568,8.91913215 L11.778148,9.04404997 C12.2189508,9.15253123 12.3872574,9.2938856 12.3872574,9.55687048 C12.3872574,9.86916502 12.1361333,10.0861275 11.7701334,10.0861275 C11.5082191,10.0861275 11.2985406,9.99450002 11.1762235,9.83682519 C11.1540316,9.80821834 11.1333008,9.76799521 11.1140311,9.71615579 L11.114006,9.71616513 C11.070328,9.59866206 10.9581886,9.52071006 10.8328301,9.52071006 L10.3919133,9.52074281 C10.2567652,9.52074281 10.147206,9.63030199 10.147206,9.7654501 C10.147206,9.77935541 10.1483912,9.79323543 10.1507488,9.80693942 Z M13.7999756,9.80693942 C13.7999756,9.80693942 13.7999756,9.80693942 13.7999756,9.80693942 C13.927867,10.5511636 14.5097075,11 15.3775228,11 C16.386234,11 17,10.4017094 17,9.4122288 C17,8.65943458 16.6584259,8.23537147 15.8978897,8.05456936 L15.4015398,7.93622617 C14.9959205,7.83760684 14.8251334,7.68639053 14.8251334,7.42669297 C14.8251334,7.11111111 15.05196,6.91058514 15.3962027,6.91058514 C15.6446837,6.91058514 15.8486727,7.03219146 15.9509645,7.22595183 C15.9586368,7.24048454 15.9660487,7.25797137 15.9732002,7.27841232 L15.9732494,7.27839507 C16.0153459,7.39871819 16.1288953,7.47928994 16.2563699,7.47928994 L16.7714802,7.47929776 C16.8513938,7.47929776 16.9161766,7.41451499 16.9161766,7.3346014 C16.9161766,7.32945203 16.9159017,7.32430632 16.9153531,7.31918625 C16.9153531,7.31918625 16.9153531,7.31918625 16.9153531,7.31918625 C16.8307155,6.52924505 16.2288674,6 15.3828599,6 C14.4542052,6 13.8511134,6.60815253 13.8511134,7.53517423 C13.8511134,8.28139382 14.2140359,8.7547666 14.9185326,8.91913215 L15.4255567,9.04404997 C15.8658671,9.15253123 16.0339856,9.2938856 16.0339856,9.55687048 C16.0339856,9.86916502 15.7831421,10.0861275 15.4175511,10.0861275 C15.1559293,10.0861275 14.9464851,9.99450002 14.8243046,9.83682519 C14.8021375,9.80821834 14.7814299,9.76799521 14.7621818,9.71615579 L14.7620604,9.71620084 C14.7184263,9.59868449 14.6062982,9.52071006 14.4809426,9.52071006 L14.041211,9.52071272 C13.9060275,9.52071272 13.7964395,9.63030066 13.7964395,9.76548424 C13.7964395,9.77937794 13.7976225,9.79324643 13.7999756,9.80693942 Z" id="WXS"></path>
        </g>
    </g>
</svg>