<?xml version="1.0" encoding="UTF-8"?>
<svg width="13px" height="11px" viewBox="0 0 13 11" version="1.1" xmlns="http://www.w3.org/2000/svg" xmlns:xlink="http://www.w3.org/1999/xlink">
    <!-- Generator: Sketch 50.2 (55047) - http://www.bohemiancoding.com/sketch -->
    <title>JS</title>
    <desc>Created with Sketch.</desc>
    <defs></defs>
    <g id="云函数icon_by左阳" stroke="none" stroke-width="1" fill="none" fill-rule="evenodd" stroke-linecap="round" stroke-linejoin="round">
        <g id="JS" transform="translate(-1.000000, -2.000000)" fill="#FCAD00" stroke="#FCAD00" stroke-width="0.2">
            <path d="M2,12.6255 L2,11.559 L2.4725,11.559 C3.458,11.559 3.971,10.776 3.971,9.9255 L3.971,3.135 L5.159,3.135 L5.159,10.155 C5.159,11.5455 4.1735,12.6255 2.7155,12.6255 L2,12.6255 Z M7.616,10.209 L7.616,9.588 L8.777,9.588 L8.777,10.1955 C8.777,11.019 9.425,11.694 10.2485,11.694 L10.8425,11.694 C11.747,11.694 12.314,11.0055 12.314,10.1415 L12.314,9.885 C12.314,9.0615 11.8685,8.3865 10.6535,8.3865 L10.397,8.3865 C8.6825,8.3865 7.7105,7.1715 7.7105,5.8755 L7.7105,5.43 C7.7105,4.053 8.858,3 10.262,3 L10.9235,3 C12.341,3 13.367,4.1475 13.367,5.565 L13.367,6.1995 L12.2195,6.1995 L12.2195,5.5785 C12.2195,4.755 11.6255,4.0665 10.7885,4.0665 L10.3295,4.0665 C9.533,4.0665 8.8985,4.674 8.8985,5.4705 L8.8985,5.754 C8.8985,6.5775 9.3845,7.32 10.559,7.32 L10.8425,7.32 C12.6515,7.32 13.502,8.4 13.502,9.8175 L13.502,10.1955 C13.502,11.613 12.476,12.7605 10.991,12.7605 L10.1405,12.7605 C8.723,12.7605 7.616,11.6265 7.616,10.209 Z"></path>
        </g>
    </g>
</svg>