<?xml version="1.0" encoding="UTF-8"?>
<svg width="14px" height="6px" viewBox="0 0 14 6" version="1.1" xmlns="http://www.w3.org/2000/svg" xmlns:xlink="http://www.w3.org/1999/xlink">
    <!-- Generator: Sketch 46.2 (44496) - http://www.bohemiancoding.com/sketch -->
    <title>Group</title>
    <desc>Created with Sketch.</desc>
    <defs></defs>
    <g id="图标" stroke="none" stroke-width="1" fill="none" fill-rule="evenodd">
        <g id="文件-wxml" transform="translate(-1.000000, -5.000000)" fill="#F5641A">
            <g id="Group" transform="translate(1.000000, 5.000000)">
                <path d="M0.155080922,3.64308911 L4.14841189,5.8462244 L4.14841189,5.8462244 C4.29348361,5.92626099 4.47596995,5.87353961 4.55600655,5.72846789 C4.55887056,5.72327668 4.56158005,5.7180017 4.56413146,5.71264992 L4.87703997,5.05629784 L4.87703997,5.05629784 C4.94589657,4.91186529 4.88928284,4.73881296 4.74837483,4.66300449 L1.65728675,3 L4.74810996,1.36179491 L4.74810996,1.36179491 C4.88925425,1.2869853 4.94702159,1.11469476 4.87950116,0.9699219 L4.56301623,0.29133576 L4.56301623,0.29133576 C4.49298455,0.141178432 4.31448609,0.0762237638 4.16432876,0.146255448 C4.1580706,0.149174181 4.15191509,0.152308116 4.14587322,0.155651654 L0.154740875,2.36432055 L0.154740875,2.36432055 C0.0592585757,2.41715988 -2.90920051e-16,2.51768049 -2.77555756e-16,2.62680824 L0,3.38041353 L2.77555756e-16,3.38041353 C4.36509844e-16,3.48968043 0.0594084353,3.59030625 0.155080922,3.64308911 Z" id="&lt;&gt;"></path>
                <path d="M9.15508092,3.64308911 L13.1484119,5.8462244 L13.1484119,5.8462244 C13.2934836,5.92626099 13.47597,5.87353961 13.5560065,5.72846789 C13.5588706,5.72327668 13.5615801,5.7180017 13.5641315,5.71264992 L13.87704,5.05629784 L13.87704,5.05629784 C13.9458966,4.91186529 13.8892828,4.73881296 13.7483748,4.66300449 L10.6572867,3 L13.74811,1.36179491 L13.74811,1.36179491 C13.8892542,1.2869853 13.9470216,1.11469476 13.8795012,0.9699219 L13.5630162,0.29133576 L13.5630162,0.29133576 C13.4929845,0.141178432 13.3144861,0.0762237638 13.1643288,0.146255448 C13.1580706,0.149174181 13.1519151,0.152308116 13.1458732,0.155651654 L9.15474087,2.36432055 L9.15474087,2.36432055 C9.05925858,2.41715988 9,2.51768049 9,2.62680824 L9,3.38041353 L9,3.38041353 C9,3.48968043 9.05940844,3.59030625 9.15508092,3.64308911 Z" id="&lt;&gt;-copy" transform="translate(11.500000, 3.000000) scale(-1, 1) translate(-11.500000, -3.000000) "></path>
            </g>
        </g>
    </g>
</svg>