<?xml version="1.0" encoding="UTF-8"?>
<svg width="16px" height="7px" viewBox="0 0 16 7" version="1.1" xmlns="http://www.w3.org/2000/svg" xmlns:xlink="http://www.w3.org/1999/xlink">
    <!-- Generator: Sketch 50.2 (55047) - http://www.bohemiancoding.com/sketch -->
    <title>WXS</title>
    <desc>Created with Sketch.</desc>
    <defs></defs>
    <g id="云函数icon_by左阳" stroke="none" stroke-width="1" fill="none" fill-rule="evenodd" stroke-linejoin="round">
        <g id="WXS" transform="translate(0.000000, -5.000000)" fill="#2C9F67" stroke="#2C9F67" stroke-width="0.4">
            <path d="M2.17,11 L1.195,5.7275 L1.84,5.7275 L2.6125,10.0625 L3.475,5.7275 L4.1575,5.7275 L4.9825,10.07 L5.7925,5.7275 L6.415,5.7275 L5.4025,11 L4.5775,11 L3.79,7.01 L2.965,11 L2.17,11 Z M7.33000006,11 L8.65000006,8.3675 L7.33750006,5.7275 L8.00500006,5.7275 L9.04750006,7.805 L10.0975001,5.7275 L10.7650001,5.7275 L9.44500006,8.36 L10.7725001,11 L10.0900001,11 L9.04750006,8.9225 L8.00500006,11 L7.33000006,11 Z M11.6650001,9.6575 L11.6650001,9.3125 L12.3100001,9.3125 L12.3100001,9.65 C12.3100001,10.1075 12.6700001,10.4825 13.1275001,10.4825 L13.4575001,10.4825 C13.9600001,10.4825 14.2750001,10.1 14.2750001,9.62 L14.2750001,9.4775 C14.2750001,9.02 14.0275001,8.645 13.3525001,8.645 L13.2100001,8.645 C12.2575001,8.645 11.7175001,7.97 11.7175001,7.25 L11.7175001,7.0025 C11.7175001,6.2375 12.3550001,5.6525 13.1350001,5.6525 L13.5025001,5.6525 C14.2900001,5.6525 14.8600001,6.29 14.8600001,7.0775 L14.8600001,7.43 L14.2225001,7.43 L14.2225001,7.085 C14.2225001,6.6275 13.8925001,6.245 13.4275001,6.245 L13.1725001,6.245 C12.7300001,6.245 12.3775001,6.5825 12.3775001,7.025 L12.3775001,7.1825 C12.3775001,7.64 12.6475001,8.0525 13.3000001,8.0525 L13.4575001,8.0525 C14.4625001,8.0525 14.9350001,8.6525 14.9350001,9.44 L14.9350001,9.65 C14.9350001,10.4375 14.3650001,11.075 13.5400001,11.075 L13.0675001,11.075 C12.2800001,11.075 11.6650001,10.445 11.6650001,9.6575 Z"></path>
        </g>
    </g>
</svg>