<?xml version="1.0" encoding="UTF-8"?>
<svg width="17px" height="7px" viewBox="0 0 17 7" version="1.1" xmlns="http://www.w3.org/2000/svg" xmlns:xlink="http://www.w3.org/1999/xlink">
    <!-- Generator: Sketch 50.2 (55047) - http://www.bohemiancoding.com/sketch -->
    <title>Group 2</title>
    <desc>Created with Sketch.</desc>
    <defs></defs>
    <g id="云函数icon_by左阳" stroke="none" stroke-width="1" fill="none" fill-rule="evenodd">
        <g id="Nodejs" transform="translate(-1.000000, -6.000000)">
            <g id="Group" transform="translate(1.000000, 6.000000)">
                <g id="Group-2">
                    <path d="M2.15555613,0.20001371 L2.15555613,2.58058629 L0.867443595,0.107620643 C0.832998282,0.0414912686 0.764626547,1.37096774e-05 0.690063998,1.37096774e-05 L0.2,1.37096774e-05 C0.08954305,1.37096774e-05 -1.3527075e-17,0.0895567597 0,0.20001371 L0,4.6452879 C1.3527075e-17,4.75574485 0.08954305,4.8452879 0.2,4.8452879 L0.703390968,4.8452879 C0.813847918,4.8452879 0.903390968,4.75574485 0.903390968,4.6452879 L0.903390968,2.11336048 L2.28255501,4.73831099 C2.31711638,4.80409133 2.38529794,4.8452879 2.45960502,4.8452879 L2.8589471,4.8452879 C2.96940405,4.8452879 3.0589471,4.75574485 3.0589471,4.6452879 L3.0589471,0.20001371 C3.0589471,0.0895567597 2.96940405,1.37096774e-05 2.8589471,1.37096774e-05 L2.35555613,1.37096774e-05 C2.24509918,1.37096774e-05 2.15555613,0.0895567597 2.15555613,0.20001371 Z" id="Fill-1" fill="#4A4A4A"></path>
                    <path d="M5.22676955,2.53930645 L5.22676955,3.54216935 C5.22676955,3.76947581 5.11555665,3.99883871 4.8672031,3.99883871 L4.60674116,3.99883871 C4.358256,3.99883871 4.24717471,3.76947581 4.24717471,3.54216935 L4.24717471,2.53930645 C4.24717471,2.312 4.358256,2.0826371 4.60674116,2.0826371 L4.8672031,2.0826371 C5.11555665,2.0826371 5.22676955,2.312 5.22676955,2.53930645 M4.93985342,1.18575 L4.53409084,1.18575 C3.86773471,1.18575 3.32548955,1.76183065 3.32548955,2.46993548 L3.32548955,3.60523387 C3.32548955,4.31333871 3.86773471,4.88941935 4.53409084,4.88941935 L4.93985342,4.88941935 C5.60620955,4.88941935 6.1483231,4.31333871 6.1483231,3.60523387 L6.1483231,2.46993548 C6.1483231,1.76183065 5.60620955,1.18575 4.93985342,1.18575" id="Fill-2" fill="#4A4A4A"></path>
                    <path d="M7.78100748,3.99877016 L7.54489394,3.99877016 C7.28982813,3.99877016 7.26995458,3.70236694 7.26995458,3.61147177 L7.26995458,2.5519879 C7.26995458,2.47356855 7.28680103,2.08270565 7.61754426,2.08270565 L7.87182039,2.08270565 C8.01619974,2.08270565 8.18742813,2.14371371 8.19506168,2.30589919 L8.19506168,3.50439919 C8.19506168,3.7377379 8.01804232,3.99877016 7.78100748,3.99877016 Z M8.20717006,1.24504435 C8.09450942,1.20652016 7.96816103,1.18568145 7.83549523,1.18568145 L7.54489394,1.18568145 C6.87393135,1.18568145 6.34840103,1.74983468 6.34840103,2.47000403 L6.34840103,3.78174597 C6.34840103,4.40293145 6.8100991,4.8894879 7.39959329,4.8894879 L7.71441135,4.8894879 C7.81864877,4.8894879 8.01659458,4.87495565 8.21335587,4.78214113 L8.21335587,4.84520565 L9.11674684,4.84520565 L9.11674684,0.200068548 C9.11674684,0.0896115984 9.02720379,6.8548387e-05 8.91674684,6.8548387e-05 L8.40717006,6.8548387e-05 C8.29671311,6.8548387e-05 8.20717006,0.0896115984 8.20717006,0.200068548 L8.20717006,1.24504435 Z" id="Fill-4" fill="#4A4A4A"></path>
                    <path d="M10.282495,2.53629032 C10.3207943,2.38548387 10.2763092,2.06495161 10.6178446,2.05110484 L10.8721208,2.05110484 C11.2222111,2.04781452 11.1703556,2.40810484 11.2012846,2.53629032 L10.282495,2.53629032 Z M11.9170472,3.34228226 L11.4110756,3.34228226 L11.4110756,3.34228226 C11.3020439,3.34228226 11.2136563,3.43066991 11.2136563,3.53970161 L11.2136563,3.56108871 C11.2136563,3.77756452 11.1225801,4.03023387 10.8660666,4.03023387 L10.6360072,4.03023387 C10.3805466,4.03023387 10.2642008,3.79360484 10.2642008,3.57370161 L10.2642008,3.15487097 L11.9170472,3.15487097 C12.0275042,3.15487097 12.1170472,3.06532792 12.1170472,2.95487097 L12.1170472,2.45732258 C12.1170472,1.74428226 11.5915169,1.18575 10.9205543,1.18575 L10.5996821,1.18575 C9.91990142,1.18575 9.366864,1.75620968 9.366864,2.45732258 L9.366864,3.60523387 C9.366864,4.33733065 9.88120723,4.88941935 10.5633569,4.88941935 L10.9205543,4.88941935 C11.602704,4.88941935 12.1170472,4.33198387 12.1170472,3.59262097 L12.1170472,3.54228226 C12.1170472,3.43182531 12.0275042,3.34228226 11.9170472,3.34228226 Z" id="Fill-6" fill="#4A4A4A"></path>
                    <path d="M12.4366165,4.87924677 C12.4366165,5.09023871 12.3625185,5.1970371 12.2162965,5.1970371 L11.9222217,5.1970371 C11.8117647,5.1970371 11.7222217,5.28658015 11.7222217,5.3970371 L11.7222217,5.88144839 C11.7222217,5.99190534 11.8117647,6.08144839 11.9222217,6.08144839 L12.355543,6.08144839 C12.9212152,6.08144839 13.3643559,5.60873871 13.3643559,5.00537581 L13.3643559,1.98291613 C13.3643559,1.87245918 13.2748128,1.78291613 13.1643559,1.78291613 L12.6366165,1.78291613 C12.5261596,1.78291613 12.4366165,1.87245918 12.4366165,1.98291613 L12.4366165,4.87924677 Z" id="Fill-8" fill="#74BF1B"></path>
                    <path d="M12.5366034,1.25654677 L13.2643427,1.25654677 C13.3195712,1.25654677 13.3643427,1.21177525 13.3643427,1.15654677 L13.3643427,0.415377419 C13.3643427,0.360148944 13.3195712,0.315377419 13.2643427,0.315377419 L12.5366034,0.315377419 C12.4813749,0.315377419 12.4366034,0.360148944 12.4366034,0.415377419 L12.4366034,1.15654677 C12.4366034,1.21177525 12.4813749,1.25654677 12.5366034,1.25654677 Z" id="Fill-11" fill="#74BF1B"></path>
                    <path d="M14.9683092,2.57330645 C14.5601775,2.57330645 14.5601775,2.39480645 14.5601775,2.31858065 L14.5601775,2.28074194 C14.5601775,2.08647581 14.7552279,2.05741129 14.8714421,2.05741129 L15.0530679,2.05741129 C15.3703866,2.05741129 15.3703866,2.21904839 15.3703866,2.27978226 L15.3703866,2.28542742 C15.3703866,2.39588437 15.4599296,2.48542742 15.5703866,2.48542742 L16.0858859,2.48542742 C16.1963429,2.48542742 16.2858859,2.39588437 16.2858859,2.28542742 L16.2858859,2.26182258 C16.2858859,1.65845968 15.7841775,1.18575 15.1438808,1.18575 L14.7987917,1.18575 C14.1374369,1.18575 13.638624,1.65914516 13.638624,2.28704839 L13.638624,2.40056452 C13.638624,3.05808065 14.1344098,3.48294355 14.901713,3.48294355 L15.0106885,3.48294355 C15.4126343,3.48294355 15.4126343,3.68420161 15.4126343,3.75028226 L15.4126343,3.79442742 C15.4126343,3.95908065 15.2456175,4.01775806 15.089393,4.01775806 L14.8411711,4.01775806 C14.493713,4.01775806 14.493713,3.88683065 14.493713,3.8163629 L14.493713,3.81071774 C14.493713,3.70026079 14.40417,3.61071774 14.293713,3.61071774 L13.7780821,3.61071774 C13.6676251,3.61071774 13.5780821,3.70026079 13.5780821,3.81071774 L13.5780821,3.83226613 C13.5780821,4.42507258 14.0824227,4.88941935 14.7261414,4.88941935 L15.2044227,4.88941935 C15.8448511,4.88941935 16.3464279,4.41396774 16.3464279,3.80704032 L16.3464279,3.64937903 C16.3464279,3.00570968 15.8387969,2.57330645 15.0833388,2.57330645 L14.9683092,2.57330645 Z" id="Fill-13" fill="#74BF1B"></path>
                </g>
            </g>
        </g>
    </g>
</svg>