<?xml version="1.0" encoding="UTF-8"?>
<svg width="14px" height="10px" viewBox="0 0 14 10" version="1.1" xmlns="http://www.w3.org/2000/svg" xmlns:xlink="http://www.w3.org/1999/xlink">
    <!-- Generator: Sketch 46.2 (44496) - http://www.bohemiancoding.com/sketch -->
    <title>Group 4</title>
    <desc>Created with Sketch.</desc>
    <defs></defs>
    <g id="汇总" stroke="none" stroke-width="1" fill="none" fill-rule="evenodd">
        <g id="Artboard" transform="translate(-897.000000, -994.000000)" fill="#17A8E2">
            <g id="Group" transform="translate(896.000000, 991.000000)">
                <g id="Group-4" transform="translate(1.000000, 3.000000)">
                    <path d="M0.649999976,5.49077181 C1.0495026,5.50035959 1.34912507,5.67773078 1.54887638,6.0228907 C1.74363391,6.35366896 1.84101121,6.77552476 1.84101121,7.28847076 L1.84101121,8.36768936 C1.85099878,8.87584147 2.00580372,9.27133128 2.30543069,9.55417066 C2.59007631,9.84180393 2.937139,9.99041222 3.34662919,10 L4.7047471,9.99115491 L4.7047471,9.99115491 C4.86966654,9.99008083 5.00279332,9.8560842 5.00279332,9.69116127 L5.00279332,9.01324359 L5.00279332,9.01324359 C5.00279332,8.84755817 4.86847874,8.71324359 4.70279332,8.71324359 L4.25372965,8.71324359 C3.57613127,8.68669359 3.57957234,8.1076238 3.57957234,7.79602109 L3.57957234,6.91095398 C3.57957234,6.56579406 3.53213212,6.27576819 3.43725025,6.04086769 C3.34736216,5.80596719 3.23001002,5.61421455 3.08519032,5.46560403 C2.96533953,5.3169935 2.83799998,5.20433883 2.70316785,5.12763663 C2.56833571,5.0605222 2.46097099,5.01977476 2.38107047,5.0053931 C2.55585287,4.93827881 2.79055714,4.77289216 3.08519032,4.480465 C3.23001002,4.33185448 3.34736216,4.14010185 3.43725025,3.90520134 C3.53213212,3.68947639 3.57957234,3.41862579 3.57957234,3.09264142 L3.57957234,2.19319271 C3.57957234,1.86720834 3.58377552,1.4326787 4.25372965,1.40642822 L4.70279332,1.40642822 L4.70279332,1.40642822 C4.86847874,1.40642822 5.00279332,1.27211365 5.00279332,1.10642822 L5.00279332,0.301960189 L5.00279332,0.301960189 C5.00279332,0.136274764 4.86847874,0.00196018928 4.70279332,0.00196018928 C4.70214205,0.00196018928 4.70149078,0.00196231002 4.70083953,0.00196655148 L3.34662919,0.0107861937 C2.937139,0.0107861937 2.59007631,0.152203763 2.30543069,0.435043145 C2.00580372,0.722676414 1.85099878,1.12535695 1.84101121,1.64309684 L1.84101121,2.75107862 C1.84101121,3.2304674 1.74363391,3.64273557 1.54887638,3.98789549 C1.45898829,4.15568157 1.33664245,4.28271769 1.18183518,4.36900767 C1.0320217,4.46967931 0.85474507,4.52001438 0.649999976,4.52001438 L0.649999976,5.49077181 Z" id="{-}"></path>
                    <path d="M9,5.49077181 C9.39950262,5.50035959 9.69912509,5.67773078 9.8988764,6.0228907 C10.0936339,6.35366896 10.1910112,6.77552476 10.1910112,7.28847076 L10.1910112,8.36768936 C10.2009988,8.87584147 10.3558037,9.27133128 10.6554307,9.55417066 C10.9400763,9.84180393 11.287139,9.99041222 11.6966292,10 L13.0547471,9.99115491 L13.0547471,9.99115491 C13.2196666,9.99008083 13.3527933,9.8560842 13.3527933,9.69116127 L13.3527933,9.01324359 L13.3527933,9.01324359 C13.3527933,8.84755817 13.2184788,8.71324359 13.0527933,8.71324359 L12.6037297,8.71324359 C11.9261313,8.68669359 11.9295724,8.1076238 11.9295724,7.79602109 L11.9295724,6.91095398 C11.9295724,6.56579406 11.8821321,6.27576819 11.7872503,6.04086769 C11.6973622,5.80596719 11.58001,5.61421455 11.4351903,5.46560403 C11.3153396,5.3169935 11.188,5.20433883 11.0531679,5.12763663 C10.9183357,5.0605222 10.810971,5.01977476 10.7310705,5.0053931 C10.9058529,4.93827881 11.1405572,4.77289216 11.4351903,4.480465 C11.58001,4.33185448 11.6973622,4.14010185 11.7872503,3.90520134 C11.8821321,3.68947639 11.9295724,3.41862579 11.9295724,3.09264142 L11.9295724,2.19319271 C11.9295724,1.86720834 11.9337755,1.4326787 12.6037297,1.40642822 L13.0527933,1.40642822 L13.0527933,1.40642822 C13.2184788,1.40642822 13.3527933,1.27211365 13.3527933,1.10642822 L13.3527933,0.301960189 L13.3527933,0.301960189 C13.3527933,0.136274764 13.2184788,0.00196018928 13.0527933,0.00196018928 C13.0521421,0.00196018928 13.0514908,0.00196231002 13.0508396,0.00196655148 L11.6966292,0.0107861937 C11.287139,0.0107861937 10.9400763,0.152203763 10.6554307,0.435043145 C10.3558037,0.722676414 10.2009988,1.12535695 10.1910112,1.64309684 L10.1910112,2.75107862 C10.1910112,3.2304674 10.0936339,3.64273557 9.8988764,3.98789549 C9.80898831,4.15568157 9.68664247,4.28271769 9.53183521,4.36900767 C9.38202172,4.46967931 9.20474509,4.52001438 9,4.52001438 L9,5.49077181 Z" id="{-}-copy" transform="translate(11.176397, 5.000000) scale(-1, 1) translate(-11.176397, -5.000000) "></path>
                </g>
            </g>
        </g>
    </g>
</svg>