<?xml version="1.0" encoding="UTF-8"?>
<svg width="15px" height="11px" viewBox="0 0 15 11" version="1.1" xmlns="http://www.w3.org/2000/svg" xmlns:xlink="http://www.w3.org/1999/xlink">
    <!-- Generator: Sketch 46.2 (44496) - http://www.bohemiancoding.com/sketch -->
    <title>Group</title>
    <desc>Created with Sketch.</desc>
    <defs></defs>
    <g id="图标" stroke="none" stroke-width="1" fill="none" fill-rule="evenodd">
        <g id="文件夹----new---打开" transform="translate(-1.000000, -2.000000)">
            <g id="文件夹">
                <g id="Group" transform="translate(1.000000, 2.000000)">
                    <path d="M0.5,2.48656605 L0.5,10 C0.5,10.2761424 0.723857625,10.5 1,10.5 L12.2792408,10.5 C12.494456,10.5 12.6855254,10.362285 12.7535824,10.1581139 L14.4962993,4.92996316 C14.4661485,4.68266063 14.2554446,4.49110317 14,4.49110317 L12.5,4.49110317 L12.5,2.98656605 C12.5,2.71042368 12.2761424,2.48656605 12,2.48656605 L6.30565391,2.48656605 L5.66604108,0.568367726 C5.65242676,0.527538371 5.61421527,0.5 5.57117592,0.5 L1.00238656,0.5 C0.726478467,0.5 0.502718004,0.723492118 0.502386922,0.999400014 L0.500602362,2.48656605 L0.5,2.48656605 Z" id="Combined-Shape" stroke="#000000"></path>
                    <path d="M3.5,4 L14.5,4 L14.5,4 C14.7761424,4 15,4.22385763 15,4.5 L15,5 L3,5 L3,4.5 L3,4.5 C3,4.22385763 3.22385763,4 3.5,4 Z" id="Rectangle-3" fill="#000000"></path>
                    <path d="M3.5031712,4.4796191 L1.34623036,10.4442275" id="Path-21" stroke="#000000"></path>
                </g>
            </g>
        </g>
    </g>
</svg>