<?xml version="1.0" encoding="UTF-8"?>
<svg width="14px" height="14px" viewBox="0 0 14 14" version="1.1" xmlns="http://www.w3.org/2000/svg" xmlns:xlink="http://www.w3.org/1999/xlink">
    <!-- Generator: Sketch 50.2 (55047) - http://www.bohemiancoding.com/sketch -->
    <title>Shape</title>
    <desc>Created with Sketch.</desc>
    <defs></defs>
    <g id="Storage" stroke="none" stroke-width="1" fill="none" fill-rule="evenodd">
        <g id="Artboard" transform="translate(-511.000000, -119.000000)" fill="#6E6E6E" fill-rule="nonzero">
            <g id="禁止" transform="translate(517.500000, 125.500000) scale(-1, 1) translate(-517.500000, -125.500000) translate(510.000000, 118.000000)">
                <path d="M7.48319824,0.988051758 C8.37934082,0.988051758 9.22569336,1.15980957 10.0222559,1.5033252 C10.8188184,1.84684082 11.510835,2.31482422 12.0983057,2.90727539 C12.6857764,3.49972656 13.1512695,4.19174316 13.4947852,4.9833252 C13.8383008,5.77490723 14.0100586,6.61877441 14.0100586,7.51492676 C14.0100586,8.42102051 13.8383008,9.26986328 13.4947852,10.0614551 C13.1512695,10.8530469 12.6857764,11.5450635 12.0983057,12.1375049 C11.510835,12.7299463 10.8188184,13.1954395 10.0222559,13.5339844 C9.22569336,13.8725293 8.37934082,14.0418018 7.48319824,14.0418018 C6.57710449,14.0418018 5.72826172,13.8725293 4.93666992,13.5339844 C4.14507813,13.1954395 3.45306152,12.7299463 2.86062012,12.1375049 C2.26817871,11.5450635 1.80268555,10.8530469 1.46414063,10.0614551 C1.1255957,9.26986328 0.956323242,8.42102051 0.956323242,7.51492676 C0.956323242,6.61878418 1.1255957,5.77491699 1.46414063,4.9833252 C1.80268555,4.1917334 2.26817871,3.4997168 2.86062012,2.90727539 C3.45306152,2.31483398 4.14507813,1.84685059 4.93666992,1.5033252 C5.72826172,1.1597998 6.57710449,0.988041992 7.48319824,0.988051758 Z M7.43840332,2.78033203 C6.79118652,2.78033203 6.18380371,2.90230469 5.61625488,3.14625 C5.04870605,3.39019531 4.55333984,3.72375977 4.13015625,4.14694336 C3.70697266,4.57012695 3.3734082,5.06549316 3.12946289,5.63304199 C2.88551758,6.20059082 2.76354492,6.80797363 2.76354492,7.45519043 C2.76354492,7.95304199 2.83324707,8.41853516 2.97265137,8.85166992 C3.11205566,9.28480469 3.31119629,9.69055664 3.57007324,10.0689258 L10.0521533,3.60178711 C9.67378418,3.34290039 9.26554199,3.14126953 8.82742676,2.99689453 C8.38931152,2.85251953 7.92630371,2.78033203 7.43840332,2.78033203 Z M7.43840332,12.1300488 C8.07565918,12.1300488 8.67806641,12.0080762 9.245625,11.7641309 C9.81318359,11.5201855 10.3085498,11.1866211 10.7317236,10.7634375 C11.1548975,10.3402539 11.4884619,9.8448877 11.732417,9.27733887 C11.9763721,8.70979004 12.0983447,8.10240723 12.098335,7.45519043 C12.098335,6.5291748 11.8543848,5.68282227 11.3664844,4.91613281 L4.8993457,11.3832715 C5.27771484,11.6222461 5.67600098,11.8064502 6.0942041,11.9358838 C6.51240723,12.0653174 6.96047852,12.1300391 7.43841797,12.1300488 L7.43840332,12.1300488 Z" id="Shape"></path>
            </g>
        </g>
    </g>
</svg>