<?xml version="1.0" encoding="UTF-8"?>
<svg width="16px" height="16px" viewBox="0 0 16 16" version="1.1" xmlns="http://www.w3.org/2000/svg" xmlns:xlink="http://www.w3.org/1999/xlink">
    <!-- Generator: Sketch 53.2 (72643) - https://sketchapp.com -->
    <title>icon_general</title>
    <desc>Created with Sketch.</desc>
    <g id="icon_general" stroke="none" stroke-width="1" fill="none" fill-rule="evenodd">
        <g id="Group-3" fill="#000000">
            <g id="Group-2" transform="translate(2.000000, 2.000000)">
                <path d="M1.46666667,3.13333333 C0.656649034,3.13333333 0,2.4766843 0,1.66666667 C0,0.856649034 0.656649034,0.2 1.46666667,0.2 C2.2766843,0.2 2.93333333,0.856649034 2.93333333,1.66666667 C2.93333333,2.4766843 2.2766843,3.13333333 1.46666667,3.13333333 Z M1.46666667,2.45641026 C1.90283001,2.45641026 2.25641026,2.10283001 2.25641026,1.66666667 C2.25641026,1.23050333 1.90283001,0.876923077 1.46666667,0.876923077 C1.03050333,0.876923077 0.676923077,1.23050333 0.676923077,1.66666667 C0.676923077,2.10283001 1.03050333,2.45641026 1.46666667,2.45641026 Z" id="Oval" fill-rule="nonzero"></path>
                <path d="M1.46666667,11.6666667 C0.656649034,11.6666667 0,11.0100176 0,10.2 C0,9.38998237 0.656649034,8.73333333 1.46666667,8.73333333 C2.2766843,8.73333333 2.93333333,9.38998237 2.93333333,10.2 C2.93333333,11.0100176 2.2766843,11.6666667 1.46666667,11.6666667 Z M1.46666667,10.9897436 C1.90283001,10.9897436 2.25641026,10.6361633 2.25641026,10.2 C2.25641026,9.76383666 1.90283001,9.41025641 1.46666667,9.41025641 C1.03050333,9.41025641 0.676923077,9.76383666 0.676923077,10.2 C0.676923077,10.6361633 1.03050333,10.9897436 1.46666667,10.9897436 Z" id="Oval" fill-rule="nonzero"></path>
                <path d="M10.5333333,7.4 C9.7233157,7.4 9.06666667,6.74335097 9.06666667,5.93333333 C9.06666667,5.1233157 9.7233157,4.46666667 10.5333333,4.46666667 C11.343351,4.46666667 12,5.1233157 12,5.93333333 C12,6.74335097 11.343351,7.4 10.5333333,7.4 Z M10.5333333,6.72307692 C10.9694967,6.72307692 11.3230769,6.36949667 11.3230769,5.93333333 C11.3230769,5.49716999 10.9694967,5.14358974 10.5333333,5.14358974 C10.09717,5.14358974 9.74358974,5.49716999 9.74358974,5.93333333 C9.74358974,6.36949667 10.09717,6.72307692 10.5333333,6.72307692 Z" id="Oval" fill-rule="nonzero"></path>
                <rect id="Rectangle" x="2.66666667" y="1.26666667" width="9.33333333" height="1"></rect>
                <rect id="Rectangle" x="0.666666667" y="5.53333333" width="8.66666667" height="1"></rect>
                <rect id="Rectangle" x="2.66666667" y="9.8" width="9.33333333" height="1"></rect>
            </g>
        </g>
    </g>
</svg>