<?xml version="1.0" encoding="UTF-8"?>
<svg width="16px" height="12px" viewBox="0 0 16 12" version="1.1" xmlns="http://www.w3.org/2000/svg" xmlns:xlink="http://www.w3.org/1999/xlink">
    <!-- Generator: Sketch 47.1 (45422) - http://www.bohemiancoding.com/sketch -->
    <title>Group</title>
    <desc>Created with Sketch.</desc>
    <defs></defs>
    <g id="Symbols" stroke="none" stroke-width="1" fill="none" fill-rule="evenodd">
        <g id="git/U-Copy-2" transform="translate(-2.000000, -2.000000)">
            <g id="git/m" transform="translate(2.000000, 2.000000)">
                <g id="Group">
                    <path d="M2,-8.83651876e-16 L14,-8.83651876e-16 L14,-8.8817842e-16 C15.1045695,-1.09108686e-15 16,0.8954305 16,2 L16,10 L16,10 C16,11.1045695 15.1045695,12 14,12 L2,12 L2,12 C0.8954305,12 1.3527075e-16,11.1045695 0,10 L0,2 L0,2 C-1.3527075e-16,0.8954305 0.8954305,-6.85269983e-16 2,-8.8817842e-16 Z" id="Rectangle-3" fill="#F1A600"></path>
                    <path d="M8.15030675,2 C6.92638037,2 5.99233129,2.39892183 5.34815951,3.21832884 C4.7791411,3.92991914 4.5,4.86792453 4.5,6.01078167 C4.5,7.17520216 4.76840491,8.10242588 5.31595092,8.79245283 C5.93865031,9.5902965 6.89417178,10 8.17177914,10 C8.99846626,10 9.70705521,9.76280323 10.297546,9.2884097 C10.9309816,8.78167116 11.3282209,8.08086253 11.5,7.17520216 L10.2760736,7.17520216 C10.1257669,7.7574124 9.86809816,8.19946092 9.50306748,8.49056604 C9.1595092,8.74932615 8.70858896,8.88948787 8.16104294,8.88948787 C7.32361963,8.88948787 6.70092025,8.61994609 6.30368098,8.10242588 C5.93865031,7.61725067 5.75613497,6.91644205 5.75613497,6.01078167 C5.75613497,5.12668464 5.93865031,4.43665768 6.31441718,3.94070081 C6.72239264,3.38005391 7.32361963,3.11051213 8.12883436,3.11051213 C8.66564417,3.11051213 9.10582822,3.21832884 9.4493865,3.45552561 C9.80368098,3.69272237 10.0398773,4.05929919 10.1687117,4.56603774 L11.392638,4.56603774 C11.2745399,3.78975741 10.9417178,3.16442049 10.3834356,2.7115903 C9.80368098,2.23719677 9.05214724,2 8.15030675,2 Z" id="C" fill="#FFFFFF"></path>
                </g>
            </g>
        </g>
    </g>
</svg>