<?xml version="1.0" encoding="UTF-8"?>
<svg width="16px" height="12px" viewBox="0 0 16 12" version="1.1" xmlns="http://www.w3.org/2000/svg" xmlns:xlink="http://www.w3.org/1999/xlink">
    <!-- Generator: Sketch 47.1 (45422) - http://www.bohemiancoding.com/sketch -->
    <title>Group</title>
    <desc>Created with Sketch.</desc>
    <defs></defs>
    <g id="Symbols" stroke="none" stroke-width="1" fill="none" fill-rule="evenodd">
        <g id="git/U-Copy" transform="translate(-2.000000, -2.000000)">
            <g id="git/m" transform="translate(2.000000, 2.000000)">
                <g id="Group">
                    <path d="M2,2.22003947e-16 L14,2.22003947e-16 L14,0 C15.1045695,-1.18396232e-15 16,0.8954305 16,2 L16,10 L16,10 C16,11.1045695 15.1045695,12 14,12 L2,12 L2,12 C0.8954305,12 1.02344917e-15,11.1045695 8.8817842e-16,10 L0,2 L-2.22044605e-16,2 C-3.57315355e-16,0.8954305 0.8954305,2.02908437e-16 2,0 Z" id="Rectangle-3" fill="#509FC9"></path>
                    <path d="M7.30025572,2 L8.76492551,2 L11.7430247,10 L10.3664554,10 L9.6506393,8.02875269 L6.35788541,8.02875269 L5.64206935,10 L4.2655,10 L7.30025572,2 Z M6.74332483,6.97154743 L9.26519988,6.97154743 L8.03179374,3.52461777 L7.98774352,3.52461777 L6.74332483,6.97154743 Z" id="A" fill="#FFFFFF"></path>
                </g>
            </g>
        </g>
    </g>
</svg>