<?xml version="1.0" encoding="UTF-8" standalone="no"?>
<svg width="12px" height="14px" viewBox="0 0 12 14" version="1.1" xmlns="http://www.w3.org/2000/svg" xmlns:xlink="http://www.w3.org/1999/xlink">
    <!-- Generator: Sketch 50.2 (55047) - http://www.bohemiancoding.com/sketch -->
    <title>Group 7</title>
    <desc>Created with Sketch.</desc>
    <defs></defs>
    <g id="手绘图标" stroke="none" stroke-width="1" fill="none" fill-rule="evenodd">
        <g id="Artboard" transform="translate(-285.000000, -102.000000)">
            <g id="Group-7" transform="translate(285.000000, 102.000000)">
                <path d="M4.05829423,1.70765349 L1.34964708,4.35741701 C1.15225111,4.55052176 0.835687736,4.54704304 0.642582987,4.34964708 C0.449478238,4.15225111 0.452956957,3.83568774 0.650352922,3.64258299 L3.71701959,0.642582987 C3.91465069,0.449248217 4.23167045,0.45299896 4.42467208,0.650955409 L7.34958256,3.65095541 C7.54235456,3.84867634 7.53834267,4.1652334 7.34062174,4.35800541 C7.14290081,4.55077741 6.82634374,4.54676552 6.63357174,4.34904459 L4.05829423,1.70765349 Z" id="Shape" fill="#000000" fill-rule="nonzero"></path>
                <path d="M3.5,1 C3.5,0.723857625 3.72385763,0.5 4,0.5 C4.27614237,0.5 4.5,0.723857625 4.5,1 L4.5,12.5108644 C4.5,12.7870068 4.27614237,13.0108644 4,13.0108644 C3.72385763,13.0108644 3.5,12.7870068 3.5,12.5108644 L3.5,1 Z" id="Shape" fill="#000000" fill-rule="nonzero"></path>
                <path d="M8.9,4 C8.9,3.72385763 9.12385763,3.5 9.4,3.5 C9.67614237,3.5 9.9,3.72385763 9.9,4 L9.9,5 C9.9,6.66644133 9.15249144,7.97674446 7.50819003,8.41747728 L6.2381243,8.89155817 C6.10709578,8.93939007 5.68702232,9.08600022 5.67371126,9.09073392 C4.73089169,9.42602068 4.5,9.64753328 4.5,10.3722826 L4.5,12.5 C4.5,12.7761424 4.27614237,13 4,13 C3.72385763,13 3.5,12.7761424 3.5,12.5 L3.5,10.3722826 C3.5,9.12969974 4.0421034,8.60961721 5.33864657,8.14853879 C5.35789153,8.14169487 5.77216592,7.99710866 5.89180997,7.95344663 L7.20325721,7.46626511 C8.39343747,7.14559562 8.9,6.25764528 8.9,5 L8.9,4 Z" id="Shape" fill="#000000" fill-rule="nonzero" transform="translate(6.700000, 8.250000) scale(1, -1) translate(-6.700000, -8.250000) "></path>
                <path d="M4,13.5 C3.17157288,13.5 2.5,12.8284271 2.5,12 C2.5,11.1715729 3.17157288,10.5 4,10.5 C4.82842712,10.5 5.5,11.1715729 5.5,12 C5.5,12.8284271 4.82842712,13.5 4,13.5 Z" id="Oval" fill="#000000" fill-rule="nonzero"></path>
                <path d="M4,12.5 C4.27614237,12.5 4.5,12.2761424 4.5,12 C4.5,11.7238576 4.27614237,11.5 4,11.5 C3.72385763,11.5 3.5,11.7238576 3.5,12 C3.5,12.2761424 3.72385763,12.5 4,12.5 Z" id="Path" fill="#FFFFFF"></path>
                <path d="M10,13.5 C9.17157288,13.5 8.5,12.8284271 8.5,12 C8.5,11.1715729 9.17157288,10.5 10,10.5 C10.8284271,10.5 11.5,11.1715729 11.5,12 C11.5,12.8284271 10.8284271,13.5 10,13.5 Z" id="Oval-Copy" fill="#000000" fill-rule="nonzero"></path>
                <path d="M10,12.5 C10.2761424,12.5 10.5,12.2761424 10.5,12 C10.5,11.7238576 10.2761424,11.5 10,11.5 C9.72385763,11.5 9.5,11.7238576 9.5,12 C9.5,12.2761424 9.72385763,12.5 10,12.5 Z" id="Path" fill="#FFFFFF"></path>
            </g>
        </g>
    </g>
</svg>