<?xml version="1.0" encoding="UTF-8" standalone="no"?>
<svg width="16px" height="16px" viewBox="0 0 16 16" version="1.1" xmlns="http://www.w3.org/2000/svg" xmlns:xlink="http://www.w3.org/1999/xlink">
    <!-- Generator: Sketch 50.2 (55047) - http://www.bohemiancoding.com/sketch -->
    <title>question</title>
    <desc>Created with Sketch.</desc>
    <defs>
        <path d="M8.1441048,3 C7.17467249,3 6.41484716,3.28846154 5.85152838,3.86538462 C5.27510917,4.44230769 5,5.23901099 5,6.25549451 L6.49344978,6.25549451 C6.49344978,5.67857143 6.59825328,5.22527473 6.8209607,4.90934066 C7.069869,4.52472527 7.47598253,4.34615385 8.05240175,4.34615385 C8.49781659,4.34615385 8.85152838,4.46978022 9.10043668,4.73076923 C9.33624454,4.99175824 9.46724891,5.3489011 9.46724891,5.8021978 C9.46724891,6.1456044 9.34934498,6.47527473 9.11353712,6.77747253 L8.95633188,6.96978022 C8.10480349,7.76648352 7.59388646,8.34340659 7.42358079,8.71428571 C7.24017467,9.08516484 7.16157205,9.53846154 7.16157205,10.0604396 L7.16157205,10.2527473 L8.66812227,10.2527473 L8.66812227,10.0604396 C8.66812227,9.73076923 8.73362445,9.44230769 8.86462882,9.16758242 C8.98253275,8.92032967 9.15283843,8.68681319 9.38864629,8.48076923 C10.0174672,7.90384615 10.3973799,7.53296703 10.5152838,7.3956044 C10.8296943,6.95604396 11,6.39285714 11,5.70604396 C11,4.86813187 10.7379913,4.20879121 10.2139738,3.72802198 C9.68995633,3.23351648 8.99563319,3 8.1441048,3 Z M7.90829694,10.9258242 C7.62008734,10.9258242 7.38427948,11.021978 7.18777293,11.2142857 C6.99126638,11.4065934 6.89956332,11.6538462 6.89956332,11.956044 C6.89956332,12.2582418 6.99126638,12.5054945 7.18777293,12.6978022 C7.38427948,12.8901099 7.62008734,13 7.90829694,13 C8.19650655,13 8.43231441,12.9038462 8.62882096,12.7115385 C8.82532751,12.5192308 8.930131,12.2582418 8.930131,11.956044 C8.930131,11.6538462 8.82532751,11.4065934 8.6419214,11.2142857 C8.44541485,11.021978 8.19650655,10.9258242 7.90829694,10.9258242 Z" id="path-1"></path>
        <filter x="-116.7%" y="-50.0%" width="333.3%" height="240.0%" filterUnits="objectBoundingBox" id="filter-2">
            <feOffset dx="0" dy="2" in="SourceAlpha" result="shadowOffsetOuter1"></feOffset>
            <feGaussianBlur stdDeviation="2" in="shadowOffsetOuter1" result="shadowBlurOuter1"></feGaussianBlur>
            <feColorMatrix values="0 0 0 0 1   0 0 0 0 1   0 0 0 0 1  0 0 0 1 0" type="matrix" in="shadowBlurOuter1"></feColorMatrix>
        </filter>
    </defs>
    <g id="question" stroke="none" stroke-width="1" fill="none" fill-rule="evenodd">
        <g id="？">
            <use fill="black" fill-opacity="1" filter="url(#filter-2)" xlink:href="#path-1"></use>
            <use fill="#000000" fill-rule="evenodd" xlink:href="#path-1"></use>
        </g>
    </g>
</svg>