<?xml version="1.0" encoding="UTF-8"?>
<svg width="16px" height="12px" viewBox="0 0 16 12" version="1.1" xmlns="http://www.w3.org/2000/svg" xmlns:xlink="http://www.w3.org/1999/xlink">
    <!-- Generator: Sketch 47.1 (45422) - http://www.bohemiancoding.com/sketch -->
    <title>Group</title>
    <desc>Created with Sketch.</desc>
    <defs></defs>
    <g id="Symbols" stroke="none" stroke-width="1" fill="none" fill-rule="evenodd">
        <g id="git/+M" transform="translate(-2.000000, -2.000000)">
            <g id="git/m" transform="translate(2.000000, 2.000000)">
                <g id="Group">
                    <path d="M2,-1.33843403e-15 L14,-1.33312144e-15 L14,-1.33226763e-15 C15.1045695,-1.53517607e-15 16,0.8954305 16,2 L16,10 L16,10 C16,11.1045695 15.1045695,12 14,12 L2,12 L2,12 C0.8954305,12 1.3527075e-16,11.1045695 0,10 L0,2 L0,2 C-1.3527075e-16,0.8954305 0.8954305,-6.85269983e-16 2,-8.8817842e-16 Z" id="Rectangle-3" fill="#2C9F67"></path>
                    <polygon id="M" fill="#FFFFFF" points="5.77 1.99014743 5.77 9.99014743 7.057 10 7.057 4.588 7.101 4.588 9.411 10 10.522 10 12.832 4.588 12.876 4.588 12.876 10 14.163 10 14.163 1.99014743 12.656 1.99014743 9.994 8.306 9.95 8.306 7.277 1.99014743"></polygon>
                    <path d="M2.5,5.5 L1,5.5 L1,6.5 L2.5,6.5 L2.5,8 L3.5,8 L3.5,6.5 L5,6.5 L5,5.5 L3.5,5.5 L3.5,4 L2.5,4 L2.5,5.5 Z" id="Combined-Shape" fill="#FFFFFF"></path>
                </g>
            </g>
        </g>
    </g>
</svg>