<?xml version="1.0" encoding="UTF-8"?>
<svg width="14px" height="14px" viewBox="0 0 14 14" version="1.1" xmlns="http://www.w3.org/2000/svg" xmlns:xlink="http://www.w3.org/1999/xlink">
    <!-- Generator: Sketch 47.1 (45422) - http://www.bohemiancoding.com/sketch -->
    <title>Group</title>
    <desc>Created with Sketch.</desc>
    <defs></defs>
    <g id="Symbols" stroke="none" stroke-width="1" fill="none" fill-rule="evenodd">
        <g id="git/U-Copy-3" transform="translate(-3.000000, -1.000000)">
            <g id="git/m" transform="translate(3.000000, 1.000000)">
                <g id="Group">
                    <path d="M7,-1.33229473e-15 L7,-1.33229473e-15 L7,-1.77635684e-15 C10.8659932,-2.48652281e-15 14,3.13400675 14,7 L14,7 L14,7 C14,10.8659932 10.8659932,14 7,14 L7,14 L7,14 C3.13400675,14 4.73447626e-16,10.8659932 0,7 L0,7 L0,7 C-4.73447626e-16,3.13400675 3.13400675,7.10165976e-16 7,0 Z" id="Rectangle-3" fill="#555555"></path>
                    <path d="M7.10467671,3.539613 C6.37193976,3.539613 5.78194378,3.7867835 5.33468876,4.2811245 C4.8969498,4.74694583 4.67808032,5.35536552 4.66856426,6.11589013 L5.78194378,6.11589013 C5.8009759,5.5835229 5.91516867,5.17474092 6.12452209,4.90855731 C6.3338755,4.62336058 6.64790562,4.48076221 7.06661245,4.48076221 C7.45677108,4.48076221 7.75176908,4.56632123 7.95160643,4.74694583 C8.14192771,4.92757042 8.24660442,5.20326059 8.24660442,5.57401635 C8.24660442,5.95427865 8.09434739,6.31552785 7.7993494,6.64825737 C7.60902811,6.84789508 7.30451406,7.10457213 6.8667751,7.40878198 C6.07694177,7.95065577 5.55355823,8.36894431 5.30614056,8.65414104 C4.84936948,9.16749516 4.6305,9.76640829 4.6305,10.460387 L9.3695,10.460387 L9.3695,9.48121156 L6.01984538,9.48121156 C6.17210241,9.13897548 6.59080924,8.73970006 7.28548193,8.28338529 C7.95160643,7.83657708 8.42740964,7.47532788 8.69385944,7.19013115 C9.13159839,6.70529671 9.35998394,6.17292948 9.35998394,5.5835229 C9.35998394,4.97510321 9.15063052,4.49026877 8.73192369,4.11000646 C8.3037008,3.72974415 7.76128514,3.539613 7.10467671,3.539613 Z" id="2" fill="#FFFFFF"></path>
                </g>
            </g>
        </g>
    </g>
</svg>