<?xml version="1.0" encoding="UTF-8"?>
<svg width="16px" height="12px" viewBox="0 0 16 12" version="1.1" xmlns="http://www.w3.org/2000/svg" xmlns:xlink="http://www.w3.org/1999/xlink">
    <!-- Generator: Sketch 47.1 (45422) - http://www.bohemiancoding.com/sketch -->
    <title>Group</title>
    <desc>Created with Sketch.</desc>
    <defs></defs>
    <g id="Symbols" stroke="none" stroke-width="1" fill="none" fill-rule="evenodd">
        <g id="git/U" transform="translate(-2.000000, -2.000000)">
            <g id="git/m" transform="translate(2.000000, 2.000000)">
                <g id="Group">
                    <path d="M2,-1.7718303e-15 L14,-1.7718303e-15 L14,-1.77635684e-15 C15.1045695,-1.97926528e-15 16,0.8954305 16,2 L16,10 L16,10 C16,11.1045695 15.1045695,12 14,12 L2,12 L2,12 C0.8954305,12 1.3527075e-16,11.1045695 0,10 L0,2 L0,2 C-1.3527075e-16,0.8954305 0.8954305,-1.5734484e-15 2,-1.77635684e-15 Z" id="Rectangle-3" fill="#509FC9"></path>
                    <path d="M4.54572818,2 L4.54572818,7 C4.54572818,8.49600975 5.61732777,10 8,10 C10.3826722,10 11.4689448,8.4170275 11.4689448,7 L11.4689448,2 L10,2 L10,7 C10,7.76608773 9.24546627,8.77404402 8,8.7719553 C6.75453373,8.76986658 6,7.8258222 6,7 L6,2 L4.54572818,2 Z" id="U" fill="#FFFFFF"></path>
                </g>
            </g>
        </g>
    </g>
</svg>