<?xml version="1.0" encoding="UTF-8" standalone="no"?>
<svg width="16px" height="16px" viewBox="0 0 16 16" version="1.1" xmlns="http://www.w3.org/2000/svg" xmlns:xlink="http://www.w3.org/1999/xlink">
    <!-- Generator: Sketch 50.2 (55047) - http://www.bohemiancoding.com/sketch -->
    <title>d</title>
    <desc>Created with Sketch.</desc>
    <defs></defs>
    <g id="d" stroke="none" stroke-width="1" fill="none" fill-rule="evenodd">
        <g id="文件夹"></g>
        <g id="Group-8" transform="translate(0.000000, 2.000000)">
            <rect id="Rectangle-2" fill="#D94E4E" x="0" y="0.326530612" width="16" height="12.0816327" rx="1.30612245"></rect>
            <path d="M5.36555102,2.53942857 L8.45844898,2.53942857 C9.02966272,2.53942857 9.52424281,2.63695141 9.94220408,2.832 C10.3601654,3.02704859 10.7014953,3.29349491 10.9662041,3.63134694 C11.2309129,3.96919897 11.4277,4.36451474 11.5565714,4.81730612 C11.6854428,5.2700975 11.7498776,5.75422872 11.7498776,6.26971429 C11.7498776,6.78519986 11.6854428,7.26933107 11.5565714,7.72212245 C11.4277,8.17491383 11.2309129,8.5702296 10.9662041,8.90808163 C10.7014953,9.24593366 10.3601654,9.51237998 9.94220408,9.70742857 C9.52424281,9.90247717 9.02966272,10 8.45844898,10 L5.36555102,10 L5.36555102,2.53942857 Z M6.67167347,8.93420408 L7.95689796,8.93420408 C8.46541751,8.93420408 8.88163103,8.86628639 9.20555102,8.73044898 C9.52947101,8.59461157 9.78372697,8.40653181 9.96832653,8.16620408 C10.1529261,7.92587635 10.2783126,7.64375672 10.3444898,7.31983673 C10.410667,6.99591675 10.4437551,6.64587943 10.4437551,6.26971429 C10.4437551,5.89354914 10.410667,5.54351182 10.3444898,5.21959184 C10.2783126,4.89567185 10.1529261,4.61355222 9.96832653,4.37322449 C9.78372697,4.13289676 9.52947101,3.94481701 9.20555102,3.80897959 C8.88163103,3.67314218 8.46541751,3.60522449 7.95689796,3.60522449 L6.67167347,3.60522449 L6.67167347,8.93420408 Z" id="D" fill="#FFFFFF"></path>
        </g>
    </g>
</svg>