<?xml version="1.0" encoding="UTF-8" standalone="no"?>
<svg width="10px" height="14px" viewBox="0 0 10 14" version="1.1" xmlns="http://www.w3.org/2000/svg" xmlns:xlink="http://www.w3.org/1999/xlink">
    <!-- Generator: Sketch 50.2 (55047) - http://www.bohemiancoding.com/sketch -->
    <title>Shape Copy 5</title>
    <desc>Created with Sketch.</desc>
    <defs></defs>
    <g id="手绘图标" stroke="none" stroke-width="1" fill="none" fill-rule="evenodd">
        <g id="Artboard" transform="translate(-286.000000, -165.000000)" fill="#000000" fill-rule="nonzero">
            <path d="M285.243342,176.972942 C284.962774,177.470333 284.201955,177.184464 284.318343,176.625385 C284.36467,176.40285 284.466749,176.029085 284.637776,175.553596 C284.92149,174.764814 285.300834,173.975979 285.790691,173.236798 C287.120596,171.230004 289.000066,169.962492 291.490005,169.813494 L291.490005,167.727289 C291.490005,167.296589 291.998255,167.067415 292.321039,167.352568 L297.138883,171.608725 C297.361126,171.805058 297.364633,172.150567 297.146422,172.351371 L292.328578,176.784869 C292.008107,177.079773 291.490005,176.852455 291.490005,176.416944 L291.490005,174.038753 C288.026944,174.090467 286.515053,174.718453 285.243342,176.972942 Z M291.990005,173.035171 C292.266147,173.035171 292.490005,173.259028 292.490005,173.535171 L292.490005,175.277344 L296.06122,171.991025 L292.490005,168.836159 L292.490005,170.298718 C292.490005,170.57486 292.266147,170.798718 291.990005,170.798718 C289.616574,170.798718 287.869397,171.910333 286.624263,173.789208 C286.540009,173.916345 286.459274,174.045327 286.381988,174.175803 C287.686945,173.305812 289.406946,173.035171 291.990005,173.035171 Z" id="Shape-Copy-5" transform="translate(290.807090, 172.227852) scale(1, -1) rotate(93.000000) translate(-290.807090, -172.227852) "></path>
        </g>
    </g>
</svg>