<?xml version="1.0" encoding="UTF-8" standalone="no"?>
<svg width="10px" height="13px" viewBox="0 0 10 13" version="1.1" xmlns="http://www.w3.org/2000/svg" xmlns:xlink="http://www.w3.org/1999/xlink">
    <!-- Generator: Sketch 50.2 (55047) - http://www.bohemiancoding.com/sketch -->
    <title>Group 9</title>
    <desc>Created with Sketch.</desc>
    <defs></defs>
    <g id="手绘图标" stroke="none" stroke-width="1" fill="none" fill-rule="evenodd">
        <g id="Artboard" transform="translate(-331.000000, -103.000000)" fill="#000000" fill-rule="nonzero">
            <g id="Group-9" transform="translate(331.000000, 103.000000)">
                <path d="M5.99979981,7.94117647 L5.99979981,5.34142678 C5.99979981,5.04904074 6.22361262,4.81201502 6.49969972,4.81201502 L8.30061543,4.81201502 L5,1.2818392 L1.69938457,4.81201502 L3.50030028,4.81201502 C3.77638738,4.81201502 4.00020019,5.04904074 4.00020019,5.34142678 L4.00020019,7.94117647 L5.99979981,7.94117647 Z M6.99959962,8.47058824 C6.99959962,8.76297428 6.77578681,9 6.49969972,9 L3.50030028,9 C3.22421319,9 3.00040038,8.76297428 3.00040038,8.47058824 L3.00040038,5.87083855 L0.500900852,5.87083855 C0.0567272965,5.87083855 -0.166846405,5.30318895 0.145676364,4.96892998 L4.64477551,0.156914958 C4.8403903,-0.0523049862 5.1596097,-0.0523049862 5.35522449,0.156914958 L9.85432364,4.96892998 C10.1668464,5.30318895 9.9432727,5.87083855 9.49909915,5.87083855 L6.99959962,5.87083855 L6.99959962,8.47058824 Z" id="Shape"></path>
                <g id="Group-5" transform="translate(3.000000, 10.000000)">
                    <path d="M4,0.3 L4,0.7 C4,0.865685425 3.86568542,1 3.7,1 L0.3,1 C0.134314575,1 7.58017638e-17,0.865685425 5.55111512e-17,0.7 L0,0.3 C-2.02906125e-17,0.134314575 0.134314575,3.04359188e-17 0.3,0 L3.7,0 C3.86568542,-3.04359188e-17 4,0.134314575 4,0.3 Z" id="Rectangle"></path>
                </g>
                <g id="Group-5-Copy" transform="translate(3.000000, 12.000000)">
                    <path d="M4,0.3 L4,0.7 C4,0.865685425 3.86568542,1 3.7,1 L0.3,1 C0.134314575,1 7.58017638e-17,0.865685425 5.55111512e-17,0.7 L0,0.3 C-2.02906125e-17,0.134314575 0.134314575,3.04359188e-17 0.3,0 L3.7,0 C3.86568542,-3.04359188e-17 4,0.134314575 4,0.3 Z" id="Rectangle"></path>
                </g>
            </g>
        </g>
    </g>
</svg>