<?xml version="1.0" encoding="UTF-8" standalone="no"?>
<svg width="16px" height="16px" viewBox="0 0 16 16" version="1.1" xmlns="http://www.w3.org/2000/svg" xmlns:xlink="http://www.w3.org/1999/xlink">
    <!-- Generator: Sketch 50.2 (55047) - http://www.bohemiancoding.com/sketch -->
    <title>history</title>
    <desc>Created with Sketch.</desc>
    <defs></defs>
    <g id="history" stroke="none" stroke-width="1" fill="none" fill-rule="evenodd" stroke-linecap="round" stroke-linejoin="round">
        <g id="Group-2" transform="translate(2.000000, 2.000000)" stroke="#000000">
            <g id="Group">
                <g transform="translate(0.000000, 3.272727)" id="Shape">
                    <path d="M0.0363636364,2.65454545 C0.0363636364,4 1.12727273,5.12727273 2.50909091,5.12727273 C3.89090909,5.12727273 4.98181818,4.03636364 4.98181818,2.65454545 C4.98181818,1.30909091 3.89090909,0.181818182 2.50909091,0.181818182 C1.12727273,0.181818182 0.0363636364,1.27272727 0.0363636364,2.65454545 Z"></path>
                    <polyline points="2.50909091 2 2.50909091 2.96335664 1.78181818 3.52727273"></polyline>
                </g>
                <g transform="translate(2.181818, 0.000000)" id="Shape">
                    <path d="M0.290909091,2.07272727 L0.290909091,0.8 C0.290909091,0.4 0.618181818,0.0727272727 1.01818182,0.0727272727 L6.8,0.0727272727"></path>
                    <path d="M9.70909091,3.05454545 L9.70909091,11.0909091 C9.70909091,11.4909091 9.38181818,11.8181818 8.98181818,11.8181818 L1.01818182,11.8181818 C0.618181818,11.8181818 0.290909091,11.4909091 0.290909091,11.0909091 L0.290909091,9.89090909"></path>
                    <polyline points="9.70909091 3.05454545 6.8 3.05454545 6.8 0.181818182"></polyline>
                    <path d="M6.8,0.0727272727 L9.70909091,3.05454545"></path>
                </g>
            </g>
        </g>
    </g>
</svg>