<?xml version="1.0" encoding="UTF-8" standalone="no"?>
<svg width="16px" height="16px" viewBox="0 0 16 16" version="1.1" xmlns="http://www.w3.org/2000/svg" xmlns:xlink="http://www.w3.org/1999/xlink">
    <!-- Generator: Sketch 50.2 (55047) - http://www.bohemiancoding.com/sketch -->
    <title>folder_setting</title>
    <desc>Created with Sketch.</desc>
    <defs></defs>
    <g id="folder_setting" stroke="none" stroke-width="1" fill="none" fill-rule="evenodd">
        <g id="文件夹" stroke="#000000">
            <path d="M1.5,4.48656605 L1.5,12 C1.5,12.2761424 1.72385763,12.5 2,12.5 L14,12.5 C14.2761424,12.5 14.5,12.2761424 14.5,12 L14.5,4.98656605 C14.5,4.71042368 14.2761424,4.48656605 14,4.48656605 L7.30565391,4.48656605 L6.66604108,2.56836773 C6.65242676,2.52753837 6.61421527,2.5 6.57117592,2.5 L2.00238656,2.5 C1.72647847,2.5 1.502718,2.72349212 1.50238692,2.99940001 L1.50060236,4.48656605 L1.5,4.48656605 Z" id="Combined-Shape"></path>
        </g>
        <g id="Group" transform="translate(6.000000, 6.000000)">
            <path d="M4.43333333,2.40625 C4.43333333,2.53125 4.43333333,2.65625 4.4,2.78125 L4.96666667,3.09375 L4.36666667,4.0625 L3.8,3.75 C3.6,3.90625 3.4,4.03125 3.13333333,4.125 L3.13333333,4.75 L1.93333333,4.75 L1.93333333,4.125 C1.7,4.0625 1.46666667,3.9375 1.26666667,3.75 L0.7,4.0625 L0.1,3.09375 L0.666666667,2.78125 C0.633333333,2.65625 0.633333333,2.53125 0.633333333,2.40625 C0.633333333,2.28125 0.633333333,2.15625 0.666666667,2.03125 L0.1,1.71875 L0.7,0.75 L1.26666667,1.0625 C1.46666667,0.90625 1.66666667,0.78125 1.93333333,0.6875 L1.93333333,0.0625 L3.13333333,0.0625 L3.13333333,0.6875 C3.36666667,0.75 3.6,0.875 3.8,1.0625 L4.36666667,0.75 L4.96666667,1.71875 L4.4,2.03125 C4.43333333,2.15625 4.43333333,2.28125 4.43333333,2.40625 Z" id="Shape" fill="#000000"></path>
            <ellipse id="Oval" stroke="#FFFFFF" stroke-width="0.5" fill="#FFFFFF" stroke-linecap="round" stroke-linejoin="round" cx="2.53333333" cy="2.40625" rx="1" ry="1"></ellipse>
        </g>
    </g>
</svg>