<?xml version="1.0" encoding="UTF-8" standalone="no"?>
<svg width="16px" height="16px" viewBox="0 0 16 16" version="1.1" xmlns="http://www.w3.org/2000/svg" xmlns:xlink="http://www.w3.org/1999/xlink">
    <!-- Generator: Sketch 50.2 (55047) - http://www.bohemiancoding.com/sketch -->
    <title>s</title>
    <desc>Created with Sketch.</desc>
    <defs></defs>
    <g id="s" stroke="none" stroke-width="1" fill="none" fill-rule="evenodd">
        <g id="文件夹"></g>
        <g id="Group-8" transform="translate(0.000000, 2.000000)">
            <rect id="Rectangle-2" fill="#2C9F67" x="0" y="0" width="16" height="12" rx="1.30612245"></rect>
            <path d="M6.65093878,7.51314286 C6.65093878,7.79874973 6.69970019,8.04255681 6.79722449,8.24457143 C6.89474879,8.44658604 7.03058416,8.61202657 7.20473469,8.74089796 C7.37888522,8.86976935 7.57915533,8.96380923 7.80555102,9.02302041 C8.03194671,9.08223159 8.27749528,9.11183673 8.54220408,9.11183673 C8.82781095,9.11183673 9.07161804,9.07874863 9.27363265,9.01257143 C9.47564727,8.94639423 9.63934631,8.86106175 9.76473469,8.75657143 C9.89012308,8.65208111 9.98067999,8.53191905 10.0364082,8.39608163 C10.0921363,8.26024422 10.12,8.12266736 10.12,7.98334694 C10.12,7.69774007 10.0555653,7.48702109 9.92669388,7.35118367 C9.79782248,7.21534626 9.65676267,7.1195649 9.5035102,7.06383673 C9.2388014,6.96631244 8.93055958,6.87401404 8.57877551,6.78693878 C8.22699144,6.69986351 7.79336312,6.58666736 7.27787755,6.44734694 C6.95744057,6.36375468 6.69099426,6.2540415 6.47853061,6.11820408 C6.26606696,5.98236667 6.09714348,5.83085798 5.9717551,5.66367347 C5.84636672,5.49648896 5.75755128,5.31885808 5.70530612,5.13077551 C5.65306096,4.94269294 5.62693878,4.75113023 5.62693878,4.55608163 C5.62693878,4.17991649 5.70530534,3.85425988 5.86204082,3.57910204 C6.01877629,3.3039442 6.22601232,3.07581043 6.4837551,2.89469388 C6.74149789,2.71357733 7.03406639,2.57948343 7.36146939,2.49240816 C7.68887239,2.4053329 8.01975343,2.36179592 8.35412245,2.36179592 C8.74421964,2.36179592 9.11167175,2.41229881 9.4564898,2.51330612 C9.80130785,2.61431343 10.1043252,2.76582212 10.365551,2.96783673 C10.6267768,3.16985135 10.8340128,3.41888287 10.9872653,3.71493878 C11.1405178,4.01099468 11.2171429,4.35406608 11.2171429,4.74416327 L9.91102041,4.74416327 C9.8761903,4.2635078 9.71249126,3.92391936 9.41991837,3.72538776 C9.12734548,3.52685615 8.75466893,3.42759184 8.30187755,3.42759184 C8.14862508,3.42759184 7.99189196,3.44326515 7.83167347,3.47461224 C7.67145498,3.50595934 7.52517073,3.55820372 7.39281633,3.63134694 C7.26046192,3.70449016 7.15074873,3.80375448 7.06367347,3.92914286 C6.9765982,4.05453124 6.93306122,4.21126437 6.93306122,4.39934694 C6.93306122,4.66405575 7.01491075,4.87129177 7.17861224,5.02106122 C7.34231374,5.17083068 7.55651568,5.28402683 7.82122449,5.36065306 C7.84908857,5.36761908 7.95880176,5.39722423 8.15036735,5.44946939 C8.34193293,5.50171455 8.55613487,5.55918336 8.79297959,5.62187755 C9.02982431,5.68457174 9.26144104,5.74552351 9.48783673,5.80473469 C9.71423242,5.86394587 9.87618999,5.90748285 9.97371429,5.93534694 C10.217525,6.01197317 10.4299855,6.11646192 10.611102,6.24881633 C10.7922186,6.38117073 10.9437273,6.53267942 11.0656327,6.70334694 C11.187538,6.87401446 11.2780949,7.05686977 11.3373061,7.25191837 C11.3965173,7.44696696 11.4261224,7.64201263 11.4261224,7.83706122 C11.4261224,8.2550225 11.34079,8.61202573 11.1701224,8.90808163 C10.9994549,9.20413753 10.7748041,9.44620314 10.4961633,9.63428571 C10.2175224,9.82236829 9.9005732,9.95994514 9.54530612,10.0470204 C9.19003904,10.1340957 8.82781137,10.1776327 8.45861224,10.1776327 C8.03368495,10.1776327 7.63314474,10.1253883 7.25697959,10.020898 C6.88081445,9.91640764 6.55341636,9.75619156 6.27477551,9.5402449 C5.99613466,9.32429824 5.77322533,9.04740305 5.60604082,8.70955102 C5.43885631,8.37169899 5.35178235,7.97290026 5.34481633,7.51314286 L6.65093878,7.51314286 Z" id="S" fill="#FFFFFF"></path>
        </g>
    </g>
</svg>