<?xml version="1.0" encoding="UTF-8" standalone="no"?>
<svg width="16px" height="16px" viewBox="0 0 16 16" version="1.1" xmlns="http://www.w3.org/2000/svg" xmlns:xlink="http://www.w3.org/1999/xlink">
    <!-- Generator: Sketch 50.2 (55047) - http://www.bohemiancoding.com/sketch -->
    <title>r</title>
    <desc>Created with Sketch.</desc>
    <defs></defs>
    <g id="r" stroke="none" stroke-width="1" fill="none" fill-rule="evenodd">
        <g id="文件夹"></g>
        <g id="Group-8" transform="translate(0.000000, 2.000000)">
            <rect id="Rectangle-2" fill="#17A8E2" x="0" y="0.326530612" width="16" height="12.0816327" rx="1.30612245"></rect>
            <path d="M5.36555102,2.53942857 L8.92865306,2.53942857 C9.75064357,2.53942857 10.3671272,2.71705945 10.7781224,3.07232653 C11.1891177,3.42759361 11.3946122,3.9221737 11.3946122,4.55608163 C11.3946122,4.91134872 11.3423679,5.2056587 11.2378776,5.43902041 C11.1333872,5.67238212 11.0114837,5.86046187 10.8721633,6.00326531 C10.7328428,6.14606874 10.595266,6.24881601 10.4594286,6.3115102 C10.3235912,6.3742044 10.2243268,6.4159999 10.1616327,6.43689796 L10.1616327,6.45779592 C10.273089,6.47172796 10.3932511,6.50655754 10.5221224,6.56228571 C10.6509938,6.61801388 10.7711559,6.70682932 10.8826122,6.82873469 C10.9940686,6.95064007 11.086367,7.10911467 11.1595102,7.30416327 C11.2326534,7.49921186 11.2692245,7.74301895 11.2692245,8.03559184 C11.2692245,8.47445117 11.3023126,8.87324991 11.3684898,9.232 C11.434667,9.59075009 11.5374143,9.84674753 11.6767347,10 L10.2765714,10 C10.1790471,9.83978151 10.1215783,9.66215064 10.1041633,9.46710204 C10.0867482,9.27205345 10.0780408,9.08397369 10.0780408,8.90285714 C10.0780408,8.5615221 10.0571431,8.26721212 10.0153469,8.01991837 C9.97355081,7.77262461 9.89692573,7.56713007 9.78546939,7.40342857 C9.67401305,7.23972707 9.52250436,7.11956501 9.33093878,7.04293878 C9.13937319,6.96631254 8.89382463,6.928 8.59428571,6.928 L6.67167347,6.928 L6.67167347,10 L5.36555102,10 L5.36555102,2.53942857 Z M6.67167347,5.93534694 L8.81371429,5.93534694 C9.23167556,5.93534694 9.54862477,5.83608263 9.76457143,5.63755102 C9.98051809,5.43901942 10.0884898,5.14122648 10.0884898,4.74416327 C10.0884898,4.50731854 10.0536602,4.31401435 9.984,4.1642449 C9.91433979,4.01447544 9.81855843,3.89779634 9.69665306,3.81420408 C9.57474769,3.73061183 9.43542936,3.67488449 9.27869388,3.64702041 C9.1219584,3.61915632 8.96000084,3.60522449 8.79281633,3.60522449 L6.67167347,3.60522449 L6.67167347,5.93534694 Z" id="R" fill="#FFFFFF"></path>
        </g>
    </g>
</svg>