<?xml version="1.0" encoding="UTF-8"?>
<svg width="24px" height="24px" viewBox="0 0 24 24" version="1.1" xmlns="http://www.w3.org/2000/svg" xmlns:xlink="http://www.w3.org/1999/xlink">
    <!-- Generator: Sketch 45.1 (43504) - http://www.bohemiancoding.com/sketch -->
    <title>Settings/Tab Icon/Proxy</title>
    <desc>Created with Sketch.</desc>
    <defs>
        <circle id="path-1" cx="12" cy="12" r="12"></circle>
        <filter x="-8.3%" y="-8.3%" width="116.7%" height="116.7%" filterUnits="objectBoundingBox" id="filter-2">
            <feMorphology radius="0.5" operator="erode" in="SourceAlpha" result="shadowSpreadInner1"></feMorphology>
            <feOffset dx="0" dy="0" in="shadowSpreadInner1" result="shadowOffsetInner1"></feOffset>
            <feComposite in="shadowOffsetInner1" in2="SourceAlpha" operator="arithmetic" k2="-1" k3="1" result="shadowInnerInner1"></feComposite>
            <feColorMatrix values="0 0 0 0 0.104626742   0 0 0 0 0.515111287   0 0 0 0 0.68359375  0 0 0 0.400956748 0" type="matrix" in="shadowInnerInner1" result="shadowMatrixInner1"></feColorMatrix>
            <feGaussianBlur stdDeviation="1.5" in="SourceAlpha" result="shadowBlurInner2"></feGaussianBlur>
            <feOffset dx="-1" dy="-1" in="shadowBlurInner2" result="shadowOffsetInner2"></feOffset>
            <feComposite in="shadowOffsetInner2" in2="SourceAlpha" operator="arithmetic" k2="-1" k3="1" result="shadowInnerInner2"></feComposite>
            <feColorMatrix values="0 0 0 0 0   0 0 0 0 0.400729852   0 0 0 0 0.75263074  0 0 0 0.302677763 0" type="matrix" in="shadowInnerInner2" result="shadowMatrixInner2"></feColorMatrix>
            <feMerge>
                <feMergeNode in="shadowMatrixInner1"></feMergeNode>
                <feMergeNode in="shadowMatrixInner2"></feMergeNode>
            </feMerge>
        </filter>
    </defs>
    <g id="Symbols" stroke="none" stroke-width="1" fill="none" fill-rule="evenodd">
        <g id="Settings/Tab-Icon/Proxy">
            <rect id="Rectangle-2" x="0" y="0" width="24" height="24"></rect>
            <circle id="Oval" fill="#95E4FF" cx="12" cy="12" r="12"></circle>
            <path d="M22.7469671,16.0933335 L23.6754147,15.1631298 L23.7225613,15.0704722 C23.5375959,15.6754767 23.3508201,16.2804812 23.0733907,16.8836253 L22.7469671,16.0933335 Z M23.2111909,12.8376205 L21.8185194,11.442315 L21.8185194,10.5121113 L22.7469671,11.442315 L24,13.5825277 C24,13.722421 23.9528534,13.8623143 23.9528534,13.9549719 L23.2111909,12.8376205 Z M20.425848,7.25639825 L21.8185194,7.72150011 L22.7469671,8.65170382 L21.3542956,7.72150011 L20.425848,8.18660197 L20.425848,7.25639825 Z M6.49913345,2.14027782 L6.49913345,3.07048154 L4.82718495,2.23292611 C5.01215028,2.09303277 5.24426219,1.95313944 5.47635553,1.81506 L6.49913345,2.14027782 Z M0.464223818,12.8376205 L0.928447636,13.3027224 L1.85689527,13.3027224 L3.24956672,14.2329261 L3.24956672,15.1631298 L2.78534291,16.0933335 L3.71379054,17.4886391 L5.106462,18.8839447 L5.57068581,19.8141484 L5.57068581,22.0924033 C2.41359247,20.0466993 0.232111909,16.6055967 3.19744231e-14,12.6052557 L0.464223818,12.8376205 Z M8.82006685,22.6046665 L9.28429067,21.209361 L10.2127383,20.7442591 L10.6769621,18.8838517 L11.6054098,17.4885461 L8.82006685,16.0932405 L8.35584303,14.6979349 L6.96317158,14.6979349 L6.49894776,13.7677312 L4.64205249,12.8375275 L3.71360485,14.2328331 L2.78515722,13.7677312 L2.78515722,12.8375275 L2.3209334,12.3724257 L2.3209334,11.4422219 L1.39248576,12.3724257 L0.464038128,11.9073238 L0.464038128,10.9771201 L1.85670958,10.0469164 L3.24938103,10.9771201 L4.17782867,10.0469164 L6.03472394,7.72140709 L7.42739539,7.25630523 L7.42739539,6.32610152 L8.82006685,6.79120337 L9.28429067,5.3958978 L8.82006685,4.46569409 L7.42739539,4.00059223 L6.96317158,4.93079594 L6.03472394,4.93079594 L6.03472394,5.86099966 L4.64205249,4.93079594 L5.10627631,4.46569409 L6.96317158,3.53549037 L7.89161921,2.60528666 L8.35584303,2.60528666 L7.89161921,3.53549037 L8.82006685,4.00059223 L9.74851448,3.07038852 L9.28429067,1.67508294 L7.89161921,1.67508294 L7.42739539,2.60528666 L6.96317158,1.67508294 L7.33491273,0.792133577 C7.70665387,0.652240241 8.03124845,0.512346904 8.40299889,0.374267465 L8.82007613,1.21000899 L9.74852377,1.21000899 L10.2127476,2.60531456 L10.2127476,3.53551828 L11.1411952,4.93082385 L11.605419,4.00062014 L12.9980905,3.07041642 L13.9265381,1.21000899 L14.2982793,0 C16.3872865,0.372444265 18.2913469,1.30265728 19.8216143,2.60531456 L18.1043575,3.07041642 L17.1759099,4.00062014 L16.2474622,4.46572199 L18.1043575,4.93082385 L19.0328051,4.93082385 L18.5685813,3.53551828 L19.497029,3.53551828 L19.0328051,5.39592571 L17.1759099,5.39592571 L16.2474622,5.86102757 L15.3190146,7.72143499 L14.8547908,7.72143499 L14.390567,8.18653685 L15.3190146,8.65163871 L16.7116861,7.25633314 L17.6401337,7.72143499 L18.5685813,8.65163871 L18.5685813,8.18653685 L18.1043575,7.25633314 L19.497029,8.18653685 L21.3539242,9.11674057 C21.3539242,9.11674057 22.2823719,10.0469443 21.8181481,10.0469443 C21.3539242,10.0469443 19.9612528,9.58184242 19.9612528,9.58184242 L18.5685813,10.0469443 L17.6401337,8.65163871 L15.7832384,8.65163871 L14.390567,9.11674057 L12.9978955,10.977148 L12.5336717,12.3724536 L12.9978955,14.232861 L14.390567,15.1630647 L16.2474622,14.6979629 L17.6401337,15.1630647 L17.6401337,16.5583703 L18.1043575,17.9536759 L17.6401337,18.8838796 L18.8931666,21.8597873 C16.943798,23.2096524 14.6226789,24 12.0695407,24 C10.7693427,24 9.46914459,23.7674491 8.30858505,23.3949955 L8.82006685,22.6046665 Z M15.319386,4.46578711 L16.2478336,5.86109268 L15.319386,5.86109268 L15.319386,6.32619454 L14.3909384,5.86109268 L15.319386,4.46578711 Z" id="Page-1" fill="#000000" opacity="0.5" style="mix-blend-mode: overlay;"></path>
            <g id="Border" fill-opacity="1" fill="black">
                <use filter="url(#filter-2)" xlink:href="#path-1"></use>
            </g>
        </g>
    </g>
</svg>