<?xml version="1.0" encoding="UTF-8"?>
<svg width="16px" height="14px" viewBox="0 0 16 14" version="1.1" xmlns="http://www.w3.org/2000/svg" xmlns:xlink="http://www.w3.org/1999/xlink">
    <!-- Generator: Sketch 50.2 (55047) - http://www.bohemiancoding.com/sketch -->
    <title>继续执行</title>
    <desc>Created with Sketch.</desc>
    <defs></defs>
    <g id="Paused-in-debugger" stroke="none" stroke-width="1" fill="none" fill-rule="evenodd">
        <g id="tips" transform="translate(-178.000000, -15.000000)" fill="#00B662" fill-rule="nonzero">
            <g id="Group-2" transform="translate(177.000000, 13.000000)">
                <path d="M1.75,2 L2.25,2 C2.66421356,2 3,2.33578644 3,2.75 L3,15.25 C3,15.6642136 2.66421356,16 2.25,16 L1.75,16 C1.33578644,16 1,15.6642136 1,15.25 L1,2.75 C1,2.33578644 1.33578644,2 1.75,2 Z M6.99999999,4.914 L13.915,9 L6.99999999,13.086 L6.99999999,4.914 Z M6.00000001,2 C5.44771526,2 5.00000001,2.44771526 5.00000001,3.00000001 L5.00000001,15 C5.00000001,15.5522848 5.44771526,16 6.00000001,16 L16.569,9.754 C16.8355533,9.59635276 16.9990628,9.30968257 16.9990628,9 C16.9990628,8.69031744 16.8355533,8.40364725 16.569,8.24600001 L6.00000001,2 Z" id="继续执行"></path>
            </g>
        </g>
    </g>
</svg>