<?xml version="1.0" encoding="UTF-8"?>
<svg width="44px" height="39px" viewBox="0 0 44 39" version="1.1" xmlns="http://www.w3.org/2000/svg" xmlns:xlink="http://www.w3.org/1999/xlink">
    <!-- Generator: Sketch 46 (44423) - http://www.bohemiancoding.com/sketch -->
    <title>HomeBlack@2x</title>
    <desc>Created with Sketch.</desc>
    <defs></defs>
    <g id="模拟器" stroke="none" stroke-width="1" fill="none" fill-rule="evenodd">
        <g id="Desktop-HD-Copy-5" transform="translate(-1156.000000, -290.000000)">
            <g id="Nav" transform="translate(582.000000, 283.000000)">
                <g id="HomeBlack@2x" transform="translate(574.000000, 7.000000)">
                    <path d="M9,37 L35,37 L35,21 L40.0893184,21 C40.5314974,21 40.8833102,20.9553231 41.1320814,20.8843456 C41.0114279,20.6574026 40.8012295,20.3746878 40.4968597,20.0577408 L24.7132867,3.62195399 C23.205183,2.05153196 20.7948255,2.05152309 19.2867133,3.62195399 L3.50314025,20.0577408 C3.19875167,20.3747074 2.98830884,20.6575354 2.86729023,20.8847173 C3.11637024,20.9554765 3.4683606,21 3.91068155,21 L9,21 L9,37 Z" id="Shape-2" stroke="#000000" stroke-width="4"></path>
                    <path d="M24.0018986,27 C25.1054196,27 26,27.8867064 26,28.9981014 L26,35 L18,35 L18,28.9981014 C18,27.8945804 18.8867064,27 19.9981014,27 L24.0018986,27 Z" id="Shape" fill="#000000"></path>
                </g>
            </g>
        </g>
    </g>
</svg>