<?xml version="1.0" encoding="UTF-8"?>
<svg width="24px" height="24px" viewBox="0 0 24 24" version="1.1" xmlns="http://www.w3.org/2000/svg" xmlns:xlink="http://www.w3.org/1999/xlink">
    <!-- Generator: Sketch 46.2 (44496) - http://www.bohemiancoding.com/sketch -->
    <title>Group</title>
    <desc>Created with Sketch.</desc>
    <defs>
        <linearGradient x1="50%" y1="100%" x2="50%" y2="3.061617e-15%" id="linearGradient-1">
            <stop stop-color="#F7F7F7" offset="0%"></stop>
            <stop stop-color="#FFFFFF" offset="100%"></stop>
        </linearGradient>
        <linearGradient x1="50%" y1="0%" x2="50%" y2="100%" id="linearGradient-2">
            <stop stop-color="#FFFFFF" stop-opacity="0.5" offset="0%"></stop>
            <stop stop-color="#000000" stop-opacity="0.5" offset="100%"></stop>
        </linearGradient>
        <rect id="path-3" x="0" y="0" width="22" height="22" rx="2"></rect>
        <filter x="-8.0%" y="-5.7%" width="115.9%" height="115.9%" filterUnits="objectBoundingBox" id="filter-5">
            <feOffset dx="0" dy="0.5" in="SourceAlpha" result="shadowOffsetOuter1"></feOffset>
            <feGaussianBlur stdDeviation="0.5" in="shadowOffsetOuter1" result="shadowBlurOuter1"></feGaussianBlur>
            <feColorMatrix values="0 0 0 0 0   0 0 0 0 0   0 0 0 0 0  0 0 0 0.15 0" type="matrix" in="shadowBlurOuter1"></feColorMatrix>
        </filter>
        <filter x="-5.7%" y="-3.4%" width="111.4%" height="111.4%" filterUnits="objectBoundingBox" id="filter-6">
            <feMorphology radius="0.5" operator="erode" in="SourceAlpha" result="shadowSpreadInner1"></feMorphology>
            <feOffset dx="0" dy="0" in="shadowSpreadInner1" result="shadowOffsetInner1"></feOffset>
            <feComposite in="shadowOffsetInner1" in2="SourceAlpha" operator="arithmetic" k2="-1" k3="1" result="shadowInnerInner1"></feComposite>
            <feColorMatrix values="0 0 0 0 0.705516582   0 0 0 0 0.705516582   0 0 0 0 0.705516582  0 0 0 1 0" type="matrix" in="shadowInnerInner1"></feColorMatrix>
        </filter>
        <path d="M9.33333333,10.4401544 L8.22007722,10.4401544 C7.60660354,10.4401544 7.08322825,10.2235114 6.64993565,9.79021879 C6.21664305,9.35692619 6,8.8335509 6,8.22007722 C6,7.60660354 6.21664305,7.08322825 6.64993565,6.64993565 C7.08322825,6.21664305 7.60660354,6 8.22007722,6 C8.8335509,6 9.35799868,6.21664305 9.79343629,6.64993565 C10.2288739,7.08322825 10.4465894,7.60660354 10.4465894,8.22007722 L10.4465894,9.33333333 L11.5598456,9.33333333 L11.5598456,8.22007722 C11.5598456,7.60660354 11.7764886,7.08322825 12.2097812,6.64993565 C12.6430738,6.21664305 13.1664491,6 13.7799228,6 C14.3933965,6 14.9167718,6.21664305 15.3500644,6.64993565 C15.7833569,7.08322825 16,7.60660354 16,8.22007722 C16,8.8335509 15.7833569,9.35692619 15.3500644,9.79021879 C14.9167718,10.2235114 14.3933965,10.4401544 13.7799228,10.4401544 L12.6666667,10.4401544 L12.6666667,11.5534106 L13.7799228,11.5534106 C14.3933965,11.5534106 14.9167718,11.7711261 15.3500644,12.2065637 C15.7833569,12.6420013 16,13.1664491 16,13.7799228 C16,14.3933965 15.7833569,14.9167718 15.3500644,15.3500644 C14.9167718,15.7833569 14.3933965,16 13.7799228,16 C13.1664491,16 12.6430738,15.7833569 12.2097812,15.3500644 C11.7764886,14.9167718 11.5598456,14.3933965 11.5598456,13.7799228 L11.5598456,12.6666667 L10.4465894,12.6666667 L10.4465894,13.7799228 C10.4465894,14.3933965 10.2288739,14.9167718 9.79343629,15.3500644 C9.35799868,15.7833569 8.8335509,16 8.22007722,16 C7.60660354,16 7.08322825,15.7833569 6.64993565,15.3500644 C6.21664305,14.9167718 6,14.3933965 6,13.7799228 C6,13.1664491 6.21664305,12.6420013 6.64993565,12.2065637 C7.08322825,11.7711261 7.60660354,11.5534106 8.22007722,11.5534106 L9.33333333,11.5534106 L9.33333333,10.4401544 Z M10.4465894,11.5534106 L11.5598456,11.5534106 L11.5598456,10.4401544 L10.4465894,10.4401544 L10.4465894,11.5534106 Z M9.33333333,9.33333333 L9.33333333,8.22007722 C9.33333333,7.91548539 9.22501181,7.65379775 9.00836551,7.43500644 C8.79171921,7.21621512 8.52895907,7.10682111 8.22007722,7.10682111 C7.91548539,7.10682111 7.65487024,7.21621512 7.43822394,7.43500644 C7.22157764,7.65379775 7.11325611,7.91548539 7.11325611,8.22007722 C7.11325611,8.52895907 7.22157764,8.79171921 7.43822394,9.00836551 C7.65487024,9.22501181 7.91548539,9.33333333 8.22007722,9.33333333 L9.33333333,9.33333333 Z M12.6666667,9.33333333 L13.7799228,9.33333333 C14.0888046,9.33333333 14.3515648,9.22393932 14.5682111,9.00514801 C14.7848574,8.78635669 14.8931789,8.52466905 14.8931789,8.22007722 C14.8931789,7.91548539 14.7837849,7.65379775 14.5649936,7.43500644 C14.3462023,7.21621512 14.0845146,7.10682111 13.7799228,7.10682111 C13.4710409,7.10682111 13.2082808,7.21621512 12.9916345,7.43500644 C12.7749882,7.65379775 12.6666667,7.91548539 12.6666667,8.22007722 L12.6666667,9.33333333 Z M12.6666667,12.6666667 L12.6666667,13.7799228 C12.6666667,14.0845146 12.7760607,14.3451298 12.994852,14.5617761 C13.2136433,14.7784224 13.475331,14.8867439 13.7799228,14.8867439 C14.0888046,14.8867439 14.3515648,14.7784224 14.5682111,14.5617761 C14.7848574,14.3451298 14.8931789,14.0823696 14.8931789,13.7734878 C14.8931789,13.4688959 14.7837849,13.2082808 14.5649936,12.9916345 C14.3462023,12.7749882 14.0845146,12.6666667 13.7799228,12.6666667 L12.6666667,12.6666667 Z M9.33333333,12.6666667 L8.22007722,12.6666667 C7.91548539,12.6666667 7.65487024,12.7749882 7.43822394,12.9916345 C7.22157764,13.2082808 7.11325611,13.4710409 7.11325611,13.7799228 C7.11325611,14.0845146 7.22157764,14.3451298 7.43822394,14.5617761 C7.65487024,14.7784224 7.91548539,14.8867439 8.22007722,14.8867439 C8.52895907,14.8867439 8.79171921,14.7784224 9.00836551,14.5617761 C9.22501181,14.3451298 9.33333333,14.0845146 9.33333333,13.7799228 L9.33333333,12.6666667 Z" id="path-7"></path>
        <filter x="-2.5%" y="-2.5%" width="105.0%" height="110.0%" filterUnits="objectBoundingBox" id="filter-8">
            <feOffset dx="0" dy="0.5" in="SourceAlpha" result="shadowOffsetOuter1"></feOffset>
            <feColorMatrix values="0 0 0 0 1   0 0 0 0 1   0 0 0 0 1  0 0 0 0.896484375 0" type="matrix" in="shadowOffsetOuter1"></feColorMatrix>
        </filter>
    </defs>
    <g id="Symbols" stroke="none" stroke-width="1" fill="none" fill-rule="evenodd">
        <g id="Settings/Tab-Icon/快捷键" transform="translate(0.000000, -1.000000)">
            <g id="Group" transform="translate(1.000000, 1.000000)">
                <mask id="mask-4" fill="white">
                    <use xlink:href="#path-3"></use>
                </mask>
                <g id="Rectangle">
                    <use fill="black" fill-opacity="1" filter="url(#filter-5)" xlink:href="#path-3"></use>
                    <use fill="url(#linearGradient-1)" fill-rule="evenodd" xlink:href="#path-3"></use>
                    <use fill-opacity="0.05" fill="url(#linearGradient-2)" fill-rule="evenodd" xlink:href="#path-3"></use>
                    <use fill="black" fill-opacity="1" filter="url(#filter-6)" xlink:href="#path-3"></use>
                </g>
                <g id="⌘" mask="url(#mask-4)">
                    <use fill="black" fill-opacity="1" filter="url(#filter-8)" xlink:href="#path-7"></use>
                    <use fill="#555555" fill-rule="evenodd" xlink:href="#path-7"></use>
                </g>
            </g>
        </g>
    </g>
</svg>