<?xml version="1.0" encoding="UTF-8"?>
<svg width="72px" height="72px" viewBox="0 0 72 72" version="1.1" xmlns="http://www.w3.org/2000/svg" xmlns:xlink="http://www.w3.org/1999/xlink">
    <!-- Generator: Sketch 46 (44423) - http://www.bohemiancoding.com/sketch -->
    <title>Group Copy</title>
    <desc>Created with Sketch.</desc>
    <defs>
        <linearGradient x1="50%" y1="0%" x2="50%" y2="100%" id="linearGradient-1">
            <stop stop-color="#F6F6FA" offset="0%"></stop>
            <stop stop-color="#F1EFED" offset="100%"></stop>
        </linearGradient>
        <path d="M42,0 L42,0 L42,0 C60.2253967,-3.34795107e-15 75,14.7746033 75,33 L75,33 L75,33 C75,51.2253967 60.2253967,66 42,66 L42,66 L42,66 C23.7746033,66 9,51.2253967 9,33 L9,33 L9,33 C9,14.7746033 23.7746033,3.34795107e-15 42,0 Z" id="path-2"></path>
        <filter x="-6.1%" y="-4.5%" width="112.1%" height="112.1%" filterUnits="objectBoundingBox" id="filter-3">
            <feMorphology radius="0.5" operator="dilate" in="SourceAlpha" result="shadowSpreadOuter1"></feMorphology>
            <feOffset dx="0" dy="1" in="shadowSpreadOuter1" result="shadowOffsetOuter1"></feOffset>
            <feGaussianBlur stdDeviation="1" in="shadowOffsetOuter1" result="shadowBlurOuter1"></feGaussianBlur>
            <feComposite in="shadowBlurOuter1" in2="SourceAlpha" operator="out" result="shadowBlurOuter1"></feComposite>
            <feColorMatrix values="0 0 0 0 0   0 0 0 0 0   0 0 0 0 0  0 0 0 0.447803442 0" type="matrix" in="shadowBlurOuter1"></feColorMatrix>
        </filter>
        <filter x="-5.3%" y="-3.8%" width="110.6%" height="110.6%" filterUnits="objectBoundingBox" id="filter-4">
            <feOffset dx="0" dy="2" in="SourceAlpha" result="shadowOffsetInner1"></feOffset>
            <feComposite in="shadowOffsetInner1" in2="SourceAlpha" operator="arithmetic" k2="-1" k3="1" result="shadowInnerInner1"></feComposite>
            <feColorMatrix values="0 0 0 0 1   0 0 0 0 1   0 0 0 0 1  0 0 0 0.5 0" type="matrix" in="shadowInnerInner1"></feColorMatrix>
        </filter>
        <linearGradient x1="50%" y1="0.219228316%" x2="50%" y2="99.1707473%" id="linearGradient-5">
            <stop stop-color="#2F3641" offset="0%"></stop>
            <stop stop-color="#221C2C" offset="100%"></stop>
        </linearGradient>
        <path d="M13,33 L13,33 L13,33 C13,49.0162577 25.9837423,62 42,62 L42,62 L42,62 C58.0162577,62 71,49.0162577 71,33 L71,33 L71,33 C71,16.9837423 58.0162577,4 42,4 L42,4 L42,4 C25.9837423,4 13,16.9837423 13,33 Z" id="path-6"></path>
        <filter x="-2.6%" y="-2.6%" width="105.2%" height="103.4%" filterUnits="objectBoundingBox" id="filter-7">
            <feOffset dx="0" dy="-1" in="SourceAlpha" result="shadowOffsetOuter1"></feOffset>
            <feColorMatrix values="0 0 0 0 0   0 0 0 0 0   0 0 0 0 0  0 0 0 0.101534194 0" type="matrix" in="shadowOffsetOuter1" result="shadowMatrixOuter1"></feColorMatrix>
            <feOffset dx="1" dy="0" in="SourceAlpha" result="shadowOffsetOuter2"></feOffset>
            <feColorMatrix values="0 0 0 0 0   0 0 0 0 0   0 0 0 0 0  0 0 0 0.1 0" type="matrix" in="shadowOffsetOuter2" result="shadowMatrixOuter2"></feColorMatrix>
            <feOffset dx="-1" dy="0" in="SourceAlpha" result="shadowOffsetOuter3"></feOffset>
            <feColorMatrix values="0 0 0 0 0   0 0 0 0 0   0 0 0 0 0  0 0 0 0.1 0" type="matrix" in="shadowOffsetOuter3" result="shadowMatrixOuter3"></feColorMatrix>
            <feMerge>
                <feMergeNode in="shadowMatrixOuter1"></feMergeNode>
                <feMergeNode in="shadowMatrixOuter2"></feMergeNode>
                <feMergeNode in="shadowMatrixOuter3"></feMergeNode>
            </feMerge>
        </filter>
        <path d="M13,33 L13,33 L13,33 C13,49.0162577 25.9837423,62 42,62 L42,62 L42,62 C58.0162577,62 71,49.0162577 71,33 L71,33 L71,33 C71,16.9837423 58.0162577,4 42,4 L42,4 L42,4 C25.9837423,4 13,16.9837423 13,33 Z" id="path-8"></path>
        <filter x="-0.9%" y="-0.9%" width="101.7%" height="101.7%" filterUnits="objectBoundingBox" id="filter-9">
            <feGaussianBlur stdDeviation="0.5" in="SourceAlpha" result="shadowBlurInner1"></feGaussianBlur>
            <feOffset dx="0" dy="0" in="shadowBlurInner1" result="shadowOffsetInner1"></feOffset>
            <feComposite in="shadowOffsetInner1" in2="SourceAlpha" operator="arithmetic" k2="-1" k3="1" result="shadowInnerInner1"></feComposite>
            <feColorMatrix values="0 0 0 0 1   0 0 0 0 1   0 0 0 0 1  0 0 0 0.16 0" type="matrix" in="shadowInnerInner1"></feColorMatrix>
        </filter>
        <linearGradient x1="50%" y1="0%" x2="50%" y2="100%" id="linearGradient-10">
            <stop stop-color="#FFFFFF" offset="0%"></stop>
            <stop stop-color="#E6E8F3" offset="100%"></stop>
        </linearGradient>
        <path d="M47.9166635,22 C46.5387546,22 45.2557214,22.3580846 44.1666731,22.9673742 C42.1686091,24.0850949 40.8333269,26.0611462 40.8333269,28.3148401 L40.8333269,37.6851599 C40.8333269,39.3727489 39.1543373,40.7407338 37.0833365,40.7407338 C35.0122395,40.7407338 33.3333462,39.3727489 33.3333462,37.6851599 C33.3333462,36.4841746 34.1857829,35.4480249 35.4227255,34.9486257 C35.5120201,34.9125915 35.6024695,34.878533 35.695613,34.8483319 C36.4741507,34.5430286 37.1421286,33.9692088 37.3900945,33.3029983 C37.7561255,32.3197239 37.0745803,31.5226422 35.8678516,31.5226422 C35.5671557,31.5226422 35.2621298,31.5723187 34.9679771,31.661981 C34.9665338,31.6623573 34.9651866,31.6627337 34.9637433,31.66311 C33.2193223,32.1529125 31.762992,33.2268841 30.8889051,34.6296802 C30.324078,35.5358996 30,36.5769417 30,37.6851599 C30,41.1672176 33.1775616,44 37.0833365,44 C38.4611491,44 39.7441824,43.6418213 40.8333269,43.0326258 C42.8312947,41.9149051 44.1666731,39.9387597 44.1666731,37.6851599 L44.1666731,28.3148401 C44.1666731,26.6272511 45.8455664,25.2592662 47.9166635,25.2592662 C49.9876643,25.2592662 51.6666538,26.6272511 51.6666538,28.3148401 C51.6666538,29.5671954 50.7419539,30.6435191 49.4185071,31.1154456 C48.564627,31.395064 47.8648957,31.9993671 47.598455,32.71516 C47.2340598,33.6940124 47.9125259,34.4874248 49.1137699,34.4874248 C49.3859838,34.4874248 49.6606996,34.441888 49.9286797,34.3674674 C49.9725573,34.3558009 50.0157613,34.3426291 50.0593502,34.33021 C51.7933791,33.8374909 53.2408569,32.7668122 54.1109986,31.3704139 C54.6758258,30.4641004 55,29.4230583 55,28.3148401 C55,24.8327824 51.8224384,22 47.9166635,22" id="path-11"></path>
        <filter x="-26.0%" y="-25.0%" width="152.0%" height="159.1%" filterUnits="objectBoundingBox" id="filter-12">
            <feOffset dx="0" dy="1" in="SourceAlpha" result="shadowOffsetOuter1"></feOffset>
            <feGaussianBlur stdDeviation="2" in="shadowOffsetOuter1" result="shadowBlurOuter1"></feGaussianBlur>
            <feColorMatrix values="0 0 0 0 0   0 0 0 0 0   0 0 0 0 0  0 0 0 0.5 0" type="matrix" in="shadowBlurOuter1"></feColorMatrix>
        </filter>
    </defs>
    <g id="弹框-控件" stroke="none" stroke-width="1" fill="none" fill-rule="evenodd">
        <g id="Modal" transform="translate(-29.000000, -30.000000)">
            <g id="Group" transform="translate(23.000000, 25.000000)">
                <g id="Group-Copy" transform="translate(0.000000, 7.000000)">
                    <g id="iTerm">
                        <g id="Rectangle">
                            <use fill="black" fill-opacity="1" filter="url(#filter-3)" xlink:href="#path-2"></use>
                            <use fill="url(#linearGradient-1)" fill-rule="evenodd" xlink:href="#path-2"></use>
                            <use fill="black" fill-opacity="1" filter="url(#filter-4)" xlink:href="#path-2"></use>
                            <path stroke-opacity="0.0561311141" stroke="#000000" stroke-width="0.5" d="M42,-0.25 C60.3634679,-0.25 75.25,14.6365321 75.25,33 C75.25,51.3634679 60.3634679,66.25 42,66.25 C23.6365321,66.25 8.75,51.3634679 8.75,33 C8.75,14.6365321 23.6365321,-0.25 42,-0.25 Z"></path>
                        </g>
                        <g id="Rectangle-32">
                            <use fill="black" fill-opacity="1" filter="url(#filter-7)" xlink:href="#path-6"></use>
                            <use fill="url(#linearGradient-5)" fill-rule="evenodd" xlink:href="#path-6"></use>
                        </g>
                        <g id="Rectangle-32" fill-opacity="1" fill="black">
                            <use filter="url(#filter-9)" xlink:href="#path-8"></use>
                        </g>
                        <g id="Fill-6">
                            <use fill="black" fill-opacity="1" filter="url(#filter-12)" xlink:href="#path-11"></use>
                            <use fill="url(#linearGradient-10)" fill-rule="evenodd" xlink:href="#path-11"></use>
                        </g>
                    </g>
                </g>
            </g>
        </g>
    </g>
</svg>