<?xml version="1.0" encoding="UTF-8"?>
<svg width="14px" height="14px" viewBox="0 0 14 14" version="1.1" xmlns="http://www.w3.org/2000/svg" xmlns:xlink="http://www.w3.org/1999/xlink">
    <!-- Generator: Sketch 50.2 (55047) - http://www.bohemiancoding.com/sketch -->
    <title>Path Copy</title>
    <desc>Created with Sketch.</desc>
    <defs></defs>
    <g id="icon" stroke="none" stroke-width="1" fill="none" fill-rule="evenodd">
        <g id="审查页面的结构" transform="translate(-1.000000, -1.000000)" fill="#6E6E6E">
            <g id="Path-Copy">
                <path d="M13.3805101,8.28077412 C13.7502599,8.28077412 14.0500002,8.53986619 14.0500002,8.93720722 L14.0500002,13.3305388 C14.0500002,13.7278959 13.7502599,14.0500002 13.374589,14.0500002 L1.66947515,14.0500002 C1.29974029,14.0500002 1,13.7278799 1.00049218,13.3094937 C1.00016406,5.5875178 1,1.72417903 1,1.7194774 C1,1.32212034 1.29974027,1.00000002 1.66947515,1.00000002 L5.70532227,1 C6.07507205,1 6.37304688,1.32212032 6.37304688,1.71947738 C6.37304688,2.1168184 6.07507205,2.43893873 5.70532227,2.43893873 L2.3394574,2.43893873 L2.3394574,12.6110935 L12.711035,12.6110935 L12.711035,8.93720722 C12.711035,8.5398662 13.0107752,8.28077412 13.3805101,8.28077412 Z M6.079157,8.92530937 C6.03475186,8.88583812 6,8.84121846 6,8.83628455 C6,8.7918794 8.67953967,1.26724462 8.72415934,1.18315371 C8.83785368,0.975500644 8.97128365,1.09412889 9.63371408,1.99403033 C9.98466491,2.47841114 10.6076817,3.25237589 10.6424336,3.28712775 C10.6917726,3.3364668 10.9554101,3.06022196 11.8797665,2.13565099 C12.5125935,1.50282399 12.9512292,1 12.9758987,1 C13.040254,1 14.0991247,2.0712957 14.0991247,2.13565099 C14.0991247,2.16032051 13.5144436,2.65923465 12.8865505,3.28712775 C12.2586574,3.91995474 11.7431909,4.37602611 11.7631411,4.40562955 C11.7779428,4.43029907 12.4814356,4.98998351 12.9758987,5.34608277 C13.4654279,5.70690142 13.8805195,6.03318273 13.8955358,6.07780239 C13.9152714,6.11727363 13.9054036,6.18162892 13.880734,6.22110017 C13.8461967,6.28030703 6.34644597,8.98966465 6.18813196,8.99953247 C6.16818182,9.00446637 6.11862825,8.96971452 6.079157,8.92530937 Z" transform="translate(7.549562, 7.525000) scale(1, -1) translate(-7.549562, -7.525000) "></path>
            </g>
        </g>
    </g>
</svg>