<?xml version="1.0" encoding="UTF-8"?>
<svg width="18px" height="18px" viewBox="0 0 18 18" version="1.1" xmlns="http://www.w3.org/2000/svg" xmlns:xlink="http://www.w3.org/1999/xlink">
    <!-- Generator: Sketch 46 (44423) - http://www.bohemiancoding.com/sketch -->
    <title>Fill 1</title>
    <desc>Created with Sketch.</desc>
    <defs></defs>
    <g id="全局查找" stroke="none" stroke-width="1" fill="none" fill-rule="evenodd" fill-opacity="0.6">
        <g id="Desktop-HD-Copy-2" transform="translate(-764.000000, -194.000000)" fill="#000000">
            <g id="Group-10-Copy-6" transform="translate(740.000000, 173.000000)">
                <path d="M36.8360157,32.3859992 L41.7106991,37.2606827 C41.9059613,37.4559449 41.9059613,37.7725273 41.7106991,37.9677895 L40.9677895,38.7106991 C40.7725273,38.9059613 40.4559449,38.9059613 40.2606827,38.7106991 L35.3859992,33.8360157 C34.1975917,34.724123 32.7227097,35.25 31.125,35.25 C27.1899643,35.25 24,32.0600357 24,28.125 C24,24.1899643 27.1899643,21 31.125,21 C35.0600357,21 38.25,24.1899643 38.25,28.125 C38.25,29.7227097 37.724123,31.1975917 36.8360157,32.3859992 Z M36.75,28.125 C36.75,25.0183929 34.2316071,22.5 31.125,22.5 C28.0183929,22.5 25.5,25.0183929 25.5,28.125 C25.5,31.2316071 28.0183929,33.75 31.125,33.75 C34.2316071,33.75 36.75,31.2316071 36.75,28.125 Z" id="Fill-1"></path>
            </g>
        </g>
    </g>
</svg>