<?xml version="1.0" encoding="UTF-8"?>
<svg width="45px" height="15px" viewBox="0 0 45 15" version="1.1" xmlns="http://www.w3.org/2000/svg" xmlns:xlink="http://www.w3.org/1999/xlink">
    <!-- Generator: Sketch 46 (44423) - http://www.bohemiancoding.com/sketch -->
    <title>menu_black@2x</title>
    <desc>Created with Sketch.</desc>
    <defs></defs>
    <g id="模拟器" stroke="none" stroke-width="1" fill="none" fill-rule="evenodd">
        <g id="Desktop-HD-Copy-5" transform="translate(-1238.000000, -302.000000)" fill="#000000">
            <g id="Nav" transform="translate(582.000000, 283.000000)">
                <path d="M666,27 C666,29.761 663.761,32 661,32 C658.239,32 656,29.761 656,27 C656,24.238 658.239,22 661,22 C663.761,22 666,24.238 666,27 Z M678.5,19 C682.6415,19 686,22.357 686,26.5 C686,30.6415 682.6415,34 678.5,34 C674.3585,34 671,30.6415 671,26.5 C671,22.357 674.3585,19 678.5,19 Z M696,22 C698.761,22 701,24.238 701,27 C701,29.761 698.761,32 696,32 C693.239,32 691,29.761 691,27 C691,24.238 693.239,22 696,22 Z" id="menu_black@2x"></path>
            </g>
        </g>
    </g>
</svg>