<?xml version="1.0" encoding="UTF-8"?>
<svg width="12px" height="11px" viewBox="0 0 12 11" version="1.1" xmlns="http://www.w3.org/2000/svg" xmlns:xlink="http://www.w3.org/1999/xlink">
    <!-- Generator: Sketch 46 (44423) - http://www.bohemiancoding.com/sketch -->
    <title>Page-1</title>
    <desc>Created with Sketch.</desc>
    <defs></defs>
    <g id="模拟器" stroke="none" stroke-width="1" fill="none" fill-rule="evenodd">
        <g id="Desktop-HD-Copy-6" transform="translate(-99.000000, -497.000000)" fill="#7586DB">
            <g id="图" transform="translate(28.000000, 160.000000)">
                <g id="Group-3" transform="translate(9.333333, 85.666667)">
                    <g id="Bubble" transform="translate(45.500000, 0.000000)">
                        <g id="来源" transform="translate(2.500000, 247.000000)">
                            <path d="M21.8833333,5 C21.27705,5 20.7125667,5.16413426 20.2333333,5.44329321 C19.35425,5.95567593 18.7666667,6.86130864 18.7666667,7.89429012 L18.7666667,12.1890432 C18.7666667,12.9624722 18.0278333,13.5895062 17.1166667,13.5895062 C16.2053167,13.5895062 15.4666667,12.9624722 15.4666667,12.1890432 C15.4666667,11.6385679 15.8417667,11.1637176 16.3860833,10.9347886 C16.4253167,10.9183565 16.4651,10.9026713 16.5059833,10.8888534 C16.8486333,10.7488071 17.1425167,10.4858935 17.2516,10.1805926 C17.41275,9.72983025 17.1128167,9.36458951 16.5818833,9.36458951 C16.4495167,9.36458951 16.3153167,9.38737037 16.1858833,9.42845062 C16.1853333,9.42863735 16.1847833,9.42882407 16.18405,9.4290108 C15.4164333,9.65345833 14.7756833,10.1456744 14.39105,10.7885802 C14.1426333,11.2040509 14,11.681142 14,12.1890432 C14,13.7850108 15.3981,15.0833333 17.1166667,15.0833333 C17.72295,15.0833333 18.2874333,14.9191991 18.7666667,14.6400401 C19.64575,14.1276574 20.2333333,13.2220247 20.2333333,12.1890432 L20.2333333,7.89429012 C20.2333333,7.12086111 20.9719833,6.49382716 21.8833333,6.49382716 C22.7945,6.49382716 23.5333333,7.12086111 23.5333333,7.89429012 C23.5333333,8.46829321 23.1265167,8.96162963 22.5440667,9.17786111 C22.1684167,9.30614352 21.8606,9.58306173 21.7432667,9.91114352 C21.5830333,10.3596651 21.8815,10.723412 22.41005,10.723412 C22.5297667,10.723412 22.6507667,10.7024985 22.76865,10.6685139 C22.7879,10.6630988 22.8069667,10.6571235 22.8260333,10.6513349 C23.5890667,10.4255802 24.2259667,9.93485802 24.6087667,9.29475309 C24.8573667,8.87946914 25,8.40219136 25,7.89429012 C25,6.29832253 23.6019,5 21.8833333,5" id="Page-1"></path>
                        </g>
                    </g>
                </g>
            </g>
        </g>
    </g>
</svg>