<?xml version="1.0" encoding="UTF-8"?>
<svg width="18px" height="18px" viewBox="0 0 18 18" version="1.1" xmlns="http://www.w3.org/2000/svg" xmlns:xlink="http://www.w3.org/1999/xlink">
    <!-- Generator: Sketch 45.2 (43514) - http://www.bohemiancoding.com/sketch -->
    <title>Fill 6</title>
    <desc>Created with Sketch.</desc>
    <defs></defs>
    <g id="Page-1" stroke="none" stroke-width="1" fill="none" fill-rule="evenodd">
        <g id="Desktop-HD-Copy-3" transform="translate(-1045.000000, -461.000000)" fill="#FFFFFF">
            <g id="Group-2-Copy-4" transform="translate(1009.000000, 213.000000)">
                <g id="Group-4" transform="translate(20.000000, 236.000000)">
                    <g id="Group-3">
                        <path d="M26.2000046,12.7123391 C24.7613985,13.5353881 23.7999954,14.9904804 23.7999954,16.6500186 L23.7999954,25.3499814 C23.7999954,26.5926606 22.5911229,27.5999949 21.1000023,27.5999949 C19.6088125,27.5999949 18.4000092,26.5926606 18.4000092,25.3499814 C18.4000092,24.4656195 19.0137637,23.7026365 19.9043624,23.3348971 C19.9686545,23.3083628 20.033778,23.2832834 20.1008414,23.2610444 C20.6613885,23.0362301 21.1423326,22.6136901 21.320868,22.1231169 C21.5844104,21.3990694 21.0936978,20.8121275 20.2248532,20.8121275 C20.0083521,20.8121275 19.7887335,20.8487074 19.5769435,20.9147315 C18.317912,21.2762356 17.2693542,22.0670692 16.6400117,23.1000372 C16.2333362,23.7673442 16,24.5339298 16,25.3499814 C16,27.9140421 18.2878444,30 21.1000023,30 C22.0920274,30 23.0158113,29.7362502 23.7999954,29.2876609 C25.2385322,28.4646119 26.2000046,27.0094503 26.2000046,25.3499814 L26.2000046,16.6500186 C26.2000046,15.4073394 27.4088078,14.4000051 28.8999977,14.4000051 C30.3911183,14.4000051 31.5999908,15.4073394 31.5999908,16.6500186 C31.5999908,17.5722075 30.9342068,18.3647732 29.9813251,18.7122827 C29.3665314,18.9181835 28.8627249,19.3631703 28.6708876,19.8902542 C28.408523,20.6110455 28.8970186,21.1952855 29.7619143,21.1952855 C29.9579083,21.1952855 30.1557037,21.1617539 30.3486494,21.1069533 C30.3802412,21.0983625 30.4113481,21.0886633 30.4427321,21.0795183 C31.691233,20.7166978 32.733417,19.928289 33.359919,18.9000321 C33.7665946,18.2326558 34,17.4660702 34,16.6500186 C34,14.0859579 31.7121556,12 28.8999977,12 C27.9079033,12 26.9841194,12.2636805 26.2000046,12.7123391 Z" id="Fill-6"></path>
                    </g>
                </g>
            </g>
        </g>
    </g>
</svg>