<?xml version="1.0" encoding="UTF-8"?>
<svg width="10px" height="12px" viewBox="0 0 10 12" version="1.1" xmlns="http://www.w3.org/2000/svg" xmlns:xlink="http://www.w3.org/1999/xlink">
    <!-- Generator: Sketch 50 (54983) - http://www.bohemiancoding.com/sketch -->
    <title>Group 6</title>
    <desc>Created with Sketch.</desc>
    <defs></defs>
    <g id="汇总" stroke="none" stroke-width="1" fill="none" fill-rule="evenodd">
        <g id="Artboard" transform="translate(-855.000000, -1162.000000)">
            <g id="树--图标" transform="translate(785.000000, 1160.000000)">
                <g id="文件夹" transform="translate(67.000000, 0.000000)">
                    <g id="Group-6" transform="translate(3.000000, 2.000000)">
                        <path d="M0.6,0.5 C0.544771525,0.5 0.5,0.544771525 0.5,0.6 L0.5,11.4 C0.5,11.4552285 0.544771525,11.5 0.6,11.5 L9.4,11.5 C9.45522847,11.5 9.5,11.4552285 9.5,11.4 L9.5,0.6 C9.5,0.544771525 9.45522847,0.5 9.4,0.5 L0.6,0.5 Z" id="Rectangle" stroke="#000000"></path>
                        <rect id="Rectangle-12" fill="#000000" x="1" y="2" width="1" height="1"></rect>
                        <rect id="Rectangle-12-Copy" fill="#000000" x="1" y="4" width="1" height="1"></rect>
                        <rect id="Rectangle-12-Copy-2" fill="#000000" x="1" y="6" width="1" height="1"></rect>
                        <rect id="Rectangle-12-Copy-3" fill="#000000" x="1" y="8" width="1" height="1"></rect>
                        <rect id="Rectangle-12-Copy-4" fill="#000000" x="1" y="10" width="1" height="1"></rect>
                        <rect id="Rectangle-7" fill="#000000" x="2" y="1" width="1" height="10"></rect>
                    </g>
                </g>
            </g>
        </g>
    </g>
</svg>