<?xml version="1.0" encoding="UTF-8"?>
<svg width="19px" height="19px" viewBox="0 0 19 19" version="1.1" xmlns="http://www.w3.org/2000/svg" xmlns:xlink="http://www.w3.org/1999/xlink">
    <!-- Generator: Sketch 50.2 (55047) - http://www.bohemiancoding.com/sketch -->
    <title>Project Copy 2</title>
    <desc>Created with Sketch.</desc>
    <defs></defs>
    <g id="UI-Kit" stroke="none" stroke-width="1" fill="none" fill-rule="evenodd">
        <g id="Artboard" transform="translate(-1134.000000, -400.000000)">
            <g id="Group-6-Copy" transform="translate(1135.000000, 403.000000)">
                <g id="Group-7">
                    <path d="M11.5814503,9.95069325 C13.0571086,8.91165541 14,7.37467535 14,5.66723938 C14,2.5369401 10.8660768,0 7,0 C3.13416999,0 0,2.5369401 0,5.66723938 C0,8.79705918 3.13416999,11.3344788 7,11.3344788 C7.79878027,11.3344788 8.57016956,11.2234786 9.28480276,11.0235346 C9.34994888,11.0043553 9.41904325,10.9938067 9.49085205,10.9938067 C9.62509254,10.9938067 9.74724151,11.0336037 9.86248105,11.0980941 L11.3946487,11.9578056 C11.4375859,11.9815399 11.4790425,12 11.5296295,12 C11.6586879,12 11.7630698,11.8983498 11.7630698,11.7734447 C11.7630698,11.7171055 11.7398738,11.6612459 11.7253146,11.6077836 C11.7164311,11.5756583 11.5279021,10.8914372 11.4099482,10.4644584 C11.3966228,10.4165102 11.3852716,10.3702401 11.3852716,10.3198945 C11.3852716,10.1676589 11.462756,10.0326847 11.5814503,9.95069325" id="Fill-1" stroke="#191919" stroke-width="0.875" transform="translate(7.000000, 6.000000) scale(-1, 1) translate(-7.000000, -6.000000) "></path>
                    <path d="M9.44995065,4.76029888 C8.93445729,4.76029888 8.51668312,4.35441723 8.51668312,3.85359811 C8.51668312,3.352779 8.93445729,2.94689735 9.44995065,2.94689735 C9.965444,2.94689735 10.3834649,3.352779 10.3834649,3.85359811 C10.3834649,4.35441723 9.965444,4.76029888 9.44995065,4.76029888" id="Path" fill="#191919"></path>
                    <path d="M4.78311947,4.76029888 C4.26762611,4.76029888 3.84985194,4.35441723 3.84985194,3.85359811 C3.84985194,3.352779 4.26762611,2.94689735 4.78311947,2.94689735 C5.29861282,2.94689735 5.716387,3.352779 5.716387,3.85359811 C5.716387,4.35441723 5.29861282,4.76029888 4.78311947,4.76029888" id="Path" fill="#191919"></path>
                    <polygon id="Rectangle-7" fill="#FFFFFF" points="11.4657864 5.43044658 15 5.43044658 15 12 8.12206845 12 6.20912634 10.6376016 9 6.94306253"></polygon>
                    <path d="M11.1605248,11.3667546 L8,9.93865435 L8,9.14050132 L11.1605248,7.69261214 L11.1605248,8.63258575 L9.09707687,9.52968338 L11.1605248,10.4333773 L11.1605248,11.3667546 Z M11.7710144,12 L13.0810108,7 L14.1311732,7 L12.8067416,12 L11.7710144,12 Z M14.6022417,11.3700528 L14.6022417,10.4366755 L16.8013165,9.51992057 L14.6022417,8.62598945 L14.6022417,7.69920844 L17.8983934,9.12744036 L17.8983934,9.91899709 L14.6022417,11.3700528 Z" id="&lt;/&gt;" fill="#191919"></path>
                </g>
            </g>
        </g>
    </g>
</svg>