<?xml version="1.0" encoding="UTF-8"?>
<svg width="72px" height="72px" viewBox="0 0 72 72" version="1.1" xmlns="http://www.w3.org/2000/svg" xmlns:xlink="http://www.w3.org/1999/xlink">
    <!-- Generator: Sketch 50.2 (55047) - http://www.bohemiancoding.com/sketch -->
    <title>Group 2</title>
    <desc>Created with Sketch.</desc>
    <defs>
        <linearGradient x1="50%" y1="0%" x2="50%" y2="100%" id="linearGradient-1">
            <stop stop-color="#F6F6FA" offset="0%"></stop>
            <stop stop-color="#F1EFED" offset="100%"></stop>
        </linearGradient>
        <path d="M42,0 L42,0 C60.2253967,-3.34795107e-15 75,14.7746033 75,33 L75,33 C75,51.2253967 60.2253967,66 42,66 L42,66 C23.7746033,66 9,51.2253967 9,33 L9,33 C9,14.7746033 23.7746033,3.34795107e-15 42,0 Z" id="path-2"></path>
        <filter x="-6.1%" y="-4.5%" width="112.1%" height="112.1%" filterUnits="objectBoundingBox" id="filter-3">
            <feMorphology radius="0.5" operator="dilate" in="SourceAlpha" result="shadowSpreadOuter1"></feMorphology>
            <feOffset dx="0" dy="1" in="shadowSpreadOuter1" result="shadowOffsetOuter1"></feOffset>
            <feGaussianBlur stdDeviation="1" in="shadowOffsetOuter1" result="shadowBlurOuter1"></feGaussianBlur>
            <feComposite in="shadowBlurOuter1" in2="SourceAlpha" operator="out" result="shadowBlurOuter1"></feComposite>
            <feColorMatrix values="0 0 0 0 0   0 0 0 0 0   0 0 0 0 0  0 0 0 0.447803442 0" type="matrix" in="shadowBlurOuter1"></feColorMatrix>
        </filter>
        <filter x="-5.3%" y="-3.8%" width="110.6%" height="110.6%" filterUnits="objectBoundingBox" id="filter-4">
            <feOffset dx="0" dy="2" in="SourceAlpha" result="shadowOffsetInner1"></feOffset>
            <feComposite in="shadowOffsetInner1" in2="SourceAlpha" operator="arithmetic" k2="-1" k3="1" result="shadowInnerInner1"></feComposite>
            <feColorMatrix values="0 0 0 0 1   0 0 0 0 1   0 0 0 0 1  0 0 0 0.5 0" type="matrix" in="shadowInnerInner1"></feColorMatrix>
        </filter>
        <linearGradient x1="50%" y1="0.219228316%" x2="50%" y2="99.1707473%" id="linearGradient-5">
            <stop stop-color="#2F3641" offset="0%"></stop>
            <stop stop-color="#221C2C" offset="100%"></stop>
        </linearGradient>
        <path d="M13,33 L13,33 C13,49.0162577 25.9837423,62 42,62 L42,62 C58.0162577,62 71,49.0162577 71,33 L71,33 C71,16.9837423 58.0162577,4 42,4 L42,4 C25.9837423,4 13,16.9837423 13,33 Z" id="path-6"></path>
        <filter x="-2.6%" y="-2.6%" width="105.2%" height="103.4%" filterUnits="objectBoundingBox" id="filter-7">
            <feOffset dx="0" dy="-1" in="SourceAlpha" result="shadowOffsetOuter1"></feOffset>
            <feColorMatrix values="0 0 0 0 0   0 0 0 0 0   0 0 0 0 0  0 0 0 0.101534194 0" type="matrix" in="shadowOffsetOuter1" result="shadowMatrixOuter1"></feColorMatrix>
            <feOffset dx="1" dy="0" in="SourceAlpha" result="shadowOffsetOuter2"></feOffset>
            <feColorMatrix values="0 0 0 0 0   0 0 0 0 0   0 0 0 0 0  0 0 0 0.1 0" type="matrix" in="shadowOffsetOuter2" result="shadowMatrixOuter2"></feColorMatrix>
            <feOffset dx="-1" dy="0" in="SourceAlpha" result="shadowOffsetOuter3"></feOffset>
            <feColorMatrix values="0 0 0 0 0   0 0 0 0 0   0 0 0 0 0  0 0 0 0.1 0" type="matrix" in="shadowOffsetOuter3" result="shadowMatrixOuter3"></feColorMatrix>
            <feMerge>
                <feMergeNode in="shadowMatrixOuter1"></feMergeNode>
                <feMergeNode in="shadowMatrixOuter2"></feMergeNode>
                <feMergeNode in="shadowMatrixOuter3"></feMergeNode>
            </feMerge>
        </filter>
        <path d="M13,33 L13,33 C13,49.0162577 25.9837423,62 42,62 L42,62 C58.0162577,62 71,49.0162577 71,33 L71,33 C71,16.9837423 58.0162577,4 42,4 L42,4 C25.9837423,4 13,16.9837423 13,33 Z" id="path-8"></path>
        <filter x="-0.9%" y="-0.9%" width="101.7%" height="101.7%" filterUnits="objectBoundingBox" id="filter-9">
            <feGaussianBlur stdDeviation="0.5" in="SourceAlpha" result="shadowBlurInner1"></feGaussianBlur>
            <feOffset dx="0" dy="0" in="shadowBlurInner1" result="shadowOffsetInner1"></feOffset>
            <feComposite in="shadowOffsetInner1" in2="SourceAlpha" operator="arithmetic" k2="-1" k3="1" result="shadowInnerInner1"></feComposite>
            <feColorMatrix values="0 0 0 0 1   0 0 0 0 1   0 0 0 0 1  0 0 0 0.16 0" type="matrix" in="shadowInnerInner1"></feColorMatrix>
        </filter>
    </defs>
    <g id="云函数_v1.2" stroke="none" stroke-width="1" fill="none" fill-rule="evenodd">
        <g id="Artboard-5-Copy-5" transform="translate(-410.000000, -329.000000)">
            <g id="Group-2" transform="translate(404.000000, 331.000000)">
                <g id="Group-Copy">
                    <g id="iTerm">
                        <g id="Rectangle">
                            <use fill="black" fill-opacity="1" filter="url(#filter-3)" xlink:href="#path-2"></use>
                            <use fill="url(#linearGradient-1)" fill-rule="evenodd" xlink:href="#path-2"></use>
                            <use fill="black" fill-opacity="1" filter="url(#filter-4)" xlink:href="#path-2"></use>
                            <path stroke-opacity="0.0561311141" stroke="#000000" stroke-width="0.5" d="M42,-0.25 C60.3634679,-0.25 75.25,14.6365321 75.25,33 C75.25,51.3634679 60.3634679,66.25 42,66.25 C23.6365321,66.25 8.75,51.3634679 8.75,33 C8.75,14.6365321 23.6365321,-0.25 42,-0.25 Z"></path>
                        </g>
                        <g id="Rectangle-32">
                            <use fill="black" fill-opacity="1" filter="url(#filter-7)" xlink:href="#path-6"></use>
                            <use fill="url(#linearGradient-5)" fill-rule="evenodd" xlink:href="#path-6"></use>
                        </g>
                        <g id="Rectangle-32" fill="black" fill-opacity="1">
                            <use filter="url(#filter-9)" xlink:href="#path-8"></use>
                        </g>
                    </g>
                </g>
                <g id="Group" transform="translate(29.000000, 22.000000)" fill="#FBFCFD" fill-rule="nonzero">
                    <path d="M20.9972656,18.6675781 C20.3519531,18.6675781 19.8296875,18.1453125 19.8296875,17.5 C19.8296875,16.8546875 20.3519531,16.3324219 20.9972656,16.3324219 C23.5703125,16.3324219 25.6648438,14.2378906 25.6648438,11.6648437 C25.6648438,9.21484375 23.7480469,7.17226562 21.3035156,7.01367187 L20.6144531,6.97265625 L20.321875,6.35195312 C19.1679688,3.91015625 16.6851562,2.33242188 13.9972656,2.33242188 C11.309375,2.33242188 8.8265625,3.91015625 7.67265625,6.35195312 L7.38007812,6.97265625 L6.69375,7.01640625 C4.24648437,7.175 2.33242187,9.21757812 2.33242187,11.6675781 C2.33242187,14.240625 4.42695312,16.3351562 7,16.3351562 C7.6453125,16.3351562 8.16757813,16.8574219 8.16757813,17.5027344 C8.16757813,18.1480469 7.6453125,18.6703125 7,18.6703125 C3.1390625,18.6703125 0,15.53125 0,11.6703125 C0,8.22226563 2.52929688,5.31289063 5.87070313,4.76875 C7.51132813,1.85117187 10.63125,0 13.9972656,0 C17.3632812,0 20.4832031,1.85117187 22.1265625,4.76328125 C25.4679688,5.30742188 27.9972656,8.21953125 27.9972656,11.6675781 C27.9972656,15.5257812 24.8582031,18.6675781 20.9972656,18.6675781 Z" id="Shape"></path>
                    <path d="M17.1655273,19.8331055 C16.8674805,19.8331055 16.5694336,19.7182617 16.3397461,19.4913086 L13.6655273,16.8170898 L10.9913086,19.4913086 C10.5374023,19.9479492 9.79638672,19.9479492 9.34248047,19.4913086 C8.88583984,19.034668 8.88583984,18.2963867 9.34248047,17.8424805 L12.8424805,14.3424805 C13.2963867,13.8858398 14.0374023,13.8858398 14.4913086,14.3424805 L17.9913086,17.8424805 C18.4479492,18.2991211 18.4479492,19.0374023 17.9913086,19.4913086 C17.7616211,19.7209961 17.4635742,19.8331055 17.1655273,19.8331055 Z" id="Shape"></path>
                    <path d="M13.6675781,24.5 C13.0222656,24.5 12.5,23.9777344 12.5,23.3324219 L12.5,15.1675781 C12.5,14.5222656 13.0222656,14 13.6675781,14 C14.3128906,14 14.8351563,14.5222656 14.8351563,15.1675781 L14.8351563,23.3351562 C14.8351563,23.9777344 14.3128906,24.5 13.6675781,24.5 Z" id="Shape"></path>
                </g>
            </g>
        </g>
    </g>
</svg>