<?xml version="1.0" encoding="UTF-8"?>
<svg width="14px" height="13px" viewBox="0 0 14 13" version="1.1" xmlns="http://www.w3.org/2000/svg" xmlns:xlink="http://www.w3.org/1999/xlink">
    <!-- Generator: Sketch 52.4 (67378) - http://www.bohemiancoding.com/sketch -->
    <title>Group</title>
    <desc>Created with Sketch.</desc>
    <g id="icon" stroke="none" stroke-width="1" fill="none" fill-rule="evenodd">
        <g id="静音" transform="translate(-1.000000, -1.000000)" fill="#6E6E6E">
            <g id="Group" transform="translate(1.000000, 1.000000)">
                <path d="M6.87158612,0.449505842 C6.71173886,0.370491536 6.51908443,0.386680752 6.37633313,0.493628713 L2.49565178,3.38900228 L0.47306243,3.38900228 C0.211596755,3.38900228 0,3.6001288 0,3.86089994 L0,9.21072602 C0,9.47173651 0.211596755,9.68284592 0.47306243,9.68284592 L2.49565178,9.68284592 L6.37633313,12.5779973 C6.4594708,12.6403608 6.55925995,12.671987 6.65951068,12.671987 C6.73158727,12.671987 6.80458703,12.6553704 6.87156902,12.6223595 C7.03141628,12.5421998 7.1325902,12.3788716 7.1325902,12.2001064 L7.1325902,0.871741769 C7.1325902,0.692737247 7.03141628,0.529648432 6.87158612,0.449505842 Z M6.18644826,11.2579352 L2.93636864,8.83283522 C2.85459865,8.77207866 2.75527109,8.73881127 2.65317399,8.73881127 L0.946141934,8.73881127 L0.946141951,4.33303695 L2.653174,4.33303695 C2.75528819,4.33303695 2.85459866,4.29976956 2.93636866,4.23903009 L6.18644826,1.81393013 L6.18644826,11.2579352 Z" id="Shape" fill-rule="nonzero"></path>
                <path d="M11.3741734,6.7502535 L13.3714702,4.75040702 C13.5428917,4.57826306 13.5428917,4.30003395 13.3710497,4.12832628 C13.1991754,3.95726499 12.9209451,3.95703875 12.7490708,4.12876258 L10.7500435,6.13014419 L8.75104846,4.12876258 C8.57917415,3.95705491 8.30049098,3.95726498 8.12861668,4.12832628 C7.95719522,4.30003395 7.95719522,4.57826306 8.12821234,4.75040702 L10.1259296,6.75025351 L8.12821234,8.74946979 C7.95721139,8.92161375 7.95721139,9.19984286 8.12861668,9.37153436 C8.21477216,9.45696806 8.32720937,9.5 8.43961422,9.5 C8.55245576,9.5 8.66531346,9.45696806 8.75104846,9.37109805 L10.7500596,7.37010426 L12.749087,9.37109805 C12.8348058,9.45695189 12.9476473,9.5 13.060505,9.5 C13.1729261,9.5 13.2853309,9.45696806 13.3710659,9.37153436 C13.5429079,9.19984286 13.5429079,8.92161375 13.3714864,8.74946979 L11.3741734,6.7502535 Z" id="Path"></path>
            </g>
        </g>
    </g>
</svg>