<?xml version="1.0" encoding="UTF-8"?>
<svg width="14px" height="14px" viewBox="0 0 14 14" version="1.1" xmlns="http://www.w3.org/2000/svg" xmlns:xlink="http://www.w3.org/1999/xlink">
    <!-- Generator: Sketch 55.2 (78181) - https://sketchapp.com -->
    <title>编组</title>
    <desc>Created with Sketch.</desc>
    <g id="开发者工具---编译环境搜索" stroke="none" stroke-width="1" fill="none" fill-rule="evenodd" opacity="0.5">
        <g id="Artboard" transform="translate(-1068.000000, -366.000000)">
            <g id="编组-2" transform="translate(1067.000000, 365.000000)">
                <g id="编组" transform="translate(2.000000, 0.874012)">
                    <path d="M7.42045815,-0.953553391 L7.82045814,-0.953553391 C8.04137204,-0.953553391 8.22045815,-0.774467288 8.22045815,-0.553553385 L8.22045815,9.84644661 L7.81341091,11.3389531 C7.78434777,11.445518 7.67439954,11.5083456 7.56783466,11.4792824 C7.49951281,11.4606492 7.44613861,11.407275 7.42750538,11.3389531 L7.02045815,9.84644661 L7.02045815,-0.553553385 C7.02045815,-0.774467288 7.19954425,-0.953553391 7.42045815,-0.953553391 Z" id="矩形" fill="#FFFFFF" transform="translate(7.620458, 5.546447) rotate(45.000000) translate(-7.620458, -5.546447) "></path>
                    <path d="M11.75,7.12598846 L11.75,12.3759885 C11.75,12.6521308 11.5261424,12.8759885 11.25,12.8759885 L0.75,12.8759885 C0.473857625,12.8759885 0.25,12.6521308 0.25,12.3759885 L0.25,1.87598846 C0.25,1.59984609 0.473857625,1.37598846 0.75,1.37598846 L6,1.37598846" id="路径" stroke="#FFFFFF"></path>
                </g>
            </g>
        </g>
    </g>
</svg>