<?xml version="1.0" encoding="UTF-8"?>
<svg width="9px" height="13px" viewBox="0 0 9 13" version="1.1" xmlns="http://www.w3.org/2000/svg" xmlns:xlink="http://www.w3.org/1999/xlink">
    <!-- Generator: Sketch 45.2 (43514) - http://www.bohemiancoding.com/sketch -->
    <title>Rectangle 101</title>
    <desc>Created with Sketch.</desc>
    <defs></defs>
    <g id="编译条件管理" stroke="none" stroke-width="1" fill="none" fill-rule="evenodd">
        <g id="Desktop-HD-Copy-9" transform="translate(-353.000000, -117.000000)" fill="#FFFFFF">
            <g id="Modal-Copy" transform="translate(148.000000, 72.000000)">
                <path d="M210.364277,56.6719956 C210.366212,56.6560419 210.367208,56.6397985 210.367208,56.6233224 L210.367208,56.6233224 L210.367208,48.0631076 L208.008602,48.0631076 L208.008602,56.6117622 C208.00256,56.6404072 207.99959,56.6701657 208.000046,56.7006708 C208.000819,56.7523838 208.011613,56.8034561 208.031831,56.8510593 L208.754402,58.5523511 L208.754402,58.5523511 C208.840762,58.7556855 209.075606,58.8505121 209.27894,58.7641521 C209.367656,58.7264728 209.439783,58.6580264 209.482054,58.5714038 L210.323669,56.8467248 L210.323669,56.8467248 C210.351163,56.7903812 210.364218,56.7307397 210.364277,56.6719956 Z M210.367208,46.8284837 L210.367208,45.4 C210.367208,45.1790861 210.188122,45 209.967208,45 L209.967208,45 L208.408602,45 L208.408602,45 C208.187689,45 208.008602,45.1790861 208.008602,45.4 L208.008602,45.4 L208.008602,46.8284837 L210.367208,46.8284837 Z" id="Rectangle-101" transform="translate(209.183604, 51.898043) rotate(30.000000) translate(-209.183604, -51.898043) "></path>
            </g>
        </g>
    </g>
</svg>