<?xml version="1.0" encoding="UTF-8" standalone="no"?>
<svg width="12px" height="13px" viewBox="0 0 12 13" version="1.1" xmlns="http://www.w3.org/2000/svg" xmlns:xlink="http://www.w3.org/1999/xlink">
    <!-- Generator: Sketch 50.2 (55047) - http://www.bohemiancoding.com/sketch -->
    <title>Group 3</title>
    <desc>Created with Sketch.</desc>
    <defs></defs>
    <g id="手绘图标" stroke="none" stroke-width="1" fill="none" fill-rule="evenodd">
        <g id="Artboard" transform="translate(-427.000000, -67.000000)" fill="#000000" fill-rule="nonzero">
            <g id="Upload-Copy" transform="translate(413.000000, 63.000000)">
                <g id="Group-3" transform="translate(14.000000, 4.000000)">
                    <polygon id="Path-6" fill-opacity="0.9" points="11 12 11 6 12 6 12 13 0 13 0 6 1 6 1 12"></polygon>
                    <polygon id="Line" points="0 6 0 5 3 5 3 6"></polygon>
                    <polygon id="Line-Copy" points="9 6 9 5 12 5 12 6"></polygon>
                    <polygon id="Path-7" fill-opacity="0.9" points="6.5 8.5 5.5 8.5 5.5 1 6.5 1"></polygon>
                    <polygon id="Path-8" fill-opacity="0.9" points="6 1.70710678 3.35355339 4.35355339 2.64644661 3.64644661 6 0.292893219 9.35355339 3.64644661 8.64644661 4.35355339"></polygon>
                </g>
            </g>
        </g>
    </g>
</svg>