<?xml version="1.0" encoding="UTF-8"?>
<svg width="16px" height="16px" viewBox="0 0 16 16" version="1.1" xmlns="http://www.w3.org/2000/svg" xmlns:xlink="http://www.w3.org/1999/xlink">
    <!-- Generator: Sketch 50.2 (55047) - http://www.bohemiancoding.com/sketch -->
    <title>.project.config.json</title>
    <desc>Created with Sketch.</desc>
    <defs></defs>
    <g id=".project.config.json" stroke="none" stroke-width="1" fill="none" fill-rule="evenodd">
        <g id="Group" fill="#01B56D">
            <path d="M0.649999976,8.49077181 C1.0495026,8.50035959 1.34912507,8.67773078 1.54887638,9.0228907 C1.74363391,9.35366896 1.84101121,9.77552476 1.84101121,10.2884708 L1.84101121,11.3676894 C1.85099878,11.8758415 2.00580372,12.2713313 2.30543069,12.5541707 C2.59007631,12.8418039 2.937139,12.9904122 3.34662919,13 L4.7047471,12.9911549 C4.86966654,12.9900808 5.00279332,12.8560842 5.00279332,12.6911613 L5.00279332,12.0132436 C5.00279332,11.8475582 4.86847874,11.7132436 4.70279332,11.7132436 L4.25372965,11.7132436 C3.57613127,11.6866936 3.57957234,11.1076238 3.57957234,10.7960211 L3.57957234,9.91095398 C3.57957234,9.56579406 3.53213212,9.27576819 3.43725025,9.04086769 C3.34736216,8.80596719 3.23001002,8.61421455 3.08519032,8.46560403 C2.96533953,8.3169935 2.83799998,8.20433883 2.70316785,8.12763663 C2.56833571,8.0605222 2.46097099,8.01977476 2.38107047,8.0053931 C2.55585287,7.93827881 2.79055714,7.77289216 3.08519032,7.480465 C3.23001002,7.33185448 3.34736216,7.14010185 3.43725025,6.90520134 C3.53213212,6.68947639 3.57957234,6.41862579 3.57957234,6.09264142 L3.57957234,5.19319271 C3.57957234,4.86720834 3.58377552,4.4326787 4.25372965,4.40642822 L4.70279332,4.40642822 C4.86847874,4.40642822 5.00279332,4.27211365 5.00279332,4.10642822 L5.00279332,3.30196019 C5.00279332,3.13627476 4.86847874,3.00196019 4.70279332,3.00196019 C4.70214205,3.00196019 4.70149078,3.00196231 4.70083953,3.00196655 L3.34662919,3.01078619 C2.937139,3.01078619 2.59007631,3.15220376 2.30543069,3.43504314 C2.00580372,3.72267641 1.85099878,4.12535695 1.84101121,4.64309684 L1.84101121,5.75107862 C1.84101121,6.2304674 1.74363391,6.64273557 1.54887638,6.98789549 C1.45898829,7.15568157 1.33664245,7.28271769 1.18183518,7.36900767 C1.0320217,7.46967931 0.85474507,7.52001438 0.649999976,7.52001438 L0.649999976,8.49077181 Z" id="{-}"></path>
            <path d="M11,8.49077181 C11.3995026,8.50035959 11.6991251,8.67773078 11.8988764,9.0228907 C12.0936339,9.35366896 12.1910112,9.77552476 12.1910112,10.2884708 L12.1910112,11.3676894 C12.2009988,11.8758415 12.3558037,12.2713313 12.6554307,12.5541707 C12.9400763,12.8418039 13.287139,12.9904122 13.6966292,13 L15.0547471,12.9911549 C15.2196666,12.9900808 15.3527933,12.8560842 15.3527933,12.6911613 L15.3527933,12.0132436 C15.3527933,11.8475582 15.2184788,11.7132436 15.0527933,11.7132436 L14.6037297,11.7132436 C13.9261313,11.6866936 13.9295724,11.1076238 13.9295724,10.7960211 L13.9295724,9.91095398 C13.9295724,9.56579406 13.8821321,9.27576819 13.7872503,9.04086769 C13.6973622,8.80596719 13.58001,8.61421455 13.4351903,8.46560403 C13.3153396,8.3169935 13.188,8.20433883 13.0531679,8.12763663 C12.9183357,8.0605222 12.810971,8.01977476 12.7310705,8.0053931 C12.9058529,7.93827881 13.1405572,7.77289216 13.4351903,7.480465 C13.58001,7.33185448 13.6973622,7.14010185 13.7872503,6.90520134 C13.8821321,6.68947639 13.9295724,6.41862579 13.9295724,6.09264142 L13.9295724,5.19319271 C13.9295724,4.86720834 13.9337755,4.4326787 14.6037297,4.40642822 L15.0527933,4.40642822 C15.2184788,4.40642822 15.3527933,4.27211365 15.3527933,4.10642822 L15.3527933,3.30196019 C15.3527933,3.13627476 15.2184788,3.00196019 15.0527933,3.00196019 C15.0521421,3.00196019 15.0514908,3.00196231 15.0508396,3.00196655 L13.6966292,3.01078619 C13.287139,3.01078619 12.9400763,3.15220376 12.6554307,3.43504314 C12.3558037,3.72267641 12.2009988,4.12535695 12.1910112,4.64309684 L12.1910112,5.75107862 C12.1910112,6.2304674 12.0936339,6.64273557 11.8988764,6.98789549 C11.8089883,7.15568157 11.6866425,7.28271769 11.5318352,7.36900767 C11.3820217,7.46967931 11.2047451,7.52001438 11,7.52001438 L11,8.49077181 Z" id="{-}-copy" transform="translate(13.176397, 8.000000) scale(-1, 1) translate(-13.176397, -8.000000) "></path>
        </g>
        <path d="M10.2901718,8.29249816 C10.3025058,8.19649384 10.3117486,8.09899695 10.3117486,8 C10.3117486,7.90100305 10.3024981,7.80350616 10.2901718,7.70750184 L10.9423008,7.211002 C11.0008873,7.16599997 11.0178465,7.08500383 10.9793028,7.01900086 L10.362634,5.97949908 C10.3240903,5.91499617 10.2439271,5.88800246 10.1745484,5.91499617 L9.40678817,6.21650224 C9.24799573,6.09799691 9.0737858,5.99750739 8.88570013,5.92100395 L8.77007666,5.12599817 C8.75620092,5.0555025 8.69299692,5 8.61590176,5 L7.38254879,5 C7.30546904,5 7.24225733,5.0555025 7.22992334,5.12599817 L7.11429987,5.92100395 C6.9262142,5.99750739 6.75199656,6.09650434 6.59321183,6.21650224 L5.82545165,5.91499617 C5.75607294,5.88949503 5.6759097,5.91499617 5.63736598,5.97949908 L5.0206972,7.01900086 C4.98215348,7.08350376 4.99911271,7.1644999 5.05769918,7.211002 L5.70829414,7.70750184 C5.69596015,7.80350616 5.68670965,7.90100305 5.68670965,8 C5.68670965,8.09900446 5.69596015,8.19649384 5.70829414,8.29249816 L5.05769918,8.788998 C4.99911271,8.83400003 4.98215348,8.91499617 5.0206972,8.98099914 L5.63736598,10.0205009 C5.6759097,10.0850038 5.75607294,10.1119975 5.82545165,10.0850038 L6.59321183,9.78349776 C6.75200427,9.90200309 6.9262142,10.0024926 7.11429987,10.0789961 L7.22992334,10.8740018 C7.24225733,10.9444975 7.30546904,11 7.38254879,11 L8.61590176,11 C8.6929815,11 8.75619321,10.9444975 8.7685272,10.8740018 L8.88415067,10.0789961 C9.07223634,10.0024926 9.24645398,9.90349566 9.40523871,9.78349776 L10.1729989,10.0850038 C10.2423776,10.110505 10.3225408,10.0850038 10.3610846,10.0205009 L10.9777533,8.98099914 C11.0162971,8.91649624 10.9993378,8.8355001 10.9407514,8.788998 L10.2901641,8.29249816 L10.2901718,8.29249816 Z M7.99922527,9.04999475 C7.40259923,9.04999475 6.92004721,8.58048862 6.92004721,7.9999925 C6.92004721,7.41949638 7.40259923,6.94999025 7.99922527,6.94999025 C8.59585131,6.94999025 9.07840334,7.41949638 9.07840334,7.9999925 C9.07840334,8.58048862 8.59585131,9.04999475 7.99922527,9.04999475 Z" id="Combined-Shape" fill="#01B56D" fill-rule="nonzero"></path>
    </g>
</svg>