<?xml version="1.0" encoding="UTF-8"?>
<svg width="62px" height="45px" viewBox="0 0 62 45" version="1.1" xmlns="http://www.w3.org/2000/svg" xmlns:xlink="http://www.w3.org/1999/xlink">
    <!-- Generator: Sketch 46 (44423) - http://www.bohemiancoding.com/sketch -->
    <title>腾讯云logo</title>
    <desc>Created with Sketch.</desc>
    <defs></defs>
    <g id="弹框" stroke="none" stroke-width="1" fill="none" fill-rule="evenodd">
        <g transform="translate(-34.000000, -64.000000)" id="腾讯云logo" fill-rule="nonzero">
            <g transform="translate(34.000000, 64.000000)">
                <path d="M57.8605712,20.3478359 C55.2472882,17.6810035 51.6047268,16.0002887 47.5555296,16.0000001 C44.0551465,15.9997114 41.0417167,17.2077883 38.4105533,19.3519048 C37.2637542,20.2865012 36.0605741,21.4056789 34.547082,22.8768456 C33.7952386,23.6075221 12,44.7736187 12,44.7736187 C13.1426174,44.9364082 14.7139325,44.985043 16.114951,44.9938463 C17.4274324,45.0022167 42.4695558,44.999619 43.5178683,44.999619 C45.6276152,44.999619 47.0006594,44.9974542 48.4757952,44.8895052 C51.8582252,44.642146 55.0537758,43.4007318 57.6367774,40.8620529 C63.3730799,35.2243125 63.4590213,26.0744755 57.8605712,20.3478359 Z M53.6713588,36.805593 C52.5595996,37.9067311 50.5768902,39.1569485 47.3219304,39.2676396 C45.8166575,39.3188721 44.059184,39.3245005 43.2549971,39.3245005 C42.3772697,39.3245005 34.6374935,39.3245005 25.7654821,39.3245005 C32.1287534,33.1390773 37.6794743,27.7433564 38.3090386,27.1314526 C38.8859709,26.5706371 40.1833117,25.3285014 41.3024249,24.3198704 C43.7588215,22.1060489 45.97066,21.6605426 47.5346211,21.6751186 C49.9855382,21.698065 52.2143918,22.6996244 53.8074808,24.3166954 C57.2158662,27.8029593 57.1352601,33.3747469 53.6713588,36.805593 Z" id="Shape" fill="#00A4FF"></path>
                <path d="M22.8742554,19.0105012 C20.340094,17.0765289 17.5032824,15.9953604 14.2869455,16.000015 C10.2818923,16.0003059 6.67904169,17.6941317 4.09424845,20.3821438 C-1.44316797,26.1539516 -1.35802083,35.3761022 4.31560248,41.0583095 C6.59346668,43.3396289 9.3531182,44.5807981 12.2959002,45 L17.8465808,39.5070298 C16.9490415,39.503248 15.6608523,39.4907388 14.5181407,39.451175 C11.2986661,39.3396109 9.33757207,38.0795325 8.23793316,36.9697093 C4.81179493,33.5118029 4.73206754,27.8962139 8.10315252,24.3823072 C9.67887374,22.7524817 11.8834287,21.7430226 14.3076262,21.7198952 C15.8265826,21.7136407 17.887942,22.1635336 20.2172939,24.1328516 C21.3641417,25.1023105 23.9536415,27.4256664 24.9786876,28.3721434 L29,24.371689 C27.1581405,22.6723359 24.4710851,20.2228703 22.8742554,19.0105012 Z" id="Shape" fill="#00C6DA"></path>
                <path d="M48.9797294,12.4643403 C46.3473904,5.20353121 39.2595354,0 30.9226326,0 C21.3598863,0 13.4351095,6.86751008 12,15.8128736 C12.7690171,15.6865008 13.5591032,15.6193521 14.3658451,15.6193521 C15.4884791,15.6178229 16.5638503,15.745864 17.597226,15.9886 C17.6172984,15.9927707 17.6375132,15.9952732 17.6575857,16 C18.9534692,9.9601001 24.4207225,5.47379397 30.9226326,5.47379397 C36.3377829,5.47379397 41.0884067,8.6635618 43.2300382,13.1832337 C43.263777,13.254414 43.3208625,13.2780481 43.3792292,13.2623384 C44.9900083,12.8299736 46.9212349,12.5787571 48.7865498,12.7130544 C48.9684831,12.7262616 49.0383808,12.6263034 48.9797294,12.4643403 Z" id="Shape" fill="#006EFF"></path>
            </g>
        </g>
    </g>
</svg>