<?xml version="1.0" encoding="UTF-8"?>
<svg width="60px" height="60px" viewBox="0 0 60 60" version="1.1" xmlns="http://www.w3.org/2000/svg" xmlns:xlink="http://www.w3.org/1999/xlink">
    <!-- Generator: Sketch 46.2 (44496) - http://www.bohemiancoding.com/sketch -->
    <title>Group</title>
    <desc>Created with Sketch.</desc>
    <defs>
        <linearGradient x1="50%" y1="0%" x2="50%" y2="100%" id="linearGradient-1">
            <stop stop-color="#1AD6FD" offset="0%"></stop>
            <stop stop-color="#1D63F0" offset="100%"></stop>
        </linearGradient>
    </defs>
    <g id="图标" stroke="none" stroke-width="1" fill="none" fill-rule="evenodd">
        <g id="AS_safari@2x" transform="translate(-30.000000, -30.000000)">
            <g id="Group" transform="translate(30.000000, 30.000000)">
                <circle id="Oval-19" fill="url(#linearGradient-1)" cx="30" cy="30" r="30"></circle>
                <path d="M34.9113465,6.70330661 L35.4798097,3.77881735 L34.8592957,3.65820164 L34.2909543,6.58206446 C34.4987036,6.61979539 34.7055135,6.66022196 34.9113465,6.70330661 Z M39.3935818,8.1189958 L40.587117,5.16489261 L40.0010181,4.9280933 L38.8094221,7.87739696 C39.0054363,7.95541461 39.2001696,8.03596098 39.3935818,8.1189958 Z M47.0443735,13.3736603 L49.3284461,11.0895877 L48.8814641,10.6426058 L46.5967866,12.9272832 C46.7479386,13.0741009 46.8971483,13.2229073 47.0443735,13.3736603 Z M49.9292778,16.9613174 L52.8721299,14.9763386 L52.5186484,14.4522807 L49.5754732,16.4374775 C49.6956563,16.6104353 49.8136051,16.7850626 49.9292778,16.9613174 Z M52.182765,21.3169521 L55.0173921,20.1137242 L54.7704001,19.5318474 L51.944059,20.731558 C52.0261352,20.9253901 52.1057172,21.1205348 52.182765,21.3169521 Z M53.4489092,25.8041489 L56.3927302,25.231928 L56.2721145,24.611414 L53.3297475,25.1833522 C53.3721407,25.3893258 53.4118737,25.5962705 53.4489092,25.8041489 Z M53.3149299,34.9049912 L56.2721145,35.4798097 L56.3927302,34.8592957 L53.436002,34.2845659 C53.3983279,34.4923257 53.357958,34.6991467 53.3149299,34.9049912 Z M51.8895832,39.4129566 L54.795732,40.587117 L55.0325313,40.0010181 L52.1317044,38.829008 C52.0535117,39.0249534 51.9727912,39.2196164 51.8895832,39.4129566 Z M49.8227729,43.2164529 L52.5186484,45.0348439 L52.8721299,44.5107861 L50.1669237,42.6861015 C50.0544955,42.864496 49.9397646,43.0412937 49.8227729,43.2164529 Z M46.6200322,47.0670142 L48.8814641,49.3284461 L49.3284461,48.8814641 L47.0670142,46.6200322 C46.9199928,46.7709847 46.7709847,46.9199928 46.6200322,47.0670142 Z M42.6861015,50.1669237 L44.5107861,52.8721299 L45.0348439,52.5186484 L43.2164529,49.8227729 C43.0412937,49.9397646 42.864496,50.0544955 42.6861015,50.1669237 Z M38.8360753,52.1288829 L40.0621747,55.0173921 L40.6440516,54.7704001 L39.4199409,51.886576 C39.2266289,51.9698455 39.0319936,52.0506279 38.8360753,52.1288829 Z M34.2845659,53.436002 L34.8592957,56.3927302 L35.4798097,56.2721145 L34.9049912,53.3149299 C34.6991467,53.357958 34.4923257,53.3983279 34.2845659,53.436002 Z M25.1833522,53.3297475 L24.611414,56.2721145 L25.231928,56.3927302 L25.8041489,53.4489092 C25.5962705,53.4118737 25.3893258,53.3721407 25.1833522,53.3297475 Z M20.6909614,51.9268241 L19.5318474,54.795732 L20.1179462,55.0325313 L21.2758574,52.1666006 C21.0796032,52.0891936 20.8846244,52.0092547 20.6909614,51.9268241 Z M12.9272832,46.5967866 L10.6426058,48.8814641 L11.0895877,49.3284461 L13.3736603,47.0443735 C13.2229073,46.8971483 13.0741009,46.7479386 12.9272832,46.5967866 Z M9.94692932,42.8386439 L7.46787662,44.5107861 L7.8213581,45.0348439 L10.2950528,43.3663158 C10.1767479,43.1920623 10.0606928,43.0161578 9.94692932,42.8386439 Z M7.87768555,38.8101471 L4.9280933,40.0621747 L5.17508538,40.6440516 L8.11930592,39.3943041 C8.03626391,39.2008929 7.95571036,39.0061605 7.87768555,38.8101471 Z M6.58206446,34.2909543 L3.65820164,34.8592957 L3.77881735,35.4798097 L6.70330661,34.9113465 C6.66022196,34.7055135 6.61979539,34.4987036 6.58206446,34.2909543 Z M6.68846931,25.1769931 L3.77881735,24.611414 L3.65820164,25.231928 L6.56913767,25.7977567 C6.60622995,25.5898888 6.64601967,25.3829551 6.68846931,25.1769931 Z M8.08183306,20.7103678 L5.16489261,19.5318474 L4.9280933,20.1179462 L7.842579,21.2954749 C7.9198109,21.0991519 7.99957567,20.9041028 8.08183306,20.7103678 Z M10.5451096,16.2894743 L7.8213581,14.4522807 L7.46787662,14.9763386 L10.1873364,16.8106374 C10.3043425,16.6352619 10.4236142,16.4615269 10.5451096,16.2894743 Z M13.3968749,12.9498929 L11.0895877,10.6426058 L10.6426058,11.0895877 L12.9498929,13.3968749 C13.0969143,13.2459224 13.2459224,13.0969143 13.3968749,12.9498929 Z M16.8106374,10.1873364 L14.9763386,7.46787662 L14.4522807,7.8213581 L16.2894743,10.5451096 C16.4615269,10.4236142 16.6352619,10.3043425 16.8106374,10.1873364 Z M21.3429478,7.8239626 L20.1137242,4.9280933 L19.5318474,5.17508538 L20.7572622,8.06198182 C20.9511935,7.9801332 21.1464354,7.90078005 21.3429478,7.8239626 Z M25.7977567,6.56913767 L25.231928,3.65820164 L24.611414,3.77881735 L25.1769931,6.68846931 C25.3829551,6.64601967 25.5898888,6.60622995 25.7977567,6.56913767 Z M29.6909806,3.02325581 L30.3259265,3.02325581 L30.3259265,7.53436693 L29.6909806,7.53436693 L29.6909806,3.02325581 Z M56.9767442,29.6909806 L56.9767442,30.3231086 L52.5395319,30.3231086 L52.5395319,29.6909806 L56.9767442,29.6909806 Z M30.3231086,56.9767442 L29.6909806,56.9767442 L29.6909806,52.5395319 L30.3231086,52.5395319 L30.3231086,56.9767442 Z M3.02325581,30.3231086 L3.02325581,29.6909806 L7.46046813,29.6909806 L7.46046813,30.3231086 L3.02325581,30.3231086 Z" id="Path" fill="#FFFFFF"></path>
                <polygon id="Rectangle-102" fill="#FF1414" points="46.0775194 6.91472868 34.1860465 32.7906977 25.8139535 27.9069767"></polygon>
                <polygon id="Rectangle-103" fill="#FFFFFF" points="34.1860465 32.7906977 13.9534884 53.7829457 25.8139535 27.9069767"></polygon>
            </g>
        </g>
    </g>
</svg>