<?xml version="1.0" encoding="UTF-8" standalone="no"?>
<svg width="12px" height="12px" viewBox="0 0 12 12" version="1.1" xmlns="http://www.w3.org/2000/svg" xmlns:xlink="http://www.w3.org/1999/xlink">
    <!-- Generator: Sketch 50.2 (55047) - http://www.bohemiancoding.com/sketch -->
    <title>Group 6</title>
    <desc>Created with Sketch.</desc>
    <defs></defs>
    <g id="手绘图标" stroke="none" stroke-width="1" fill="none" fill-rule="evenodd">
        <g id="Artboard" transform="translate(-474.000000, -68.000000)" fill="#000000" fill-rule="nonzero">
            <g id="Upload-Copy-2" transform="translate(460.000000, 63.000000)">
                <g id="Icon-Upload" transform="translate(12.000000, 3.000000)">
                    <g id="Group-6" transform="translate(2.000000, 2.000000)">
                        <polygon id="Path-6" fill-opacity="0.9" points="11 11 11 3 12 3 12 12 0 12 0 3 1 3 1 11"></polygon>
                        <polygon id="Line" points="0 3 0 2 3 2 3 3"></polygon>
                        <polygon id="Line-Copy" points="9 3 9 2 12 2 12 3"></polygon>
                        <polygon id="Path-7" fill-opacity="0.9" transform="translate(6.000000, 4.250000) scale(1, -1) translate(-6.000000, -4.250000) " points="6.5 8 5.5 8 5.5 0.5 6.5 0.5"></polygon>
                        <polygon id="Path-8" fill-opacity="0.9" transform="translate(6.000000, 6.676777) scale(1, -1) translate(-6.000000, -6.676777) " points="6 6.06066017 3.35355339 8.70710678 2.64644661 8 6 4.64644661 9.35355339 8 8.64644661 8.70710678"></polygon>
                    </g>
                </g>
            </g>
        </g>
    </g>
</svg>