<?xml version="1.0" encoding="UTF-8"?>
<svg width="54px" height="64px" viewBox="0 0 54 64" version="1.1" xmlns="http://www.w3.org/2000/svg" xmlns:xlink="http://www.w3.org/1999/xlink">
    <!-- Generator: Sketch 46.2 (44496) - http://www.bohemiancoding.com/sketch -->
    <title>Oval 2 + Rectangle 165 + Rectangle 166</title>
    <desc>Created with Sketch.</desc>
    <defs></defs>
    <g id="图标" stroke="none" stroke-width="1" fill="none" fill-rule="evenodd">
        <g id="Action_Refresh@2x" transform="translate(-33.000000, -28.000000)" fill="#4D4D4D">
            <g id="Oval-2-+-Rectangle-165-+-Rectangle-166" transform="translate(33.000000, 28.000000)">
                <path d="M33.0772622,58.313299 C31.1239548,58.7626002 29.0897013,59 27,59 C12.0883118,59 0,46.9116882 0,32 C0,24.654308 2.93344165,17.9937579 7.69278324,13.1258916 L10.7673699,15.7057761 C6.58707719,19.8703654 4,25.6330606 4,32 C4,44.7025492 14.2974508,55 27,55 C27.6819925,55 28.3570522,54.970317 29.0239576,54.9121726 L33.0772622,58.313299 Z M45.3893648,51.7696025 L42.2976549,49.1753499 C47.0237712,44.9629296 50,38.8290325 50,32 C50,19.2974508 39.7025492,9 27,9 C25.7226785,9 24.4696762,9.10412342 23.2490181,9.30434546 L19.4085987,6.08185095 C21.8167465,5.37767169 24.3642683,5 27,5 C41.9116882,5 54,17.0883118 54,32 C54,39.8069343 50.6866061,46.8399839 45.3893648,51.7696025 Z" id="Oval-2"></path>
                <path d="M28,51.2919922 C28,50.5784446 28.4586846,50.3567547 29.0324144,50.802989 L35.9675856,56.197011 C36.5377723,56.6404896 36.5413154,57.3567547 35.9675856,57.802989 L29.0324144,63.197011 C28.4622277,63.6404896 28,63.4162615 28,62.7080078 L28,51.2919922 Z" id="Rectangle-165"></path>
                <path d="M17,1.29199219 C17,0.578444605 17.4586846,0.356754661 18.0324144,0.802989006 L24.9675856,6.19701099 C25.5377723,6.64048958 25.5413154,7.35675466 24.9675856,7.80298901 L18.0324144,13.197011 C17.4622277,13.6404896 17,13.4162615 17,12.7080078 L17,1.29199219 Z" id="Rectangle-166" transform="translate(21.500000, 7.000000) scale(-1, 1) translate(-21.500000, -7.000000) "></path>
            </g>
        </g>
    </g>
</svg>