<?xml version="1.0" encoding="UTF-8"?>
<svg width="67px" height="12px" viewBox="0 0 67 12" version="1.1" xmlns="http://www.w3.org/2000/svg" xmlns:xlink="http://www.w3.org/1999/xlink">
    <!-- Generator: Sketch 46 (44423) - http://www.bohemiancoding.com/sketch -->
    <title>Signal</title>
    <desc>Created with Sketch.</desc>
    <defs></defs>
    <g id="Page-2" stroke="none" stroke-width="1" fill="none" fill-rule="evenodd">
        <g id="转载文章-copy-30" transform="translate(-13.000000, -15.000000)" fill="#FFFFFF">
            <g id="Navigation-/-6-/-Nav-with-...">
                <g id="Status-Bar-/-White">
                    <path d="M18.5,26.0706522 C15.4624337,26.0706522 13,23.6015271 13,20.5557065 C13,17.509886 15.4624337,15.0407609 18.5,15.0407609 C21.5375663,15.0407609 24,17.509886 24,20.5557065 C24,23.6015271 21.5375663,26.0706522 18.5,26.0706522 Z M32.5,26.0706522 C29.4624337,26.0706522 27,23.6015271 27,20.5557065 C27,17.509886 29.4624337,15.0407609 32.5,15.0407609 C35.5375663,15.0407609 38,17.509886 38,20.5557065 C38,23.6015271 35.5375663,26.0706522 32.5,26.0706522 Z M46.5,26.0706522 C43.4624337,26.0706522 41,23.6015271 41,20.5557065 C41,17.509886 43.4624337,15.0407609 46.5,15.0407609 C49.5375663,15.0407609 52,17.509886 52,20.5557065 C52,23.6015271 49.5375663,26.0706522 46.5,26.0706522 Z M60.5,26.0706522 C57.4624337,26.0706522 55,23.6015271 55,20.5557065 C55,17.509886 57.4624337,15.0407609 60.5,15.0407609 C63.5375663,15.0407609 66,17.509886 66,20.5557065 C66,23.6015271 63.5375663,26.0706522 60.5,26.0706522 Z M74.5,26.0706522 C71.4624337,26.0706522 69,23.6015271 69,20.5557065 C69,17.509886 71.4624337,15.0407609 74.5,15.0407609 C77.5375663,15.0407609 80,17.509886 80,20.5557065 C80,23.6015271 77.5375663,26.0706522 74.5,26.0706522 Z" id="Signal"></path>
                </g>
            </g>
        </g>
    </g>
</svg>