<?xml version="1.0" encoding="UTF-8"?>
<svg width="17px" height="10px" viewBox="0 0 17 10" version="1.1" xmlns="http://www.w3.org/2000/svg" xmlns:xlink="http://www.w3.org/1999/xlink">
    <!-- Generator: Sketch 50.2 (55047) - http://www.bohemiancoding.com/sketch -->
    <title>Shape</title>
    <desc>Created with Sketch.</desc>
    <defs></defs>
    <g id="Paused-in-debugger" stroke="none" stroke-width="1" fill="none" fill-rule="evenodd">
        <g id="tips" transform="translate(-220.000000, -17.000000)" fill="#000000" fill-rule="nonzero">
            <g id="Group" transform="translate(218.000000, 12.000000)">
                <path d="M3.35625652,14.5006324 C3.18843943,14.350706 3.08279692,14.1326374 3.08279692,13.8898947 C3.08279692,13.4377343 3.44934531,13.0711859 3.90150567,13.0711859 L7.13403901,13.0711859 C7.58619937,13.0711859 7.95274777,13.4377343 7.95274777,13.8898947 C7.95274777,14.342055 7.58619937,14.7086034 7.13403901,14.7086034 L5.54413922,14.7086034 C6.52668367,15.6074013 7.69712148,16.0568002 9.05545264,16.0568002 C10.4904627,16.0568002 11.7157671,15.5552313 12.731366,14.5520936 C13.7469649,13.5489558 14.2547644,12.3386856 14.2547644,10.9212828 C14.2547644,9.50387998 13.476542,7.92970075 12.5024975,6.9073847 C11.5284531,5.88506865 11.4689216,5.72206934 11.9619309,5.23510907 C12.2384206,5.01762018 12.5069683,4.58553551 13.9516307,6.0124723 C15.3962932,7.43940908 16,9.04910139 16,10.9212828 C16,12.820283 15.3162905,14.4385416 13.9488715,15.7760585 C12.5814525,17.1135755 10.9500241,17.782334 9.05458608,17.782334 C7.15914811,17.782334 5.52771962,17.1135755 4.16030064,15.7760585 C3.63840065,15.2655712 3.37038594,14.8404292 3.35625652,14.5006324 Z M3.81870876,13.1331357 L3.81870876,13.1331357 C4.27086912,13.1331357 4.63741752,13.4996841 4.63741752,13.9518445 L4.63741752,17.1812912 C4.63741752,17.6334516 4.27086912,18 3.81870876,18 L3.81870876,18 C3.3665484,18 3,17.6334516 3,17.1812912 L3,13.9518445 C3,13.4996841 3.3665484,13.1331357 3.81870876,13.1331357 Z M8.60379997,11.9682364 C9.49266225,11.9682364 10.2132275,11.2211471 10.2132275,10.2995658 C10.2132275,9.37798453 9.49266225,8.63089528 8.60379997,8.63089528 C7.7149377,8.63089528 6.99437245,9.37798453 6.99437245,10.2995658 C6.99437245,11.2211471 7.7149377,11.9682364 8.60379997,11.9682364 Z" id="Shape" transform="translate(9.500000, 11.500000) rotate(-135.000000) translate(-9.500000, -11.500000) "></path>
            </g>
        </g>
    </g>
</svg>