<?xml version="1.0" encoding="UTF-8"?>
<svg width="60px" height="60px" viewBox="0 0 60 60" version="1.1" xmlns="http://www.w3.org/2000/svg" xmlns:xlink="http://www.w3.org/1999/xlink">
    <!-- Generator: Sketch 46.2 (44496) - http://www.bohemiancoding.com/sketch -->
    <title>Group</title>
    <desc>Created with Sketch.</desc>
    <defs></defs>
    <g id="图标" stroke="none" stroke-width="1" fill="none" fill-rule="evenodd">
        <g id="Action_Moments@2x" transform="translate(-30.000000, -30.000000)">
            <g id="Group" transform="translate(30.000000, 30.000000)">
                <path d="M15.9162453,3.50434834 C9.86874226,6.72547332 5.05450072,11.956459 2.3645072,18.3058576 L2.36450335,18.3058576 L29.7011317,18.3058576 C29.8946003,18.297105 30.089435,18.2926829 30.2855443,18.2926829 C30.4285336,18.2926829 30.5710206,18.295489 30.712952,18.301055 L15.9162453,3.50434834 L15.9162453,3.50434834 Z" id="Path" fill="#FF7612"></path>
                <path d="M18.7368645,2.18580582 C22.2144546,0.776283363 26.0164899,0 30,0 C33.0549676,0 36.0033126,0.456674213 38.7804878,1.30547955 L38.7804878,1.30547955 L38.7804878,22.2691717 C38.5076979,21.9518122 38.2191583,21.6500891 37.916317,21.3652584 L18.7368645,2.18580582 L18.7368645,2.18580582 Z" id="Path" fill="#FA5452"></path>
                <path d="M1.30128376,21.2326869 C0.455162011,24.0060022 0,26.9498517 0,30 C0,33.990384 0.779028758,37.7988333 2.19332842,41.2815157 L2.19332842,41.2815157 L21.7436282,21.7312159 L21.7635112,21.751099 C21.942491,21.5723866 22.1272845,21.3994936 22.3176249,21.2326869 L1.30128376,21.2326869 L1.30128376,21.2326869 L1.30128376,21.2326869 Z" id="Path" fill="#FFC817"></path>
                <path d="M3.51340052,44.1006052 C6.7373186,50.1440664 11.9691399,54.9544275 18.3185857,57.6409489 L18.3185857,57.6409489 L18.3185857,31.0368432 C18.3014015,30.7881683 18.2926829,30.537638 18.2926829,30.2855443 C18.2926829,29.9471803 18.3058482,29.6126077 18.3317092,29.2822965 L3.51340052,44.1006052 L3.51340052,44.1006052 L3.51340052,44.1006052 Z" id="Path" fill="#9AD122"></path>
                <path d="M21.2454149,58.7026482 C24.0149375,59.5462407 26.9544302,60 30,60 C33.9901704,60 37.7984466,59.2209306 41.2810043,57.8066068 L41.2810043,57.8066068 L22.1635819,38.6891844 C21.8403321,38.4046556 21.5338193,38.1035893 21.2454149,37.7875666 L21.2454149,58.7026482 L21.2454149,58.7026482 L21.2454149,58.7026482 Z" id="Path" fill="#66D020"></path>
                <path d="M44.1000518,56.4864927 C50.1393023,53.2646914 54.9472629,48.0377723 57.6350213,41.6945897 L57.6350254,41.694589 L30.8127242,41.694589 C30.6378299,41.703041 30.4620699,41.7073171 30.2855443,41.7073171 C29.9470416,41.7073171 29.6123365,41.694144 29.281899,41.6683399 L44.1000518,56.4864927 L44.1000518,56.4864927 L44.1000518,56.4864927 Z" id="Path" fill="#00B1FE"></path>
                <path d="M58.698414,38.7677597 C59.5447213,35.9943139 60,33.050312 60,30 C60,26.0168454 59.2236758,22.2149669 57.8140888,18.7374164 L57.8140888,18.7374164 L39.0782528,37.4732525 C38.6969661,37.9353408 38.2808843,38.3683496 37.8345288,38.7677597 L58.698414,38.7677597 L58.698414,38.7677597 L58.698414,38.7677597 Z" id="Path" fill="#5283F0"></path>
                <path d="M56.4955052,15.9168384 C53.2765831,9.87368162 48.0506485,5.06167747 41.7073171,2.37038357 L41.7073171,30 L41.7041834,30 C41.7062685,30.0948725 41.7073171,30.1900574 41.7073171,30.2855443 C41.7073171,30.4286872 41.7045056,30.571326 41.6989362,30.7134074 L56.4955052,15.9168384 L56.4955052,15.9168384 L56.4955052,15.9168384 Z" id="Path" fill="#6467F0"></path>
            </g>
        </g>
    </g>
</svg>