<?xml version="1.0" encoding="UTF-8"?>
<svg width="16px" height="16px" viewBox="0 0 16 16" version="1.1" xmlns="http://www.w3.org/2000/svg" xmlns:xlink="http://www.w3.org/1999/xlink">
    <!-- Generator: Sketch 45.2 (43514) - http://www.bohemiancoding.com/sketch -->
    <title>Group 13</title>
    <desc>Created with Sketch.</desc>
    <defs></defs>
    <g id="个人中心" stroke="none" stroke-width="1" fill="none" fill-rule="evenodd">
        <g id="Desktop-HD-Copy-2" transform="translate(-277.000000, -179.000000)">
            <g id="Modal-Copy-3" transform="translate(19.000000, 109.000000)">
                <g id="Group-14" transform="translate(250.000000, 62.000000)">
                    <g id="Group-13" transform="translate(8.000000, 9.000000)">
                        <g id="Group-12" transform="translate(1.000000, 0.000000)">
                            <path d="M1.77635684e-15,3.5 L12.9346924,3.5 L14.0036315,4.27635343 L14.0036315,4.27635343 C14.1823765,4.40617312 14.2220384,4.65631428 14.0922187,4.83505935 C14.016961,4.93867954 13.896638,5 13.7685721,5 L1.77635684e-15,5 L1.77635684e-15,3.5 Z" id="Rectangle-31" fill="#555555"></path>
                            <path d="M12.5387139,4.14346131 L7.38264562,0.292024682" id="Path-3" stroke="#555555" stroke-width="1.5"></path>
                        </g>
                        <g id="Group-12" transform="translate(7.500000, 11.500000) scale(-1, -1) translate(-7.500000, -11.500000) translate(0.000000, 9.000000)">
                            <path d="M1.77635684e-15,3.5 L12.9346924,3.5 L14.0036315,4.27635343 L14.0036315,4.27635343 C14.1823765,4.40617312 14.2220384,4.65631428 14.0922187,4.83505935 C14.016961,4.93867954 13.896638,5 13.7685721,5 L1.77635684e-15,5 L1.77635684e-15,3.5 Z" id="Rectangle-31" fill="#555555"></path>
                            <path d="M12.5387139,4.14346131 L7.38264562,0.292024682" id="Path-3" stroke="#555555" stroke-width="1.5"></path>
                        </g>
                    </g>
                </g>
            </g>
        </g>
    </g>
</svg>