<?xml version="1.0" encoding="UTF-8"?>
<svg width="16px" height="16px" viewBox="0 0 16 16" version="1.1" xmlns="http://www.w3.org/2000/svg" xmlns:xlink="http://www.w3.org/1999/xlink">
    <!-- Generator: Sketch 46.2 (44496) - http://www.bohemiancoding.com/sketch -->
    <title>Group</title>
    <desc>Created with Sketch.</desc>
    <defs></defs>
    <g id="Symbols" stroke="none" stroke-width="1" fill="none" fill-rule="evenodd">
        <g id="icon/删除" transform="translate(-8.000000, -8.000000)">
            <g id="删除">
                <g id="Group" transform="translate(8.000000, 8.000000)">
                    <path d="M2.53698817,2.5 L3.35651573,13.9733858 C3.4161052,14.8076383 4.1595568,15.5 4.99961498,15.5 L11.000385,15.5 C11.8474505,15.5 12.5834319,14.8141191 12.6434843,13.9733858 L13.4630118,2.5 L2.53698817,2.5 Z" id="Combined-Shape" stroke="#CC463D"></path>
                    <rect id="Rectangle-12" stroke="#CC463D" x="0.5" y="2.5" width="15" height="1"></rect>
                    <rect id="Rectangle" fill="#CC463D" x="6" y="6" width="1" height="6"></rect>
                    <rect id="Rectangle-Copy" fill="#CC463D" x="9" y="6" width="1" height="6"></rect>
                    <path d="M4,0.5 C4,0.223857625 4.23079681,0 4.50043583,0 L11.4995642,0 C11.7759472,0 12,0.231933594 12,0.5 L12,1 L4,1 L4,0.5 Z" id="Rectangle-12" fill="#CC463D"></path>
                </g>
            </g>
        </g>
    </g>
</svg>