<?xml version="1.0" encoding="UTF-8"?>
<svg width="5px" height="8px" viewBox="0 0 5 8" version="1.1" xmlns="http://www.w3.org/2000/svg" xmlns:xlink="http://www.w3.org/1999/xlink">
    <!-- Generator: Sketch 46 (44423) - http://www.bohemiancoding.com/sketch -->
    <title>肩头</title>
    <desc>Created with Sketch.</desc>
    <defs></defs>
    <g id="工具栏（以此为准）" stroke="none" stroke-width="1" fill="none" fill-rule="evenodd">
        <g id="Desktop-HD-Copy-2" transform="translate(-433.000000, -361.000000)" fill="#333333">
            <g id="Group-4" transform="translate(20.000000, 41.000000)">
                <g id="Section-Tree" transform="translate(400.000000, 80.000000)">
                    <g id="Group-9-Copy" transform="translate(10.000000, 236.000000)">
                        <g id="肩头" transform="translate(0.000000, 3.000000)">
                            <g id="展开">
                                <path d="M7.7071742,5.23426064 L3.48740851,8.61007319 L3.48740851,8.61007319 C3.35802993,8.71357605 3.16924222,8.69259964 3.06573936,8.56322106 C3.02318423,8.51002715 3,8.44393399 3,8.37581255 L3,1.62418745 L3,1.62418745 C3,1.45850203 3.13431458,1.32418745 3.3,1.32418745 C3.36812145,1.32418745 3.4342146,1.34737168 3.48740851,1.38992681 L7.7071742,4.76573936 L7.7071742,4.76573936 C7.83655278,4.86924222 7.85752919,5.05802993 7.75402633,5.18740851 C7.7401868,5.20470793 7.72447361,5.22042111 7.7071742,5.23426064 Z" id="Triangle"></path>
                            </g>
                        </g>
                    </g>
                </g>
            </g>
        </g>
    </g>
</svg>