<?xml version="1.0" encoding="UTF-8"?>
<svg width="8px" height="5px" viewBox="0 0 8 5" version="1.1" xmlns="http://www.w3.org/2000/svg" xmlns:xlink="http://www.w3.org/1999/xlink">
    <!-- Generator: Sketch 46 (44423) - http://www.bohemiancoding.com/sketch -->
    <title>肩头</title>
    <desc>Created with Sketch.</desc>
    <defs></defs>
    <g id="工具栏（以此为准）" stroke="none" stroke-width="1" fill="none" fill-rule="evenodd">
        <g id="Desktop-HD-Copy-2" transform="translate(-431.000000, -171.000000)" fill="#333333">
            <g id="Group-4" transform="translate(20.000000, 41.000000)">
                <g id="Section-Tree" transform="translate(400.000000, 80.000000)">
                    <g id="Group-9" transform="translate(10.000000, 44.000000)">
                        <g id="肩头-右" transform="translate(0.000000, 3.000000)">
                            <g id="展开">
                                <path d="M7.29310395,5.64414348 L3.07333827,9.01995603 L3.07333827,9.01995603 C2.94395969,9.12345889 2.75517198,9.10248248 2.65166911,8.9731039 C2.60911398,8.91990999 2.58592976,8.85381684 2.58592976,8.78569539 L2.58592976,2.0340703 L2.58592976,2.0340703 C2.58592976,1.86838487 2.72024433,1.7340703 2.88592976,1.7340703 C2.95405121,1.7340703 3.02014436,1.75725452 3.07333827,1.79980965 L7.29310395,5.1756222 L7.29310395,5.1756222 C7.42248253,5.27912506 7.44345895,5.46791277 7.33995608,5.59729136 C7.32611655,5.61459077 7.31040336,5.63030396 7.29310395,5.64414348 Z" id="Triangle" transform="translate(4.995818, 5.409888) rotate(-270.000000) translate(-4.995818, -5.409888) "></path>
                            </g>
                        </g>
                    </g>
                </g>
            </g>
        </g>
    </g>
</svg>