
<svg width="14px" height="14px" viewBox="0 0 14 14" version="1.1" xmlns="http://www.w3.org/2000/svg" xmlns:xlink="http://www.w3.org/1999/xlink">
    <!-- Generator: Sketch 46.2 (44496) - http://www.bohemiancoding.com/sketch -->
    <desc>Created with Sketch.</desc>
    <defs></defs>
    <g id="Page-1" stroke="none" stroke-width="1" fill="none" fill-rule="evenodd">
        <g id="ts">
            <rect id="Rectangle-3" fill="#17A8E2" fill-rule="nonzero" x="0" y="0" width="14" height="14"></rect>
            <g id="TS" transform="translate(3.000000, 7.000000)" fill="#FFFFFF">
                <path d="M4.79296875,0.2421875 L4.79296875,1.26171875 L3.0703125,1.26171875 L3.0703125,6 L1.859375,6 L1.859375,1.26171875 L0.12890625,1.26171875 L0.12890625,0.2421875 L4.79296875,0.2421875 Z M6.3671875,4.22265625 C6.40364602,4.4856784 6.47525988,4.68229102 6.58203125,4.8125 C6.77734473,5.04948035 7.1119768,5.16796875 7.5859375,5.16796875 C7.86979309,5.16796875 8.10025953,5.13671906 8.27734375,5.07421875 C8.61328293,4.95442648 8.78125,4.73177246 8.78125,4.40625 C8.78125,4.21614488 8.6979175,4.06901094 8.53125,3.96484375 C8.3645825,3.86328074 8.10286637,3.77343789 7.74609375,3.6953125 L7.13671875,3.55859375 C6.53775742,3.42317641 6.12369906,3.27604246 5.89453125,3.1171875 C5.50650848,2.85156117 5.3125,2.43620074 5.3125,1.87109375 C5.3125,1.35546617 5.49999813,0.927085039 5.875,0.5859375 C6.25000188,0.244789961 6.80077762,0.07421875 7.52734375,0.07421875 C8.13411762,0.07421875 8.65169057,0.235024434 9.08007812,0.556640625 C9.50846568,0.878256816 9.73307281,1.34504902 9.75390625,1.95703125 L8.59765625,1.95703125 C8.57682281,1.61067535 8.42578266,1.36458406 8.14453125,1.21875 C7.95703031,1.12239535 7.72395973,1.07421875 7.4453125,1.07421875 C7.13541512,1.07421875 6.88802176,1.13671812 6.703125,1.26171875 C6.51822824,1.38671938 6.42578125,1.5611968 6.42578125,1.78515625 C6.42578125,1.99088645 6.51692617,2.14453074 6.69921875,2.24609375 C6.81640684,2.31380242 7.06640434,2.39322871 7.44921875,2.484375 L8.44140625,2.72265625 C8.87630426,2.82682344 9.20442598,2.96614496 9.42578125,3.140625 C9.76953297,3.41145969 9.94140625,3.80338285 9.94140625,4.31640625 C9.94140625,4.84245055 9.74023639,5.27929514 9.33789062,5.62695312 C8.93554486,5.97461111 8.36719117,6.1484375 7.6328125,6.1484375 C6.88280875,6.1484375 6.2929709,5.97721525 5.86328125,5.63476562 C5.4335916,5.292316 5.21875,4.82161758 5.21875,4.22265625 L6.3671875,4.22265625 Z"></path>
            </g>
        </g>
    </g>
</svg>