<?xml version="1.0" encoding="UTF-8"?>
<svg width="16px" height="11px" viewBox="0 0 16 11" version="1.1" xmlns="http://www.w3.org/2000/svg" xmlns:xlink="http://www.w3.org/1999/xlink">
    <!-- Generator: Sketch 50.2 (55047) - http://www.bohemiancoding.com/sketch -->
    <title>Group 2</title>
    <desc>Created with Sketch.</desc>
    <defs></defs>
    <g id="云函数icon_by左阳" stroke="none" stroke-width="1" fill="none" fill-rule="evenodd">
        <g id="上传" transform="translate(0.000000, -3.000000)">
            <g id="Group-2" transform="translate(1.000000, 4.000000)">
                <g id="Group" stroke="#000000" stroke-linecap="round" stroke-linejoin="round" stroke-width="0.933333333">
                    <g id="Shape">
                        <path d="M11.030303,8.34166667 C12.6424242,8.34166667 13.9575758,7.01555556 13.9575758,5.39 C13.9575758,3.76444444 12.6424242,2.43833333 11.030303,2.43833333 C10.8606061,2.43833333 10.7333333,2.43833333 10.5636364,2.48111111 C9.88484848,1.11222222 8.52727273,0.171111111 6.91515152,0.171111111 C5.00606061,0.171111111 3.39393939,1.49722222 2.96969697,3.29388889 C2.92727273,3.29388889 2.88484848,3.29388889 2.88484848,3.29388889 C1.48484848,3.29388889 0.381818182,4.44888889 0.381818182,5.81777778 C0.381818182,7.18666667 1.52727273,8.34166667 2.88484848,8.34166667 L3.94545455,8.34166667"></path>
                        <path d="M8.78181818,3.42222222 C9.33333333,2.78055556 10.0969697,2.39555556 10.9878788,2.39555556 C12.6,2.39555556 13.9151515,3.72166667 13.9151515,5.34722222 C13.9151515,6.97277778 12.6,8.29888889 10.9878788,8.29888889 L10.3515152,8.29888889"></path>
                    </g>
                </g>
                <g id="Group" transform="translate(4.666667, 4.500000)">
                    <path d="M2.41818182,4.22 L2.41818182,0.98" id="Shape" stroke="#000000" stroke-width="0.933333333" stroke-linecap="round" stroke-linejoin="round"></path>
                    <path d="M2.42281005,1.61372852 L1.26425528,2.73729022 C1.08253056,2.9135261 0.78705477,2.91433785 0.604291627,2.7391033 C0.421528484,2.56386876 0.420686672,2.27894567 0.602411389,2.10270978 L2.08725987,0.662709783 C2.26790787,0.487518094 2.56124785,0.485526068 2.74443671,0.658246999 L4.27170944,2.098247 C4.45599017,2.2719974 4.45930993,2.55690366 4.27912432,2.73460293 C4.09893872,2.91230221 3.80348038,2.9155034 3.61919965,2.741753 L2.42281005,1.61372852 Z" id="Shape" fill="#000000" fill-rule="nonzero"></path>
                </g>
            </g>
        </g>
    </g>
</svg>