<?xml version="1.0" encoding="UTF-8"?>
<svg width="18px" height="20px" viewBox="0 0 18 20" version="1.1" xmlns="http://www.w3.org/2000/svg" xmlns:xlink="http://www.w3.org/1999/xlink">
    <!-- Generator: Sketch 45.2 (43514) - http://www.bohemiancoding.com/sketch -->
    <title>Path 67</title>
    <desc>Created with Sketch.</desc>
    <defs></defs>
    <g id="Page-1" stroke="none" stroke-width="1" fill="none" fill-rule="evenodd">
        <g id="Desktop-HD-Copy-3" transform="translate(-1196.000000, -461.000000)" stroke-width="1.95" stroke="#FFFFFF">
            <g id="Group-2-Copy-4" transform="translate(1009.000000, 213.000000)">
                <g id="Group-4-Copy-2" transform="translate(173.000000, 236.000000)">
                    <g id="Group-3">
                        <path d="M26.0586924,25.600266 C24.6365004,24.8659756 24.3022586,23.1910128 25.3591419,21.9678976 L25.7603162,21.5036246 C26.3740301,20.7933826 26.876455,19.2771614 26.876455,18.1962599 L26.876455,16.3437835 C26.876455,14.5855229 25.0317051,12.975 23.0197085,12.975 C20.980043,12.975 19.0375047,14.6119561 19.0375047,16.3431042 L19.0375047,18.1952902 C19.0375047,19.3504616 19.479712,20.8266107 20.0634073,21.50202 L20.4645815,21.9662293 C21.5212265,23.1889011 21.1872073,24.8573277 19.7750063,25.5936198 L15.8179058,28.535005 L15.6556045,28.6327144 C15.3098409,28.7974418 14.975,29.32109 14.975,29.6853107 C14.975,30.1547057 15.3555198,30.5352254 15.8249147,30.5352254 L30.1750853,30.5352254 C30.6444802,30.5352254 31.025,30.1547057 31.025,29.6853107 C31.025,29.3181205 30.6918918,28.7984425 30.3445368,28.6330254 L30.1983181,28.547051 L26.0586924,25.600266 Z" id="Path-67"></path>
                    </g>
                </g>
            </g>
        </g>
    </g>
</svg>