<?xml version="1.0" encoding="UTF-8"?>
<svg width="56px" height="35px" viewBox="0 0 56 35" version="1.1" xmlns="http://www.w3.org/2000/svg" xmlns:xlink="http://www.w3.org/1999/xlink">
    <!-- Generator: Sketch 48.2 (47327) - http://www.bohemiancoding.com/sketch -->
    <title>video</title>
    <desc>Created with Sketch.</desc>
    <defs></defs>
    <g id="Page-1" stroke="none" stroke-width="1" fill="none" fill-rule="evenodd">
        <g id="video" fill="#000000" fill-rule="nonzero">
            <path d="M38,31 L38,4 C38,2.8132405 37.1908645,2 36,2 L2,2 C0.8112641,2 0,2.8163894 0,4 L0,31 C0,32.1867595 0.8091355,33 2,33 L36,33 C37.1887359,33 38,32.1836106 38,31 Z M42,12 C46.4094613,7.8302685 52.6155532,1.7983953 53,1 C54.655314,0.7243066 56,1.3902315 56,3 L56,32 C56,33.420935 54.784013,34.3474391 53,34 C52.8615663,33.3061348 46.5169983,27.0959992 42,22 L42,12 Z" id="Rectangle-41"></path>
        </g>
    </g>
</svg>