<?xml version="1.0" encoding="UTF-8"?>
<svg width="39px" height="55px" viewBox="0 0 39 55" version="1.1" xmlns="http://www.w3.org/2000/svg" xmlns:xlink="http://www.w3.org/1999/xlink">
    <!-- Generator: Sketch 48.2 (47327) - http://www.bohemiancoding.com/sketch -->
    <title>voice</title>
    <desc>Created with Sketch.</desc>
    <defs></defs>
    <g id="Page-1" stroke="none" stroke-width="1" fill="none" fill-rule="evenodd">
        <g id="voice" fill="#000000" fill-rule="nonzero">
            <path d="M4,23 L4,29 C4,37.2292902 10.9395864,44 20,44 C28.0604136,44 35,37.2292902 35,29 L35,23 L37.9967579,23 C38.5620117,23 39,23.4503689 39,24.0059271 L39,29.25 C39,39.0175306 31.3659013,46.9131369 22,47.896765 L22,51 L34.0036849,51 C34.5617743,51 35,51.4519098 35,52.0093689 L35,53.9906311 C35,54.5566468 34.5539345,55 34.0036849,55 L4.9963151,55 C4.4382257,55 4,54.5480902 4,53.9906311 L4,52.0093689 C4,51.4433532 4.4460655,51 4.9963151,51 L17,51 L17,47.7967778 C7.2081799,46.4648076 0,38.7411471 0,29.25 L0,23.9975052 C0,23.4474688 0.4491668,23 1.0032421,23 L4,23 Z M19.5,0 C25.3002649,0 30,4.7052765 30,10.5095291 L30,29.4904709 C30,35.2938678 25.2989899,40 19.5,40 C13.6997351,40 9,35.2947235 9,29.4904709 L9,10.5095291 C9,4.7061322 13.7010101,0 19.5,0 Z" id="Path-2"></path>
        </g>
    </g>
</svg>