<?xml version="1.0" encoding="UTF-8"?>
<svg width="24px" height="18px" viewBox="0 0 24 18" version="1.1" xmlns="http://www.w3.org/2000/svg" xmlns:xlink="http://www.w3.org/1999/xlink">
    <!-- Generator: Sketch 46 (44423) - http://www.bohemiancoding.com/sketch -->
    <title>Wifi</title>
    <desc>Created with Sketch.</desc>
    <defs></defs>
    <g id="Page-2" stroke="none" stroke-width="1" fill="none" fill-rule="evenodd">
        <g id="转载文章-copy-30" transform="translate(-174.000000, -12.000000)" fill="#FFFFFF">
            <g id="Navigation-/-6-/-Nav-with-...">
                <g id="Status-Bar-/-White">
                    <path d="M185.991503,15.0500191 C189.871048,15.0500191 193.406722,16.4830533 196.117706,18.8328734 L198,16.7490893 C194.789204,13.9542275 190.595777,12 185.991503,12 C181.394227,12 177.206797,13.9482936 174,16.7342546 L175.878296,18.8210057 C178.58728,16.4781084 182.116956,15.0500191 185.991503,15.0500191 L185.991503,15.0500191 Z M185.991503,21.0650048 C188.316631,21.0650048 190.440835,21.911573 192.07922,23.3060369 L194.070474,21.1006081 C191.903286,19.2353889 189.084343,18.0169637 185.991503,18.0169637 C182.904661,18.0169637 180.087717,19.232422 177.922529,21.0917073 L179.910783,23.300103 C181.548169,21.908606 183.669374,21.0650048 185.991503,21.0650048 L185.991503,21.0650048 Z M190.086967,25.5114658 C188.978383,24.588746 187.550918,23.9498639 185.990504,23.9498639 C184.433088,23.9498639 183.007622,24.587757 181.899038,25.5065208 L185.990504,30.048913 L190.086967,25.5114658 L190.086967,25.5114658 Z" id="Wifi"></path>
                </g>
            </g>
        </g>
    </g>
</svg>