<?xml version="1.0" encoding="utf-8"?>
<!-- Generator: Adobe Illustrator 17.0.0, SVG Export Plug-In . SVG Version: 6.00 Build 0)  -->
<!DOCTYPE svg PUBLIC "-//W3C//DTD SVG 1.1//EN" "http://www.w3.org/Graphics/SVG/1.1/DTD/svg11.dtd">
<svg version="1.1" id="图层_1" xmlns="http://www.w3.org/2000/svg" xmlns:xlink="http://www.w3.org/1999/xlink" x="0px" y="0px"
	 width="16px" height="16px" viewBox="0 0 16 16" enable-background="new 0 0 16 16" xml:space="preserve">
<g>
	<g>
		<path fill="#2277da" d="M8,3c2.757,0,5,2.243,5,5s-2.243,5-5,5s-5-2.243-5-5S5.243,3,8,3 M8,2C4.686,2,2,4.686,2,8s2.686,6,6,6
			s6-2.686,6-6S11.314,2,8,2L8,2z"/>
	</g>
	<g>
		<path fill="#2277da" d="M8,7c0.551,0,1,0.449,1,1S8.551,9,8,9S7,8.551,7,8S7.449,7,8,7 M8,6C6.895,6,6,6.895,6,8s0.895,2,2,2
			s2-0.895,2-2S9.105,6,8,6L8,6z"/>
	</g>
	<g>
		<path fill="#2277da" d="M7,13.91V16h2v-2.09C8.674,13.965,8.341,14,8,14S7.326,13.965,7,13.91z"/>
		<path fill="#2277da" d="M9,2.09V0H7v2.09C7.326,2.035,7.659,2,8,2S8.674,2.035,9,2.09z"/>
		<path fill="#2277da" d="M13.91,9H16V7h-2.09C13.965,7.326,14,7.659,14,8S13.965,8.674,13.91,9z"/>
		<path fill="#2277da" d="M2.09,7H0v2h2.09C2.035,8.674,2,8.341,2,8S2.035,7.326,2.09,7z"/>
		<path fill="#2277da" d="M12.887,4.527l1.477-1.477L12.95,1.636l-1.477,1.477C12.02,3.502,12.498,3.98,12.887,4.527z"/>
		<path fill="#2277da" d="M3.113,11.473L1.636,12.95l1.414,1.414l1.477-1.477C3.98,12.498,3.502,12.02,3.113,11.473z"/>
		<path fill="#2277da" d="M11.473,12.887l1.477,1.477l1.414-1.414l-1.477-1.477C12.498,12.02,12.02,12.498,11.473,12.887z"/>
		<path fill="#2277da" d="M4.527,3.113L3.05,1.636L1.636,3.05l1.477,1.477C3.502,3.98,3.98,3.502,4.527,3.113z"/>
	</g>
</g>
</svg>
