<?xml version="1.0" encoding="utf-8"?>
<!-- Generator: Adobe Illustrator 17.0.0, SVG Export Plug-In . SVG Version: 6.00 Build 0)  -->
<!DOCTYPE svg PUBLIC "-//W3C//DTD SVG 1.1//EN" "http://www.w3.org/Graphics/SVG/1.1/DTD/svg11.dtd">
<svg version="1.1" id="图层_1" xmlns="http://www.w3.org/2000/svg" xmlns:xlink="http://www.w3.org/1999/xlink" x="0px" y="0px"
	 width="16px" height="16px" viewBox="0 0 16 16" enable-background="new 0 0 16 16" xml:space="preserve">
<g>
	<g>
		<path fill-rule="evenodd" clip-rule="evenodd" fill="#2277da" d="M14.852,14.139l-3.288-3.277C13.559,8.5,13.47,4.976,11.245,2.75
			c-2.347-2.348-6.152-2.348-8.498,0c-2.347,2.348-2.347,6.155,0,8.503c2.228,2.229,5.755,2.315,8.116,0.313l3.304,3.293
			c0.194,0.194,0.505,0.189,0.694-0.009C15.05,14.65,15.046,14.332,14.852,14.139z M10.858,10.159L10.858,10.159
			c-0.104,0.127-0.193,0.263-0.312,0.382c-0.122,0.122-0.26,0.213-0.391,0.319l0,0c0,0,0,0,0,0
			c-0.492,0.401-1.034,0.696-1.612,0.883c-0.004,0.001-0.009,0.002-0.013,0.004c-0.278,0.089-0.559,0.156-0.846,0.195
			c-0.031,0.004-0.062,0.005-0.093,0.009c-0.261,0.031-0.521,0.047-0.784,0.037c-0.072-0.002-0.142-0.015-0.214-0.02
			c-0.224-0.019-0.447-0.041-0.668-0.089c-0.118-0.025-0.231-0.069-0.347-0.103c-0.175-0.052-0.351-0.098-0.521-0.17
			c-0.166-0.069-0.321-0.164-0.48-0.253c-0.116-0.065-0.237-0.116-0.349-0.191c-0.267-0.179-0.522-0.383-0.759-0.62
			c-1.954-1.954-1.954-5.122,0-7.075c1.954-1.954,5.122-1.954,7.076,0c0.237,0.237,0.442,0.492,0.62,0.759
			c0.075,0.112,0.126,0.233,0.191,0.349c0.088,0.159,0.183,0.315,0.253,0.481c0.072,0.171,0.118,0.348,0.17,0.524
			c0.034,0.115,0.077,0.228,0.102,0.345c0.049,0.223,0.071,0.448,0.09,0.674c0.005,0.07,0.018,0.139,0.02,0.209
			c0.01,0.265-0.007,0.527-0.038,0.79c-0.004,0.029-0.004,0.059-0.008,0.088c-0.04,0.289-0.107,0.572-0.198,0.852
			c-0.001,0.003-0.001,0.005-0.002,0.008C11.559,9.123,11.262,9.667,10.858,10.159C10.858,10.159,10.858,10.159,10.858,10.159z"/>
	</g>
</g>
</svg>
