<?xml version="1.0" encoding="utf-8"?>
<!-- Generator: Adobe Illustrator 17.0.0, SVG Export Plug-In . SVG Version: 6.00 Build 0)  -->
<!DOCTYPE svg PUBLIC "-//W3C//DTD SVG 1.1//EN" "http://www.w3.org/Graphics/SVG/1.1/DTD/svg11.dtd">
<svg version="1.1" id="图层_1" xmlns="http://www.w3.org/2000/svg" xmlns:xlink="http://www.w3.org/1999/xlink" x="0px" y="0px"
	 width="16px" height="16px" viewBox="0 0 16 16" enable-background="new 0 0 16 16" xml:space="preserve">
<g>
	<rect x="2" y="2" fill="#444444" width="1" height="1"/>
	<rect x="3" y="3" fill="#444444" width="1" height="1"/>
	<rect x="4" y="4" fill="#444444" width="1" height="1"/>
	<rect x="5" y="5" fill="#444444" width="1" height="1"/>
	<rect x="6" y="6" fill="#444444" width="1" height="1"/>
	<rect x="7" y="7" fill="#444444" width="1" height="1"/>
	<rect x="8" y="8" fill="#444444" width="1" height="1"/>
	<rect x="9" y="9" fill="#444444" width="1" height="1"/>
	<rect x="10" y="10" fill="#444444" width="1" height="1"/>
	<rect x="11" y="11" fill="#444444" width="1" height="1"/>
	<rect x="12" y="12" fill="#444444" width="1" height="1"/>
	<rect x="5" y="9" fill="#444444" width="1" height="1"/>
	<rect x="4" y="10" fill="#444444" width="1" height="1"/>
	<rect x="3" y="11" fill="#444444" width="1" height="1"/>
	<rect x="2" y="12" fill="#444444" width="1" height="1"/>
	<rect x="6" y="8" fill="#444444" width="1" height="1"/>
	<rect x="8" y="6" fill="#444444" width="1" height="1"/>
	<rect x="9" y="5" fill="#444444" width="1" height="1"/>
	<rect x="10" y="4" fill="#444444" width="1" height="1"/>
	<rect x="11" y="3" fill="#444444" width="1" height="1"/>
	<rect x="12" y="2" fill="#444444" width="1" height="1"/>
</g>
</svg>
