<?xml version="1.0" encoding="utf-8"?>
<!-- Generator: Adobe Illustrator 16.0.0, SVG Export Plug-In . SVG Version: 6.00 Build 0)  -->
<!DOCTYPE svg PUBLIC "-//W3C//DTD SVG 1.1//EN" "http://www.w3.org/Graphics/SVG/1.1/DTD/svg11.dtd">
<svg version="1.1" id="图层_1" xmlns="http://www.w3.org/2000/svg" xmlns:xlink="http://www.w3.org/1999/xlink" x="0px" y="0px"
	 width="16px" height="16px" viewBox="0 0 16 16" enable-background="new 0 0 16 16" xml:space="preserve">
<g>
	<g>
		<path fill="#888888" d="M16,9.652c0-2.276-2.205-4.125-4.914-4.125c-2.71,0-4.913,1.851-4.913,4.125
			c0,0.251,0.037,0.494,0.089,0.733c-0.102,0.004-0.199,0.023-0.3,0.023c-0.558,0-1.088-0.077-1.562-0.223
			c-0.128-0.04-0.25-0.04-0.323-0.04c-0.185,0-0.371,0.055-0.528,0.15l-0.477,0.276c0.022-0.091,0.047-0.188,0.073-0.302
			l0.018-0.153c0-0.298-0.13-0.55-0.353-0.7C1.785,8.673,1.196,7.599,1.196,6.474c0-2.17,2.139-3.935,4.767-3.935
			c2.249,0,4.127,1.297,4.626,3.029c0.166-0.015,0.327-0.043,0.497-0.043c0.188,0,0.361,0.029,0.541,0.047
			C11.131,3.281,8.781,1.539,5.96,1.539c-3.18,0-5.767,2.214-5.767,4.935c0,1.417,0.705,2.754,1.952,3.699
			c-0.063,0.25-0.154,0.596-0.196,0.729L1.92,10.984c-0.02,0.055-0.052,0.146-0.052,0.271c0,0.375,0.305,0.68,0.679,0.68
			c0.154,0,0.27-0.063,0.349-0.104l1.195-0.689c0.584,0.177,1.213,0.268,1.87,0.268c0.228,0,0.453-0.014,0.674-0.037
			c-0.001-0.003-0.002-0.004-0.003-0.006c0.778,1.418,2.476,2.409,4.454,2.409c0.554,0,1.067-0.07,1.668-0.248
			c-0.058,0.029-0.103,0.036-0.108,0.036l0.994,0.563l0.17,0.084h0.133c0.357,0.001,0.647-0.288,0.647-0.643
			c0-0.063-0.011-0.116-0.017-0.116c0,0,0,0,0,0.003c0-0.077-0.008-0.103-0.065-0.308c-0.032-0.116-0.077-0.277-0.118-0.445
			C15.414,11.923,16,10.819,16,9.652z M13.697,11.969c-0.25,0.157-0.377,0.433-0.338,0.657l0.016,0.201l-0.264-0.146
			c-0.158-0.079-0.305-0.117-0.449-0.117c-0.082,0-0.217,0-0.268,0.034c-0.42,0.12-0.851,0.176-1.31,0.176
			c-2.157,0-3.912-1.401-3.912-3.125c0-1.723,1.757-3.124,3.913-3.124C13.244,6.526,15,7.928,15,9.649
			C15,10.531,14.525,11.377,13.697,11.969z M12.545,7.884c-0.334,0-0.6,0.262-0.6,0.59c0,0.328,0.266,0.592,0.6,0.592
			c0.332,0,0.6-0.279,0.6-0.592C13.145,8.146,12.877,7.884,12.545,7.884z M9.589,7.884c-0.334,0.001-0.601,0.262-0.601,0.59
			c0,0.328,0.268,0.592,0.601,0.592c0.334,0,0.601-0.279,0.601-0.592C10.189,8.146,9.923,7.884,9.589,7.884z M6.999,5.067
			c0,0.37,0.293,0.667,0.667,0.667c0.372,0,0.667-0.311,0.667-0.667C8.333,4.695,8.04,4.4,7.666,4.4S6.999,4.695,6.999,5.067z
			 M3.53,5.067c0,0.371,0.295,0.667,0.667,0.667c0.371,0,0.667-0.311,0.667-0.667c0-0.372-0.296-0.667-0.667-0.667
			C3.825,4.4,3.53,4.695,3.53,5.067z"/>
	</g>
</g>
</svg>
