<?xml version="1.0" encoding="utf-8"?>
<!-- Generator: Adobe Illustrator 17.0.0, SVG Export Plug-In . SVG Version: 6.00 Build 0)  -->
<!DOCTYPE svg PUBLIC "-//W3C//DTD SVG 1.1//EN" "http://www.w3.org/Graphics/SVG/1.1/DTD/svg11.dtd">
<svg version="1.1" id="图层_1" xmlns="http://www.w3.org/2000/svg" xmlns:xlink="http://www.w3.org/1999/xlink" x="0px" y="0px"
	 width="16px" height="16px" viewBox="0 0 16 16" enable-background="new 0 0 16 16" xml:space="preserve">
<path fill="#888888" d="M8.707,7.293c0.39,0.39,0.39,1.024,0,1.414s-1.024,0.39-1.414,0c-0.39-0.39-0.39-1.024,0-1.414
	C7.683,6.903,8.317,6.903,8.707,7.293 M9.414,6.586c-0.781-0.781-2.047-0.781-2.828,0s-0.781,2.047,0,2.828
	c0.781,0.781,2.047,0.781,2.828,0C10.195,8.633,10.195,7.367,9.414,6.586L9.414,6.586z"/>
<g>
	<path fill="#888888" d="M10.828,5.172c0.35,0.35,0.609,0.753,0.802,1.178l0.908-0.413c-0.241-0.532-0.566-1.035-1.003-1.473
		s-0.941-0.761-1.473-1.003L9.65,4.37C10.076,4.563,10.479,4.822,10.828,5.172z"/>
	<path fill="#888888" d="M5.172,10.828C4.822,10.479,4.563,10.076,4.37,9.65l-0.908,0.413c0.241,0.532,0.566,1.035,1.003,1.473
		s0.941,0.761,1.473,1.003L6.35,11.63C5.924,11.437,5.521,11.178,5.172,10.828z"/>
</g>
<path fill="#888888" d="M8,1c3.86,0,7,3.14,7,7s-3.14,7-7,7s-7-3.14-7-7S4.14,1,8,1 M8,0C3.582,0,0,3.582,0,8s3.582,8,8,8
	s8-3.582,8-8S12.418,0,8,0L8,0z"/>
</svg>
