<?xml version="1.0" encoding="utf-8"?>
<!-- Generator: Adobe Illustrator 17.0.0, SVG Export Plug-In . SVG Version: 6.00 Build 0)  -->
<!DOCTYPE svg PUBLIC "-//W3C//DTD SVG 1.1//EN" "http://www.w3.org/Graphics/SVG/1.1/DTD/svg11.dtd">
<svg version="1.1" id="图层_1" xmlns="http://www.w3.org/2000/svg" xmlns:xlink="http://www.w3.org/1999/xlink" x="0px" y="0px"
	 width="16px" height="16px" viewBox="0 0 16 16" enable-background="new 0 0 16 16" xml:space="preserve">
<path fill-rule="evenodd" clip-rule="evenodd" fill="#888888" d="M9,8H7l0,0H6l0,0H5V3h6v5h-1 M10,4H6v3h4V4z"/>
<path fill-rule="evenodd" clip-rule="evenodd" fill="#888888" d="M7,5h2v1H7V5z"/>
<path fill-rule="evenodd" clip-rule="evenodd" fill="#888888" d="M6,8h1v4H6V8z"/>
<path fill-rule="evenodd" clip-rule="evenodd" fill="#888888" d="M7,12h2v1H7V12z"/>
<path fill-rule="evenodd" clip-rule="evenodd" fill="#888888" d="M9,9h1v1H9V9z"/>
<path fill-rule="evenodd" clip-rule="evenodd" fill="#888888" d="M9,11h1v1H9V11z"/>
<path fill-rule="evenodd" clip-rule="evenodd" fill="#888888" d="M8,8h1v1H8V8z"/>
<path fill-rule="evenodd" clip-rule="evenodd" fill="#888888" d="M8,10h1v1H8V10z"/>
<g>
	<g>
		<path fill="#888888" d="M14,1v14H2V1H14 M15,0H1v16h14V0L15,0z"/>
	</g>
</g>
</svg>
