<?xml version="1.0" encoding="utf-8"?>
<!-- Generator: Adobe Illustrator 17.0.0, SVG Export Plug-In . SVG Version: 6.00 Build 0)  -->
<!DOCTYPE svg PUBLIC "-//W3C//DTD SVG 1.1//EN" "http://www.w3.org/Graphics/SVG/1.1/DTD/svg11.dtd">
<svg version="1.1" id="图层_1" xmlns="http://www.w3.org/2000/svg" xmlns:xlink="http://www.w3.org/1999/xlink" x="0px" y="0px"
	 width="16px" height="16px" viewBox="0 0 16 16" enable-background="new 0 0 16 16" xml:space="preserve">
<g>
	<g>
		<path fill-rule="evenodd" clip-rule="evenodd" fill="#888888" d="M12,6V4c-0.252-2.247-2.186-4-4.5-4C5.186,0,3.252,1.753,3,4v2H1
			v10h13V6H12z M4,4.5C4,2.567,5.567,1,7.5,1C9.433,1,11,2.567,11,4.5V6H4V4.5z M13,15H2V7h11V15z M7,10.908V14h1v-3.092
			c0.581-0.207,1-0.756,1-1.408C9,8.672,8.328,8,7.5,8C6.672,8,6,8.672,6,9.5C6,10.152,6.419,10.701,7,10.908z"/>
	</g>
</g>
</svg>
