<?xml version="1.0" encoding="utf-8"?>
<!-- Generator: Adobe Illustrator 17.0.0, SVG Export Plug-In . SVG Version: 6.00 Build 0)  -->
<!DOCTYPE svg PUBLIC "-//W3C//DTD SVG 1.1//EN" "http://www.w3.org/Graphics/SVG/1.1/DTD/svg11.dtd">
<svg version="1.1" id="图层_1" xmlns="http://www.w3.org/2000/svg" xmlns:xlink="http://www.w3.org/1999/xlink" x="0px" y="0px"
	 width="16px" height="16px" viewBox="0 0 16 16" enable-background="new 0 0 16 16" xml:space="preserve">
<path fill="#888888" d="M6,2v3H4v2c0,3.084,1.916,5,5,5h2v-2h3v3.986V14h-3.949l-0.898-0.045c-3.736-0.393-6.714-3.371-7.107-7.107
	L2,5.949V2h0.014H6 M8,0H2.014H0v6l0.05,1C0.52,11.724,4.276,15.48,9,15.95L10,16h6v-2.014V8h-0.809H9v2c-2,0-3-1-3-3h2V0.809V0L8,0
	z"/>
</svg>
