<?xml version="1.0" encoding="utf-8"?>
<!-- Generator: Adobe Illustrator 17.0.0, SVG Export Plug-In . SVG Version: 6.00 Build 0)  -->
<!DOCTYPE svg PUBLIC "-//W3C//DTD SVG 1.1//EN" "http://www.w3.org/Graphics/SVG/1.1/DTD/svg11.dtd">
<svg version="1.1" id="图层_1" xmlns="http://www.w3.org/2000/svg" xmlns:xlink="http://www.w3.org/1999/xlink" x="0px" y="0px"
	 width="16px" height="16px" viewBox="0 0 16 16" enable-background="new 0 0 16 16" xml:space="preserve">
<g>
	<rect x="2" y="10" fill="#2277da" width="1" height="1"/>
	<rect x="1" y="9" fill="#2277da" width="1" height="1"/>
	<rect x="2" y="9" fill="#2277da" width="1" height="1"/>
	<rect x="4" y="10" fill="#2277da" width="1" height="1"/>
	<rect x="4" y="9" fill="#2277da" width="1" height="1"/>
	<rect x="5" y="9" fill="#2277da" width="1" height="1"/>
	<rect x="11" y="5" fill="#2277da" width="1" height="1"/>
	<rect x="10" y="6" fill="#2277da" width="1" height="1"/>
	<rect x="11" y="6" fill="#2277da" width="1" height="1"/>
	<rect x="13" y="6" fill="#2277da" width="1" height="1"/>
	<rect x="13" y="5" fill="#2277da" width="1" height="1"/>
	<rect x="14" y="6" fill="#2277da" width="1" height="1"/>
	<polygon fill="#2277da" points="12,13 6,13 6,14 13,14 13,4 12,4 	"/>
	<polygon fill="#2277da" points="3,2 3,12 4,12 4,3 10,3 10,2 	"/>
</g>
</svg>
