<?xml version="1.0" encoding="utf-8"?>
<!-- Generator: Adobe Illustrator 17.0.0, SVG Export Plug-In . SVG Version: 6.00 Build 0)  -->
<!DOCTYPE svg PUBLIC "-//W3C//DTD SVG 1.1//EN" "http://www.w3.org/Graphics/SVG/1.1/DTD/svg11.dtd">
<svg version="1.1" id="图层_1" xmlns="http://www.w3.org/2000/svg" xmlns:xlink="http://www.w3.org/1999/xlink" x="0px" y="0px"
	 width="16px" height="16px" viewBox="0 0 16 16" enable-background="new 0 0 16 16" xml:space="preserve">
<g>
	<path fill="#888888" d="M4.149,9.023C4.061,8.695,4,8.356,4,8c0-2.209,1.791-4,4-4c0.356,0,0.695,0.061,1.023,0.149l0.921-0.921
		C9.317,3.093,8.672,3,8,3C4.378,3,1.281,5.069,0,8c0.496,1.134,1.268,2.133,2.233,2.939L4.149,9.023z"/>
	<path fill="#888888" d="M12.944,4.47l1.42-1.42L12.95,1.636L8.511,6.074C8.347,6.031,8.178,6,8,6C6.895,6,6,6.895,6,8
		c0,0.178,0.031,0.347,0.074,0.511L1.636,12.95l1.414,1.414l1.897-1.897C5.896,12.806,6.921,13,8,13c3.622,0,6.719-2.069,8-5
		C15.372,6.563,14.296,5.347,12.944,4.47z M8,12c-0.74,0-1.425-0.215-2.02-0.566l1.509-1.509C7.653,9.969,7.822,10,8,10
		c1.105,0,2-0.895,2-2c0-0.178-0.031-0.347-0.074-0.511l1.509-1.509C11.785,6.575,12,7.259,12,8C12,10.209,10.209,12,8,12z"/>
</g>
</svg>
