<?xml version="1.0" encoding="utf-8"?>
<!-- Generator: Adobe Illustrator 17.0.0, SVG Export Plug-In . SVG Version: 6.00 Build 0)  -->
<!DOCTYPE svg PUBLIC "-//W3C//DTD SVG 1.1//EN" "http://www.w3.org/Graphics/SVG/1.1/DTD/svg11.dtd">
<svg version="1.1" id="图层_1" xmlns="http://www.w3.org/2000/svg" xmlns:xlink="http://www.w3.org/1999/xlink" x="0px" y="0px"
	 width="16px" height="16px" viewBox="0 0 16 16" enable-background="new 0 0 16 16" xml:space="preserve">
<path fill="#888888" d="M13,8c0-0.553-0.111-1.075-0.277-1.572l1.723-0.995l-1-1.732l-1.721,0.994C11.02,3.9,10.081,3.32,9,3.101V1
	H7v2.101C5.919,3.32,4.98,3.9,4.275,4.694L2.554,3.701l-1,1.732l1.723,0.995C3.111,6.925,3,7.447,3,8s0.111,1.075,0.277,1.572
	l-1.723,0.995l1,1.732l1.721-0.994C4.98,12.1,5.919,12.68,7,12.899V15h2v-2.101c1.081-0.219,2.02-0.8,2.725-1.594l1.721,0.994
	l1-1.732l-1.723-0.995C12.889,9.075,13,8.553,13,8z M8,11c-1.657,0-3-1.343-3-3s1.343-3,3-3s3,1.343,3,3S9.657,11,8,11z"/>
</svg>
