<?xml version="1.0" encoding="utf-8"?>
<!-- Generator: Adobe Illustrator 17.0.0, SVG Export Plug-In . SVG Version: 6.00 Build 0)  -->
<!DOCTYPE svg PUBLIC "-//W3C//DTD SVG 1.1//EN" "http://www.w3.org/Graphics/SVG/1.1/DTD/svg11.dtd">
<svg version="1.1" id="图层_1" xmlns="http://www.w3.org/2000/svg" xmlns:xlink="http://www.w3.org/1999/xlink" x="0px" y="0px"
	 width="16px" height="16px" viewBox="0 0 16 16" enable-background="new 0 0 16 16" xml:space="preserve">
<g>
	<path fill="#888888" d="M12.71,4.29l-1.43,1.43C11.731,6.369,12,7.152,12,8c0,2.206-1.794,4-4,4V9.935l-3,3.033L8,16v-2
		c3.314,0,6-2.686,6-6C14,6.598,13.515,5.312,12.71,4.29z"/>
	<path fill="#888888" d="M8,4v2l3-3.032L8-0.065V2C4.686,2,2,4.686,2,8c0,1.402,0.485,2.688,1.29,3.71l1.43-1.43
		C4.269,9.632,4,8.848,4,8C4,5.794,5.794,4,8,4z"/>
</g>
</svg>
