<?xml version="1.0" encoding="utf-8"?>
<!-- Generator: Adobe Illustrator 17.0.0, SVG Export Plug-In . SVG Version: 6.00 Build 0)  -->
<!DOCTYPE svg PUBLIC "-//W3C//DTD SVG 1.1//EN" "http://www.w3.org/Graphics/SVG/1.1/DTD/svg11.dtd">
<svg version="1.1" id="图层_1" xmlns="http://www.w3.org/2000/svg" xmlns:xlink="http://www.w3.org/1999/xlink" x="0px" y="0px"
	 width="16px" height="16px" viewBox="0 0 16 16" enable-background="new 0 0 16 16" xml:space="preserve">
<path fill="#888888" d="M12,8c-2.209,0-4,1.791-4,4c0,2.209,1.791,4,4,4s4-1.791,4-4C16,9.791,14.209,8,12,8z M11.392,14.076
	l-1.778-1.778l0.707-0.707l1.07,1.07l2.422-2.422l0.707,0.707L11.392,14.076z"/>
<g>
	<path fill="#888888" d="M8.021,2C9.112,2,10,2.888,10,3.979c0,1.091-0.888,1.979-1.979,1.979S6.042,5.07,6.042,3.979
		C6.042,2.888,6.93,2,8.021,2 M8.021,0C5.823,0,4.042,1.782,4.042,3.979s1.782,3.979,3.979,3.979C10.218,7.958,12,6.177,12,3.979
		S10.218,0,8.021,0L8.021,0z"/>
</g>
<g>
	<path fill="#888888" d="M7.281,14H2v-1.717c0.513-0.434,2.285-1.109,4.973-1.252c0.144-0.749,0.455-1.433,0.886-2.028
		C3.506,9.031,0,10.361,0,12v4h8.832C8.164,15.471,7.618,14.795,7.281,14z"/>
</g>
</svg>
