<?xml version="1.0" encoding="utf-8"?>
<!-- Generator: Adobe Illustrator 17.0.0, SVG Export Plug-In . SVG Version: 6.00 Build 0)  -->
<!DOCTYPE svg PUBLIC "-//W3C//DTD SVG 1.1//EN" "http://www.w3.org/Graphics/SVG/1.1/DTD/svg11.dtd">
<svg version="1.1" id="图层_1" xmlns="http://www.w3.org/2000/svg" xmlns:xlink="http://www.w3.org/1999/xlink" x="0px" y="0px"
	 width="16px" height="16px" viewBox="0 0 16 16" enable-background="new 0 0 16 16" xml:space="preserve">
<path fill="#888888" d="M13.003,8c0-0.553-0.111-1.075-0.277-1.572l1.723-0.995l-1-1.732l-1.721,0.994
	C11.024,3.9,10.084,3.32,9.003,3.101V1h-2v2.101C5.923,3.32,4.983,3.9,4.278,4.694L2.557,3.701l-1,1.732L3.28,6.428
	C3.115,6.925,3.003,7.447,3.003,8S3.115,9.075,3.28,9.572l-1.723,0.995l1,1.732l1.721-0.994c0.705,0.794,1.645,1.374,2.725,1.594V15
	h2v-2.101c1.081-0.219,2.02-0.8,2.725-1.594l1.721,0.994l1-1.732l-1.723-0.995C12.892,9.075,13.003,8.553,13.003,8z M8.003,11
	c-1.657,0-3-1.343-3-3s1.343-3,3-3s3,1.343,3,3S9.66,11,8.003,11z"/>
</svg>
