<?xml version="1.0" encoding="utf-8"?>
<!-- Generator: Adobe Illustrator 16.0.0, SVG Export Plug-In . SVG Version: 6.00 Build 0)  -->
<!DOCTYPE svg PUBLIC "-//W3C//DTD SVG 1.1//EN" "http://www.w3.org/Graphics/SVG/1.1/DTD/svg11.dtd">
<svg version="1.1" id="图层_1" xmlns="http://www.w3.org/2000/svg" xmlns:xlink="http://www.w3.org/1999/xlink" x="0px" y="0px"
	 width="16px" height="16px" viewBox="0 0 16 16" enable-background="new 0 0 16 16" xml:space="preserve">
<path fill="#888888" d="M15.865,2.973L14,9.5c0,0.553-0.448,1-1,1c-0.241,0-0.759,0-1,0H6c-0.241,0-0.759,0-1,0
	c-0.553,0-1-0.447-1-1l-2-7v0H1c-0.553,0-1-0.448-1-1s0.447-1,1-1h2c0.553,0,0.925,0.587,1.075,1.413s1.654,6.642,1.654,6.642
	C5.817,8.529,5.904,8.5,6,8.5h6c0.096,0,0.183,0.029,0.27,0.055L13.714,3.5H8c-0.553,0-1-0.448-1-1s0.447-1,1-1h7
	c0.553,0,1,0.448,1,1C16,2.674,15.943,2.83,15.865,2.973z M5.5,12.5C6.328,12.5,7,13.172,7,14s-0.672,1.5-1.5,1.5S4,14.828,4,14
	S4.672,12.5,5.5,12.5z M12.5,12.5c0.828,0,1.5,0.672,1.5,1.5s-0.672,1.5-1.5,1.5S11,14.828,11,14S11.672,12.5,12.5,12.5z"/>
</svg>
