<?xml version="1.0" encoding="utf-8"?>
<!-- Generator: Adobe Illustrator 17.0.0, SVG Export Plug-In . SVG Version: 6.00 Build 0)  -->
<!DOCTYPE svg PUBLIC "-//W3C//DTD SVG 1.1//EN" "http://www.w3.org/Graphics/SVG/1.1/DTD/svg11.dtd">
<svg version="1.1" id="图层_1" xmlns="http://www.w3.org/2000/svg" xmlns:xlink="http://www.w3.org/1999/xlink" x="0px" y="0px"
	 width="16px" height="16px" viewBox="0 0 16 16" enable-background="new 0 0 16 16" xml:space="preserve">
<g>
	<polygon fill="#0ABF5B" points="10.586,5.211 7.042,8.79 5.299,7.048 3.885,8.462 7.042,11.619 8.456,10.205 12,6.625 	"/>
	<path fill="#0ABF5B" d="M8,1C4.134,1,1,4.134,1,8c0,3.866,3.134,7,7,7c3.866,0,7-3.134,7-7C15,4.134,11.866,1,8,1z M8,13
		c-2.757,0-5-2.243-5-5s2.243-5,5-5s5,2.243,5,5S10.757,13,8,13z"/>
</g>
</svg>
