<?xml version="1.0" encoding="utf-8"?>
<!-- Generator: Adobe Illustrator 17.0.0, SVG Export Plug-In . SVG Version: 6.00 Build 0)  -->
<!DOCTYPE svg PUBLIC "-//W3C//DTD SVG 1.1//EN" "http://www.w3.org/Graphics/SVG/1.1/DTD/svg11.dtd">
<svg version="1.1" id="图层_1" xmlns="http://www.w3.org/2000/svg" xmlns:xlink="http://www.w3.org/1999/xlink" x="0px" y="0px"
	 width="16px" height="16px" viewBox="0 0 16 16" enable-background="new 0 0 16 16" xml:space="preserve">
<g>
	<path fill="#888888" d="M5,2v3H2V2H5 M7,0H0v7h7V0L7,0z"/>
</g>
<g>
	<path fill="#888888" d="M13,2v3h-3V2H13 M15,0H8v7h7V0L15,0z"/>
</g>
<g>
	<path fill="#888888" d="M5,10v3H2v-3H5 M7,8H0v7h7V8L7,8z"/>
</g>
<g>
	<path fill="#888888" d="M13,10v3h-3v-3H13 M15,8H8v7h7V8L15,8z"/>
</g>
</svg>
